<svg xmlns="http://www.w3.org/2000/svg" viewBox="0 0 170.08 170.08"><defs><style>.cls-1{fill:#b64854;}.cls-2,.cls-3,.cls-5{fill:none;}.cls-2,.cls-3,.cls-5,.cls-6{stroke:#231f20;stroke-width:2px;}.cls-2,.cls-6{stroke-miterlimit:10;}.cls-3,.cls-5{stroke-linecap:round;stroke-linejoin:round;}.cls-4{fill:#231f20;}.cls-5{stroke-dasharray:0 7.26;}.cls-6{fill:#fff;}</style></defs><g id="adventurer"><rect class="cls-1" width="170.08" height="170.08"/><circle class="cls-2" cx="85.04" cy="85.04" r="36.55"/><line class="cls-3" x1="85.04" y1="48.49" x2="85.04" y2="29.97"/><polygon class="cls-4" points="91.17 34.94 90.08 35.97 85.04 30.55 80 35.97 78.91 34.94 85.04 28.35 91.17 34.94"/><line class="cls-3" x1="48.49" y1="85.04" x2="29.97" y2="85.04"/><polygon class="cls-4" points="34.94 78.91 35.97 80 30.55 85.04 35.97 90.07 34.94 91.17 28.35 85.04 34.94 78.91"/><line class="cls-3" x1="85.04" y1="121.59" x2="85.04" y2="140.11"/><polygon class="cls-4" points="78.91 135.13 80 134.11 85.04 139.53 90.07 134.11 91.17 135.13 85.04 141.73 78.91 135.13"/><line class="cls-3" x1="121.59" y1="85.04" x2="140.11" y2="85.04"/><polygon class="cls-4" points="135.13 91.17 134.11 90.08 139.53 85.04 134.11 80 135.13 78.91 141.73 85.04 135.13 91.17"/><line class="cls-3" x1="115.42" y1="54.66" x2="115.42" y2="54.66"/><line class="cls-5" x1="120.55" y1="49.53" x2="133.38" y2="36.7"/><line class="cls-3" x1="135.95" y1="34.13" x2="135.95" y2="34.13"/><line class="cls-3" x1="54.66" y1="54.66" x2="54.66" y2="54.66"/><line class="cls-5" x1="49.53" y1="49.53" x2="36.7" y2="36.7"/><line class="cls-3" x1="34.13" y1="34.13" x2="34.13" y2="34.13"/><line class="cls-3" x1="54.66" y1="115.42" x2="54.66" y2="115.42"/><line class="cls-5" x1="49.53" y1="120.55" x2="36.7" y2="133.38"/><line class="cls-3" x1="34.13" y1="135.95" x2="34.13" y2="135.95"/><line class="cls-3" x1="115.42" y1="115.42" x2="115.42" y2="115.42"/><line class="cls-5" x1="120.55" y1="120.55" x2="133.38" y2="133.38"/><line class="cls-3" x1="135.95" y1="135.95" x2="135.95" y2="135.95"/><polygon class="cls-3" points="92.33 85.04 85.04 99.57 77.78 85.06 77.78 85.04 85.04 70.53 92.3 85.04 92.33 85.04"/><line class="cls-6" x1="92.3" y1="85.04" x2="77.78" y2="85.06"/></g></svg>