<svg xmlns="http://www.w3.org/2000/svg" viewBox="0 0 163.78 151.42"><defs><style>.cls-1{fill:none;stroke:#000;stroke-miterlimit:10;stroke-width:2px;}</style></defs><g id="commitment"><rect class="cls-1" x="41.72" y="119.86" width="18.9" height="13.15" rx="6.57" transform="translate(-81.27 93.82) rotate(-54.13)"/><rect class="cls-1" x="51.3" y="125.6" width="23.83" height="13.02" rx="6.51" transform="translate(-80.88 105.93) rotate(-54.13)"/><rect class="cls-1" x="64.13" y="139.07" width="14.38" height="9.45" rx="4.73" transform="translate(-87 117.34) rotate(-54.13)"/><circle class="cls-1" cx="39.22" cy="119.82" r="6.57"/><path class="cls-1" d="M96.14,108.47l27.2,18.65a6.59,6.59,0,0,0,9.14-1.71h0a6.59,6.59,0,0,0-1.71-9.14L103.58,97.63c-3.12-2.14-6,.39-11.38-1.74s-7.14-5.43-7.46-8.83c-4.73-.06-15.21.18-15.21.18,0,6.11-8.09,11.4-13.48,11.15.13-6,.9-16.06.9-16.06L71,73.42"/><path class="cls-1" d="M115.43,121.69a7.55,7.55,0,0,1,1.95,10.48h0a7.56,7.56,0,0,1-10.48,2L87.62,120.91"/><path class="cls-1" d="M101.42,130.38a6.64,6.64,0,0,1,1.73,9.22h0a6.67,6.67,0,0,1-9.23,1.73L80.31,132"/><path class="cls-1" d="M75.12,147a7.68,7.68,0,0,0,10.65-2h0a7.69,7.69,0,0,0-2-10.65"/><path class="cls-1" d="M.51,94.37l19.1,13.1h0a5.49,5.49,0,0,0,7.6-1.41l20-29.12a5.49,5.49,0,0,0-1.41-7.6h0l-13-8.89"/><path class="cls-1" d="M163.28,95.2l-19.35,13.11h0a4.91,4.91,0,0,1-6.8-1.31L117.05,77.38a4.92,4.92,0,0,1,1.31-6.81h0L132,61.3"/><line class="cls-1" x1="116.21" y1="73.42" x2="48.12" y2="73.42"/><path class="cls-1" d="M29.45,102.78c2.32,1.8,7.53,8,7.6,10.84"/><rect class="cls-1" x="57.6" y="0.9" width="50.11" height="50.11"/><path class="cls-1" d="M67.1,27.8l9.12,9.13L97.45,15.7"/><rect x="21.01" y="97.09" width="3.55" height="3.55" transform="translate(-66.73 51.11) rotate(-48.94)"/><rect x="140.09" y="97.09" width="3.55" height="3.55" transform="translate(-30.94 92.71) rotate(-32.83)"/></g></svg>