<svg xmlns="http://www.w3.org/2000/svg" viewBox="0 0 170.08 170.08"><defs><style>.cls-1{fill:#a84d95;}.cls-2{fill:none;stroke:#231f20;stroke-miterlimit:10;stroke-width:2px;}</style></defs><g id="entertainer"><rect class="cls-1" width="170.08" height="170.08"/><path class="cls-2" d="M28.35,140.23c0-7.17,5.86-7.82,9.45-7.82s10.42.65,10.42-8.14"/><path class="cls-2" d="M85,140.23c0-7.17-5.87-7.82-9.45-7.82s-10.43.65-10.43-8.14"/><ellipse class="cls-2" cx="56.69" cy="109.05" rx="13.03" ry="18.73"/><path class="cls-2" d="M141.73,140.23c0-7.17-5.86-7.82-9.45-7.82s-10.42.65-10.42-8.14"/><path class="cls-2" d="M85,140.23c0-7.17,5.86-7.82,9.45-7.82s10.42.65,10.42-8.14"/><ellipse class="cls-2" cx="113.39" cy="109.05" rx="13.03" ry="18.73"/><polygon class="cls-2" points="90.38 37.42 90.38 29.85 44.52 29.85 44.52 59.34 72.66 59.34 66.84 76.25 79.77 66.96 79.77 37.42 90.38 37.42"/><line class="cls-2" x1="52.37" y1="37.42" x2="83.89" y2="37.42"/><line class="cls-2" x1="52.37" y1="44.46" x2="79.7" y2="44.46"/><line class="cls-2" x1="52.37" y1="51.49" x2="79.7" y2="51.49"/><polygon class="cls-2" points="79.7 66.91 103.23 83.82 97.42 66.91 125.55 66.91 125.55 37.42 79.7 37.42 79.7 66.91"/><line class="cls-2" x1="117.71" y1="45" x2="86.19" y2="45"/><line class="cls-2" x1="117.71" y1="52.03" x2="86.19" y2="52.03"/><line class="cls-2" x1="117.71" y1="59.07" x2="86.19" y2="59.07"/></g></svg>