<svg xmlns="http://www.w3.org/2000/svg" viewBox="0 0 170.08 170.08"><defs><style>.cls-1{fill:#59a81a;}.cls-2,.cls-3{fill:none;stroke:#231f20;stroke-width:2px;}.cls-2{stroke-miterlimit:10;}.cls-3{stroke-linejoin:round;}</style></defs><g id="logistician"><rect class="cls-1" width="170.08" height="170.08"/><rect class="cls-2" x="28.35" y="33.58" width="78.88" height="108.46"/><rect class="cls-2" x="41.88" y="52.69" width="12.88" height="12.88"/><rect class="cls-2" x="41.88" y="73.36" width="12.88" height="12.88"/><rect class="cls-2" x="41.88" y="94.04" width="12.88" height="12.88"/><rect class="cls-2" x="41.88" y="114.71" width="12.88" height="12.88"/><line class="cls-2" x1="61.56" y1="59.13" x2="93.67" y2="59.13"/><line class="cls-2" x1="61.56" y1="79.8" x2="93.67" y2="79.8"/><line class="cls-2" x1="61.56" y1="100.48" x2="93.67" y2="100.48"/><line class="cls-2" x1="61.56" y1="121.15" x2="93.67" y2="121.15"/><rect class="cls-2" x="48.5" y="28.04" width="38.57" height="11.71"/><line class="cls-2" x1="54.75" y1="52.69" x2="41.88" y2="65.57"/><line class="cls-2" x1="41.88" y1="52.69" x2="54.75" y2="65.57"/><line class="cls-2" x1="54.75" y1="73.36" x2="41.88" y2="86.24"/><line class="cls-2" x1="41.88" y1="73.36" x2="54.75" y2="86.24"/><path class="cls-3" d="M125.4,128V36.2A8.19,8.19,0,0,1,133.57,28h0a8.18,8.18,0,0,1,8.16,8.16V128l-8.16,14Z"/><line class="cls-3" x1="125.4" y1="39.75" x2="141.73" y2="39.75"/><line class="cls-3" x1="125.4" y1="47.45" x2="141.73" y2="47.45"/><line class="cls-3" x1="133.57" y1="47.45" x2="133.57" y2="127.59"/><line class="cls-3" x1="125.4" y1="128.02" x2="141.73" y2="128.02"/></g></svg>