<svg id="logician" xmlns="http://www.w3.org/2000/svg" viewBox="0 0 170.08 170.08"><defs><style>.cls-1{fill:#f7ae71;}.cls-2,.cls-3{fill:none;stroke:#231f20;stroke-width:2px;}.cls-2{stroke-miterlimit:10;}.cls-3{stroke-linejoin:round;}</style></defs><rect class="cls-1" width="170.08" height="170.08"/><circle class="cls-2" cx="85.04" cy="85.04" r="7.94"/><circle class="cls-2" cx="63.55" cy="31.18" r="5.67"/><circle class="cls-2" cx="31.23" cy="63.76" r="5.67"/><line class="cls-2" x1="63.55" y1="36.85" x2="63.55" y2="58.09"/><line class="cls-2" x1="57.89" y1="63.76" x2="36.9" y2="63.76"/><circle class="cls-2" cx="63.55" cy="63.76" r="5.67"/><circle class="cls-2" cx="106.52" cy="138.9" r="5.67"/><circle class="cls-2" cx="138.85" cy="106.32" r="5.67"/><line class="cls-2" x1="106.52" y1="133.23" x2="106.52" y2="111.99"/><line class="cls-2" x1="112.19" y1="106.32" x2="133.18" y2="106.32"/><circle class="cls-2" cx="106.52" cy="106.32" r="5.67"/><line class="cls-2" x1="79.43" y1="79.43" x2="67.56" y2="67.76"/><line class="cls-2" x1="90.65" y1="90.65" x2="102.52" y2="102.32"/><circle class="cls-2" cx="41.16" cy="93.57" r="5.67"/><circle class="cls-2" cx="31.23" cy="117.62" r="5.67"/><circle class="cls-2" cx="63.76" cy="126.12" r="5.67"/><circle class="cls-2" cx="63.76" cy="106.52" r="5.67"/><line class="cls-2" x1="79.43" y1="90.65" x2="67.76" y2="102.52"/><line class="cls-2" x1="63.76" y1="120.45" x2="63.76" y2="112.19"/><line class="cls-3" x1="58.84" y1="103.7" x2="46.07" y2="96.39"/><line class="cls-3" x1="36.59" y1="115.79" x2="58.39" y2="108.35"/><circle class="cls-2" cx="128.92" cy="76.51" r="5.67"/><circle class="cls-2" cx="138.85" cy="52.45" r="5.67"/><circle class="cls-2" cx="106.32" cy="43.96" r="5.67"/><circle class="cls-2" cx="106.32" cy="63.55" r="5.67"/><line class="cls-2" x1="90.65" y1="79.43" x2="102.32" y2="67.56"/><line class="cls-2" x1="106.32" y1="49.63" x2="106.32" y2="57.89"/><line class="cls-3" x1="111.24" y1="66.37" x2="124.01" y2="73.69"/><line class="cls-3" x1="133.49" y1="54.28" x2="111.69" y2="61.73"/></svg>