<svg xmlns="http://www.w3.org/2000/svg" viewBox="0 0 1280 316.61"><defs><style>.cls-1{isolation:isolate;}.cls-2{mix-blend-mode:multiply;opacity:0.25;}.cls-3{fill:#fff;}.cls-4{fill:#fcfcfc;}.cls-5{fill:#fafafa;}.cls-6{fill:#f7f7f7;}.cls-7{fill:#f5f5f5;}.cls-8{fill:#f2f2f2;}.cls-9{fill:#f0f0f0;}.cls-10{fill:#ededed;}.cls-11{fill:#ebebeb;}.cls-12{fill:#e8e8e8;}.cls-13{fill:#e6e6e6;}.cls-14{fill:#e3e3e3;}.cls-15{fill:#e1e1e1;}.cls-16{fill:#dedede;}.cls-17{fill:#dcdcdc;}.cls-18{fill:#d9d9d9;}.cls-19{fill:#d7d7d7;}.cls-20{fill:#d4d4d4;}.cls-21{fill:#d2d2d2;}.cls-22{fill:#cfcfcf;}.cls-23{fill:#cdcdcd;}.cls-24{fill:#cacaca;}.cls-25{fill:#c7c7c7;}.cls-26{fill:#c5c5c5;}.cls-27{fill:#c2c2c2;}.cls-28{fill:silver;}.cls-29{fill:#bdbdbd;}.cls-30{fill:#bbb;}.cls-31{fill:#b8b8b8;}.cls-32{fill:#b6b6b6;}.cls-33{fill:#b3b3b3;}.cls-34{fill:#b1b1b1;}.cls-35{fill:#aeaeae;}.cls-36{fill:#acacac;}.cls-37{fill:#a9a9a9;}.cls-38{fill:#a7a7a7;}.cls-39{fill:#a4a4a4;}.cls-40{fill:#a2a2a2;}.cls-41{fill:#9f9f9f;}.cls-42{fill:#9d9d9d;}.cls-43{fill:#9a9a9a;}.cls-44{fill:#979797;}.cls-45{fill:#959595;}.cls-46{fill:#929292;}.cls-47{fill:#909090;}.cls-48{fill:#8d8d8d;}.cls-49{fill:#8b8b8b;}.cls-50{fill:#888;}.cls-51{fill:#868686;}.cls-52{fill:#838383;}.cls-53{fill:#818181;}.cls-54{fill:#7e7e7e;}.cls-55{fill:#7c7c7c;}.cls-56{fill:#797979;}.cls-57{fill:#777;}.cls-58{fill:#747474;}.cls-59{fill:#727272;}.cls-60{fill:#6f6f6f;}.cls-61{fill:#6d6d6d;}.cls-62{fill:#6a6a6a;}.cls-63{fill:#686868;}.cls-64{fill:#656565;}.cls-65{fill:#626262;}.cls-66{fill:#606060;}.cls-67{fill:#5d5d5d;}.cls-68{fill:#5b5b5b;}.cls-69{fill:#585858;}.cls-70{fill:#565656;}.cls-71{fill:#535353;}.cls-72{fill:#515151;}.cls-73{fill:#4e4e4e;}.cls-74{fill:#4c4c4c;}.cls-75{fill:#494949;}.cls-76{fill:#474747;}.cls-77{fill:#444;}.cls-78{fill:#424242;}.cls-79{fill:#3f3f3f;}.cls-80{fill:#3d3d3d;}.cls-81{fill:#3a3a3a;}.cls-82{fill:#383838;}.cls-83{fill:#353535;}.cls-84{fill:#323232;}.cls-85{fill:#303030;}.cls-86{fill:#2d2d2d;}.cls-87{fill:#2b2b2b;}.cls-88{fill:#282828;}.cls-89{fill:#262626;}.cls-90{fill:#232323;}.cls-91{fill:#212121;}.cls-92{fill:#1e1e1e;}.cls-93{fill:#1c1c1c;}.cls-94{fill:#191919;}.cls-95{fill:#171717;}.cls-96{fill:#141414;}.cls-97{fill:#121212;}.cls-98{fill:#0f0f0f;}.cls-99{fill:#0d0d0d;}.cls-100{fill:#0a0a0a;}.cls-101{fill:#080808;}.cls-102{fill:#050505;}.cls-103{fill:#030303;}.cls-104{fill:#56b36b;}.cls-105{fill:#333;}.cls-106{fill:#991600;}</style></defs><g class="cls-1"><g id="Layer_1" data-name="Layer 1"><g class="cls-2"><circle class="cls-3" cx="357.65" cy="169.46" r="84.17"/><circle class="cls-3" cx="837.64" cy="169.46" r="84.17"/><circle class="cls-3" cx="597.27" cy="220.48" r="84.17"/><circle class="cls-3" cx="1080.15" cy="220.48" r="84.17"/><circle class="cls-4" cx="356.92" cy="168.72" r="84.17"/><circle class="cls-4" cx="836.91" cy="168.72" r="84.17"/><circle class="cls-4" cx="596.54" cy="219.73" r="84.17"/><circle class="cls-4" cx="1079.42" cy="219.73" r="84.17"/><circle class="cls-5" cx="356.19" cy="167.97" r="84.17"/><circle class="cls-5" cx="836.18" cy="167.97" r="84.17"/><circle class="cls-5" cx="595.81" cy="218.98" r="84.17"/><circle class="cls-5" cx="1078.69" cy="218.98" r="84.17"/><circle class="cls-6" cx="355.46" cy="167.22" r="84.17"/><circle class="cls-6" cx="835.44" cy="167.22" r="84.17"/><circle class="cls-6" cx="595.08" cy="218.23" r="84.17"/><circle class="cls-6" cx="1077.96" cy="218.23" r="84.17"/><circle class="cls-7" cx="354.72" cy="166.47" r="84.17"/><circle class="cls-7" cx="834.71" cy="166.47" r="84.17"/><circle class="cls-7" cx="594.35" cy="217.49" r="84.17"/><circle class="cls-7" cx="1077.23" cy="217.49" r="84.17"/><circle class="cls-8" cx="353.99" cy="165.72" r="84.17"/><circle class="cls-8" cx="833.98" cy="165.72" r="84.17"/><circle class="cls-8" cx="593.62" cy="216.74" r="84.17"/><circle class="cls-8" cx="1076.5" cy="216.74" r="84.17"/><circle class="cls-9" cx="353.26" cy="164.97" r="84.17"/><circle class="cls-9" cx="833.25" cy="164.97" r="84.17"/><circle class="cls-9" cx="592.89" cy="215.99" r="84.17"/><circle class="cls-9" cx="1075.77" cy="215.99" r="84.17"/><circle class="cls-10" cx="352.53" cy="164.22" r="84.17"/><circle class="cls-10" cx="832.52" cy="164.22" r="84.17"/><circle class="cls-10" cx="592.16" cy="215.24" r="84.17"/><circle class="cls-10" cx="1075.04" cy="215.24" r="84.17"/><circle class="cls-11" cx="351.8" cy="163.48" r="84.17"/><circle class="cls-11" cx="831.79" cy="163.48" r="84.17"/><circle class="cls-11" cx="591.43" cy="214.49" r="84.17"/><circle class="cls-11" cx="1074.31" cy="214.49" r="84.17"/><circle class="cls-12" cx="351.07" cy="162.73" r="84.17"/><circle class="cls-12" cx="831.06" cy="162.73" r="84.17"/><circle class="cls-12" cx="590.7" cy="213.74" r="84.17"/><circle class="cls-12" cx="1073.58" cy="213.74" r="84.17"/><circle class="cls-13" cx="350.34" cy="161.98" r="84.17"/><circle class="cls-13" cx="830.33" cy="161.98" r="84.17"/><circle class="cls-13" cx="589.97" cy="212.99" r="84.17"/><circle class="cls-13" cx="1072.85" cy="212.99" r="84.17"/><circle class="cls-14" cx="349.61" cy="161.23" r="84.17"/><circle class="cls-14" cx="829.6" cy="161.23" r="84.17"/><circle class="cls-14" cx="589.24" cy="212.25" r="84.17"/><circle class="cls-14" cx="1072.12" cy="212.25" r="84.17"/><circle class="cls-15" cx="348.88" cy="160.48" r="84.17"/><circle class="cls-15" cx="828.87" cy="160.48" r="84.17"/><circle class="cls-15" cx="588.51" cy="211.5" r="84.17"/><circle class="cls-15" cx="1071.39" cy="211.5" r="84.17"/><circle class="cls-16" cx="348.15" cy="159.73" r="84.17"/><circle class="cls-16" cx="828.14" cy="159.73" r="84.17"/><circle class="cls-16" cx="587.78" cy="210.75" r="84.17"/><circle class="cls-16" cx="1070.66" cy="210.75" r="84.17"/><circle class="cls-17" cx="347.42" cy="158.98" r="84.17"/><circle class="cls-17" cx="827.41" cy="158.98" r="84.17"/><circle class="cls-17" cx="587.04" cy="210" r="84.17"/><circle class="cls-17" cx="1069.92" cy="210" r="84.17"/><circle class="cls-18" cx="346.69" cy="158.24" r="84.17"/><circle class="cls-18" cx="826.68" cy="158.24" r="84.17"/><circle class="cls-18" cx="586.31" cy="209.25" r="84.17"/><circle class="cls-18" cx="1069.19" cy="209.25" r="84.17"/><circle class="cls-19" cx="345.96" cy="157.49" r="84.17"/><circle class="cls-19" cx="825.95" cy="157.49" r="84.17"/><circle class="cls-19" cx="585.58" cy="208.5" r="84.17"/><circle class="cls-19" cx="1068.46" cy="208.5" r="84.17"/><circle class="cls-20" cx="345.23" cy="156.74" r="84.17"/><circle class="cls-20" cx="825.21" cy="156.74" r="84.17"/><circle class="cls-20" cx="584.85" cy="207.75" r="84.17"/><circle class="cls-20" cx="1067.73" cy="207.75" r="84.17"/><circle class="cls-21" cx="344.5" cy="155.99" r="84.17"/><circle class="cls-21" cx="824.48" cy="155.99" r="84.17"/><circle class="cls-21" cx="584.12" cy="207.01" r="84.17"/><circle class="cls-21" cx="1067" cy="207.01" r="84.17"/><circle class="cls-22" cx="343.76" cy="155.24" r="84.17"/><circle class="cls-22" cx="823.75" cy="155.24" r="84.17"/><circle class="cls-22" cx="583.39" cy="206.26" r="84.17"/><circle class="cls-22" cx="1066.27" cy="206.26" r="84.17"/><circle class="cls-23" cx="343.03" cy="154.49" r="84.17"/><circle class="cls-23" cx="823.02" cy="154.49" r="84.17"/><circle class="cls-23" cx="582.66" cy="205.51" r="84.17"/><circle class="cls-23" cx="1065.54" cy="205.51" r="84.17"/><circle class="cls-24" cx="342.3" cy="153.74" r="84.17"/><circle class="cls-24" cx="822.29" cy="153.74" r="84.17"/><circle class="cls-24" cx="581.93" cy="204.76" r="84.17"/><circle class="cls-24" cx="1064.81" cy="204.76" r="84.17"/><circle class="cls-25" cx="341.57" cy="153" r="84.17"/><circle class="cls-25" cx="821.56" cy="153" r="84.17"/><circle class="cls-25" cx="581.2" cy="204.01" r="84.17"/><circle class="cls-25" cx="1064.08" cy="204.01" r="84.17"/><circle class="cls-26" cx="340.84" cy="152.25" r="84.17"/><circle class="cls-26" cx="820.83" cy="152.25" r="84.17"/><circle class="cls-26" cx="580.47" cy="203.26" r="84.17"/><circle class="cls-26" cx="1063.35" cy="203.26" r="84.17"/><circle class="cls-27" cx="340.11" cy="151.5" r="84.17"/><circle class="cls-27" cx="820.1" cy="151.5" r="84.17"/><circle class="cls-27" cx="579.74" cy="202.52" r="84.17"/><circle class="cls-27" cx="1062.62" cy="202.52" r="84.17"/><circle class="cls-28" cx="339.38" cy="150.75" r="84.17"/><circle class="cls-28" cx="819.37" cy="150.75" r="84.17"/><circle class="cls-28" cx="579.01" cy="201.77" r="84.17"/><circle class="cls-28" cx="1061.89" cy="201.77" r="84.17"/><circle class="cls-29" cx="338.65" cy="150" r="84.17"/><circle class="cls-29" cx="818.64" cy="150" r="84.17"/><circle class="cls-29" cx="578.28" cy="201.02" r="84.17"/><circle class="cls-29" cx="1061.16" cy="201.02" r="84.17"/><circle class="cls-30" cx="337.92" cy="149.25" r="84.17"/><circle class="cls-30" cx="817.91" cy="149.25" r="84.17"/><circle class="cls-30" cx="577.55" cy="200.27" r="84.17"/><circle class="cls-30" cx="1060.43" cy="200.27" r="84.17"/><circle class="cls-31" cx="337.19" cy="148.51" r="84.17"/><circle class="cls-31" cx="817.18" cy="148.51" r="84.17"/><circle class="cls-31" cx="576.81" cy="199.52" r="84.17"/><circle class="cls-31" cx="1059.69" cy="199.52" r="84.17"/><circle class="cls-32" cx="336.46" cy="147.76" r="84.17"/><circle class="cls-32" cx="816.45" cy="147.76" r="84.17"/><circle class="cls-32" cx="576.08" cy="198.77" r="84.17"/><circle class="cls-32" cx="1058.96" cy="198.77" r="84.17"/><circle class="cls-33" cx="335.73" cy="147.01" r="84.17"/><circle class="cls-33" cx="815.72" cy="147.01" r="84.17"/><circle class="cls-33" cx="575.35" cy="198.02" r="84.17"/><circle class="cls-33" cx="1058.23" cy="198.02" r="84.17"/><circle class="cls-34" cx="335" cy="146.26" r="84.17"/><circle class="cls-34" cx="814.99" cy="146.26" r="84.17"/><circle class="cls-34" cx="574.62" cy="197.28" r="84.17"/><circle class="cls-34" cx="1057.5" cy="197.28" r="84.17"/><circle class="cls-35" cx="334.27" cy="145.51" r="84.17"/><circle class="cls-35" cx="814.25" cy="145.51" r="84.17"/><circle class="cls-35" cx="573.89" cy="196.53" r="84.17"/><circle class="cls-35" cx="1056.77" cy="196.53" r="84.17"/><circle class="cls-36" cx="333.53" cy="144.76" r="84.17"/><circle class="cls-36" cx="813.52" cy="144.76" r="84.17"/><circle class="cls-36" cx="573.16" cy="195.78" r="84.17"/><circle class="cls-36" cx="1056.04" cy="195.78" r="84.17"/><circle class="cls-37" cx="332.8" cy="144.01" r="84.17"/><circle class="cls-37" cx="812.79" cy="144.01" r="84.17"/><circle class="cls-37" cx="572.43" cy="195.03" r="84.17"/><circle class="cls-37" cx="1055.31" cy="195.03" r="84.17"/><circle class="cls-38" cx="332.07" cy="143.27" r="84.17"/><circle class="cls-38" cx="812.06" cy="143.27" r="84.17"/><circle class="cls-38" cx="571.7" cy="194.28" r="84.17"/><circle class="cls-38" cx="1054.58" cy="194.28" r="84.17"/><circle class="cls-39" cx="331.34" cy="142.52" r="84.17"/><circle class="cls-39" cx="811.33" cy="142.52" r="84.17"/><circle class="cls-39" cx="570.97" cy="193.53" r="84.17"/><circle class="cls-39" cx="1053.85" cy="193.53" r="84.17"/><circle class="cls-40" cx="330.61" cy="141.77" r="84.17"/><circle class="cls-40" cx="810.6" cy="141.77" r="84.17"/><circle class="cls-40" cx="570.24" cy="192.78" r="84.17"/><circle class="cls-40" cx="1053.12" cy="192.78" r="84.17"/><circle class="cls-41" cx="329.88" cy="141.02" r="84.17"/><circle class="cls-41" cx="809.87" cy="141.02" r="84.17"/><circle class="cls-41" cx="569.51" cy="192.04" r="84.17"/><circle class="cls-41" cx="1052.39" cy="192.04" r="84.17"/><circle class="cls-42" cx="329.15" cy="140.27" r="84.17"/><circle class="cls-42" cx="809.14" cy="140.27" r="84.17"/><circle class="cls-42" cx="568.78" cy="191.29" r="84.17"/><circle class="cls-42" cx="1051.66" cy="191.29" r="84.17"/><circle class="cls-43" cx="328.42" cy="139.52" r="84.17"/><circle class="cls-43" cx="808.41" cy="139.52" r="84.17"/><circle class="cls-43" cx="568.05" cy="190.54" r="84.17"/><circle class="cls-43" cx="1050.93" cy="190.54" r="84.17"/><circle class="cls-44" cx="327.69" cy="138.77" r="84.17"/><circle class="cls-44" cx="807.68" cy="138.77" r="84.17"/><circle class="cls-44" cx="567.32" cy="189.79" r="84.17"/><circle class="cls-44" cx="1050.2" cy="189.79" r="84.17"/><circle class="cls-45" cx="326.96" cy="138.03" r="84.17"/><circle class="cls-45" cx="806.95" cy="138.03" r="84.17"/><circle class="cls-45" cx="566.59" cy="189.04" r="84.17"/><circle class="cls-45" cx="1049.47" cy="189.04" r="84.17"/><circle class="cls-46" cx="326.23" cy="137.28" r="84.17"/><circle class="cls-46" cx="806.22" cy="137.28" r="84.17"/><circle class="cls-46" cx="565.85" cy="188.29" r="84.17"/><circle class="cls-46" cx="1048.73" cy="188.29" r="84.17"/><circle class="cls-47" cx="325.5" cy="136.53" r="84.17"/><circle class="cls-47" cx="805.49" cy="136.53" r="84.17"/><circle class="cls-47" cx="565.12" cy="187.55" r="84.17"/><circle class="cls-47" cx="1048" cy="187.55" r="84.17"/><circle class="cls-48" cx="324.77" cy="135.78" r="84.17"/><circle class="cls-48" cx="804.76" cy="135.78" r="84.17"/><circle class="cls-48" cx="564.39" cy="186.8" r="84.17"/><circle class="cls-48" cx="1047.27" cy="186.8" r="84.17"/><circle class="cls-49" cx="324.04" cy="135.03" r="84.17"/><circle class="cls-49" cx="804.02" cy="135.03" r="84.17"/><circle class="cls-49" cx="563.66" cy="186.05" r="84.17"/><circle class="cls-49" cx="1046.54" cy="186.05" r="84.17"/><circle class="cls-50" cx="323.31" cy="134.28" r="84.17"/><circle class="cls-50" cx="803.29" cy="134.28" r="84.17"/><circle class="cls-50" cx="562.93" cy="185.3" r="84.17"/><circle class="cls-50" cx="1045.81" cy="185.3" r="84.17"/><circle class="cls-51" cx="322.57" cy="133.53" r="84.17"/><circle class="cls-51" cx="802.56" cy="133.53" r="84.17"/><circle class="cls-51" cx="562.2" cy="184.55" r="84.17"/><circle class="cls-51" cx="1045.08" cy="184.55" r="84.17"/><circle class="cls-52" cx="321.84" cy="132.79" r="84.17"/><circle class="cls-52" cx="801.83" cy="132.79" r="84.17"/><circle class="cls-52" cx="561.47" cy="183.8" r="84.17"/><circle class="cls-52" cx="1044.35" cy="183.8" r="84.17"/><circle class="cls-53" cx="321.11" cy="132.04" r="84.17"/><circle class="cls-53" cx="801.1" cy="132.04" r="84.17"/><circle class="cls-53" cx="560.74" cy="183.05" r="84.17"/><circle class="cls-53" cx="1043.62" cy="183.05" r="84.17"/><circle class="cls-54" cx="320.38" cy="131.29" r="84.17"/><circle class="cls-54" cx="800.37" cy="131.29" r="84.17"/><circle class="cls-54" cx="560.01" cy="182.31" r="84.17"/><circle class="cls-54" cx="1042.89" cy="182.31" r="84.17"/><circle class="cls-55" cx="319.65" cy="130.54" r="84.17"/><circle class="cls-55" cx="799.64" cy="130.54" r="84.17"/><circle class="cls-55" cx="559.28" cy="181.56" r="84.17"/><circle class="cls-55" cx="1042.16" cy="181.56" r="84.17"/><circle class="cls-56" cx="318.92" cy="129.79" r="84.17"/><circle class="cls-56" cx="798.91" cy="129.79" r="84.17"/><circle class="cls-56" cx="558.55" cy="180.81" r="84.17"/><circle class="cls-56" cx="1041.43" cy="180.81" r="84.17"/><circle class="cls-57" cx="318.19" cy="129.04" r="84.17"/><circle class="cls-57" cx="798.18" cy="129.04" r="84.17"/><circle class="cls-57" cx="557.82" cy="180.06" r="84.17"/><circle class="cls-57" cx="1040.7" cy="180.06" r="84.17"/><circle class="cls-58" cx="317.46" cy="128.3" r="84.17"/><circle class="cls-58" cx="797.45" cy="128.3" r="84.17"/><circle class="cls-58" cx="557.09" cy="179.31" r="84.17"/><circle class="cls-58" cx="1039.97" cy="179.31" r="84.17"/><circle class="cls-59" cx="316.73" cy="127.55" r="84.17"/><circle class="cls-59" cx="796.72" cy="127.55" r="84.17"/><circle class="cls-59" cx="556.36" cy="178.56" r="84.17"/><circle class="cls-59" cx="1039.24" cy="178.56" r="84.17"/><circle class="cls-60" cx="316" cy="126.8" r="84.17"/><circle class="cls-60" cx="795.99" cy="126.8" r="84.17"/><circle class="cls-60" cx="555.62" cy="177.81" r="84.17"/><circle class="cls-60" cx="1038.5" cy="177.81" r="84.17"/><circle class="cls-61" cx="315.27" cy="126.05" r="84.17"/><circle class="cls-61" cx="795.26" cy="126.05" r="84.17"/><circle class="cls-61" cx="554.89" cy="177.07" r="84.17"/><circle class="cls-61" cx="1037.77" cy="177.07" r="84.17"/><circle class="cls-62" cx="314.54" cy="125.3" r="84.17"/><circle class="cls-62" cx="794.53" cy="125.3" r="84.17"/><circle class="cls-62" cx="554.16" cy="176.32" r="84.17"/><circle class="cls-62" cx="1037.04" cy="176.32" r="84.17"/><circle class="cls-63" cx="313.81" cy="124.55" r="84.17"/><circle class="cls-63" cx="793.8" cy="124.55" r="84.17"/><circle class="cls-63" cx="553.43" cy="175.57" r="84.17"/><circle class="cls-63" cx="1036.31" cy="175.57" r="84.17"/><circle class="cls-64" cx="313.08" cy="123.8" r="84.17"/><circle class="cls-64" cx="793.06" cy="123.8" r="84.17"/><circle class="cls-64" cx="552.7" cy="174.82" r="84.17"/><circle class="cls-64" cx="1035.58" cy="174.82" r="84.17"/><circle class="cls-65" cx="312.34" cy="123.06" r="84.17"/><circle class="cls-65" cx="792.33" cy="123.06" r="84.17"/><circle class="cls-65" cx="551.97" cy="174.07" r="84.17"/><circle class="cls-65" cx="1034.85" cy="174.07" r="84.17"/><circle class="cls-66" cx="311.61" cy="122.31" r="84.17"/><circle class="cls-66" cx="791.6" cy="122.31" r="84.17"/><circle class="cls-66" cx="551.24" cy="173.32" r="84.17"/><circle class="cls-66" cx="1034.12" cy="173.32" r="84.17"/><circle class="cls-67" cx="310.88" cy="121.56" r="84.17"/><circle class="cls-67" cx="790.87" cy="121.56" r="84.17"/><circle class="cls-67" cx="550.51" cy="172.57" r="84.17"/><circle class="cls-67" cx="1033.39" cy="172.57" r="84.17"/><circle class="cls-68" cx="310.15" cy="120.81" r="84.17"/><circle class="cls-68" cx="790.14" cy="120.81" r="84.17"/><circle class="cls-68" cx="549.78" cy="171.83" r="84.17"/><circle class="cls-68" cx="1032.66" cy="171.83" r="84.17"/><circle class="cls-69" cx="309.42" cy="120.06" r="84.17"/><circle class="cls-69" cx="789.41" cy="120.06" r="84.17"/><circle class="cls-69" cx="549.05" cy="171.08" r="84.17"/><circle class="cls-69" cx="1031.93" cy="171.08" r="84.17"/><circle class="cls-70" cx="308.69" cy="119.31" r="84.17"/><circle class="cls-70" cx="788.68" cy="119.31" r="84.17"/><circle class="cls-70" cx="548.32" cy="170.33" r="84.17"/><circle class="cls-70" cx="1031.2" cy="170.33" r="84.17"/><circle class="cls-71" cx="307.96" cy="118.56" r="84.17"/><circle class="cls-71" cx="787.95" cy="118.56" r="84.17"/><circle class="cls-71" cx="547.59" cy="169.58" r="84.17"/><circle class="cls-71" cx="1030.47" cy="169.58" r="84.17"/><circle class="cls-72" cx="307.23" cy="117.82" r="84.17"/><circle class="cls-72" cx="787.22" cy="117.82" r="84.17"/><circle class="cls-72" cx="546.86" cy="168.83" r="84.17"/><circle class="cls-72" cx="1029.74" cy="168.83" r="84.17"/><circle class="cls-73" cx="306.5" cy="117.07" r="84.17"/><circle class="cls-73" cx="786.49" cy="117.07" r="84.17"/><circle class="cls-73" cx="546.13" cy="168.08" r="84.17"/><circle class="cls-73" cx="1029.01" cy="168.08" r="84.17"/><circle class="cls-74" cx="305.77" cy="116.32" r="84.17"/><circle class="cls-74" cx="785.76" cy="116.32" r="84.17"/><circle class="cls-74" cx="545.4" cy="167.34" r="84.17"/><circle class="cls-74" cx="1028.28" cy="167.34" r="84.17"/><circle class="cls-75" cx="305.04" cy="115.57" r="84.17"/><circle class="cls-75" cx="785.03" cy="115.57" r="84.17"/><circle class="cls-75" cx="544.66" cy="166.59" r="84.17"/><circle class="cls-75" cx="1027.54" cy="166.59" r="84.17"/><circle class="cls-76" cx="304.31" cy="114.82" r="84.17"/><circle class="cls-76" cx="784.3" cy="114.82" r="84.17"/><circle class="cls-76" cx="543.93" cy="165.84" r="84.17"/><circle class="cls-76" cx="1026.81" cy="165.84" r="84.17"/><circle class="cls-77" cx="303.58" cy="114.07" r="84.17"/><circle class="cls-77" cx="783.57" cy="114.07" r="84.17"/><circle class="cls-77" cx="543.2" cy="165.09" r="84.17"/><circle class="cls-77" cx="1026.08" cy="165.09" r="84.17"/><circle class="cls-78" cx="302.85" cy="113.32" r="84.17"/><circle class="cls-78" cx="782.83" cy="113.32" r="84.17"/><circle class="cls-78" cx="542.47" cy="164.34" r="84.17"/><circle class="cls-78" cx="1025.35" cy="164.34" r="84.17"/><circle class="cls-79" cx="302.11" cy="112.58" r="84.17"/><circle class="cls-79" cx="782.1" cy="112.58" r="84.17"/><circle class="cls-79" cx="541.74" cy="163.59" r="84.17"/><circle class="cls-79" cx="1024.62" cy="163.59" r="84.17"/><circle class="cls-80" cx="301.38" cy="111.83" r="84.17"/><circle class="cls-80" cx="781.37" cy="111.83" r="84.17"/><circle class="cls-80" cx="541.01" cy="162.84" r="84.17"/><circle class="cls-80" cx="1023.89" cy="162.84" r="84.17"/><circle class="cls-81" cx="300.65" cy="111.08" r="84.17"/><circle class="cls-81" cx="780.64" cy="111.08" r="84.17"/><circle class="cls-81" cx="540.28" cy="162.1" r="84.17"/><circle class="cls-81" cx="1023.16" cy="162.1" r="84.17"/><circle class="cls-82" cx="299.92" cy="110.33" r="84.17"/><circle class="cls-82" cx="779.91" cy="110.33" r="84.17"/><circle class="cls-82" cx="539.55" cy="161.35" r="84.17"/><circle class="cls-82" cx="1022.43" cy="161.35" r="84.17"/><circle class="cls-83" cx="299.19" cy="109.58" r="84.17"/><circle class="cls-83" cx="779.18" cy="109.58" r="84.17"/><circle class="cls-83" cx="538.82" cy="160.6" r="84.17"/><circle class="cls-83" cx="1021.7" cy="160.6" r="84.17"/><circle class="cls-84" cx="298.46" cy="108.83" r="84.17"/><circle class="cls-84" cx="778.45" cy="108.83" r="84.17"/><circle class="cls-84" cx="538.09" cy="159.85" r="84.17"/><circle class="cls-84" cx="1020.97" cy="159.85" r="84.17"/><circle class="cls-85" cx="297.73" cy="108.09" r="84.17"/><circle class="cls-85" cx="777.72" cy="108.09" r="84.17"/><circle class="cls-85" cx="537.36" cy="159.1" r="84.17"/><circle class="cls-85" cx="1020.24" cy="159.1" r="84.17"/><circle class="cls-86" cx="297" cy="107.34" r="84.17"/><circle class="cls-86" cx="776.99" cy="107.34" r="84.17"/><circle class="cls-86" cx="536.63" cy="158.35" r="84.17"/><circle class="cls-86" cx="1019.51" cy="158.35" r="84.17"/><circle class="cls-87" cx="296.27" cy="106.59" r="84.17"/><circle class="cls-87" cx="776.26" cy="106.59" r="84.17"/><circle class="cls-87" cx="535.9" cy="157.6" r="84.17"/><circle class="cls-87" cx="1018.78" cy="157.6" r="84.17"/><circle class="cls-88" cx="295.54" cy="105.84" r="84.17"/><circle class="cls-88" cx="775.53" cy="105.84" r="84.17"/><circle class="cls-88" cx="535.17" cy="156.86" r="84.17"/><circle class="cls-88" cx="1018.05" cy="156.86" r="84.17"/><circle class="cls-89" cx="294.81" cy="105.09" r="84.17"/><circle class="cls-89" cx="774.8" cy="105.09" r="84.17"/><circle class="cls-89" cx="534.43" cy="156.11" r="84.17"/><circle class="cls-89" cx="1017.31" cy="156.11" r="84.17"/><circle class="cls-90" cx="294.08" cy="104.34" r="84.17"/><circle class="cls-90" cx="774.07" cy="104.34" r="84.17"/><circle class="cls-90" cx="533.7" cy="155.36" r="84.17"/><circle class="cls-90" cx="1016.58" cy="155.36" r="84.17"/><circle class="cls-91" cx="293.35" cy="103.59" r="84.17"/><circle class="cls-91" cx="773.34" cy="103.59" r="84.17"/><circle class="cls-91" cx="532.97" cy="154.61" r="84.17"/><circle class="cls-91" cx="1015.85" cy="154.61" r="84.17"/><circle class="cls-92" cx="292.62" cy="102.85" r="84.17"/><circle class="cls-92" cx="772.6" cy="102.85" r="84.17"/><circle class="cls-92" cx="532.24" cy="153.86" r="84.17"/><circle class="cls-92" cx="1015.12" cy="153.86" r="84.17"/><circle class="cls-93" cx="291.89" cy="102.1" r="84.17"/><circle class="cls-93" cx="771.87" cy="102.1" r="84.17"/><circle class="cls-93" cx="531.51" cy="153.11" r="84.17"/><circle class="cls-93" cx="1014.39" cy="153.11" r="84.17"/><circle class="cls-94" cx="291.15" cy="101.35" r="84.17"/><circle class="cls-94" cx="771.14" cy="101.35" r="84.17"/><circle class="cls-94" cx="530.78" cy="152.36" r="84.17"/><circle class="cls-94" cx="1013.66" cy="152.36" r="84.17"/><circle class="cls-95" cx="290.42" cy="100.6" r="84.17"/><circle class="cls-95" cx="770.41" cy="100.6" r="84.17"/><circle class="cls-95" cx="530.05" cy="151.62" r="84.17"/><circle class="cls-95" cx="1012.93" cy="151.62" r="84.17"/><circle class="cls-96" cx="289.69" cy="99.85" r="84.17"/><circle class="cls-96" cx="769.68" cy="99.85" r="84.17"/><circle class="cls-96" cx="529.32" cy="150.87" r="84.17"/><circle class="cls-96" cx="1012.2" cy="150.87" r="84.17"/><circle class="cls-97" cx="288.96" cy="99.1" r="84.17"/><circle class="cls-97" cx="768.95" cy="99.1" r="84.17"/><circle class="cls-97" cx="528.59" cy="150.12" r="84.17"/><circle class="cls-97" cx="1011.47" cy="150.12" r="84.17"/><circle class="cls-98" cx="288.23" cy="98.35" r="84.17"/><circle class="cls-98" cx="768.22" cy="98.35" r="84.17"/><circle class="cls-98" cx="527.86" cy="149.37" r="84.17"/><circle class="cls-98" cx="1010.74" cy="149.37" r="84.17"/><circle class="cls-99" cx="287.5" cy="97.61" r="84.17"/><circle class="cls-99" cx="767.49" cy="97.61" r="84.17"/><circle class="cls-99" cx="527.13" cy="148.62" r="84.17"/><circle class="cls-99" cx="1010.01" cy="148.62" r="84.17"/><circle class="cls-100" cx="286.77" cy="96.86" r="84.17"/><circle class="cls-100" cx="766.76" cy="96.86" r="84.17"/><circle class="cls-100" cx="526.4" cy="147.87" r="84.17"/><circle class="cls-100" cx="1009.28" cy="147.87" r="84.17"/><circle class="cls-101" cx="286.04" cy="96.11" r="84.17"/><circle class="cls-101" cx="766.03" cy="96.11" r="84.17"/><circle class="cls-101" cx="525.67" cy="147.13" r="84.17"/><circle class="cls-101" cx="1008.55" cy="147.13" r="84.17"/><circle class="cls-102" cx="285.31" cy="95.36" r="84.17"/><circle class="cls-102" cx="765.3" cy="95.36" r="84.17"/><circle class="cls-102" cx="524.94" cy="146.38" r="84.17"/><circle class="cls-102" cx="1007.82" cy="146.38" r="84.17"/><circle class="cls-103" cx="284.58" cy="94.61" r="84.17"/><circle class="cls-103" cx="764.57" cy="94.61" r="84.17"/><circle class="cls-103" cx="524.2" cy="145.63" r="84.17"/><circle class="cls-103" cx="1007.08" cy="145.63" r="84.17"/><circle cx="283.85" cy="93.86" r="84.17"/><circle cx="763.84" cy="93.86" r="84.17"/><circle cx="523.47" cy="144.88" r="84.17"/><circle cx="1006.35" cy="144.88" r="84.17"/></g><circle class="cls-104" cx="283.85" cy="93.86" r="84.17"/><circle class="cls-104" cx="763.84" cy="93.86" r="84.17"/><circle class="cls-104" cx="523.47" cy="144.88" r="84.17"/><circle class="cls-104" cx="1006.35" cy="144.88" r="84.17"/><path class="cls-105" d="M352.88,122.24l-1.23-.06c.06-1.3.1-2.62.1-3.94H353C353,119.58,352.94,120.92,352.88,122.24Z"/><path class="cls-105" d="M269.76,201.5v-1.22c2.6,0,5.22-.13,7.79-.37l.12,1.22C275.06,201.37,272.4,201.5,269.76,201.5Zm-7.91-.37c-2.62-.24-5.26-.62-7.84-1.11l.23-1.2c2.54.48,5.14.85,7.73,1.09ZM285.5,200l-.23-1.2c2.55-.49,5.1-1.1,7.59-1.83l.34,1.17C290.67,198.88,288.08,199.51,285.5,200Zm-39.18-1.83c-2.52-.74-5-1.6-7.49-2.58l.45-1.14c2.41,1,4.9,1.82,7.38,2.54Zm54.36-2.62-.45-1.14c2.4-1,4.78-2,7.09-3.24l.56,1.08C305.54,193.46,303.12,194.57,300.68,195.55Zm-69.06-3.25c-2.34-1.21-4.64-2.54-6.85-4l.66-1c2.17,1.4,4.45,2.71,6.76,3.9Zm83.11-4-.66-1c2.18-1.4,4.31-2.93,6.35-4.53l.76,1C319.11,185.32,316.94,186.87,314.73,188.29Zm-96.41-4.54c-2.07-1.62-4.09-3.37-6-5.18l.84-.89c1.88,1.79,3.86,3.51,5.9,5.11Zm108.84-5.25-.84-.88c1.87-1.79,3.68-3.69,5.38-5.65l.93.8C330.9,174.76,329.06,176.69,327.16,178.5Zm-120.31-5.65c-1.73-2-3.38-4.09-4.9-6.22l1-.71c1.51,2.1,3.13,4.16,4.84,6.12Zm130.68-6.3-1-.71c1.51-2.11,2.93-4.32,4.23-6.56l1.06.61C340.5,162.17,339.06,164.41,337.53,166.55ZM197.65,160c-1.32-2.27-2.54-4.64-3.64-7l1.11-.51c1.08,2.36,2.29,4.69,3.59,6.92Zm147.8-7.12-1.11-.51c1.08-2.36,2.06-4.8,2.91-7.24l1.15.4C347.54,148,346.55,150.46,345.45,152.86Zm-154.4-7.26c-.86-2.48-1.62-5-2.24-7.59l1.19-.29c.61,2.51,1.36,5,2.21,7.48Zm159.58-7.69-1.19-.29c.61-2.51,1.11-5.09,1.48-7.66l1.21.17C351.75,132.74,351.25,135.35,350.63,137.91Zm-163.32-7.68c-.38-2.6-.63-5.25-.76-7.87l1.22-.06c.13,2.59.38,5.2.75,7.76Zm.45-15.74-1.23,0c.12-2.63.37-5.29.73-7.88l1.22.17C188.12,109.29,187.87,111.9,187.76,114.49Zm163.11-8.28c-.38-2.56-.88-5.14-1.5-7.65l1.19-.29c.63,2.55,1.14,5.16,1.52,7.77ZM189.93,99.06l-1.19-.28c.61-2.56,1.35-5.12,2.21-7.61l1.16.4C191.26,94,190.53,96.54,189.93,99.06Zm157.21-8c-.85-2.44-1.84-4.88-2.93-7.23l1.11-.51c1.11,2.38,2.11,4.85,3,7.34ZM195,84.32l-1.11-.51c1.09-2.39,2.3-4.76,3.61-7l1.07.61C197.26,79.63,196.06,82,195,84.32ZM340.6,76.94c-1.3-2.24-2.73-4.44-4.24-6.55l1-.71c1.54,2.14,3,4.37,4.31,6.64ZM202.76,70.81l-1-.71c1.52-2.15,3.16-4.24,4.88-6.23l.93.8C205.89,66.63,204.27,68.7,202.76,70.81Zm128.75-6.53c-1.71-2-3.53-3.84-5.41-5.62l.84-.89c1.91,1.8,3.76,3.73,5.49,5.71ZM213,59l-.85-.88c1.9-1.82,3.91-3.57,6-5.21l.76,1C216.8,55.49,214.82,57.22,213,59Zm107.23-5.45c-2-1.59-4.18-3.11-6.36-4.5l.66-1c2.21,1.42,4.38,3,6.46,4.58Zm-95-4.22-.67-1c2.21-1.43,4.51-2.77,6.85-4l.56,1.09C229.61,46.61,227.34,47.93,225.17,49.34Zm81.88-4.17c-2.31-1.18-4.7-2.26-7.11-3.22l.45-1.13c2.45,1,4.88,2.07,7.22,3.26Zm-68.05-3L238.54,41c2.44-1,5-1.86,7.48-2.61l.34,1.17C243.88,40.31,241.4,41.17,239,42.14Zm53.56-2.71c-2.49-.72-5-1.33-7.59-1.81l.23-1.2c2.58.48,5.17,1.1,7.7,1.83Zm-38.62-1.71-.24-1.2c2.58-.51,5.22-.89,7.84-1.14l.12,1.21C259.08,36.84,256.48,37.22,253.94,37.72Zm23.3-1.18c-2.48-.22-5-.34-7.53-.34h-.26V35h.25c2.56,0,5.13.12,7.65.34Z"/><path class="cls-105" d="M353,118.24h-1.22c0-1.32,0-2.64-.1-3.95l1.23-.05C352.94,115.56,353,116.9,353,118.24Z"/><path class="cls-105" d="M596.37,122.24l-1.22-.06c.06-1.3.09-2.62.09-3.94h1.23C596.47,119.58,596.44,120.92,596.37,122.24Z"/><path class="cls-105" d="M513.26,201.5v-1.22c2.6,0,5.22-.13,7.79-.37l.12,1.22C518.56,201.37,515.9,201.5,513.26,201.5Zm-7.91-.37c-2.62-.24-5.26-.62-7.84-1.11l.23-1.2c2.54.48,5.14.85,7.72,1.09ZM529,200l-.23-1.2c2.54-.49,5.1-1.1,7.58-1.83l.35,1.17C534.17,198.88,531.58,199.51,529,200Zm-39.19-1.83c-2.52-.74-5-1.6-7.48-2.58l.45-1.14c2.41,1,4.9,1.82,7.38,2.54Zm54.37-2.62-.45-1.14c2.4-1,4.78-2,7.09-3.24l.56,1.08C549,193.46,546.62,194.57,544.18,195.55Zm-69.06-3.25c-2.34-1.21-4.65-2.54-6.86-4l.67-1c2.17,1.4,4.45,2.71,6.75,3.9Zm83.11-4-.66-1c2.17-1.4,4.31-2.93,6.35-4.53l.76,1C562.61,185.32,560.44,186.87,558.23,188.29Zm-96.42-4.54c-2.06-1.62-4.08-3.37-6-5.18l.85-.89c1.88,1.79,3.86,3.51,5.9,5.11Zm108.85-5.25-.84-.88c1.87-1.79,3.68-3.69,5.38-5.65l.93.8C574.4,174.76,572.56,176.69,570.66,178.5Zm-120.31-5.65c-1.73-2-3.38-4.09-4.9-6.22l1-.71c1.51,2.1,3.13,4.16,4.84,6.12ZM581,166.55l-1-.71c1.51-2.11,2.93-4.32,4.23-6.56l1.06.61C584,162.17,582.56,164.41,581,166.55ZM441.15,160c-1.32-2.27-2.55-4.64-3.65-7l1.12-.51c1.08,2.36,2.29,4.69,3.59,6.92ZM589,152.86l-1.11-.51c1.08-2.36,2.06-4.8,2.91-7.24l1.15.4C591,148,590.05,150.46,589,152.86Zm-154.4-7.26c-.87-2.48-1.62-5-2.24-7.59l1.19-.29c.61,2.51,1.35,5,2.21,7.48Zm159.58-7.69-1.19-.29c.61-2.51,1.11-5.09,1.47-7.66l1.22.17C595.25,132.74,594.75,135.35,594.13,137.91Zm-163.32-7.68c-.38-2.6-.64-5.25-.76-7.87l1.22-.06c.13,2.59.38,5.2.75,7.76Zm.45-15.74-1.23,0c.12-2.63.37-5.29.73-7.88l1.21.17C431.61,109.29,431.37,111.9,431.26,114.49Zm163.11-8.28c-.38-2.56-.88-5.14-1.5-7.65l1.19-.29c.63,2.55,1.14,5.16,1.52,7.77ZM433.43,99.06l-1.19-.28c.61-2.56,1.35-5.12,2.21-7.61l1.15.4C434.76,94,434,96.54,433.43,99.06Zm157.21-8c-.85-2.44-1.84-4.88-2.93-7.23l1.11-.51c1.11,2.38,2.11,4.85,3,7.34ZM438.49,84.32l-1.11-.51c1.09-2.39,2.3-4.76,3.61-7l1.07.61C440.76,79.63,439.56,82,438.49,84.32ZM584.1,76.94c-1.3-2.24-2.73-4.44-4.24-6.55l1-.71c1.54,2.14,3,4.37,4.31,6.64ZM446.26,70.81l-1-.71c1.53-2.15,3.17-4.24,4.89-6.23l.93.8C449.38,66.63,447.77,68.7,446.26,70.81ZM575,64.28c-1.7-2-3.52-3.84-5.4-5.62l.84-.89c1.91,1.8,3.76,3.72,5.49,5.71ZM456.45,59l-.85-.88c1.9-1.82,3.91-3.57,6-5.21l.76,1C460.3,55.49,458.32,57.22,456.45,59Zm107.23-5.45c-2-1.59-4.18-3.11-6.36-4.5l.65-1c2.22,1.42,4.39,3,6.47,4.58Zm-95-4.22-.67-1c2.21-1.43,4.51-2.77,6.85-4l.56,1.09C473.11,46.61,470.84,47.93,468.67,49.34Zm81.88-4.17c-2.31-1.18-4.7-2.26-7.11-3.22l.45-1.13c2.45,1,4.88,2.07,7.22,3.26Zm-68-3L482,41c2.44-1,5-1.86,7.47-2.61l.35,1.17C487.38,40.31,484.9,41.17,482.5,42.14Zm53.56-2.71c-2.49-.72-5-1.33-7.59-1.81l.23-1.2c2.58.48,5.17,1.1,7.7,1.83Zm-38.62-1.71-.24-1.2c2.58-.51,5.22-.89,7.84-1.14l.12,1.21C502.57,36.84,500,37.22,497.44,37.72Zm23.3-1.18c-2.49-.22-5-.34-7.53-.34H513V35h.25c2.56,0,5.13.12,7.65.34Z"/><path class="cls-105" d="M596.47,118.24h-1.23c0-1.32,0-2.64-.09-3.94l1.22-.06C596.44,115.56,596.47,116.9,596.47,118.24Z"/><path class="cls-106" d="M410.64,115.37l-5.26-5a4,4,0,0,0-5.62.13,4,4,0,0,0,.13,5.62l1.9,1.82H372.62v1.59h.09a103,103,0,0,1-206-1.26h-1.62a104.64,104.64,0,0,0,209.27,1.26h26.49l-.93.89a4,4,0,1,0,5.49,5.74l5.26-5A4.09,4.09,0,0,0,410.64,115.37Z"/><path class="cls-106" d="M654.29,115.37l-5.26-5a4,4,0,0,0-5.62.13,4,4,0,0,0,.13,5.62l1.9,1.82H617.85a104.65,104.65,0,0,0-209.29.33h1.62a103,103,0,1,1,206.06,0h0v1.26h28.2l-.93.89a4,4,0,1,0,5.49,5.74l5.26-5A4.1,4.1,0,0,0,654.29,115.37Z"/><path class="cls-105" d="M842,122.24l-1.22-.06c.06-1.3.09-2.62.09-3.94h1.23C842.06,119.58,842,120.92,842,122.24Z"/><path class="cls-105" d="M758.85,201.5v-1.22c2.6,0,5.22-.13,7.79-.37l.11,1.22C764.15,201.37,761.49,201.5,758.85,201.5Zm-7.91-.37c-2.62-.24-5.26-.62-7.84-1.11l.23-1.2c2.54.48,5.14.85,7.72,1.09ZM774.59,200l-.23-1.2c2.54-.49,5.09-1.1,7.58-1.83l.35,1.17C779.76,198.88,777.17,199.51,774.59,200Zm-39.19-1.83c-2.52-.74-5-1.6-7.48-2.58l.45-1.14c2.41,1,4.89,1.82,7.38,2.54Zm54.37-2.62-.46-1.14c2.4-1,4.79-2,7.1-3.24l.56,1.08C794.63,193.46,792.21,194.57,789.77,195.55Zm-69.06-3.25c-2.34-1.21-4.65-2.54-6.86-4l.66-1c2.18,1.4,4.46,2.71,6.76,3.9Zm83.11-4-.66-1c2.17-1.4,4.31-2.93,6.35-4.53l.76,1C808.2,185.32,806,186.87,803.82,188.29Zm-96.42-4.54c-2.07-1.62-4.08-3.37-6-5.18l.85-.89c1.88,1.79,3.86,3.51,5.9,5.11Zm108.85-5.25-.84-.88c1.87-1.79,3.68-3.69,5.38-5.65l.93.8C820,174.76,818.15,176.69,816.25,178.5Zm-120.31-5.65c-1.73-2-3.38-4.09-4.91-6.22l1-.71c1.5,2.1,3.13,4.16,4.83,6.12Zm130.68-6.3-1-.71c1.51-2.11,2.93-4.32,4.22-6.56l1.06.61C829.59,162.17,828.14,164.41,826.62,166.55ZM686.74,160c-1.32-2.27-2.55-4.64-3.65-7l1.12-.51c1.08,2.36,2.29,4.69,3.59,6.92Zm147.8-7.12-1.11-.51c1.08-2.36,2.06-4.8,2.9-7.24l1.16.4C836.63,148,835.64,150.46,834.54,152.86Zm-154.4-7.26c-.87-2.48-1.62-5-2.24-7.59l1.19-.29c.61,2.51,1.35,5,2.2,7.48Zm159.58-7.69-1.19-.29c.61-2.51,1.1-5.09,1.47-7.66l1.21.17C840.84,132.74,840.34,135.35,839.72,137.91Zm-163.33-7.68c-.37-2.6-.63-5.25-.75-7.87l1.22-.06c.12,2.59.38,5.2.75,7.76Zm.45-15.74-1.22,0c.12-2.63.36-5.29.73-7.88l1.21.17C677.2,109.29,677,111.9,676.84,114.49ZM840,106.21c-.38-2.56-.88-5.14-1.5-7.65l1.19-.29c.62,2.55,1.14,5.16,1.52,7.77ZM679,99.06l-1.19-.28c.62-2.56,1.36-5.12,2.21-7.61l1.16.4C680.35,94,679.62,96.54,679,99.06Zm157.22-8c-.86-2.44-1.84-4.88-2.93-7.23l1.11-.51c1.1,2.38,2.1,4.85,3,7.34ZM684.08,84.32,683,83.81c1.09-2.39,2.31-4.76,3.62-7l1.06.61C686.35,79.63,685.15,82,684.08,84.32Zm145.61-7.38c-1.3-2.24-2.73-4.44-4.25-6.55l1-.71c1.53,2.14,3,4.37,4.31,6.64ZM691.85,70.81l-1-.71c1.53-2.15,3.17-4.24,4.89-6.23l.92.8C695,66.63,693.35,68.7,691.85,70.81Zm128.74-6.53c-1.7-2-3.52-3.84-5.4-5.62l.84-.89c1.91,1.8,3.75,3.73,5.48,5.71ZM702,59l-.85-.88c1.9-1.82,3.9-3.57,6-5.21l.76,1C705.88,55.49,703.91,57.22,702,59Zm107.23-5.45c-2-1.59-4.19-3.11-6.37-4.5l.66-1c2.22,1.42,4.39,3,6.47,4.58Zm-95-4.22-.67-1c2.21-1.43,4.51-2.77,6.84-4l.57,1.09C718.7,46.61,716.43,47.93,714.26,49.34Zm81.88-4.17C793.83,44,791.44,42.91,789,42l.45-1.13c2.45,1,4.87,2.07,7.21,3.26Zm-68.06-3L727.63,41c2.44-1,5-1.86,7.47-2.61l.35,1.17C733,40.31,730.49,41.17,728.08,42.14Zm53.57-2.71c-2.49-.72-5-1.33-7.59-1.81l.22-1.2c2.59.48,5.18,1.1,7.71,1.83ZM743,37.72l-.24-1.2c2.58-.51,5.22-.89,7.84-1.14l.11,1.21C748.16,36.84,745.57,37.22,743,37.72Zm23.3-1.18c-2.49-.22-5-.34-7.53-.34h-.27V35h.26c2.55,0,5.13.12,7.65.34Z"/><path class="cls-105" d="M842.06,118.24h-1.23c0-1.32,0-2.64-.09-3.95l1.22-.05C842,115.56,842.06,116.9,842.06,118.24Z"/><path class="cls-105" d="M1085.46,122.24l-1.22-.06c.06-1.3.09-2.62.09-3.94h1.23C1085.56,119.58,1085.53,120.92,1085.46,122.24Z"/><path class="cls-105" d="M1002.34,201.5v-1.22c2.61,0,5.23-.13,7.8-.37l.11,1.22C1007.64,201.37,1005,201.5,1002.34,201.5Zm-7.9-.37c-2.63-.24-5.26-.62-7.84-1.11l.23-1.2c2.54.48,5.14.85,7.72,1.09Zm23.65-1.13-.23-1.2c2.54-.49,5.09-1.1,7.58-1.83l.35,1.17C1023.26,198.88,1020.67,199.51,1018.09,200Zm-39.19-1.83c-2.52-.74-5-1.6-7.49-2.58l.46-1.14c2.41,1,4.89,1.82,7.37,2.54Zm54.37-2.62-.46-1.14c2.4-1,4.79-2,7.1-3.24l.56,1.08C1038.13,193.46,1035.7,194.57,1033.27,195.55Zm-69.06-3.25c-2.34-1.21-4.65-2.54-6.86-4l.66-1c2.18,1.4,4.45,2.71,6.76,3.9Zm83.11-4-.66-1c2.17-1.4,4.31-2.93,6.35-4.53l.76,1C1051.7,185.32,1049.53,186.87,1047.32,188.29Zm-96.42-4.54c-2.07-1.62-4.08-3.37-6-5.18l.85-.89c1.87,1.79,3.86,3.51,5.9,5.11Zm108.85-5.25-.85-.88c1.88-1.79,3.69-3.69,5.39-5.65l.92.8C1063.49,174.76,1061.65,176.69,1059.75,178.5Zm-120.31-5.65c-1.73-2-3.38-4.09-4.91-6.22l1-.71c1.5,2.1,3.13,4.16,4.83,6.12Zm130.67-6.3-1-.71c1.5-2.11,2.93-4.32,4.22-6.56l1.06.61C1073.09,162.17,1071.64,164.41,1070.11,166.55ZM930.24,160c-1.32-2.27-2.55-4.64-3.65-7l1.11-.51c1.09,2.36,2.3,4.69,3.59,6.92Zm147.8-7.12-1.11-.51c1.08-2.36,2-4.8,2.9-7.24l1.16.4C1080.13,148,1079.14,150.46,1078,152.86Zm-154.4-7.26c-.87-2.48-1.62-5-2.24-7.59l1.19-.29c.61,2.51,1.35,5,2.2,7.48Zm159.58-7.69-1.19-.29c.61-2.51,1.1-5.09,1.47-7.66l1.21.17C1084.34,132.74,1083.84,135.35,1083.22,137.91Zm-163.33-7.68c-.37-2.6-.63-5.25-.76-7.87l1.23-.06c.12,2.59.37,5.2.74,7.76Zm.45-15.74-1.22,0c.12-2.63.36-5.29.73-7.88l1.21.17C920.7,109.29,920.46,111.9,920.34,114.49Zm163.12-8.28c-.38-2.56-.88-5.14-1.5-7.65l1.19-.29c.62,2.55,1.14,5.16,1.52,7.77Zm-161-7.15-1.19-.28c.62-2.56,1.36-5.12,2.21-7.61l1.16.4C923.85,94,923.12,96.54,922.51,99.06Zm157.22-8c-.86-2.44-1.84-4.88-2.93-7.23l1.11-.51c1.1,2.38,2.1,4.85,3,7.34ZM927.58,84.32l-1.12-.51c1.09-2.39,2.31-4.76,3.62-7l1.06.61C929.85,79.63,928.65,82,927.58,84.32Zm145.61-7.38c-1.3-2.24-2.73-4.44-4.25-6.55l1-.71c1.53,2.14,3,4.37,4.31,6.64ZM935.35,70.81l-1-.71c1.53-2.15,3.17-4.24,4.89-6.23l.92.8C938.47,66.63,936.85,68.7,935.35,70.81Zm128.74-6.53c-1.7-2-3.52-3.84-5.41-5.62l.85-.89c1.91,1.8,3.75,3.72,5.48,5.71ZM945.53,59l-.84-.88c1.89-1.82,3.9-3.57,6-5.21l.76,1C949.38,55.49,947.4,57.22,945.53,59Zm107.24-5.45c-2-1.59-4.19-3.11-6.37-4.5l.66-1c2.22,1.42,4.39,3,6.46,4.58Zm-95-4.22-.67-1c2.21-1.43,4.51-2.77,6.84-4l.57,1.09C962.2,46.61,959.93,47.93,957.76,49.34Zm81.87-4.17c-2.3-1.18-4.69-2.26-7.1-3.22l.45-1.13c2.45,1,4.87,2.07,7.21,3.26Zm-68.05-3L971.13,41c2.44-1,5-1.86,7.47-2.61l.35,1.17C976.47,40.31,974,41.17,971.58,42.14Zm53.57-2.71c-2.5-.72-5.05-1.33-7.59-1.81l.22-1.2c2.59.48,5.18,1.1,7.71,1.83Zm-38.63-1.71-.23-1.2a79.15,79.15,0,0,1,7.84-1.14l.11,1.21C991.66,36.84,989.07,37.22,986.52,37.72Zm23.31-1.18c-2.49-.22-5-.34-7.53-.34H1002V35h.26c2.55,0,5.12.12,7.65.34Z"/><path class="cls-105" d="M1085.56,118.24h-1.23c0-1.32,0-2.64-.09-3.94l1.22-.06C1085.53,115.56,1085.56,116.9,1085.56,118.24Z"/><path class="cls-106" d="M899.72,115.37l-5.26-5a4,4,0,0,0-5.48,5.75l1.9,1.82H861.71v1.59h.08a103,103,0,0,1-206-1.26h-1.63a104.64,104.64,0,0,0,209.28,1.26h26.49l-.93.89a4,4,0,1,0,5.48,5.74l5.26-5A4.09,4.09,0,0,0,899.72,115.37Z"/><path class="cls-106" d="M1002.3,13.59A104.77,104.77,0,0,0,897.64,118.24h1.63a103,103,0,0,1,206-1.06h1.62A104.75,104.75,0,0,0,1002.3,13.59Z"/><path class="cls-106" d="M173.08,118.24a8,8,0,1,1-8-8A8,8,0,0,1,173.08,118.24Z"/><path class="cls-106" d="M1115,118.24a8,8,0,1,1-8-8A8,8,0,0,1,1115,118.24Z"/><path class="cls-3" d="M295.34,110.61h-41a.86.86,0,0,1-.86-.85V71.92a.86.86,0,1,1,1.71,0v37h40.13a.86.86,0,0,1,.85.86A.85.85,0,0,1,295.34,110.61Z"/><path class="cls-3" d="M264.39,106.49H258a.86.86,0,0,1-.86-.85V89.7a.86.86,0,0,1,.86-.85h6.4a.85.85,0,0,1,.85.85v15.94A.85.85,0,0,1,264.39,106.49Zm-5.55-1.71h4.7V90.56h-4.7Z"/><path class="cls-3" d="M274.14,106.49h-6.41a.85.85,0,0,1-.85-.85v-11a.85.85,0,0,1,.85-.85h6.41a.85.85,0,0,1,.85.85v11A.85.85,0,0,1,274.14,106.49Zm-5.55-1.71h4.69V95.54h-4.69Z"/><path class="cls-3" d="M283.88,106.49h-6.4a.85.85,0,0,1-.85-.85v-23a.86.86,0,0,1,.85-.86h6.4a.87.87,0,0,1,.86.86v23A.86.86,0,0,1,283.88,106.49Zm-5.55-1.71H283V83.44h-4.7Z"/><path class="cls-3" d="M293.63,106.49h-6.4a.85.85,0,0,1-.86-.85V89.7a.85.85,0,0,1,.86-.85h6.4a.85.85,0,0,1,.85.85v15.94A.85.85,0,0,1,293.63,106.49Zm-5.55-1.71h4.7V90.56h-4.7Z"/><path class="cls-3" d="M535.51,112.5H518.27V95.26h1.16a16.09,16.09,0,0,1,16.08,16.08Zm-14.93-2.31h12.58a13.81,13.81,0,0,0-12.58-12.58Z"/><path class="cls-3" d="M513.26,139.77a22.26,22.26,0,1,1,0-44.51h1.15v21.1h21.1v1.15A22.28,22.28,0,0,1,513.26,139.77ZM512.1,97.6a19.95,19.95,0,1,0,21.07,21.07H512.1Z"/><path class="cls-3" d="M758.85,116.13a24.82,24.82,0,1,1,24.82-24.82A24.85,24.85,0,0,1,758.85,116.13Zm0-47.65a22.84,22.84,0,1,0,22.84,22.83A22.86,22.86,0,0,0,758.85,68.48Z"/><path class="cls-3" d="M758.85,108.72c-13.68,0-24.82-7.81-24.82-17.41s11.14-17.4,24.82-17.4,24.82,7.81,24.82,17.4S772.53,108.72,758.85,108.72Zm0-32.83c-12.59,0-22.84,6.92-22.84,15.42s10.25,15.43,22.84,15.43,22.84-6.92,22.84-15.43S771.44,75.89,758.85,75.89Z"/><path class="cls-3" d="M758.85,101.3c-13.92,0-24.82-4.39-24.82-10s10.9-10,24.82-10,24.82,4.39,24.82,10S772.77,101.3,758.85,101.3Zm0-18c-13.46,0-22.84,4.22-22.84,8s9.38,8,22.84,8,22.84-4.22,22.84-8S772.31,83.31,758.85,83.31Z"/><rect class="cls-3" x="735.02" y="90.32" width="47.65" height="1.98"/><path class="cls-3" d="M758.85,116.13a24.82,24.82,0,1,1,24.82-24.82A24.85,24.85,0,0,1,758.85,116.13Zm0-47.65a22.84,22.84,0,1,0,22.84,22.83A22.86,22.86,0,0,0,758.85,68.48Z"/><path class="cls-3" d="M758.85,116.13c-9.6,0-17.41-11.13-17.41-24.82s7.81-24.81,17.41-24.81,17.41,11.13,17.41,24.81S768.45,116.13,758.85,116.13Zm0-47.65c-8.51,0-15.43,10.24-15.43,22.83s6.92,22.84,15.43,22.84,15.43-10.24,15.43-22.84S767.36,68.48,758.85,68.48Z"/><path class="cls-3" d="M758.85,116.13c-5.6,0-10-10.9-10-24.82s4.38-24.81,10-24.81,10,10.9,10,24.81S764.45,116.13,758.85,116.13Zm0-47.65c-3.78,0-8,9.38-8,22.83s4.22,22.84,8,22.84,8-9.38,8-22.84S762.63,68.48,758.85,68.48Z"/><rect class="cls-3" x="757.86" y="67.49" width="1.98" height="47.65"/><path class="cls-3" d="M271.64,153.4q-4.81,0-4.81-4.81V130.94q0-4.81,4.81-4.81t4.81,4.81v17.65Q276.45,153.41,271.64,153.4Zm-3.21-4.81q0,3.21,3.21,3.21t3.21-3.21V130.94q0-3.21-3.21-3.21t-3.21,3.21Z"/><path class="cls-3" d="M282.87,153.4h-1.6V127.73h-1.61v-1.6h3.21Z"/><path class="cls-3" d="M512.08,185.61q-4.82,0-4.82-4.82V163.15q0-4.82,4.82-4.82t4.81,4.82v17.64Q516.89,185.61,512.08,185.61Zm-3.21-4.82q0,3.21,3.21,3.21t3.21-3.21V163.15q0-3.21-3.21-3.21t-3.21,3.21Z"/><path class="cls-3" d="M521.86,184h7.87v1.61H520.1V184q8-15.56,8-19.25v-1.6q0-3.21-3.21-3.21t-3.21,3.21v3.2h-1.6v-3.2q0-4.82,4.81-4.82t4.82,4.82v1.6Q529.73,169.4,521.86,184Z"/><path class="cls-3" d="M754,156.2c-3.2,0-4.81-1.61-4.81-4.81V133.74c0-3.21,1.61-4.82,4.81-4.82s4.82,1.61,4.82,4.82v17.65C758.85,154.59,757.24,156.2,754,156.2Zm-3.2-4.81q0,3.2,3.2,3.2t3.21-3.2V133.74q0-3.21-3.21-3.21t-3.2,3.21Z"/><path class="cls-3" d="M762.06,151.39v-3.21h1.6v3.21q0,3.2,3.21,3.2t3.21-3.2v-4.82q0-3.21-3.21-3.21h-1.6v-1.6h1.6q3.21,0,3.21-3.21v-4.81q0-3.21-3.21-3.21t-3.21,3.21V137h-1.6v-3.21q0-4.81,4.81-4.82t4.81,4.82v4.81c0,1.9-.56,3.24-1.68,4,1.12.77,1.68,2.11,1.68,4v4.82c0,3.2-1.6,4.81-4.81,4.81S762.06,154.59,762.06,151.39Z"/><path class="cls-3" d="M1001.74,188.87q-4.82,0-4.81-4.81V166.41q0-4.82,4.81-4.81t4.81,4.81v17.65Q1006.55,188.88,1001.74,188.87Zm-3.21-4.81q0,3.21,3.21,3.21t3.21-3.21V166.41q0-3.21-3.21-3.21t-3.21,3.21Z"/><path class="cls-3" d="M1009.76,161.6h1.61v17.65h4.81V161.6h1.61v17.65h1.6v1.6h-1.6v8h-1.61v-8h-6.42Z"/><path class="cls-3" d="M1029.63,137.91l-11.07-11.07H982a6.71,6.71,0,0,1-6.7-6.7v-23a6.71,6.71,0,0,1,6.7-6.7h40.91a6.71,6.71,0,0,1,6.7,6.7ZM982,93.15a4,4,0,0,0-3.94,3.94v23a4,4,0,0,0,3.94,4h37.68l7.18,7.17V97.09a4,4,0,0,0-4-3.94Z"/><circle class="cls-3" cx="988.5" cy="107.22" r="2.58"/><path class="cls-3" d="M998.71,107.22a2.58,2.58,0,1,1-2.58-2.58A2.58,2.58,0,0,1,998.71,107.22Z"/><circle class="cls-3" cx="1003.77" cy="107.22" r="2.58"/><circle class="cls-3" cx="1011.37" cy="107.22" r="2.58"/></g></g></svg>