<?xml version="1.0" encoding="utf-8"?>
<!-- Generator: Adobe Illustrator 25.4.1, SVG Export Plug-In . SVG Version: 6.00 Build 0)  -->
<svg version="1.1" id="Layer_1" xmlns="http://www.w3.org/2000/svg" xmlns:xlink="http://www.w3.org/1999/xlink" x="0px" y="0px"
	 viewBox="0 0 1906.9 615.9" style="enable-background:new 0 0 1906.9 615.9;" xml:space="preserve">
<style type="text/css">
	.st0{display:none;fill:#5D666C;}
	.st1{display:none;fill:#FFFFFF;stroke:#999999;stroke-width:4.675;stroke-miterlimit:10;}
	.st2{display:none;}
	.st3{display:inline;}
	.st4{fill:#5C5C5C;}
	.st5{display:inline;fill:#139EC3;}
	.st6{display:inline;fill:#CF4942;}
	.st7{display:inline;fill:#797979;}
	.st8{clip-path:url(#SVGID_00000076564125507449876540000001623171972299127743_);}
	.st9{fill:#366627;}
</style>
<rect x="888.9" y="240.8" class="st0" width="129.9" height="104.1"/>
<rect x="2.3" y="2.3" class="st1" width="1902.2" height="611.2"/>
<g class="st2">
	<g>
		<g class="st3">
			<path class="st4" d="M910.1,309.6h0.1v0.9h0.4v0.1h-0.6V309.6z"/>
			<path class="st4" d="M911.4,310.2c0,0.3-0.2,0.4-0.4,0.4c-0.2,0-0.4-0.1-0.4-0.4c0-0.2,0.2-0.4,0.4-0.4
				C911.3,309.8,911.4,310,911.4,310.2z M910.9,310.2c0,0.2,0.1,0.3,0.2,0.3c0.1,0,0.2-0.1,0.2-0.3c0-0.1-0.1-0.3-0.2-0.3
				C910.9,309.9,910.9,310.1,910.9,310.2z"/>
			<path class="st4" d="M911.6,310.1c0-0.1,0-0.2,0-0.2h0.1l0,0.1h0c0-0.1,0.1-0.2,0.2-0.2c0,0,0,0,0,0v0.1c0,0,0,0,0,0
				c-0.1,0-0.2,0.1-0.2,0.2c0,0,0,0,0,0.1v0.4h-0.1V310.1z"/>
			<path class="st4" d="M912.2,310.2c0,0.2,0.1,0.3,0.3,0.3c0.1,0,0.2,0,0.2,0l0,0.1c0,0-0.1,0-0.2,0c-0.2,0-0.4-0.1-0.4-0.4
				c0-0.2,0.1-0.4,0.3-0.4c0.2,0,0.3,0.2,0.3,0.3c0,0,0,0,0,0.1H912.2z M912.5,310.1c0-0.1,0-0.2-0.2-0.2c-0.1,0-0.2,0.1-0.2,0.2
				H912.5z"/>
			<path class="st4" d="M912.8,310c0-0.1,0-0.1,0-0.2h0.1l0,0.1h0c0-0.1,0.1-0.1,0.2-0.1c0.1,0,0.2,0.1,0.2,0.1h0
				c0,0,0.1-0.1,0.1-0.1c0,0,0.1-0.1,0.2-0.1c0.1,0,0.2,0.1,0.2,0.3v0.4h-0.1v-0.4c0-0.1-0.1-0.2-0.2-0.2c-0.1,0-0.1,0.1-0.2,0.1
				c0,0,0,0,0,0.1v0.5h-0.1v-0.4c0-0.1-0.1-0.2-0.2-0.2c-0.1,0-0.1,0.1-0.2,0.1c0,0,0,0,0,0.1v0.4h-0.1V310z"/>
			<path class="st4" d="M914.6,309.6v1h-0.1v-1H914.6z"/>
			<path class="st4" d="M914.8,310.1c0-0.1,0-0.2,0-0.2h0.1l0,0.1h0c0.1-0.1,0.1-0.1,0.3-0.1c0.2,0,0.3,0.1,0.3,0.4
				c0,0.3-0.2,0.4-0.3,0.4c-0.1,0-0.2,0-0.2-0.1h0v0.4h-0.1V310.1z M914.9,310.3C914.9,310.3,914.9,310.3,914.9,310.3
				c0,0.1,0.1,0.2,0.2,0.2c0.1,0,0.2-0.1,0.2-0.3c0-0.1-0.1-0.3-0.2-0.3c-0.1,0-0.2,0.1-0.2,0.2c0,0,0,0,0,0.1V310.3z"/>
			<path class="st4" d="M915.6,310.4c0,0,0.1,0.1,0.2,0.1c0.1,0,0.1,0,0.1-0.1c0-0.1,0-0.1-0.1-0.1c-0.1,0-0.2-0.1-0.2-0.2
				c0-0.1,0.1-0.2,0.3-0.2c0.1,0,0.1,0,0.2,0l0,0.1c0,0-0.1,0-0.1,0c-0.1,0-0.1,0-0.1,0.1c0,0.1,0,0.1,0.1,0.1
				c0.1,0,0.2,0.1,0.2,0.2c0,0.1-0.1,0.2-0.3,0.2C915.7,310.6,915.7,310.6,915.6,310.4L915.6,310.4z"/>
			<path class="st4" d="M916.9,310.4c0,0.1,0,0.1,0,0.2h-0.1l0-0.1h0c0,0.1-0.1,0.1-0.2,0.1c-0.1,0-0.3-0.1-0.3-0.3v-0.4h0.1v0.4
				c0,0.1,0,0.2,0.2,0.2c0.1,0,0.2-0.1,0.2-0.1c0,0,0,0,0-0.1v-0.4h0.1V310.4z"/>
			<path class="st4" d="M917.1,310c0-0.1,0-0.1,0-0.2h0.1l0,0.1h0c0-0.1,0.1-0.1,0.2-0.1c0.1,0,0.2,0.1,0.2,0.1h0
				c0,0,0.1-0.1,0.1-0.1c0,0,0.1-0.1,0.2-0.1c0.1,0,0.2,0.1,0.2,0.3v0.4H918v-0.4c0-0.1-0.1-0.2-0.2-0.2c-0.1,0-0.1,0.1-0.2,0.1
				c0,0,0,0,0,0.1v0.5h-0.1v-0.4c0-0.1-0.1-0.2-0.2-0.2c-0.1,0-0.1,0.1-0.2,0.1c0,0,0,0,0,0.1v0.4h-0.1V310z"/>
			<path class="st4" d="M918.7,309.6c0.1,0,0.2,0,0.3,0c0.2,0,0.3,0,0.4,0.1c0.1,0.1,0.1,0.2,0.1,0.4c0,0.2-0.1,0.3-0.1,0.4
				c-0.1,0.1-0.3,0.1-0.5,0.1c-0.1,0-0.2,0-0.2,0V309.6z M918.8,310.5c0,0,0.1,0,0.1,0c0.3,0,0.4-0.2,0.4-0.4c0-0.2-0.1-0.4-0.4-0.4
				c-0.1,0-0.1,0-0.2,0V310.5z"/>
			<path class="st4" d="M920.3,310.2c0,0.3-0.2,0.4-0.4,0.4c-0.2,0-0.4-0.1-0.4-0.4c0-0.2,0.2-0.4,0.4-0.4
				C920.2,309.8,920.3,310,920.3,310.2z M919.8,310.2c0,0.2,0.1,0.3,0.2,0.3c0.1,0,0.2-0.1,0.2-0.3c0-0.1-0.1-0.3-0.2-0.3
				C919.8,309.9,919.8,310.1,919.8,310.2z"/>
			<path class="st4" d="M920.5,309.5h0.1v1.1h-0.1V309.5z"/>
			<path class="st4" d="M921.5,310.2c0,0.3-0.2,0.4-0.4,0.4c-0.2,0-0.4-0.1-0.4-0.4c0-0.2,0.2-0.4,0.4-0.4
				C921.4,309.8,921.5,310,921.5,310.2z M920.9,310.2c0,0.2,0.1,0.3,0.2,0.3c0.1,0,0.2-0.1,0.2-0.3c0-0.1-0.1-0.3-0.2-0.3
				C921,309.9,920.9,310.1,920.9,310.2z"/>
			<path class="st4" d="M921.7,310.1c0-0.1,0-0.2,0-0.2h0.1l0,0.1h0c0-0.1,0.1-0.2,0.2-0.2c0,0,0,0,0,0v0.1c0,0,0,0,0,0
				c-0.1,0-0.2,0.1-0.2,0.2c0,0,0,0,0,0.1v0.4h-0.1V310.1z"/>
		</g>
	</g>
	<g>
		<path class="st5" d="M944.7,306.5L944.7,306.5l-0.2,0.1l0-0.1l0.2-0.1h0.1v1h-0.1V306.5z"/>
		<path class="st5" d="M945.2,307.3L945.2,307.3l0.1-0.2c0.3-0.2,0.4-0.4,0.4-0.5c0-0.1,0-0.2-0.2-0.2c-0.1,0-0.2,0-0.2,0.1l0-0.1
			c0.1-0.1,0.2-0.1,0.3-0.1c0.2,0,0.3,0.2,0.3,0.3c0,0.2-0.1,0.3-0.4,0.5l-0.1,0.1v0h0.5v0.1H945.2z"/>
		<path class="st5" d="M946,307.5c0-0.1,0.1-0.3,0.1-0.4l0.2,0C946.2,307.3,946.1,307.5,946,307.5L946,307.5z"/>
		<path class="st5" d="M946.7,306.3h0.6v0.1h-0.4v0.4h0.4v0.1h-0.4v0.5h-0.1V306.3z"/>
		<path class="st5" d="M947.6,306.4C947.6,306.4,947.6,306.5,947.6,306.4c-0.1,0.1-0.2,0-0.2,0S947.5,306.3,947.6,306.4
			C947.6,306.3,947.6,306.3,947.6,306.4z M947.5,307.3v-0.8h0.1v0.8H947.5z"/>
		<path class="st5" d="M947.8,306.8c0-0.1,0-0.2,0-0.2h0.1l0,0.2h0c0-0.1,0.1-0.2,0.2-0.2c0,0,0,0,0,0v0.1c0,0,0,0,0,0
			c-0.1,0-0.2,0.1-0.2,0.2c0,0,0,0,0,0.1v0.4h-0.1V306.8z"/>
		<path class="st5" d="M948.3,307.2c0,0,0.1,0.1,0.2,0.1c0.1,0,0.1,0,0.1-0.1c0-0.1,0-0.1-0.1-0.1c-0.1-0.1-0.2-0.1-0.2-0.2
			c0-0.1,0.1-0.2,0.3-0.2c0.1,0,0.1,0,0.2,0l0,0.1c0,0-0.1,0-0.2,0c-0.1,0-0.1,0-0.1,0.1c0,0.1,0,0.1,0.1,0.1c0.1,0,0.2,0.1,0.2,0.2
			c0,0.1-0.1,0.2-0.3,0.2c-0.1,0-0.2,0-0.2-0.1L948.3,307.2z"/>
		<path class="st5" d="M949.1,306.4v0.2h0.2v0.1h-0.2v0.4c0,0.1,0,0.1,0.1,0.1c0,0,0.1,0,0.1,0l0,0.1c0,0-0.1,0-0.1,0
			c-0.1,0-0.1,0-0.1-0.1c0,0-0.1-0.1-0.1-0.2v-0.4h-0.1v-0.1h0.1v-0.1L949.1,306.4z"/>
		<path class="st5" d="M949.8,306.3h0.1v0.9h0.5v0.1h-0.6V306.3z"/>
		<path class="st5" d="M950.7,306.4C950.7,306.4,950.7,306.5,950.7,306.4c-0.1,0.1-0.2,0-0.2,0S950.6,306.3,950.7,306.4
			C950.7,306.3,950.7,306.3,950.7,306.4z M950.6,307.3v-0.8h0.1v0.8H950.6z"/>
		<path class="st5" d="M950.9,306.8c0-0.1,0-0.1,0-0.2h0.1l0,0.1h0c0-0.1,0.1-0.1,0.3-0.1c0.1,0,0.3,0.1,0.3,0.3v0.5h-0.1v-0.4
			c0-0.1,0-0.2-0.2-0.2c-0.1,0-0.2,0.1-0.2,0.1c0,0,0,0,0,0.1v0.5h-0.1V306.8z"/>
		<path class="st5" d="M951.9,307c0,0.2,0.1,0.3,0.3,0.3c0.1,0,0.2,0,0.2,0l0,0.1c0,0-0.1,0-0.3,0c-0.2,0-0.4-0.2-0.4-0.4
			c0-0.2,0.1-0.4,0.4-0.4c0.2,0,0.3,0.2,0.3,0.4c0,0,0,0,0,0.1H951.9z M952.3,306.9c0-0.1,0-0.2-0.2-0.2c-0.1,0-0.2,0.1-0.2,0.2
			H952.3z"/>
		<path class="st5" d="M953.4,307.2c0,0.1,0,0.1,0,0.2h-0.1l0-0.1h0c0,0.1-0.1,0.1-0.2,0.1c-0.2,0-0.2-0.1-0.2-0.2
			c0-0.2,0.2-0.3,0.5-0.3v0c0-0.1,0-0.2-0.2-0.2c-0.1,0-0.1,0-0.2,0.1l0-0.1c0.1,0,0.2-0.1,0.3-0.1c0.2,0,0.3,0.2,0.3,0.3V307.2z
			 M953.3,307c-0.2,0-0.3,0-0.3,0.2c0,0.1,0.1,0.1,0.1,0.1c0.1,0,0.2-0.1,0.2-0.1c0,0,0,0,0,0V307z"/>
		<path class="st5" d="M953.7,306.6l0.1,0.4c0,0.1,0,0.1,0.1,0.2h0c0-0.1,0-0.1,0.1-0.2l0.1-0.4h0.1l-0.3,0.8h-0.1l-0.3-0.8H953.7z"
			/>
		<path class="st5" d="M954.5,307c0,0.2,0.1,0.3,0.3,0.3c0.1,0,0.2,0,0.2,0l0,0.1c0,0-0.1,0-0.3,0c-0.2,0-0.4-0.2-0.4-0.4
			c0-0.2,0.1-0.4,0.4-0.4c0.2,0,0.3,0.2,0.3,0.4c0,0,0,0,0,0.1H954.5z M954.9,306.9c0-0.1,0-0.2-0.2-0.2c-0.1,0-0.2,0.1-0.2,0.2
			H954.9z"/>
		<path class="st5" d="M955.2,306.8c0-0.1,0-0.1,0-0.2h0.1l0,0.1h0c0-0.1,0.1-0.1,0.3-0.1c0.1,0,0.3,0.1,0.3,0.3v0.5h-0.1v-0.4
			c0-0.1,0-0.2-0.2-0.2c-0.1,0-0.2,0.1-0.2,0.1c0,0,0,0,0,0.1v0.5h-0.1V306.8z"/>
		<path class="st5" d="M956.7,307.1c0,0.1,0,0.1,0,0.2h-0.1l0-0.1h0c0,0.1-0.1,0.1-0.3,0.1c-0.1,0-0.3-0.1-0.3-0.3v-0.4h0.1v0.4
			c0,0.1,0,0.2,0.2,0.2c0.1,0,0.2-0.1,0.2-0.1c0,0,0,0,0-0.1v-0.5h0.1V307.1z"/>
		<path class="st5" d="M957,307c0,0.2,0.1,0.3,0.3,0.3c0.1,0,0.2,0,0.2,0l0,0.1c0,0-0.1,0-0.3,0c-0.2,0-0.4-0.2-0.4-0.4
			c0-0.2,0.1-0.4,0.4-0.4c0.2,0,0.3,0.2,0.3,0.4c0,0,0,0,0,0.1H957z M957.4,306.9c0-0.1,0-0.2-0.2-0.2c-0.1,0-0.2,0.1-0.2,0.2H957.4
			z"/>
		<path class="st5" d="M957.6,307.5c0-0.1,0.1-0.3,0.1-0.4l0.2,0C957.8,307.3,957.7,307.5,957.6,307.5L957.6,307.5z"/>
		<path class="st5" d="M944.4,308.8L944.4,308.8l0.1-0.2c0.3-0.2,0.4-0.4,0.4-0.5c0-0.1,0-0.2-0.2-0.2c-0.1,0-0.2,0-0.2,0.1l0-0.1
			c0.1-0.1,0.2-0.1,0.3-0.1c0.2,0,0.3,0.2,0.3,0.3c0,0.2-0.1,0.3-0.4,0.5l-0.1,0.1v0h0.5v0.1H944.4z"/>
		<path class="st5" d="M945.6,308.6c0.1,0,0.1,0.1,0.2,0.1c0.1,0,0.2-0.1,0.2-0.2c0-0.1-0.1-0.2-0.2-0.2c-0.2-0.1-0.3-0.2-0.3-0.3
			c0-0.2,0.1-0.3,0.3-0.3c0.1,0,0.2,0,0.2,0.1l0,0.1c0,0-0.1-0.1-0.2-0.1c-0.1,0-0.2,0.1-0.2,0.2c0,0.1,0.1,0.1,0.2,0.2
			c0.2,0.1,0.3,0.2,0.3,0.3c0,0.2-0.1,0.3-0.4,0.3c-0.1,0-0.2,0-0.3-0.1L945.6,308.6z"/>
		<path class="st5" d="M946.5,308.4c0,0.2,0.1,0.3,0.3,0.3c0.1,0,0.2,0,0.2,0l0,0.1c0,0-0.1,0-0.3,0c-0.2,0-0.4-0.2-0.4-0.4
			c0-0.2,0.1-0.4,0.4-0.4c0.2,0,0.3,0.2,0.3,0.4c0,0,0,0,0,0.1H946.5z M946.9,308.3c0-0.1,0-0.2-0.2-0.2c-0.1,0-0.2,0.1-0.2,0.2
			H946.9z"/>
		<path class="st5" d="M947.7,308.7c0,0-0.1,0-0.2,0c-0.2,0-0.4-0.2-0.4-0.4c0-0.2,0.2-0.4,0.4-0.4c0.1,0,0.2,0,0.2,0l0,0.1
			c0,0-0.1,0-0.2,0c-0.2,0-0.3,0.1-0.3,0.3c0,0.2,0.1,0.3,0.3,0.3c0.1,0,0.1,0,0.2,0L947.7,308.7z"/>
		<path class="st5" d="M948.6,308.4c0,0.3-0.2,0.4-0.4,0.4c-0.2,0-0.4-0.2-0.4-0.4c0-0.3,0.2-0.4,0.4-0.4
			C948.4,308,948.6,308.2,948.6,308.4z M948,308.4c0,0.2,0.1,0.3,0.2,0.3c0.1,0,0.2-0.1,0.2-0.3c0-0.1-0.1-0.3-0.2-0.3
			C948,308.1,948,308.2,948,308.4z"/>
		<path class="st5" d="M948.7,308.2c0-0.1,0-0.1,0-0.2h0.1l0,0.1h0c0-0.1,0.1-0.1,0.3-0.1c0.1,0,0.3,0.1,0.3,0.3v0.5h-0.1v-0.4
			c0-0.1,0-0.2-0.2-0.2c-0.1,0-0.2,0.1-0.2,0.1c0,0,0,0,0,0.1v0.5h-0.1V308.2z"/>
		<path class="st5" d="M950.3,307.7v0.9c0,0.1,0,0.1,0,0.2h-0.1l0-0.1h0c0,0.1-0.1,0.1-0.3,0.1c-0.2,0-0.3-0.2-0.3-0.4
			c0-0.3,0.2-0.4,0.3-0.4c0.1,0,0.2,0.1,0.2,0.1h0v-0.5H950.3z M950.1,308.3C950.1,308.3,950.1,308.3,950.1,308.3
			c0-0.1-0.1-0.2-0.2-0.2c-0.1,0-0.2,0.1-0.2,0.3c0,0.2,0.1,0.3,0.2,0.3c0.1,0,0.2-0.1,0.2-0.2c0,0,0,0,0-0.1V308.3z"/>
		<path class="st5" d="M950.8,307.7h0.1v0.9h0.5v0.1h-0.6V307.7z"/>
		<path class="st5" d="M951.7,307.8C951.7,307.8,951.7,307.9,951.7,307.8c-0.1,0.1-0.2,0-0.2,0S951.6,307.7,951.7,307.8
			C951.7,307.7,951.7,307.7,951.7,307.8z M951.6,308.8V308h0.1v0.8H951.6z"/>
		<path class="st5" d="M951.9,308.2c0-0.1,0-0.1,0-0.2h0.1l0,0.1h0c0-0.1,0.1-0.1,0.3-0.1c0.1,0,0.3,0.1,0.3,0.3v0.5h-0.1v-0.4
			c0-0.1,0-0.2-0.2-0.2c-0.1,0-0.2,0.1-0.2,0.1c0,0,0,0,0,0.1v0.5h-0.1V308.2z"/>
		<path class="st5" d="M952.9,308.4c0,0.2,0.1,0.3,0.3,0.3c0.1,0,0.2,0,0.2,0l0,0.1c0,0-0.1,0-0.3,0c-0.2,0-0.4-0.2-0.4-0.4
			c0-0.2,0.1-0.4,0.4-0.4c0.2,0,0.3,0.2,0.3,0.4c0,0,0,0,0,0.1H952.9z M953.3,308.3c0-0.1,0-0.2-0.2-0.2c-0.1,0-0.2,0.1-0.2,0.2
			H953.3z"/>
		<path class="st5" d="M953.9,307.7c0.1,0,0.2,0,0.2,0c0.1,0,0.2,0,0.3,0.1c0.1,0,0.1,0.1,0.1,0.2c0,0.1-0.1,0.2-0.2,0.2v0
			c0.1,0,0.2,0.1,0.2,0.3c0,0.1,0,0.2-0.1,0.2c-0.1,0.1-0.2,0.1-0.4,0.1c-0.1,0-0.2,0-0.2,0V307.7z M954.1,308.2h0.1
			c0.1,0,0.2-0.1,0.2-0.2c0-0.1-0.1-0.2-0.2-0.2c-0.1,0-0.1,0-0.1,0V308.2z M954.1,308.7c0,0,0.1,0,0.1,0c0.1,0,0.3-0.1,0.3-0.2
			c0-0.1-0.1-0.2-0.3-0.2h-0.1V308.7z"/>
		<path class="st5" d="M955.4,308.6c0,0.1,0,0.1,0,0.2h-0.1l0-0.1h0c0,0.1-0.1,0.1-0.3,0.1c-0.1,0-0.3-0.1-0.3-0.3V308h0.1v0.4
			c0,0.1,0,0.2,0.2,0.2c0.1,0,0.2-0.1,0.2-0.1c0,0,0,0,0-0.1V308h0.1V308.6z"/>
		<path class="st5" d="M955.8,307.8C955.8,307.8,955.8,307.9,955.8,307.8c-0.1,0.1-0.2,0-0.2,0S955.7,307.7,955.8,307.8
			C955.8,307.7,955.8,307.7,955.8,307.8z M955.6,308.8V308h0.1v0.8H955.6z"/>
		<path class="st5" d="M956,307.7h0.1v1.1H956V307.7z"/>
		<path class="st5" d="M957,307.7v0.9c0,0.1,0,0.1,0,0.2h-0.1l0-0.1h0c0,0.1-0.1,0.1-0.3,0.1c-0.2,0-0.3-0.2-0.3-0.4
			c0-0.3,0.2-0.4,0.3-0.4c0.1,0,0.2,0.1,0.2,0.1h0v-0.5H957z M956.9,308.3C956.9,308.3,956.9,308.3,956.9,308.3
			c0-0.1-0.1-0.2-0.2-0.2c-0.1,0-0.2,0.1-0.2,0.3c0,0.2,0.1,0.3,0.2,0.3c0.1,0,0.2-0.1,0.2-0.2c0,0,0,0,0-0.1V308.3z"/>
		<path class="st5" d="M957.4,307.8C957.4,307.8,957.4,307.9,957.4,307.8c-0.1,0.1-0.2,0-0.2,0S957.3,307.7,957.4,307.8
			C957.4,307.7,957.4,307.7,957.4,307.8z M957.3,308.8V308h0.1v0.8H957.3z"/>
		<path class="st5" d="M957.6,308.2c0-0.1,0-0.1,0-0.2h0.1l0,0.1h0c0-0.1,0.1-0.1,0.3-0.1c0.1,0,0.3,0.1,0.3,0.3v0.5h-0.1v-0.4
			c0-0.1,0-0.2-0.2-0.2c-0.1,0-0.2,0.1-0.2,0.1c0,0,0,0,0,0.1v0.5h-0.1V308.2z"/>
		<path class="st5" d="M959.1,308.7c0,0.2,0,0.3-0.1,0.3c-0.1,0.1-0.2,0.1-0.3,0.1c-0.1,0-0.2,0-0.3-0.1l0-0.1
			c0.1,0,0.1,0.1,0.2,0.1c0.1,0,0.2-0.1,0.2-0.3v-0.1h0c0,0.1-0.1,0.1-0.2,0.1c-0.2,0-0.3-0.2-0.3-0.4c0-0.3,0.2-0.4,0.3-0.4
			c0.1,0,0.2,0.1,0.2,0.1h0l0-0.1h0.1c0,0.1,0,0.1,0,0.2V308.7z M959,308.3C959,308.3,959,308.3,959,308.3c0-0.1-0.1-0.2-0.2-0.2
			c-0.1,0-0.2,0.1-0.2,0.3c0,0.1,0.1,0.3,0.2,0.3c0.1,0,0.2-0.1,0.2-0.1c0,0,0-0.1,0-0.1V308.3z"/>
		<path class="st5" d="M959.3,309c0-0.1,0.1-0.3,0.1-0.4l0.2,0C959.5,308.7,959.4,308.9,959.3,309L959.3,309z"/>
		<path class="st5" d="M960,308.8v-1.1h0.2l0.3,0.5c0.1,0.1,0.1,0.2,0.2,0.3l0,0c0-0.1,0-0.3,0-0.4v-0.4h0.1v1.1h-0.1l-0.3-0.5
			c-0.1-0.1-0.1-0.2-0.2-0.4l0,0c0,0.1,0,0.3,0,0.4v0.5H960z"/>
		<path class="st5" d="M961.3,308.8v-0.4l-0.3-0.6h0.2l0.1,0.3c0,0.1,0.1,0.1,0.1,0.2h0c0-0.1,0.1-0.1,0.1-0.2l0.2-0.3h0.2l-0.4,0.6
			v0.4H961.3z"/>
		<path class="st5" d="M962.6,308.7c0,0-0.2,0.1-0.3,0.1c-0.3,0-0.5-0.2-0.5-0.5c0-0.3,0.2-0.6,0.6-0.6c0.1,0,0.2,0,0.3,0l0,0.1
			c-0.1,0-0.1,0-0.2,0c-0.2,0-0.4,0.2-0.4,0.4c0,0.3,0.1,0.4,0.4,0.4c0.1,0,0.2,0,0.2,0L962.6,308.7z"/>
	</g>
	<g>
		<path class="st6" d="M909.6,306.2h1l0.4,1.6h0l0.4-1.6h1l-1,2.6h-1L909.6,306.2z"/>
		<path class="st6" d="M912.7,306.2h1.8v0.7h-1v0.2h0.9v0.7h-0.9v0.2h1v0.7h-1.9V306.2z"/>
		<path class="st6" d="M914.8,307.5c0-0.2,0-0.4,0.1-0.6c0.1-0.2,0.2-0.3,0.3-0.4c0.1-0.1,0.3-0.2,0.5-0.3c0.2-0.1,0.4-0.1,0.6-0.1
			c0.2,0,0.4,0,0.6,0.1c0.2,0.1,0.3,0.2,0.5,0.3l-0.5,0.7c0-0.1-0.1-0.1-0.2-0.1c-0.1,0-0.2-0.1-0.2-0.1c-0.1,0-0.1,0-0.2,0
			c-0.1,0-0.1,0.1-0.2,0.1c0,0-0.1,0.1-0.1,0.2c0,0.1,0,0.1,0,0.2c0,0.1,0,0.2,0,0.2c0,0.1,0.1,0.1,0.1,0.2s0.1,0.1,0.2,0.1
			c0.1,0,0.1,0,0.2,0c0.1,0,0.2,0,0.3-0.1s0.1-0.1,0.2-0.1l0.5,0.7c-0.1,0.1-0.3,0.2-0.4,0.3c-0.2,0.1-0.4,0.1-0.6,0.1
			c-0.2,0-0.4,0-0.6-0.1c-0.2-0.1-0.3-0.2-0.5-0.3c-0.1-0.1-0.2-0.3-0.3-0.4C914.8,307.9,914.8,307.7,914.8,307.5z"/>
		<path class="st6" d="M918.8,308.9h-0.9V307h-0.6v-0.7h2.2v0.7h-0.6V308.9z"/>
		<path class="st6" d="M919.5,307.5c0-0.2,0-0.4,0.1-0.6c0.1-0.2,0.2-0.3,0.3-0.4c0.1-0.1,0.3-0.2,0.5-0.3c0.2-0.1,0.4-0.1,0.6-0.1
			c0.2,0,0.4,0,0.6,0.1c0.2,0.1,0.3,0.2,0.5,0.3c0.1,0.1,0.2,0.3,0.3,0.4c0.1,0.2,0.1,0.4,0.1,0.6c0,0.2,0,0.4-0.1,0.6
			c-0.1,0.2-0.2,0.3-0.3,0.4c-0.1,0.1-0.3,0.2-0.5,0.3c-0.2,0.1-0.4,0.1-0.6,0.1c-0.2,0-0.4,0-0.6-0.1c-0.2-0.1-0.3-0.2-0.5-0.3
			c-0.1-0.1-0.2-0.3-0.3-0.4C919.5,307.9,919.5,307.7,919.5,307.5z M920.4,307.5c0,0.1,0,0.2,0,0.2c0,0.1,0.1,0.1,0.1,0.2
			c0,0.1,0.1,0.1,0.2,0.1c0.1,0,0.1,0,0.2,0s0.1,0,0.2,0c0.1,0,0.1-0.1,0.2-0.1c0-0.1,0.1-0.1,0.1-0.2c0-0.1,0-0.2,0-0.2
			c0-0.1,0-0.2,0-0.2c0-0.1-0.1-0.1-0.1-0.2s-0.1-0.1-0.2-0.1c-0.1,0-0.1,0-0.2,0s-0.1,0-0.2,0c-0.1,0-0.1,0.1-0.2,0.1
			c0,0-0.1,0.1-0.1,0.2C920.4,307.4,920.4,307.4,920.4,307.5z"/>
		<path class="st6" d="M922.8,306.2h1.1c0.1,0,0.3,0,0.4,0c0.1,0,0.2,0.1,0.3,0.1c0.1,0.1,0.2,0.2,0.2,0.3c0.1,0.1,0.1,0.2,0.1,0.4
			c0,0.2,0,0.3-0.1,0.4c-0.1,0.1-0.2,0.2-0.3,0.3l0.7,1.1h-1l-0.5-0.9h0v0.9h-0.9V306.2z M923.6,307.3h0.2c0,0,0.1,0,0.1,0
			c0,0,0.1,0,0.1,0c0,0,0.1,0,0.1-0.1c0,0,0-0.1,0-0.1c0,0,0-0.1,0-0.1s0,0-0.1-0.1s-0.1,0-0.1,0c0,0-0.1,0-0.1,0h-0.2V307.3z"/>
	</g>
	<g>
		<path class="st7" d="M927.9,307.5c0.1,0,0.1,0,0.2,0.1c0.1,0,0.1,0.1,0.2,0.1c0,0.1,0.1,0.1,0.1,0.2c0,0.1,0,0.1,0,0.2
			c0,0.1,0,0.3-0.1,0.4c-0.1,0.1-0.1,0.2-0.2,0.2c-0.1,0.1-0.2,0.1-0.3,0.1c-0.1,0-0.2,0-0.4,0h-1.2v-2.6h1.1c0.1,0,0.2,0,0.3,0
			c0.1,0,0.2,0,0.3,0.1c0.1,0,0.2,0.1,0.3,0.2c0.1,0.1,0.1,0.2,0.1,0.4c0,0.1,0,0.3-0.1,0.3C928.1,307.4,928,307.4,927.9,307.5
			L927.9,307.5z M927,306.9v0.3h0.2c0.1,0,0.1,0,0.2,0c0,0,0.1-0.1,0.1-0.1c0,0,0-0.1-0.1-0.1c0,0-0.1,0-0.2,0H927z M927,307.8v0.4
			h0.3c0.1,0,0.1,0,0.2,0c0,0,0.1-0.1,0.1-0.1c0,0,0-0.1,0-0.1c0,0,0,0-0.1-0.1c0,0-0.1,0-0.1,0c0,0-0.1,0-0.1,0H927z"/>
		<path class="st7" d="M929.5,306.2h0.9l1,2.6h-1l-0.1-0.4h-0.8l-0.1,0.4h-0.9L929.5,306.2z M929.9,307.1l-0.2,0.7h0.4L929.9,307.1z
			"/>
		<path class="st7" d="M931.6,306.2h0.9l0.8,1.3h0l0-1.3h0.8v2.6h-0.9l-0.7-1.3h0l0,1.3h-0.8V306.2z"/>
		<path class="st7" d="M934.6,306.2h0.9l0.8,1.3h0l0-1.3h0.8v2.6h-0.9l-0.7-1.3h0l0,1.3h-0.8V306.2z"/>
		<path class="st7" d="M937.5,306.2h1.8v0.7h-1v0.2h0.9v0.7h-0.9v0.2h1v0.7h-1.9V306.2z"/>
		<path class="st7" d="M939.7,306.2h1.1c0.1,0,0.3,0,0.4,0c0.1,0,0.2,0.1,0.3,0.1c0.1,0.1,0.2,0.2,0.2,0.3c0.1,0.1,0.1,0.2,0.1,0.4
			c0,0.2,0,0.3-0.1,0.4c-0.1,0.1-0.2,0.2-0.3,0.3l0.7,1.1h-1l-0.5-0.9h0v0.9h-0.9V306.2z M940.6,307.3h0.2c0,0,0.1,0,0.1,0
			s0.1,0,0.1,0c0,0,0.1,0,0.1-0.1c0,0,0-0.1,0-0.1c0,0,0-0.1,0-0.1s0,0-0.1-0.1s-0.1,0-0.1,0c0,0-0.1,0-0.1,0h-0.2V307.3z"/>
	</g>
</g>
<g>
	<g>
		<g>
			<defs>
				<polygon id="SVGID_1_" points="1904.6,613.5 1905.4,6.8 938.6,6.8 938.6,613.5 				"/>
			</defs>
			<clipPath id="SVGID_00000041994885070957098960000007376970992433118386_">
				<use xlink:href="#SVGID_1_"  style="overflow:visible;"/>
			</clipPath>
			<g style="clip-path:url(#SVGID_00000041994885070957098960000007376970992433118386_);">
				<path class="st9" d="M2157.3,333.5c0-2.4-2-4.4-4.4-4.4c-2.4,0-4.4,2-4.4,4.4s2,4.4,4.4,4.4
					C2155.3,337.9,2157.3,335.9,2157.3,333.5z"/>
				<circle class="st9" cx="2120.4" cy="360.1" r="4.2"/>
				<path class="st9" d="M2090.6,385c0-2.2-1.8-4-4-4c-2.2,0-4,1.8-4,4s1.8,4,4,4C2088.8,388.9,2090.6,387.2,2090.6,385z"/>
				<path class="st9" d="M2056.8,407.9c0-2.9-2.4-5.3-5.3-5.3c-2.9,0-5.3,2.4-5.3,5.3c0,2.9,2.4,5.3,5.3,5.3
					C2054.4,413.2,2056.8,410.9,2056.8,407.9z"/>
				<path class="st9" d="M2022.3,429.1c0-3.9-3.2-7-7-7c-3.9,0-7,3.2-7,7s3.2,7,7,7C2019.1,436.1,2022.3,433,2022.3,429.1z"/>
				<path class="st9" d="M1987,448.3c0-5-4-9-9-9c-5,0-9,4-9,9c0,5,4,9,9,9C1982.9,457.4,1987,453.3,1987,448.3z"/>
				<path class="st9" d="M1950.8,465.5c0-6.2-5-11.2-11.2-11.2c-6.2,0-11.2,5-11.2,11.2c0,6.2,5,11.2,11.2,11.2
					C1945.8,476.7,1950.8,471.7,1950.8,465.5z"/>
				<path class="st9" d="M1913.4,480.6c0-7.1-5.8-12.9-12.9-12.9c-7.1,0-12.9,5.8-12.9,12.9c0,7.1,5.8,12.9,12.9,12.9
					C1907.7,493.6,1913.4,487.8,1913.4,480.6z"/>
				<path class="st9" d="M1875.1,493.7c0-8-6.5-14.4-14.4-14.4c-8,0-14.4,6.5-14.4,14.4c0,8,6.5,14.4,14.4,14.4
					C1868.7,508.1,1875.1,501.7,1875.1,493.7z"/>
				<path class="st9" d="M1836.1,504.7c0-8.8-7.2-16-16-16c-8.8,0-16,7.2-16,16c0,8.8,7.2,16,16,16
					C1829,520.7,1836.1,513.6,1836.1,504.7z"/>
				<circle class="st9" cx="1779.1" cy="513.5" r="17"/>
				<path class="st9" d="M1755.4,520.1c0-9.8-7.9-17.7-17.7-17.7c-9.8,0-17.7,7.9-17.7,17.7c0,9.8,7.9,17.7,17.7,17.7
					C1747.4,537.8,1755.4,529.8,1755.4,520.1z"/>
				<path class="st9" d="M1714.2,524.5c0-10.1-8.2-18.3-18.3-18.3s-18.3,8.2-18.3,18.3c0,10.1,8.2,18.3,18.3,18.3
					S1714.2,534.6,1714.2,524.5z"/>
				<path class="st9" d="M1672.3,526.7c0-10.1-8.2-18.2-18.2-18.2c-10.1,0-18.2,8.2-18.2,18.2c0,10.1,8.2,18.2,18.2,18.2
					C1664.1,545,1672.3,536.8,1672.3,526.7z"/>
				<path class="st9" d="M1629.8,526.7c0-9.8-7.9-17.7-17.7-17.7s-17.7,7.9-17.7,17.7c0,9.8,7.9,17.7,17.7,17.7
					S1629.8,536.5,1629.8,526.7z"/>
				<path class="st9" d="M1587.7,524.5c0-9.7-7.8-17.5-17.5-17.5c-9.7,0-17.5,7.8-17.5,17.5c0,9.7,7.8,17.5,17.5,17.5
					C1579.8,542,1587.7,534.2,1587.7,524.5z"/>
				<path class="st9" d="M1545,520.1c0-9.1-7.4-16.6-16.6-16.6c-9.1,0-16.6,7.4-16.6,16.6c0,9.1,7.4,16.6,16.6,16.6
					C1537.6,536.6,1545,529.2,1545,520.1z"/>
				<path class="st9" d="M1503,513.5c0-8.8-7.2-16-16-16c-8.8,0-16,7.2-16,16c0,8.8,7.2,16,16,16
					C1495.8,529.5,1503,522.4,1503,513.5z"/>
				<path class="st9" d="M1460.9,504.7c0-8.3-6.7-15-15-15c-8.3,0-15,6.7-15,15c0,8.3,6.7,15,15,15
					C1454.2,519.7,1460.9,513,1460.9,504.7z"/>
				<path class="st9" d="M1419.5,493.7c0-7.8-6.3-14.1-14.1-14.1c-7.8,0-14.1,6.3-14.1,14.1c0,7.8,6.3,14.1,14.1,14.1
					C1413.2,507.8,1419.5,501.5,1419.5,493.7z"/>
				<path class="st9" d="M1378.6,480.6c0-7.2-5.8-13-13-13c-7.2,0-13,5.8-13,13c0,7.2,5.8,13,13,13
					C1372.7,493.6,1378.6,487.8,1378.6,480.6z"/>
				<circle class="st9" cx="1326.4" cy="465.5" r="12.6"/>
				<path class="st9" d="M1299.8,448.3c0-6.4-5.2-11.6-11.6-11.6c-6.4,0-11.6,5.2-11.6,11.6s5.2,11.6,11.6,11.6
					C1294.6,460,1299.8,454.8,1299.8,448.3z"/>
				<path class="st9" d="M1262.3,429.1c0-6.3-5.1-11.4-11.4-11.4c-6.3,0-11.4,5.1-11.4,11.4c0,6.3,5.1,11.4,11.4,11.4
					C1257.2,440.5,1262.3,435.4,1262.3,429.1z"/>
				<path class="st9" d="M1224.9,407.9c0-5.7-4.6-10.3-10.3-10.3c-5.7,0-10.3,4.6-10.3,10.3c0,5.7,4.6,10.3,10.3,10.3
					C1220.3,418.2,1224.9,413.6,1224.9,407.9z"/>
				<path class="st9" d="M1188.5,385c0-4.9-4-8.9-9-8.9c-4.9,0-8.9,4-8.9,8.9c0,4.9,4,8.9,8.9,8.9
					C1184.5,393.9,1188.5,389.9,1188.5,385z"/>
				<circle class="st9" cx="1145.7" cy="360.1" r="8"/>
				<path class="st9" d="M1120.4,333.5c0-4-3.2-7.2-7.2-7.2s-7.2,3.2-7.2,7.2c0,4,3.2,7.2,7.2,7.2S1120.4,337.5,1120.4,333.5z"/>
				<path class="st9" d="M2183.2,253.4c0-3.7-3-6.7-6.7-6.7s-6.7,3-6.7,6.7c0,3.7,3,6.7,6.7,6.7S2183.2,257.1,2183.2,253.4z"/>
				<path class="st9" d="M2152.7,282.8c0-3.3-2.7-6-6-6c-3.3,0-6,2.7-6,6s2.7,6,6,6C2150,288.8,2152.7,286.1,2152.7,282.8z"/>
				<circle class="st9" cx="2115.4" cy="310.5" r="5.1"/>
				<path class="st9" d="M2087.5,336.4c0-2.8-2.3-5.1-5.1-5.1c-2.8,0-5.1,2.3-5.1,5.1c0,2.8,2.3,5.1,5.1,5.1
					C2085.2,341.5,2087.5,339.2,2087.5,336.4z"/>
				<path class="st9" d="M2054.5,360.4c0-3.5-2.8-6.3-6.3-6.3c-3.5,0-6.3,2.8-6.3,6.3c0,3.5,2.8,6.3,6.3,6.3
					C2051.7,366.7,2054.5,363.9,2054.5,360.4z"/>
				<path class="st9" d="M2020.1,382.5c0-4.2-3.4-7.5-7.5-7.5c-4.2,0-7.5,3.4-7.5,7.5c0,4.2,3.4,7.5,7.5,7.5
					C2016.8,390,2020.1,386.7,2020.1,382.5z"/>
				<path class="st9" d="M1985.4,402.6c0-5.3-4.3-9.5-9.5-9.5c-5.2,0-9.5,4.3-9.5,9.5c0,5.2,4.3,9.5,9.5,9.5
					C1981.1,412.1,1985.4,407.9,1985.4,402.6z"/>
				<path class="st9" d="M1949,420.6c0-6-4.9-10.9-10.9-10.9c-6,0-10.9,4.9-10.9,10.9c0,6,4.9,10.9,10.9,10.9
					C1944.1,431.5,1949,426.6,1949,420.6z"/>
				<path class="st9" d="M1912.3,436.5c0-7.2-5.8-13-13-13c-7.2,0-13,5.8-13,13c0,7.2,5.8,13,13,13
					C1906.5,449.5,1912.3,443.7,1912.3,436.5z"/>
				<circle class="st9" cx="1859.7" cy="450.2" r="14.7"/>
				<path class="st9" d="M1835.7,461.7c0-8.9-7.2-16.2-16.2-16.2c-8.9,0-16.2,7.2-16.2,16.2s7.2,16.2,16.2,16.2
					C1828.4,477.9,1835.7,470.6,1835.7,461.7z"/>
				<path class="st9" d="M1795.8,471c0-9.4-7.7-17.1-17.1-17.1c-9.4,0-17.1,7.7-17.1,17.1c0,9.4,7.7,17.1,17.1,17.1
					C1788.2,488.1,1795.8,480.4,1795.8,471z"/>
				<path class="st9" d="M1755,478c0-9.8-7.9-17.7-17.7-17.7c-9.8,0-17.7,7.9-17.7,17.7c0,9.8,7.9,17.7,17.7,17.7
					C1747.1,495.6,1755,487.7,1755,478z"/>
				<path class="st9" d="M1714.1,482.5c0-10.1-8.2-18.3-18.3-18.3c-10.1,0-18.3,8.2-18.3,18.3c0,10.1,8.2,18.3,18.3,18.3
					C1705.9,500.8,1714.1,492.7,1714.1,482.5z"/>
				<circle class="st9" cx="1654" cy="484.9" r="18.2"/>
				<circle class="st9" cx="1612.1" cy="484.9" r="17.7"/>
				<circle class="st9" cx="1570.3" cy="482.5" r="17.5"/>
				<path class="st9" d="M1545.1,478c0-9-7.3-16.3-16.3-16.3s-16.3,7.3-16.3,16.3s7.3,16.3,16.3,16.3S1545.1,487,1545.1,478z"/>
				<circle class="st9" cx="1487.4" cy="471" r="15.9"/>
				<path class="st9" d="M1461.3,461.7c0-8.1-6.6-14.7-14.7-14.7s-14.7,6.6-14.7,14.7c0,8.1,6.6,14.7,14.7,14.7
					S1461.3,469.9,1461.3,461.7z"/>
				<path class="st9" d="M1420.5,450.2c0-7.8-6.3-14.1-14.1-14.1c-7.8,0-14.1,6.3-14.1,14.1s6.3,14.1,14.1,14.1
					C1414.1,464.3,1420.5,458,1420.5,450.2z"/>
				<path class="st9" d="M1380,436.5c0-7.3-5.9-13.2-13.2-13.2c-7.3,0-13.2,5.9-13.2,13.2c0,7.3,5.9,13.2,13.2,13.2
					C1374.1,449.8,1380,443.8,1380,436.5z"/>
				<circle class="st9" cx="1328" cy="420.6" r="12.2"/>
				<circle class="st9" cx="1290.2" cy="402.6" r="11.1"/>
				<path class="st9" d="M1263.2,382.5c0-5.3-4.3-9.7-9.7-9.7c-5.3,0-9.7,4.3-9.7,9.7c0,5.3,4.3,9.7,9.7,9.7
					C1258.8,392.2,1263.2,387.8,1263.2,382.5z"/>
				<path class="st9" d="M1226.4,360.4c0-4.7-3.8-8.5-8.5-8.5s-8.5,3.8-8.5,8.5s3.8,8.5,8.5,8.5S1226.4,365.1,1226.4,360.4z"/>
				<path class="st9" d="M1191.3,336.4c0-4.2-3.4-7.6-7.6-7.6c-4.2,0-7.6,3.4-7.6,7.6c0,4.2,3.4,7.6,7.6,7.6
					C1187.9,344,1191.3,340.6,1191.3,336.4z"/>
				<path class="st9" d="M1156.9,310.5c0-3.4-2.8-6.2-6.2-6.2c-3.4,0-6.2,2.8-6.2,6.2s2.8,6.2,6.2,6.2
					C1154.2,316.7,1156.9,313.9,1156.9,310.5z"/>
				<path class="st9" d="M1124.4,282.8c0-2.8-2.2-5-5-5c-2.8,0-5,2.2-5,5c0,2.8,2.2,5,5,5C1122.1,287.8,1124.4,285.5,1124.4,282.8z"
					/>
				<path class="st9" d="M1093.2,253.4c0-2-1.6-3.6-3.6-3.6c-2,0-3.6,1.6-3.6,3.6c0,2,1.6,3.6,3.6,3.6
					C1091.6,257,1093.2,255.4,1093.2,253.4z"/>
				<path class="st9" d="M2165.2,212.2c0-4.1-3.3-7.4-7.4-7.4c-4.1,0-7.4,3.3-7.4,7.4c0,4.1,3.3,7.4,7.4,7.4
					C2161.9,219.6,2165.2,216.3,2165.2,212.2z"/>
				<path class="st9" d="M2135.4,242.5c0-3.9-3.1-7-7-7s-7,3.1-7,7s3.1,7,7,7S2135.4,246.3,2135.4,242.5z"/>
				<circle class="st9" cx="2097.4" cy="270.9" r="6.2"/>
				<path class="st9" d="M2071.9,297.4c0-4-3.3-7.3-7.3-7.3c-4,0-7.3,3.3-7.3,7.3c0,4,3.3,7.3,7.3,7.3
					C2068.7,304.7,2071.9,301.5,2071.9,297.4z"/>
				<path class="st9" d="M2038.4,322c0-4.5-3.6-8.1-8.1-8.1c-4.5,0-8.1,3.6-8.1,8.1s3.6,8.1,8.1,8.1
					C2034.8,330.1,2038.4,326.5,2038.4,322z"/>
				<path class="st9" d="M2003.9,344.5c0-5.1-4.1-9.2-9.2-9.2c-5.1,0-9.2,4.1-9.2,9.2c0,5.1,4.1,9.2,9.2,9.2
					C1999.8,353.7,2003.9,349.6,2003.9,344.5z"/>
				<path class="st9" d="M1968.7,364.8c0-6-4.9-10.9-10.9-10.9c-6,0-10.9,4.9-10.9,10.9c0,6,4.9,10.9,10.9,10.9
					C1963.8,375.8,1968.7,370.9,1968.7,364.8z"/>
				<path class="st9" d="M1932.1,383c0-6.8-5.5-12.3-12.3-12.3c-6.8,0-12.3,5.5-12.3,12.3c0,6.8,5.5,12.3,12.3,12.3
					C1926.6,395.3,1932.1,389.8,1932.1,383z"/>
				<path class="st9" d="M1894.4,398.8c0-7.6-6.1-13.7-13.7-13.7c-7.6,0-13.7,6.1-13.7,13.7s6.1,13.7,13.7,13.7
					C1888.3,412.5,1894.4,406.4,1894.4,398.8z"/>
				<path class="st9" d="M1856.2,412.4c0-8.5-6.9-15.4-15.4-15.4c-8.5,0-15.4,6.9-15.4,15.4c0,8.5,6.9,15.4,15.4,15.4
					C1849.3,427.8,1856.2,420.9,1856.2,412.4z"/>
				<circle class="st9" cx="1800.1" cy="423.5" r="16.6"/>
				<path class="st9" d="M1776.4,432.1c0-9.7-7.9-17.6-17.6-17.6c-9.7,0-17.6,7.9-17.6,17.6c0,9.7,7.9,17.6,17.6,17.6
					C1768.5,449.7,1776.4,441.8,1776.4,432.1z"/>
				<path class="st9" d="M1735.1,438.4c0-9.9-8-17.9-17.9-17.9c-9.9,0-17.9,8-17.9,17.9s8,17.9,17.9,17.9
					C1727.1,456.3,1735.1,448.2,1735.1,438.4z"/>
				<path class="st9" d="M1693.3,442.1c0-10-8.1-18.1-18.1-18.1c-10,0-18.1,8.1-18.1,18.1c0,10,8.1,18.1,18.1,18.1
					C1685.2,460.1,1693.3,452,1693.3,442.1z"/>
				<circle class="st9" cx="1633.1" cy="443.3" r="18"/>
				<path class="st9" d="M1608.9,442.1c0-9.9-8-18-18-18c-9.9,0-18,8.1-18,18c0,9.9,8.1,18,18,18
					C1600.8,460.1,1608.9,452,1608.9,442.1z"/>
				<path class="st9" d="M1565.7,438.4c0-9.3-7.5-16.8-16.8-16.8c-9.3,0-16.8,7.5-16.8,16.8c0,9.3,7.5,16.8,16.8,16.8
					C1558.2,455.1,1565.7,447.6,1565.7,438.4z"/>
				<path class="st9" d="M1523.5,432.1c0-9-7.3-16.2-16.2-16.2c-9,0-16.2,7.3-16.2,16.2c0,9,7.3,16.2,16.2,16.2
					C1516.2,448.3,1523.5,441.1,1523.5,432.1z"/>
				<path class="st9" d="M1481.6,423.5c0-8.6-7-15.6-15.6-15.6c-8.6,0-15.6,7-15.6,15.6c0,8.6,7,15.6,15.6,15.6
					C1474.6,439.1,1481.6,432.1,1481.6,423.5z"/>
				<path class="st9" d="M1439.5,412.4c0-7.8-6.3-14.2-14.2-14.2c-7.8,0-14.2,6.3-14.2,14.2c0,7.8,6.3,14.2,14.2,14.2
					C1433.2,426.5,1439.5,420.2,1439.5,412.4z"/>
				<path class="st9" d="M1398.1,398.8c0-7-5.7-12.8-12.8-12.8c-7,0-12.8,5.7-12.8,12.8c0,7,5.7,12.8,12.8,12.8
					C1392.4,411.6,1398.1,405.9,1398.1,398.8z"/>
				<circle class="st9" cx="1346.3" cy="383" r="11.7"/>
				<path class="st9" d="M1318.4,364.8c0-5.6-4.5-10.1-10.1-10.1c-5.6,0-10.1,4.5-10.1,10.1s4.5,10.1,10.1,10.1
					C1313.9,375,1318.4,370.4,1318.4,364.8z"/>
				<path class="st9" d="M1280.1,344.5c0-4.8-3.9-8.7-8.7-8.7s-8.7,3.9-8.7,8.7c0,4.8,3.9,8.7,8.7,8.7S1280.1,349.3,1280.1,344.5z"
					/>
				<path class="st9" d="M1243,322c0-4-3.2-7.2-7.2-7.2c-4,0-7.2,3.2-7.2,7.2s3.2,7.2,7.2,7.2C1239.7,329.2,1243,326,1243,322z"/>
				<circle class="st9" cx="1201.4" cy="297.4" r="5.8"/>
				<path class="st9" d="M1172.9,270.9c0-2.3-1.8-4.1-4.1-4.1c-2.3,0-4.1,1.8-4.1,4.1c0,2.3,1.8,4.1,4.1,4.1
					C1171,275,1172.9,273.2,1172.9,270.9z"/>
				<path class="st9" d="M1141.1,242.5c0-1.9-1.5-3.4-3.4-3.4s-3.4,1.5-3.4,3.4s1.5,3.4,3.4,3.4S1141.1,244.3,1141.1,242.5z"/>
				<path class="st9" d="M1110,212.2c0-1-0.8-1.7-1.7-1.7s-1.7,0.8-1.7,1.7c0,1,0.8,1.7,1.7,1.7S1110,213.2,1110,212.2z"/>
				<path class="st9" d="M2183.9,125.6c0-5.2-4.2-9.3-9.3-9.3c-5.2,0-9.3,4.2-9.3,9.3c0,5.2,4.2,9.3,9.3,9.3
					C2179.8,134.9,2183.9,130.7,2183.9,125.6z"/>
				<path class="st9" d="M2157.6,158.8c0-4.9-3.9-8.8-8.8-8.8c-4.9,0-8.8,3.9-8.8,8.8c0,4.9,3.9,8.8,8.8,8.8
					C2153.7,167.6,2157.6,163.7,2157.6,158.8z"/>
				<path class="st9" d="M2129.4,190.3c0-4.6-3.8-8.4-8.4-8.4c-4.6,0-8.4,3.8-8.4,8.4s3.8,8.4,8.4,8.4
					C2125.6,198.7,2129.4,195,2129.4,190.3z"/>
				<path class="st9" d="M2098.9,220.1c0-4.2-3.4-7.6-7.6-7.6c-4.2,0-7.6,3.4-7.6,7.6c0,4.2,3.4,7.6,7.6,7.6
					C2095.5,227.7,2098.9,224.3,2098.9,220.1z"/>
				<path class="st9" d="M2068.1,247.9c0-4.6-3.7-8.3-8.3-8.3c-4.6,0-8.3,3.7-8.3,8.3c0,4.6,3.7,8.3,8.3,8.3
					C2064.3,256.2,2068.1,252.5,2068.1,247.9z"/>
				<path class="st9" d="M2035.4,273.7c0-4.9-4-9-9-9c-4.9,0-8.9,4-8.9,9c0,4.9,4,8.9,8.9,8.9
					C2031.4,282.6,2035.4,278.6,2035.4,273.7z"/>
				<path class="st9" d="M2001.8,297.3c0-5.6-4.5-10.1-10.1-10.1c-5.6,0-10.1,4.5-10.1,10.1c0,5.6,4.5,10.1,10.1,10.1
					C1997.3,307.4,2001.8,302.9,2001.8,297.3z"/>
				<circle class="st9" cx="1955.5" cy="318.7" r="11.3"/>
				<circle class="st9" cx="1918" cy="337.8" r="12.8"/>
				<circle class="st9" cx="1879.5" cy="354.5" r="14.2"/>
				<path class="st9" d="M1855,368.7c0-8.4-6.8-15.1-15.1-15.1c-8.4,0-15.1,6.8-15.1,15.1s6.8,15.1,15.1,15.1
					C1848.2,383.9,1855,377.1,1855,368.7z"/>
				<path class="st9" d="M1815.9,380.4c0-9.1-7.3-16.4-16.4-16.4c-9.1,0-16.4,7.3-16.4,16.4c0,9.1,7.3,16.4,16.4,16.4
					C1808.6,396.8,1815.9,389.5,1815.9,380.4z"/>
				<path class="st9" d="M1775.6,389.6c0-9.4-7.7-17.1-17.1-17.1c-9.4,0-17.1,7.7-17.1,17.1c0,9.4,7.7,17.1,17.1,17.1
					C1768,406.7,1775.6,399.1,1775.6,389.6z"/>
				<path class="st9" d="M1734.8,396.2c0-9.8-8-17.8-17.8-17.8c-9.8,0-17.8,8-17.8,17.8c0,9.8,8,17.8,17.8,17.8
					C1726.8,414,1734.8,406.1,1734.8,396.2z"/>
				<path class="st9" d="M1693.3,400.2c0-10.1-8.2-18.2-18.2-18.2c-10.1,0-18.2,8.2-18.2,18.2c0,10.1,8.2,18.2,18.2,18.2
					C1685.2,418.4,1693.3,410.2,1693.3,400.2z"/>
				<path class="st9" d="M1650.9,401.5c0-9.8-8-17.8-17.8-17.8c-9.8,0-17.8,8-17.8,17.8c0,9.8,8,17.8,17.8,17.8
					C1642.9,419.3,1650.9,411.4,1650.9,401.5z"/>
				<path class="st9" d="M1608.2,400.2c0-9.5-7.7-17.2-17.2-17.2c-9.5,0-17.2,7.7-17.2,17.2c0,9.5,7.7,17.2,17.2,17.2
					C1600.5,417.4,1608.2,409.7,1608.2,400.2z"/>
				<circle class="st9" cx="1549.2" cy="396.2" r="16.2"/>
				<circle class="st9" cx="1507.6" cy="389.6" r="15"/>
				<path class="st9" d="M1481,380.4c0-8-6.5-14.4-14.4-14.4c-8,0-14.4,6.5-14.4,14.4c0,8,6.5,14.4,14.4,14.4
					C1474.5,394.9,1481,388.4,1481,380.4z"/>
				<path class="st9" d="M1439.1,368.7c0-7.1-5.7-12.8-12.8-12.8c-7.1,0-12.8,5.7-12.8,12.8c0,7.1,5.7,12.8,12.8,12.8
					C1433.3,381.6,1439.1,375.8,1439.1,368.7z"/>
				<path class="st9" d="M1398.1,354.5c0-6.3-5.1-11.5-11.5-11.5c-6.3,0-11.5,5.1-11.5,11.5c0,6.3,5.1,11.5,11.5,11.5
					C1393,366,1398.1,360.8,1398.1,354.5z"/>
				<path class="st9" d="M1358.1,337.8c0-5.6-4.5-10.1-10.1-10.1s-10.1,4.5-10.1,10.1c0,5.6,4.5,10.1,10.1,10.1
					S1358.1,343.4,1358.1,337.8z"/>
				<path class="st9" d="M1318.9,318.7c0-4.6-3.7-8.3-8.3-8.3c-4.6,0-8.3,3.7-8.3,8.3s3.7,8.3,8.3,8.3
					C1315.2,327.1,1318.9,323.3,1318.9,318.7z"/>
				<path class="st9" d="M1281.4,297.3c0-3.9-3.2-7-7-7s-7,3.2-7,7s3.2,7,7,7S1281.4,301.2,1281.4,297.3z"/>
				<path class="st9" d="M1245.2,273.7c0-3.1-2.5-5.6-5.6-5.6c-3.1,0-5.6,2.5-5.6,5.6c0,3.1,2.5,5.6,5.6,5.6
					C1242.7,279.3,1245.2,276.8,1245.2,273.7z"/>
				<path class="st9" d="M1210.4,247.9c0-2.2-1.8-4-4-4c-2.2,0-4,1.8-4,4s1.8,4,4,4C1208.6,252,1210.4,250.2,1210.4,247.9z"/>
				<path class="st9" d="M1177,220.1c0-1.2-1-2.1-2.1-2.1c-1.2,0-2.1,1-2.1,2.1s1,2.1,2.1,2.1C1176,222.2,1177,221.2,1177,220.1z"/>
				<circle class="st9" cx="1145.1" cy="190.3" r="0.7"/>
				<path class="st9" d="M2171.9,69.8c0-5.5-4.4-9.9-9.9-9.9c-5.5,0-9.9,4.4-9.9,9.9c0,5.5,4.4,9.9,9.9,9.9
					C2167.5,79.7,2171.9,75.3,2171.9,69.8z"/>
				<path class="st9" d="M2147.7,104.4c0-5.2-4.2-9.4-9.4-9.4c-5.2,0-9.4,4.2-9.4,9.4c0,5.2,4.2,9.4,9.4,9.4
					C2143.4,113.8,2147.7,109.6,2147.7,104.4z"/>
				<path class="st9" d="M2121.1,137.3c0-4.9-3.9-8.8-8.8-8.8c-4.9,0-8.8,3.9-8.8,8.8c0,4.9,3.9,8.8,8.8,8.8
					C2117.1,146.1,2121.1,142.1,2121.1,137.3z"/>
				<path class="st9" d="M2092.9,168.4c0-4.8-3.9-8.7-8.7-8.7c-4.8,0-8.7,3.9-8.7,8.7s3.9,8.7,8.7,8.7
					C2089,177.1,2092.9,173.2,2092.9,168.4z"/>
				<path class="st9" d="M2063.3,197.6c0-5.2-4.2-9.3-9.3-9.3c-5.2,0-9.3,4.2-9.3,9.3c0,5.2,4.2,9.3,9.3,9.3
					C2059.1,206.9,2063.3,202.7,2063.3,197.6z"/>
				<circle class="st9" cx="2022" cy="224.6" r="9.7"/>
				<path class="st9" d="M1999.2,249.5c0-6-4.9-10.9-10.9-10.9c-6,0-10.9,4.9-10.9,10.9s4.9,10.9,10.9,10.9
					C1994.3,260.4,1999.2,255.6,1999.2,249.5z"/>
				<circle class="st9" cx="1952.9" cy="272.1" r="12.2"/>
				<path class="st9" d="M1928.9,292.2c0-7.1-5.7-12.8-12.8-12.8s-12.8,5.7-12.8,12.8c0,7.1,5.7,12.8,12.8,12.8
					S1928.9,299.3,1928.9,292.2z"/>
				<path class="st9" d="M1891.9,309.9c0-7.7-6.2-13.9-13.9-13.9c-7.7,0-13.9,6.2-13.9,13.9s6.2,13.9,13.9,13.9
					C1885.7,323.7,1891.9,317.5,1891.9,309.9z"/>
				<circle class="st9" cx="1838.9" cy="324.9" r="15.4"/>
				<circle class="st9" cx="1798.8" cy="337.4" r="16.2"/>
				<circle class="st9" cx="1758" cy="347.1" r="16.9"/>
				<path class="st9" d="M1733.8,354.1c0-9.4-7.7-17.1-17.1-17.1s-17.1,7.7-17.1,17.1c0,9.4,7.7,17.1,17.1,17.1
					S1733.8,363.5,1733.8,354.1z"/>
				<path class="st9" d="M1692.1,358.3c0-9.5-7.7-17.2-17.2-17.2c-9.5,0-17.2,7.7-17.2,17.2c0,9.5,7.7,17.2,17.2,17.2
					C1684.4,375.5,1692.1,367.8,1692.1,358.3z"/>
				<path class="st9" d="M1650,359.7c0-9.4-7.6-17-17-17c-9.4,0-16.9,7.6-16.9,17c0,9.4,7.6,16.9,16.9,16.9
					C1642.4,376.6,1650,369.1,1650,359.7z"/>
				<path class="st9" d="M1607.2,358.3c0-8.9-7.2-16.1-16.1-16.1s-16.1,7.2-16.1,16.1c0,8.9,7.2,16.1,16.1,16.1
					S1607.2,367.2,1607.2,358.3z"/>
				<path class="st9" d="M1564.3,354.1c0-8.2-6.7-14.9-14.9-14.9c-8.2,0-14.9,6.7-14.9,14.9c0,8.2,6.7,14.9,14.9,14.9
					C1557.6,369,1564.3,362.3,1564.3,354.1z"/>
				<path class="st9" d="M1521.9,347.1c0-7.7-6.2-13.9-13.9-13.9c-7.7,0-13.9,6.2-13.9,13.9c0,7.7,6.2,13.9,13.9,13.9
					C1515.7,361,1521.9,354.8,1521.9,347.1z"/>
				<path class="st9" d="M1479.9,337.4c0-7-5.7-12.7-12.7-12.7c-7,0-12.7,5.7-12.7,12.7s5.7,12.7,12.7,12.7
					C1474.3,350,1479.9,344.4,1479.9,337.4z"/>
				<circle class="st9" cx="1427.2" cy="324.9" r="11.3"/>
				<circle class="st9" cx="1388.1" cy="309.9" r="9.7"/>
				<path class="st9" d="M1358.1,292.2c0-4.5-3.6-8.1-8.1-8.1s-8.1,3.6-8.1,8.1c0,4.5,3.6,8.1,8.1,8.1S1358.1,296.7,1358.1,292.2z"
					/>
				<path class="st9" d="M1319.8,272.1c0-3.6-2.9-6.6-6.6-6.6c-3.6,0-6.6,2.9-6.6,6.6c0,3.6,2.9,6.6,6.6,6.6
					C1316.8,278.7,1319.8,275.7,1319.8,272.1z"/>
				<circle class="st9" cx="1277.9" cy="249.5" r="4.7"/>
				<path class="st9" d="M1247.3,224.6c0-1.8-1.4-3.2-3.2-3.2s-3.2,1.4-3.2,3.2c0,1.7,1.4,3.2,3.2,3.2S1247.3,226.4,1247.3,224.6z"
					/>
				<path class="st9" d="M1213.9,197.6c0-1-0.8-1.7-1.7-1.7c-1,0-1.7,0.8-1.7,1.7c0,1,0.8,1.7,1.7,1.7
					C1213.1,199.3,1213.9,198.5,1213.9,197.6z"/>
				<path class="st9" d="M2169.7-12.3c0-5.3-4.3-9.6-9.6-9.6s-9.6,4.3-9.6,9.6c0,5.3,4.3,9.6,9.6,9.6S2169.7-7.1,2169.7-12.3z"/>
				<circle class="st9" cx="2140.3" cy="25" r="10.2"/>
				<path class="st9" d="M2127.7,60.8c0-5.5-4.4-9.9-9.9-9.9c-5.5,0-9.9,4.4-9.9,9.9s4.4,9.9,9.9,9.9
					C2123.3,70.7,2127.7,66.3,2127.7,60.8z"/>
				<circle class="st9" cx="2092.9" cy="95" r="9.5"/>
				<circle class="st9" cx="2065.5" cy="127.1" r="10"/>
				<path class="st9" d="M2046.4,157.3c0-5.8-4.7-10.5-10.5-10.5c-5.8,0-10.5,4.7-10.5,10.5c0,5.8,4.7,10.5,10.5,10.5
					C2041.6,167.9,2046.4,163.1,2046.4,157.3z"/>
				<circle class="st9" cx="2004.1" cy="185.3" r="11.1"/>
				<path class="st9" d="M1982.5,210.9c0-6.6-5.4-12-12-12c-6.6,0-12,5.4-12,12c0,6.6,5.4,12,12,12
					C1977.1,222.9,1982.5,217.5,1982.5,210.9z"/>
				<path class="st9" d="M1947.8,234c0-7.1-5.7-12.8-12.8-12.8c-7.1,0-12.8,5.7-12.8,12.8s5.7,12.8,12.8,12.8
					C1942.1,246.8,1947.8,241.1,1947.8,234z"/>
				<path class="st9" d="M1911.8,254.5c0-7.6-6.2-13.8-13.8-13.8c-7.6,0-13.8,6.2-13.8,13.8c0,7.6,6.2,13.8,13.8,13.8
					C1905.6,268.3,1911.8,262.1,1911.8,254.5z"/>
				<path class="st9" d="M1874.3,272.2c0-8.1-6.6-14.7-14.7-14.7c-8.1,0-14.7,6.6-14.7,14.7c0,8.1,6.6,14.7,14.7,14.7
					C1867.8,286.9,1874.3,280.3,1874.3,272.2z"/>
				<path class="st9" d="M1835.5,287.1c0-8.5-6.9-15.4-15.4-15.4c-8.5,0-15.4,6.9-15.4,15.4c0,8.5,6.9,15.4,15.4,15.4
					C1828.6,302.6,1835.5,295.7,1835.5,287.1z"/>
				<path class="st9" d="M1795.4,299.3c0-8.7-7.1-15.8-15.8-15.8s-15.8,7.1-15.8,15.8c0,8.7,7.1,15.8,15.8,15.8
					S1795.4,308,1795.4,299.3z"/>
				<path class="st9" d="M1754.6,308.3c0-9-7.3-16.3-16.3-16.3c-9,0-16.3,7.3-16.3,16.3s7.3,16.3,16.3,16.3
					C1747.3,324.6,1754.6,317.3,1754.6,308.3z"/>
				<path class="st9" d="M1712.9,314.4c0-9.1-7.4-16.6-16.6-16.6c-9.1,0-16.6,7.4-16.6,16.6c0,9.1,7.4,16.6,16.6,16.6
					C1705.5,330.9,1712.9,323.5,1712.9,314.4z"/>
				<path class="st9" d="M1670.2,317.5c0-8.8-7.2-16-16-16c-8.8,0-16,7.2-16,16c0,8.8,7.2,16,16,16
					C1663,333.5,1670.2,326.3,1670.2,317.5z"/>
				<path class="st9" d="M1627.4,317.5c0-8.5-6.9-15.4-15.4-15.4c-8.5,0-15.4,6.9-15.4,15.4c0,8.5,6.9,15.4,15.4,15.4
					C1620.4,332.9,1627.4,326,1627.4,317.5z"/>
				<path class="st9" d="M1584.4,314.4c0-8.1-6.6-14.7-14.7-14.7c-8.1,0-14.7,6.6-14.7,14.7c0,8.1,6.6,14.7,14.7,14.7
					C1577.9,329,1584.4,322.5,1584.4,314.4z"/>
				<circle class="st9" cx="1527.9" cy="308.3" r="13.3"/>
				<path class="st9" d="M1498.5,299.3c0-6.6-5.3-11.9-11.9-11.9c-6.6,0-11.9,5.3-11.9,11.9s5.3,11.9,11.9,11.9
					C1493.2,311.1,1498.5,305.8,1498.5,299.3z"/>
				<path class="st9" d="M1456.4,287.1c0-5.7-4.6-10.4-10.4-10.4c-5.7,0-10.4,4.6-10.4,10.4c0,5.7,4.6,10.4,10.4,10.4
					C1451.8,297.5,1456.4,292.9,1456.4,287.1z"/>
				<path class="st9" d="M1414.8,272.2c0-4.6-3.8-8.4-8.4-8.4c-4.6,0-8.4,3.8-8.4,8.4c0,4.6,3.8,8.4,8.4,8.4
					C1411.1,280.6,1414.8,276.9,1414.8,272.2z"/>
				<path class="st9" d="M1375.1,254.5c0-3.8-3.1-7-7-7s-7,3.1-7,7c0,3.9,3.1,7,7,7S1375.1,258.4,1375.1,254.5z"/>
				<circle class="st9" cx="1331.1" cy="234" r="5.1"/>
				<path class="st9" d="M1298.8,210.9c0-1.7-1.4-3.2-3.2-3.2c-1.8,0-3.2,1.4-3.2,3.2c0,1.8,1.4,3.2,3.2,3.2
					C1297.4,214,1298.8,212.6,1298.8,210.9z"/>
				<circle class="st9" cx="1262" cy="185.3" r="1.7"/>
				<path class="st9" d="M1230.5,157.3c0,0-0.1-0.2-0.2-0.2c-0.1,0-0.2,0.1-0.2,0.1c0,0.3,0.1,0.4,0.2,0.4
					C1230.4,157.6,1230.5,157.5,1230.5,157.3z"/>
				<path class="st9" d="M2178.3-278.4c0-0.8-0.7-1.5-1.5-1.5c-0.8,0-1.5,0.7-1.5,1.5c0,0.8,0.7,1.5,1.5,1.5
					C2177.6-276.9,2178.3-277.6,2178.3-278.4z"/>
				<circle class="st9" cx="2176" cy="-236.3" r="3.3"/>
				<path class="st9" d="M2177-194.3c0-2.8-2.3-5.1-5.1-5.1c-2.8,0-5.1,2.3-5.1,5.1s2.3,5.1,5.1,5.1
					C2174.7-189.2,2177-191.5,2177-194.3z"/>
				<path class="st9" d="M2171-152.7c0-3.5-2.8-6.3-6.3-6.3c-3.5,0-6.3,2.8-6.3,6.3c0,3.5,2.8,6.3,6.3,6.3
					C2168.1-146.4,2171-149.2,2171-152.7z"/>
				<path class="st9" d="M2161.6-111.9c0-4.2-3.4-7.5-7.5-7.5c-4.2,0-7.5,3.4-7.5,7.5c0,4.2,3.4,7.5,7.5,7.5
					C2158.2-104.4,2161.6-107.8,2161.6-111.9z"/>
				<path class="st9" d="M2148.9-72c0-4.6-3.8-8.4-8.4-8.4c-4.6,0-8.4,3.8-8.4,8.4c0,4.6,3.8,8.4,8.4,8.4
					C2145.1-63.6,2148.9-67.4,2148.9-72z"/>
				<circle class="st9" cx="2123.7" cy="-33.3" r="9.3"/>
				<path class="st9" d="M2114.1,4.1c0-5.6-4.5-10.1-10.1-10.1c-5.6,0-10.1,4.5-10.1,10.1c0,5.6,4.5,10.1,10.1,10.1
					C2109.6,14.1,2114.1,9.6,2114.1,4.1z"/>
				<path class="st9" d="M2092.1,39.8c0-5.8-4.7-10.5-10.5-10.5s-10.5,4.7-10.5,10.5s4.7,10.5,10.5,10.5S2092.1,45.5,2092.1,39.8z"
					/>
				<path class="st9" d="M2067.1,73.6c0-5.9-4.8-10.7-10.7-10.7s-10.7,4.8-10.7,10.7c0,5.9,4.8,10.7,10.7,10.7
					S2067.1,79.5,2067.1,73.6z"/>
				<path class="st9" d="M2040.2,105.4c0-6.4-5.2-11.6-11.6-11.6c-6.4,0-11.6,5.2-11.6,11.6c0,6.4,5.2,11.6,11.6,11.6
					C2035,116.9,2040.2,111.7,2040.2,105.4z"/>
				<circle class="st9" cx="1998.5" cy="134.9" r="11.7"/>
				<circle class="st9" cx="1966.2" cy="162" r="12.6"/>
				<path class="st9" d="M1945.1,186.5c0-7.3-5.9-13.2-13.2-13.2c-7.3,0-13.2,5.9-13.2,13.2c0,7.3,5.9,13.2,13.2,13.2
					C1939.2,199.8,1945.1,193.9,1945.1,186.5z"/>
				<path class="st9" d="M1910.1,208.3c0-7.9-6.4-14.3-14.3-14.3c-7.9,0-14.3,6.4-14.3,14.3c0,7.9,6.4,14.3,14.3,14.3
					C1903.7,222.7,1910.1,216.2,1910.1,208.3z"/>
				<path class="st9" d="M1872.9,227.3c0-8.2-6.6-14.8-14.8-14.8c-8.2,0-14.8,6.6-14.8,14.8c0,8.2,6.6,14.8,14.8,14.8
					C1866.3,242.1,1872.9,235.4,1872.9,227.3z"/>
				<circle class="st9" cx="1819" cy="243.2" r="15.3"/>
				<path class="st9" d="M1794.6,256.1c0-8.7-7-15.7-15.7-15.7c-8.7,0-15.7,7-15.7,15.7c0,8.7,7,15.7,15.7,15.7
					C1787.5,271.8,1794.6,264.8,1794.6,256.1z"/>
				<path class="st9" d="M1753.5,265.8c0-8.7-7-15.7-15.7-15.7c-8.7,0-15.7,7-15.7,15.7c0,8.7,7,15.7,15.7,15.7
					C1746.5,281.5,1753.5,274.5,1753.5,265.8z"/>
				<path class="st9" d="M1711.6,272.3c0-8.5-6.9-15.4-15.4-15.4c-8.5,0-15.4,6.9-15.4,15.4c0,8.5,6.9,15.4,15.4,15.4
					C1704.7,287.8,1711.6,280.9,1711.6,272.3z"/>
				<path class="st9" d="M1669.1,275.6c0-8.3-6.7-15-15-15c-8.3,0-15,6.7-15,15c0,8.3,6.7,15,15,15
					C1662.4,290.5,1669.1,283.8,1669.1,275.6z"/>
				<path class="st9" d="M1626,275.6c0-7.7-6.3-14-14-14c-7.7,0-14,6.3-14,14c0,7.7,6.3,14,14,14
					C1619.7,289.6,1626,283.3,1626,275.6z"/>
				<path class="st9" d="M1582.8,272.3c0-7.1-5.7-12.8-12.8-12.8c-7.1,0-12.8,5.7-12.8,12.8c0,7.1,5.7,12.8,12.8,12.8
					C1577,285.2,1582.8,279.4,1582.8,272.3z"/>
				<path class="st9" d="M1540,265.8c0-6.5-5.2-11.7-11.7-11.7c-6.5,0-11.7,5.2-11.7,11.7c0,6.5,5.2,11.7,11.7,11.7
					C1534.7,277.6,1540,272.3,1540,265.8z"/>
				<path class="st9" d="M1497.5,256.1c0-5.7-4.6-10.3-10.3-10.3c-5.7,0-10.3,4.6-10.3,10.3c0,5.7,4.6,10.3,10.3,10.3
					C1492.9,266.4,1497.5,261.8,1497.5,256.1z"/>
				<path class="st9" d="M1455.6,243.2c0-4.7-3.8-8.6-8.6-8.6c-4.7,0-8.6,3.8-8.6,8.6c0,4.7,3.8,8.6,8.6,8.6
					C1451.8,251.7,1455.6,247.9,1455.6,243.2z"/>
				<path class="st9" d="M1414.5,227.3c0-3.6-2.9-6.5-6.5-6.5s-6.5,2.9-6.5,6.5c0,3.6,2.9,6.5,6.5,6.5S1414.5,230.8,1414.5,227.3z"
					/>
				<circle class="st9" cx="1370.3" cy="208.3" r="4.9"/>
				<circle class="st9" cx="1334.2" cy="186.5" r="3.2"/>
				<path class="st9" d="M1301.3,162c0-0.8-0.6-1.4-1.4-1.4c-0.8,0-1.4,0.6-1.4,1.4c0,0.8,0.6,1.4,1.4,1.4
					C1300.7,163.4,1301.3,162.8,1301.3,162z"/>
				<path class="st9" d="M2135-299.4c0-0.5-0.4-0.9-0.9-0.9c-0.5,0-0.9,0.4-0.9,0.9c0,0.5,0.4,0.9,0.9,0.9
					C2134.6-298.5,2135-298.9,2135-299.4z"/>
				<path class="st9" d="M2137.3-257.3c0-1.3-1-2.3-2.3-2.3c-1.3,0-2.3,1-2.3,2.3c0,1.3,1,2.3,2.3,2.3
					C2136.3-255,2137.3-256.1,2137.3-257.3z"/>
				<circle class="st9" cx="2132.3" cy="-215.4" r="4.2"/>
				<path class="st9" d="M2131.8-173.8c0-3.1-2.5-5.6-5.6-5.6c-3.1,0-5.6,2.5-5.6,5.6c0,3.1,2.5,5.6,5.6,5.6
					C2129.3-168.1,2131.8-170.7,2131.8-173.8z"/>
				<path class="st9" d="M2123.5-132.9c0-3.8-3.1-6.9-6.9-6.9s-6.9,3.1-6.9,6.9c0,3.8,3.1,6.9,6.9,6.9S2123.5-129.1,2123.5-132.9z"
					/>
				<circle class="st9" cx="2103.6" cy="-92.9" r="8.2"/>
				<path class="st9" d="M2096.5-54.1c0-5.1-4.1-9.2-9.2-9.2c-5.1,0-9.2,4.1-9.2,9.2c0,5.1,4.1,9.2,9.2,9.2
					C2092.4-44.9,2096.5-49,2096.5-54.1z"/>
				<path class="st9" d="M2077.9-16.9c0-5.6-4.5-10.1-10.1-10.1c-5.6,0-10.1,4.5-10.1,10.1s4.5,10.1,10.1,10.1
					C2073.4-6.8,2077.9-11.3,2077.9-16.9z"/>
				<path class="st9" d="M2056.5,18.6c0-6.2-5-11.2-11.2-11.2c-6.2,0-11.2,5-11.2,11.2c0,6.2,5,11.2,11.2,11.2
					C2051.5,29.8,2056.5,24.8,2056.5,18.6z"/>
				<path class="st9" d="M2031.2,52.1c0-6.3-5.1-11.3-11.3-11.3c-6.3,0-11.3,5.1-11.3,11.3c0,6.3,5.1,11.3,11.3,11.3
					C2026.2,63.5,2031.2,58.4,2031.2,52.1z"/>
				<circle class="st9" cx="1991.7" cy="83.4" r="12.2"/>
				<circle class="st9" cx="1961.1" cy="112.2" r="12.9"/>
				<path class="st9" d="M1941.3,138.3c0-7.3-5.9-13.2-13.2-13.2c-7.3,0-13.2,5.9-13.2,13.2s5.9,13.2,13.2,13.2
					C1935.4,151.5,1941.3,145.6,1941.3,138.3z"/>
				<path class="st9" d="M1907,161.5c0-7.7-6.2-13.9-13.9-13.9c-7.7,0-13.9,6.2-13.9,13.9c0,7.7,6.2,13.9,13.9,13.9
					C1900.8,175.5,1907,169.2,1907,161.5z"/>
				<path class="st9" d="M1870.5,181.8c0-7.9-6.4-14.3-14.3-14.3c-7.9,0-14.3,6.4-14.3,14.3c0,7.9,6.4,14.3,14.3,14.3
					C1864.1,196.1,1870.5,189.7,1870.5,181.8z"/>
				<path class="st9" d="M1832.7,198.9c0-8.2-6.6-14.8-14.8-14.8c-8.2,0-14.8,6.6-14.8,14.8c0,8.2,6.6,14.8,14.8,14.8
					C1826,213.7,1832.7,207.1,1832.7,198.9z"/>
				<circle class="st9" cx="1778.2" cy="212.8" r="14.9"/>
				<circle class="st9" cx="1737.4" cy="223.2" r="14.8"/>
				<path class="st9" d="M1710.5,230.2c0-8.1-6.5-14.6-14.6-14.6s-14.6,6.5-14.6,14.6c0,8,6.5,14.6,14.6,14.6
					S1710.5,238.2,1710.5,230.2z"/>
				<circle class="st9" cx="1654" cy="233.8" r="13.5"/>
				<circle class="st9" cx="1612.1" cy="233.8" r="12.8"/>
				<path class="st9" d="M1581.3,230.2c0-6.2-5-11.2-11.2-11.2c-6.2,0-11.2,5-11.2,11.2c0,6.2,5,11.2,11.2,11.2
					C1576.3,241.4,1581.3,236.4,1581.3,230.2z"/>
				<path class="st9" d="M1538.5,223.2c0-5.4-4.4-9.8-9.8-9.8c-5.4,0-9.8,4.4-9.8,9.8s4.4,9.8,9.8,9.8
					C1534.1,233,1538.5,228.6,1538.5,223.2z"/>
				<circle class="st9" cx="1487.9" cy="212.8" r="8.6"/>
				<path class="st9" d="M1454.8,198.9c0-3.6-2.9-6.5-6.5-6.5c-3.6,0-6.5,2.9-6.5,6.5c0,3.6,2.9,6.5,6.5,6.5
					C1451.8,205.4,1454.8,202.5,1454.8,198.9z"/>
				<path class="st9" d="M1414.8,181.8c0-2.7-2.2-4.9-4.9-4.9c-2.7,0-4.9,2.2-4.9,4.9c0,2.7,2.2,4.9,4.9,4.9
					C1412.6,186.7,1414.8,184.5,1414.8,181.8z"/>
				<path class="st9" d="M1376,161.5c0-1.7-1.3-3-3-3c-1.7,0-3,1.3-3,3s1.3,3,3,3C1374.7,164.5,1376,163.2,1376,161.5z"/>
				<path class="st9" d="M1339,138.3c0-0.5-0.4-0.9-1-0.9c-0.5,0-1,0.4-1,0.9c0,0.5,0.4,0.9,1,0.9
					C1338.5,139.3,1339,138.8,1339,138.3z"/>
				<path class="st9" d="M2094.6-278.3c0-0.8-0.7-1.5-1.5-1.5c-0.8,0-1.5,0.7-1.5,1.5c0,0.8,0.7,1.5,1.5,1.5
					C2093.9-276.8,2094.6-277.5,2094.6-278.3z"/>
				<circle class="st9" cx="2092.1" cy="-236.5" r="3.1"/>
				<circle class="st9" cx="2087.4" cy="-194.8" r="4.9"/>
				<path class="st9" d="M2085.4-153.8c0-3.6-2.9-6.5-6.5-6.5s-6.5,2.9-6.5,6.5c0,3.6,2.9,6.5,6.5,6.5S2085.4-150.2,2085.4-153.8z"
					/>
				<path class="st9" d="M2075-113.7c0-4.5-3.7-8.2-8.2-8.2c-4.5,0-8.2,3.7-8.2,8.2s3.7,8.2,8.2,8.2
					C2071.3-105.5,2075-109.2,2075-113.7z"/>
				<path class="st9" d="M2059.9-75c0-5-4-9-9-9s-9,4-9,9s4,9,9,9S2059.9-70,2059.9-75z"/>
				<path class="st9" d="M2042.2-37.8c0-5.8-4.7-10.5-10.5-10.5c-5.8,0-10.5,4.7-10.5,10.5s4.7,10.5,10.5,10.5
					C2037.4-27.2,2042.2-32,2042.2-37.8z"/>
				<path class="st9" d="M2020.3-2.4c0-6.2-5-11.2-11.2-11.2c-6.2,0-11.2,5-11.2,11.2s5,11.2,11.2,11.2
					C2015.3,8.8,2020.3,3.8,2020.3-2.4z"/>
				<path class="st9" d="M1995.2,30.6c0-6.6-5.3-11.9-11.9-11.9c-6.6,0-11.9,5.3-11.9,11.9s5.3,11.9,11.9,11.9
					C1989.9,42.5,1995.2,37.1,1995.2,30.6z"/>
				<path class="st9" d="M1967.4,61.2c0-7-5.7-12.7-12.7-12.7c-7,0-12.7,5.7-12.7,12.7c0,7,5.7,12.7,12.7,12.7
					C1961.7,73.9,1967.4,68.2,1967.4,61.2z"/>
				<circle class="st9" cx="1923.5" cy="89.1" r="13.3"/>
				<circle class="st9" cx="1889.8" cy="114.1" r="13.7"/>
				<circle class="st9" cx="1854" cy="135.8" r="13.7"/>
				<path class="st9" d="M1830.4,154.2c0-7.7-6.2-13.9-13.9-13.9c-7.7,0-13.9,6.2-13.9,13.9s6.2,13.9,13.9,13.9
					C1824.1,168.2,1830.4,161.9,1830.4,154.2z"/>
				<path class="st9" d="M1791.5,169.1c0-7.9-6.4-14.3-14.3-14.3c-7.9,0-14.3,6.4-14.3,14.3s6.4,14.3,14.3,14.3
					C1785.2,183.4,1791.5,177,1791.5,169.1z"/>
				<circle class="st9" cx="1736.9" cy="180.4" r="13.9"/>
				<circle class="st9" cx="1695.7" cy="188.1" r="13.1"/>
				<path class="st9" d="M1666.3,191.9c0-6.8-5.5-12.4-12.4-12.4c-6.8,0-12.4,5.5-12.4,12.4c0,6.8,5.5,12.4,12.4,12.4
					C1660.8,204.2,1666.3,198.7,1666.3,191.9z"/>
				<circle class="st9" cx="1612.1" cy="191.9" r="11.3"/>
				<circle class="st9" cx="1570.4" cy="188.1" r="10"/>
				<path class="st9" d="M1537.8,180.4c0-4.7-3.8-8.6-8.6-8.6c-4.7,0-8.6,3.8-8.6,8.6c0,4.7,3.8,8.6,8.6,8.6
					C1533.9,189,1537.8,185.2,1537.8,180.4z"/>
				<circle class="st9" cx="1488.8" cy="169.1" r="6.4"/>
				<circle class="st9" cx="1449.7" cy="154.2" r="4.8"/>
				<path class="st9" d="M1414.8,135.8c0-1.5-1.2-2.7-2.7-2.7c-1.5,0-2.7,1.2-2.7,2.7c0,1.5,1.2,2.7,2.7,2.7
					C1413.5,138.5,1414.8,137.3,1414.8,135.8z"/>
				<circle class="st9" cx="1376.3" cy="114.1" r="1.1"/>
				<circle class="st9" cx="2050.9" cy="-289.1" r="2"/>
				<path class="st9" d="M2054-246.6c0-1.8-1.4-3.2-3.2-3.2c-1.7,0-3.2,1.4-3.2,3.2c0,1.7,1.4,3.2,3.2,3.2
					C2052.6-243.5,2054-244.9,2054-246.6z"/>
				<circle class="st9" cx="2046.6" cy="-204.5" r="5.3"/>
				<circle class="st9" cx="2038" cy="-163" r="6.9"/>
				<circle class="st9" cx="2025.4" cy="-122.6" r="8.2"/>
				<circle class="st9" cx="2008.7" cy="-83.6" r="9.7"/>
				<path class="st9" d="M1998.8-46.6c0-5.9-4.8-10.8-10.8-10.8c-6,0-10.8,4.8-10.8,10.8c0,6,4.8,10.8,10.8,10.8
					C1994-35.8,1998.8-40.6,1998.8-46.6z"/>
				<circle class="st9" cx="1963.9" cy="-11.8" r="11.6"/>
				<circle class="st9" cx="1936.3" cy="20.4" r="12.4"/>
				<path class="st9" d="M1918.2,49.6c0-7-5.7-12.7-12.7-12.7c-7,0-12.7,5.7-12.7,12.7s5.7,12.7,12.7,12.7
					C1912.5,62.3,1918.2,56.6,1918.2,49.6z"/>
				<circle class="st9" cx="1872" cy="75.5" r="13.1"/>
				<circle class="st9" cx="1836.1" cy="97.9" r="13.3"/>
				<path class="st9" d="M1811.4,116.6c0-7.4-6-13.4-13.4-13.4c-7.4,0-13.4,6-13.4,13.4c0,7.4,6,13.4,13.4,13.4
					C1805.4,130,1811.4,124,1811.4,116.6z"/>
				<circle class="st9" cx="1758.3" cy="131.3" r="13.1"/>
				<path class="st9" d="M1729.6,142c0-6.8-5.5-12.4-12.4-12.4c-6.8,0-12.4,5.5-12.4,12.4c0,6.8,5.5,12.4,12.4,12.4
					C1724.1,154.3,1729.6,148.8,1729.6,142z"/>
				<path class="st9" d="M1686.6,148.4c0-6.2-5-11.2-11.2-11.2c-6.2,0-11.2,5-11.2,11.2c0,6.2,5,11.2,11.2,11.2
					C1681.6,159.6,1686.6,154.6,1686.6,148.4z"/>
				<path class="st9" d="M1643.6,150.5c0-5.8-4.7-10.5-10.5-10.5c-5.8,0-10.5,4.7-10.5,10.5c0,5.8,4.7,10.5,10.5,10.5
					C1638.9,161,1643.6,156.3,1643.6,150.5z"/>
				<path class="st9" d="M1600.1,148.4c0-5.2-4.2-9.3-9.3-9.3c-5.2,0-9.3,4.2-9.3,9.3c0,5.2,4.2,9.3,9.3,9.3
					C1595.9,157.7,1600.1,153.5,1600.1,148.4z"/>
				<path class="st9" d="M1556.4,142c0-4.2-3.4-7.5-7.5-7.5c-4.2,0-7.5,3.4-7.5,7.5c0,4.2,3.4,7.5,7.5,7.5
					C1553,149.5,1556.4,146.1,1556.4,142z"/>
				<path class="st9" d="M1513.6,131.3c0-3.2-2.6-5.8-5.8-5.8c-3.2,0-5.8,2.6-5.8,5.8c0,3.2,2.6,5.8,5.8,5.8
					C1511,137.1,1513.6,134.5,1513.6,131.3z"/>
				<path class="st9" d="M1471.9,116.6c0-2.1-1.7-3.8-3.8-3.8s-3.8,1.7-3.8,3.8c0,2.1,1.7,3.8,3.8,3.8S1471.9,118.7,1471.9,116.6z"
					/>
				<path class="st9" d="M1431.8,97.9c0-1-0.8-1.7-1.7-1.7c-1,0-1.7,0.8-1.7,1.7s0.8,1.7,1.7,1.7C1431,99.7,1431.8,98.9,1431.8,97.9
					z"/>
				<circle class="st9" cx="2007.2" cy="-310" r="1.3"/>
				<path class="st9" d="M2012.5-267.9c0-1.6-1.3-2.9-2.9-2.9c-1.6,0-2.9,1.3-2.9,2.9c0,1.6,1.3,2.9,2.9,2.9
					C2011.2-265,2012.5-266.3,2012.5-267.9z"/>
				<path class="st9" d="M2011.9-225.7c0-2.6-2.1-4.7-4.7-4.7c-2.6,0-4.7,2.1-4.7,4.7c0,2.6,2.1,4.7,4.7,4.7
					C2009.8-221.1,2011.9-223.2,2011.9-225.7z"/>
				<path class="st9" d="M2006.2-184.1c0-3.4-2.7-6.1-6.1-6.1c-3.4,0-6.1,2.7-6.1,6.1s2.7,6.1,6.1,6.1
					C2003.5-178,2006.2-180.7,2006.2-184.1z"/>
				<circle class="st9" cx="1988.5" cy="-143.5" r="8"/>
				<path class="st9" d="M1981.4-104.5c0-5-4.1-9.1-9.1-9.1s-9.1,4.1-9.1,9.1c0,5,4.1,9.1,9.1,9.1S1981.4-99.4,1981.4-104.5z"/>
				<path class="st9" d="M1962-67.6c0-5.6-4.5-10.1-10.1-10.1c-5.6,0-10.1,4.5-10.1,10.1c0,5.6,4.5,10.1,10.1,10.1
					C1957.5-57.4,1962-62,1962-67.6z"/>
				<path class="st9" d="M1938.7-33.1c0-6.2-5-11.2-11.2-11.2c-6.2,0-11.2,5-11.2,11.2s5,11.2,11.2,11.2
					C1933.7-21.8,1938.7-26.9,1938.7-33.1z"/>
				<path class="st9" d="M1910.9-1.7c0-6.4-5.2-11.6-11.6-11.6c-6.4,0-11.6,5.2-11.6,11.6s5.2,11.6,11.6,11.6
					C1905.7,10,1910.9,4.8,1910.9-1.7z"/>
				<path class="st9" d="M1879.6,26.5c0-6.5-5.3-11.8-11.8-11.8c-6.5,0-11.8,5.3-11.8,11.8s5.3,11.8,11.8,11.8
					C1874.3,38.3,1879.6,33.1,1879.6,26.5z"/>
				<circle class="st9" cx="1833.4" cy="50.9" r="12.4"/>
				<path class="st9" d="M1808.9,71.4c0-6.9-5.6-12.4-12.4-12.4c-6.9,0-12.4,5.6-12.4,12.4s5.6,12.4,12.4,12.4
					C1803.3,83.8,1808.9,78.2,1808.9,71.4z"/>
				<path class="st9" d="M1769.5,87.5c0-6.7-5.4-12.1-12.1-12.1c-6.7,0-12.1,5.4-12.1,12.1c0,6.7,5.4,12.1,12.1,12.1
					C1764.1,99.7,1769.5,94.2,1769.5,87.5z"/>
				<path class="st9" d="M1728.5,99.2c0-6.4-5.2-11.6-11.6-11.6c-6.4,0-11.6,5.2-11.6,11.6c0,6.4,5.2,11.6,11.6,11.6
					C1723.3,110.8,1728.5,105.6,1728.5,99.2z"/>
				<path class="st9" d="M1685.6,106.3c0-5.8-4.7-10.5-10.5-10.5c-5.8,0-10.5,4.7-10.5,10.5s4.7,10.5,10.5,10.5
					C1681,116.8,1685.6,112.1,1685.6,106.3z"/>
				<path class="st9" d="M1642.5,108.7c0-5.2-4.2-9.4-9.4-9.4c-5.2,0-9.4,4.2-9.4,9.4c0,5.2,4.2,9.4,9.4,9.4
					C1638.3,118.1,1642.5,113.9,1642.5,108.7z"/>
				<path class="st9" d="M1598.5,106.3c0-4.2-3.4-7.6-7.6-7.6c-4.2,0-7.6,3.4-7.6,7.6s3.4,7.6,7.6,7.6
					C1595.1,113.9,1598.5,110.5,1598.5,106.3z"/>
				<path class="st9" d="M1555.2,99.2c0-3.3-2.7-5.9-5.9-5.9c-3.3,0-5.9,2.7-5.9,5.9c0,3.3,2.7,5.9,5.9,5.9
					C1552.5,105.1,1555.2,102.5,1555.2,99.2z"/>
				<path class="st9" d="M1512.7,87.5c0-2.2-1.8-4-4-4c-2.2,0-4,1.8-4,4c0,2.2,1.8,4,4,4C1510.9,91.5,1512.7,89.7,1512.7,87.5z"/>
				<path class="st9" d="M1471.8,71.4c0-1.2-1-2.1-2.1-2.1c-1.2,0-2.1,1-2.1,2.1c0,1.2,1,2.1,2.1,2.1
					C1470.8,73.5,1471.8,72.6,1471.8,71.4z"/>
				<path class="st9" d="M1962.2-330.6c0-0.2-0.2-0.4-0.4-0.4c-0.2,0-0.4,0.2-0.4,0.4s0.2,0.4,0.4,0.4
					C1962.1-330.2,1962.2-330.4,1962.2-330.6z"/>
				<circle class="st9" cx="1967.1" cy="-288.9" r="2"/>
				<path class="st9" d="M1971.1-246.9c0-2.2-1.8-4-4-4s-4,1.8-4,4c0,2.2,1.8,4,4,4S1971.1-244.6,1971.1-246.9z"/>
				<circle class="st9" cx="1961.8" cy="-205.1" r="5.5"/>
				<path class="st9" d="M1958.6-164.4c0-4-3.2-7.2-7.2-7.2c-4,0-7.2,3.2-7.2,7.2c0,4,3.2,7.2,7.2,7.2
					C1955.4-157.2,1958.6-160.4,1958.6-164.4z"/>
				<path class="st9" d="M1944.8-125.4c0-4.9-4-9-9-9c-4.9,0-8.9,4-8.9,9c0,4.9,4,8.9,8.9,8.9
					C1940.8-116.4,1944.8-120.4,1944.8-125.4z"/>
				<path class="st9" d="M1925.3-88.5c0-5.3-4.3-9.6-9.6-9.6c-5.3,0-9.6,4.3-9.6,9.6c0,5.3,4.3,9.6,9.6,9.6
					C1921-79,1925.3-83.3,1925.3-88.5z"/>
				<path class="st9" d="M1901.7-54.6c0-5.9-4.8-10.8-10.8-10.8c-6,0-10.8,4.8-10.8,10.8c0,6,4.8,10.8,10.8,10.8
					C1896.9-43.8,1901.7-48.6,1901.7-54.6z"/>
				<path class="st9" d="M1873.4-23.9c0-6.2-5-11.2-11.2-11.2c-6.2,0-11.2,5-11.2,11.2c0,6.2,5,11.2,11.2,11.2
					C1868.4-12.7,1873.4-17.7,1873.4-23.9z"/>
				<circle class="st9" cx="1829.8" cy="2.9" r="11.2"/>
				<circle class="st9" cx="1794.3" cy="25.4" r="11.5"/>
				<path class="st9" d="M1767.2,43.3c0-6.1-4.9-11-11-11c-6.1,0-11,4.9-11,11c0,6.1,4.9,11,11,11
					C1762.3,54.3,1767.2,49.4,1767.2,43.3z"/>
				<path class="st9" d="M1726.8,56.3c0-5.8-4.7-10.5-10.5-10.5s-10.5,4.7-10.5,10.5s4.7,10.5,10.5,10.5S1726.8,62.1,1726.8,56.3z"
					/>
				<path class="st9" d="M1684,64.2c0-4.9-4-9-8.9-9c-4.9,0-9,4-9,9c0,4.9,4,8.9,9,8.9C1680,73.1,1684,69.1,1684,64.2z"/>
				<path class="st9" d="M1640.8,66.8c0-4.3-3.5-7.8-7.8-7.8c-4.3,0-7.8,3.5-7.8,7.8c0,4.3,3.5,7.8,7.8,7.8
					C1637.3,74.5,1640.8,71.1,1640.8,66.8z"/>
				<path class="st9" d="M1597.6,64.2c0-3.6-2.9-6.6-6.6-6.6c-3.6,0-6.6,2.9-6.6,6.6c0,3.6,2.9,6.6,6.6,6.6
					C1594.7,70.7,1597.6,67.8,1597.6,64.2z"/>
				<path class="st9" d="M1554.2,56.3c0-2.4-2-4.4-4.4-4.4c-2.4,0-4.4,2-4.4,4.4c0,2.4,2,4.4,4.4,4.4
					C1552.2,60.7,1554.2,58.7,1554.2,56.3z"/>
				<path class="st9" d="M1512.4,43.3c0-1.4-1.1-2.5-2.5-2.5c-1.4,0-2.5,1.1-2.5,2.5c0,1.4,1.1,2.5,2.5,2.5
					C1511.3,45.9,1512.4,44.7,1512.4,43.3z"/>
				<path class="st9" d="M1472.3,25.4c0-0.3-0.2-0.5-0.5-0.5c-0.3,0-0.5,0.2-0.5,0.5c0,0.3,0.2,0.5,0.5,0.5
					C1472,25.9,1472.3,25.7,1472.3,25.4z"/>
				<path class="st9" d="M1926-299.9c0-1-0.8-1.8-1.8-1.8c-1,0-1.8,0.8-1.8,1.8c0,1,0.8,1.8,1.8,1.8
					C1925.2-298,1926-298.9,1926-299.9z"/>
				<path class="st9" d="M1929.4-257.2c0-2-1.6-3.6-3.6-3.6c-2,0-3.6,1.6-3.6,3.6c0,2,1.6,3.6,3.6,3.6
					C1927.7-253.5,1929.4-255.2,1929.4-257.2z"/>
				<circle class="st9" cx="1921.1" cy="-214.6" r="5.3"/>
				<path class="st9" d="M1917.2-173.3c0-3.8-3.1-7-7-7c-3.9,0-7,3.1-7,7c0,3.9,3.1,7,7,7C1914.1-166.3,1917.2-169.4,1917.2-173.3z"
					/>
				<circle class="st9" cx="1893.5" cy="-133.9" r="8.5"/>
				<path class="st9" d="M1880.8-97.5c0-5.3-4.3-9.6-9.6-9.6c-5.3,0-9.6,4.3-9.6,9.6c0,5.3,4.3,9.6,9.6,9.6
					C1876.5-87.9,1880.8-92.2,1880.8-97.5z"/>
				<path class="st9" d="M1853.7-64.6c0-5.4-4.4-9.8-9.8-9.8c-5.4,0-9.8,4.4-9.8,9.8c0,5.4,4.4,9.8,9.8,9.8
					C1849.3-54.8,1853.7-59.2,1853.7-64.6z"/>
				<path class="st9" d="M1822.4-36.1c0-5.7-4.6-10.3-10.3-10.3s-10.3,4.6-10.3,10.3s4.6,10.3,10.3,10.3S1822.4-30.4,1822.4-36.1z"
					/>
				<circle class="st9" cx="1776.4" cy="-12.5" r="10"/>
				<path class="st9" d="M1746.9,5.6c0-5.1-4.1-9.2-9.2-9.2c-5.1,0-9.2,4.1-9.2,9.2c0,5.1,4.1,9.2,9.2,9.2
					C1742.8,14.8,1746.9,10.7,1746.9,5.6z"/>
				<path class="st9" d="M1705.1,18c0-4.6-3.8-8.4-8.4-8.4c-4.6,0-8.4,3.8-8.4,8.4c0,4.6,3.8,8.4,8.4,8.4
					C1701.4,26.4,1705.1,22.6,1705.1,18z"/>
				<path class="st9" d="M1661.6,24.2c0-3.9-3.2-7.1-7.1-7.1c-3.9,0-7.1,3.2-7.1,7.1c0,3.9,3.2,7.1,7.1,7.1
					C1658.4,31.3,1661.6,28.1,1661.6,24.2z"/>
				<circle class="st9" cx="1611.7" cy="24.2" r="5.8"/>
				<path class="st9" d="M1573.3,18c0-2.2-1.8-4-4-4s-4,1.8-4,4c0,2.2,1.8,4,4,4S1573.3,20.2,1573.3,18z"/>
				<circle class="st9" cx="1528.4" cy="5.6" r="1.7"/>
				<path class="st9" d="M1879.3-320.8c0-0.5-0.4-0.9-0.9-0.9c-0.5,0-0.9,0.4-0.9,0.9s0.4,0.9,0.9,0.9
					C1878.9-319.9,1879.3-320.3,1879.3-320.8z"/>
				<path class="st9" d="M1886.4-278.6c0-1.4-1.1-2.5-2.5-2.5c-1.4,0-2.5,1.1-2.5,2.5c0,1.4,1.1,2.5,2.5,2.5
					C1885.2-276,1886.4-277.2,1886.4-278.6z"/>
				<path class="st9" d="M1886.4-235.9c0-2.4-2-4.4-4.4-4.4c-2.4,0-4.4,2-4.4,4.4c0,2.4,2,4.4,4.4,4.4
					C1884.4-231.6,1886.4-233.5,1886.4-235.9z"/>
				<path class="st9" d="M1878.9-194.4c0-3.2-2.6-5.9-5.9-5.9c-3.2,0-5.9,2.6-5.9,5.9c0,3.2,2.6,5.9,5.9,5.9
					C1876.3-188.5,1878.9-191.1,1878.9-194.4z"/>
				<path class="st9" d="M1864.4-154.8c0-4-3.2-7.2-7.2-7.2c-4,0-7.2,3.2-7.2,7.2s3.2,7.2,7.2,7.2
					C1861.2-147.6,1864.4-150.9,1864.4-154.8z"/>
				<path class="st9" d="M1842.8-118.6c0-4.4-3.5-7.9-7.9-7.9c-4.4,0-7.9,3.5-7.9,7.9s3.5,7.9,7.9,7.9
					C1839.2-110.7,1842.8-114.3,1842.8-118.6z"/>
				<path class="st9" d="M1815.8-86.6c0-5-4-9-9-9s-9,4-9,9c0,5,4,9,9,9S1815.8-81.7,1815.8-86.6z"/>
				<path class="st9" d="M1782.4-59.9c0-4.9-3.9-8.8-8.8-8.8c-4.9,0-8.8,3.9-8.8,8.8s3.9,8.8,8.8,8.8
					C1778.5-51.1,1782.4-55,1782.4-59.9z"/>
				<path class="st9" d="M1744.3-39.1c0-4.4-3.5-7.9-7.9-7.9c-4.4,0-7.9,3.5-7.9,7.9c0,4.4,3.5,7.9,7.9,7.9
					C1740.8-31.2,1744.3-34.7,1744.3-39.1z"/>
				<circle class="st9" cx="1696.3" cy="-24.9" r="7.1"/>
				<path class="st9" d="M1660.5-17.7c0-3.4-2.7-6.1-6.1-6.1c-3.4,0-6.1,2.7-6.1,6.1c0,3.4,2.7,6.1,6.1,6.1
					C1657.7-11.6,1660.5-14.4,1660.5-17.7z"/>
				<path class="st9" d="M1616-17.7c0-2.4-1.9-4.3-4.3-4.3s-4.3,1.9-4.3,4.3s1.9,4.3,4.3,4.3S1616-15.4,1616-17.7z"/>
				<circle class="st9" cx="1569.8" cy="-24.9" r="2.7"/>
				<circle class="st9" cx="1529.7" cy="-39.1" r="0.9"/>
				<circle class="st9" cx="1839.8" cy="-299.6" r="1.7"/>
				<path class="st9" d="M1845.3-257.3c0-1.8-1.5-3.2-3.2-3.2s-3.2,1.5-3.2,3.2c0,1.8,1.5,3.2,3.2,3.2S1845.3-255.5,1845.3-257.3z"
					/>
				<path class="st9" d="M1840.3-215.4c0-2.6-2.1-4.8-4.8-4.8c-2.6,0-4.8,2.1-4.8,4.8c0,2.6,2.1,4.8,4.8,4.8
					C1838.2-210.7,1840.3-212.8,1840.3-215.4z"/>
				<path class="st9" d="M1827-175.8c0-3.4-2.7-6.1-6.1-6.1c-3.4,0-6.1,2.7-6.1,6.1c0,3.4,2.7,6.1,6.1,6.1
					C1824.2-169.7,1827-172.4,1827-175.8z"/>
				<circle class="st9" cx="1798.4" cy="-139.8" r="6.7"/>
				<circle class="st9" cx="1769.3" cy="-109.1" r="6.9"/>
				<circle class="st9" cx="1734.6" cy="-85" r="6.7"/>
				<circle class="st9" cx="1695.7" cy="-68.3" r="5.8"/>
				<path class="st9" d="M1659-59.8c0-2.6-2.1-4.8-4.8-4.8c-2.6,0-4.8,2.1-4.8,4.8c0,2.6,2.1,4.8,4.8,4.8
					C1656.8-55,1659-57.2,1659-59.8z"/>
				<path class="st9" d="M1615.4-59.8c0-1.9-1.6-3.5-3.5-3.5s-3.5,1.6-3.5,3.5c0,1.9,1.6,3.5,3.5,3.5S1615.4-57.9,1615.4-59.8z"/>
				<circle class="st9" cx="1570.4" cy="-68.3" r="1.5"/>
				<path class="st9" d="M1801.9-278.4c0-1-0.8-1.8-1.8-1.8c-1,0-1.8,0.8-1.8,1.8c0,1,0.8,1.8,1.8,1.8
					C1801.1-276.6,1801.9-277.4,1801.9-278.4z"/>
				<path class="st9" d="M1800.6-236.5c0-1.7-1.4-3.2-3.2-3.2s-3.2,1.4-3.2,3.2c0,1.8,1.4,3.2,3.2,3.2S1800.6-234.8,1800.6-236.5z"
					/>
				<path class="st9" d="M1789.1-196.6c0-2.5-2.1-4.6-4.6-4.6c-2.5,0-4.6,2.1-4.6,4.6c0,2.5,2.1,4.6,4.6,4.6
					C1787-192,1789.1-194,1789.1-196.6z"/>
				<circle class="st9" cx="1762" cy="-161.2" r="5.5"/>
				<path class="st9" d="M1736.5-132.5c0-2.8-2.3-5.1-5.1-5.1s-5.1,2.3-5.1,5.1c0,2.8,2.3,5.1,5.1,5.1S1736.5-129.7,1736.5-132.5z"
					/>
				<circle class="st9" cx="1694.7" cy="-112.3" r="4.7"/>
				<path class="st9" d="M1657.5-101.8c0-1.9-1.6-3.5-3.5-3.5s-3.5,1.6-3.5,3.5c0,1.9,1.6,3.5,3.5,3.5S1657.5-99.9,1657.5-101.8z"/>
				<path class="st9" d="M1613.9-101.8c0-1-0.8-1.8-1.8-1.8s-1.8,0.8-1.8,1.8c0,1,0.8,1.8,1.8,1.8S1613.9-100.8,1613.9-101.8z"/>
				<path class="st9" d="M1571.9-112.3c0-0.3-0.2-0.5-0.5-0.5c-0.3,0-0.5,0.2-0.5,0.5c0,0.3,0.2,0.5,0.5,0.5
					C1571.7-111.8,1571.9-112,1571.9-112.3z"/>
				<path class="st9" d="M1757.2-289.7c0-0.3-0.2-0.6-0.6-0.6c-0.3,0-0.6,0.2-0.6,0.6c0,0.3,0.2,0.6,0.6,0.6
					C1756.9-289.1,1757.2-289.3,1757.2-289.7z"/>
				<path class="st9" d="M1758.7-246.1c0-1.1-0.9-2.1-2.1-2.1s-2.1,0.9-2.1,2.1s0.9,2.1,2.1,2.1S1758.7-245,1758.7-246.1z"/>
				<path class="st9" d="M1745.2-205.1c0-1.9-1.6-3.5-3.5-3.5c-1.9,0-3.5,1.6-3.5,3.5s1.6,3.5,3.5,3.5
					C1743.7-201.7,1745.2-203.2,1745.2-205.1z"/>
				<path class="st9" d="M1717.4-171.7c0-2-1.6-3.6-3.6-3.6c-2,0-3.6,1.6-3.6,3.6c0,2,1.6,3.6,3.6,3.6
					C1715.8-168.1,1717.4-169.7,1717.4-171.7z"/>
				<circle class="st9" cx="1676" cy="-149.9" r="3.1"/>
				<circle class="st9" cx="1633.1" cy="-142.3" r="2"/>
				<path class="st9" d="M1717.4-267.9c0-0.4-0.3-0.7-0.7-0.7c-0.4,0-0.7,0.3-0.7,0.7c0,0.4,0.3,0.7,0.7,0.7
					C1717.1-267.2,1717.4-267.5,1717.4-267.9z"/>
				<path class="st9" d="M1707.1-226c0-0.9-0.7-1.6-1.6-1.6s-1.6,0.7-1.6,1.6c0,0.9,0.7,1.6,1.6,1.6S1707.1-225.2,1707.1-226z"/>
				<circle class="st9" cx="1674.9" cy="-195.4" r="1.8"/>
				<path class="st9" d="M1633.8-184.2c0-0.4-0.4-0.8-0.8-0.8s-0.8,0.4-0.8,0.8s0.4,0.8,0.8,0.8S1633.8-183.8,1633.8-184.2z"/>
			</g>
		</g>
	</g>
</g>
</svg>
