<svg id="reliability" xmlns="http://www.w3.org/2000/svg" viewBox="0 0 106.35 110.12"><defs><style>.cls-1,.cls-2,.cls-3,.cls-4{fill:none;stroke:#000;stroke-miterlimit:10;}.cls-1,.cls-2{stroke-linecap:round;}.cls-2,.cls-3,.cls-4{stroke-width:2px;}.cls-3{stroke-linecap:square;}</style></defs><path class="cls-1" d="M8.27,21.23a45.23,45.23,0,0,0-3.62,5.35"/><path class="cls-1" d="M34,4.79A45.92,45.92,0,0,0,13.56,15.54"/><path class="cls-2" d="M45.52,52.07V98.24c0,3.93-2.72,7.12-6.08,7.12s-5.46-.6-5.46-4.53c0-2.72-3.37-3.24-3.37.13,0,5.93,3.61,8.16,8.83,8.16s9.45-4.82,9.45-10.75V52.07"/><rect class="cls-3" x="45.01" y="1" width="4.53" height="4.53"/><path class="cls-4" d="M77.56,38.88l-5.49,5.5-4.76-4.77L54.58,26.89l5.49-5.49L72.8,34.12,83.18,23.74A46,46,0,0,0,1,52.07H5.58c1.41-2.16,5-3.7,9.33-3.7s7.92,1.54,9.33,3.7H27c1.41-2.16,5-3.7,9.33-3.7s7.92,1.54,9.33,3.7h2.73c1.4-2.16,5-3.7,9.32-3.7s7.92,1.54,9.33,3.7h2.73c1.4-2.16,5-3.7,9.32-3.7s7.93,1.54,9.33,3.7H93a45.71,45.71,0,0,0-6-22.63Z"/><path class="cls-3" d="M87,29.44l17.93-17.93-4.76-4.76-17,17"/><path class="cls-4" d="M83.18,23.74,72.8,34.12,60.07,21.4l-5.49,5.49L67.31,39.61l4.76,4.77,5.49-5.5L87,29.44"/></svg>