<svg xmlns="http://www.w3.org/2000/svg" viewBox="0 0 126.46 109.63"><defs><style>.cls-1{fill:none;stroke:#000;stroke-miterlimit:10;stroke-width:2px;}</style></defs><g id="safety"><path class="cls-1" d="M21.94,52.7,15.16,31.47a7.16,7.16,0,0,0-9-4.62h0a7.14,7.14,0,0,0-4.61,9L12,68.26c2.76,7.41,5.49,9.36,12.91,16.78s7.42,7.42,10.93,10.54,3.12,7.81,3.12,14"/><path class="cls-1" d="M35.1,78.89,23,66.7c-2.76-2.77-3.46-6.13-.6-9.27,3.24-3.56,7.07-2.07,9.83.7l9.89,9.95c4.24,4.86,6.19,4.86,8.53,6.42s5.49,3.12,6.64,9,1.14,6.92,1.14,8.27,0,5.78,0,13.2"/><path class="cls-1" d="M104.52,52.7l6.79-21.23a7.15,7.15,0,0,1,9-4.62h0a7.14,7.14,0,0,1,4.61,9L114.5,68.26C111.74,75.67,109,77.62,101.59,85s-7.41,7.42-10.93,10.54-3.12,7.81-3.12,14"/><path class="cls-1" d="M91.36,78.89,103.48,66.7c2.76-2.77,3.46-6.13.6-9.27-3.23-3.56-7.06-2.07-9.83.7l-9.89,9.95c-4.24,4.86-6.19,4.86-8.53,6.42s-5.49,3.12-6.64,9-1.14,6.92-1.13,8.27,0,5.78,0,13.2"/><path class="cls-1" d="M43.8,55.33V44.41h0A8.44,8.44,0,0,1,52.21,36H73.88a8.44,8.44,0,0,1,8.41,8.41h0V55.33"/><circle class="cls-1" cx="63.23" cy="14.7" r="13.45"/></g></svg>