<?xml version="1.0" encoding="utf-8"?>
<!-- Generator: Adobe Illustrator 25.3.1, SVG Export Plug-In . SVG Version: 6.00 Build 0)  -->
<svg version="1.1" id="Layer_1" opacity="0.5" xmlns="http://www.w3.org/2000/svg" xmlns:xlink="http://www.w3.org/1999/xlink"
	 x="0px" y="0px" viewBox="0 0 1884 1884" style="enable-background:new 0 0 1884 1884;" xml:space="preserve">
<style type="text/css">
	.st0{clip-path:url(#SVGID_2_);}
	.st1{opacity:0.1;}
	.st2{fill:#739792;}
	.st3{opacity:0.1;fill:#886158;enable-background:new    ;}
	.st4{fill:#FFFFFF;}
	.st5{fill:#D2CDCA;}
	.st6{fill:#774A3F;}
	.st7{fill:#875F56;}
	.st8{fill:#581E1B;}
	.st9{fill:#6E3E33;}
	.st10{fill:#5A857F;}
	.st11{fill:#396C65;}
	.st12{fill:#9A7870;}
	.st13{fill:#B79E9D;}
	.st14{fill:#89BEB7;}
	.st15{fill:#8C6462;}
	.st16{fill:#BEB6B2;}
	.st17{fill:#88A6A2;}
	.st18{fill:#7E5349;}
	.st19{fill:#4B0D0A;}
	.st20{fill:#81A19D;}
	.st21{fill:#C7D5D3;}
	
		.st22{opacity:0.1;fill:none;stroke:#6E3E33;stroke-width:5;stroke-linecap:round;stroke-linejoin:round;stroke-dasharray:12;enable-background:new    ;}
	.st23{opacity:0.1;fill:#6E3E33;enable-background:new    ;}
	.st24{opacity:0.1;fill:#FFFFFF;enable-background:new    ;}
	.st25{opacity:0.1;fill:#4B0D0A;enable-background:new    ;}
	.st26{opacity:0.1;fill:#1E5850;enable-background:new    ;}
	.st27{opacity:0.1;fill:#5A857F;enable-background:new    ;}
	.st28{fill:#D0CAC8;}
	.st29{fill:#886158;}
	.st30{opacity:0.38;fill:#8C6462;enable-background:new    ;}
	.st31{fill:#CCBBB8;}
	.st32{fill:none;stroke:#6E3E33;stroke-width:3;stroke-linecap:round;stroke-linejoin:round;}
	.st33{fill:#8C675E;}
	.st34{fill:#8E6860;}
	.st35{fill:none;stroke:#561C19;stroke-width:1.07;stroke-linecap:round;stroke-linejoin:round;}
	.st36{fill:#561C19;}
	.st37{fill:#1E5850;}
</style>
<g>
	<defs>
		<rect id="SVGID_1_" width="1884" height="1884"/>
	</defs>
	<clipPath id="SVGID_2_">
		<use xlink:href="#SVGID_1_"  style="overflow:visible;"/>
	</clipPath>
	<g class="st0">
		<g class="st1">
			<path class="st2" d="M1780.1,1688.3H103.9c-31,0-56.1-25.1-56.1-56.1c0-31,25.1-56.1,56.1-56.1h1676.2c31,0,56.1,25.1,56.1,56.1
				C1836.2,1663.2,1811.1,1688.3,1780.1,1688.3z"/>
		</g>
		<path class="st3" d="M561.1,1022.8c-3.1,0-5.7,2.5-5.7,5.7l0,0v55.5h-81.3v-55.5c0.1-3.1-2.3-5.8-5.4-5.9
			c-3.1-0.1-5.8,2.3-5.9,5.4c0,0.2,0,0.3,0,0.5v589.2c0.1,3.1,2.8,5.6,5.9,5.4c2.9-0.1,5.3-2.5,5.4-5.4v-48.9h81.3v48.9
			c0.1,3.1,2.8,5.6,5.9,5.4c2.9-0.1,5.3-2.5,5.4-5.4v-589.3C566.7,1025.3,564.2,1022.8,561.1,1022.8z M474.1,1320.2v-46.7h81.3v46.7
			H474.1z M555.4,1332.5v46.7h-81.3v-46.7H555.4z M474.1,1261.1v-46.7h81.3v46.7H474.1z M474.1,1391.6h81.3v46.7h-81.3L474.1,1391.6
			z M555.4,1202.1h-81.3v-46.7h81.3L555.4,1202.1z M474.1,1450.6h81.3v46.7h-81.3L474.1,1450.6z M555.4,1096.3v46.7h-81.3v-46.7
			L555.4,1096.3z M474.1,1556.4v-46.7h81.3v46.7H474.1z"/>
		<g class="st1">
			<path class="st4" d="M1109.8,741.6c-5.2-19.6-15.9-22.5-23.2-21.9c-0.5-0.1-1-0.1-1.5-0.2c-5.9-0.1-10.9,4.6-11,10.5
				c0,0.1,0,0.3,0,0.4l2.2,169.7c0.1,2.8,2.4,4.9,5.1,4.9c0.8,0,1.5-0.2,2.2-0.6c6-1.9,10.5-7.1,11.7-13.3
				C1101.1,858.3,1116.5,767.2,1109.8,741.6z"/>
			<path class="st4" d="M1147.9,740.7c-6.3-19.3-17.2-21.6-24.5-20.5c-0.5-0.1-1-0.1-1.5-0.1c-5.9,0.2-10.6,5.2-10.4,11.1
				c0,0.1,0,0.2,0,0.4l11.8,169.3c0.2,2.7,2.5,4.7,5.1,4.6c0.9,0,1.7-0.3,2.4-0.7c5.9-2.3,10.1-7.7,10.9-14
				C1145.8,857.7,1156,765.9,1147.9,740.7z"/>
			<path class="st5" d="M1095.8,891.2c-2.8-6-6.1-9.1-11.6-9.2c-5.9-0.1-10.9,4.6-11,10.5c0,0.1,0,0.2,0,0.3l-0.6,169.5
				c0,2.7,4,5.1,6.6,5.2c2.7,0.1,4.9-2,5.1-4.7l0.4-7.3C1097.4,939.7,1104.2,913,1095.8,891.2z"/>
			<path class="st5" d="M1138.8,890.6c-3.5-5.7-7.1-8.3-12.6-7.8c-5.9,0.5-10.3,5.8-9.7,11.7c0,0.1,0,0.2,0,0.3l19.2,168.4
				c0.3,2.7,4.5,4.6,7.2,4.3c2.7-0.3,4.6-2.6,4.5-5.2l-0.4-7.3C1146,938.6,1149.7,911.3,1138.8,890.6z"/>
			<path class="st6" d="M1067.9,1060.6c1.8,1.2,5.6,2,9.9,2c2.1,0,4.3-0.2,6.4-0.7c1.3-0.3,2.6,0.5,2.9,1.7c0,0,0,0.1,0,0.1
				c0.8,4.6,1.7,11.5-0.8,11.8c-3.7,0.4-56.6,2-56.9-0.4C1028.6,1068.7,1054.2,1062.6,1067.9,1060.6z"/>
			<path class="st6" d="M1131.6,1060.8c1.8,1.2,5.6,2,10,1.9c2.1,0,4.3-0.2,6.4-0.7c1.3-0.3,2.6,0.5,2.9,1.7c0,0,0,0.1,0,0.1
				c0.8,4.6,1.7,11.5-0.8,11.8c-3.7,0.4-56.6,2.3-56.9-0.2C1092.4,1069.1,1118,1062.9,1131.6,1060.8z"/>
			<path class="st7" d="M1071,730.5c0,0-2.3,150.6-2.1,160.3s1.6,158,1.6,158l17.5-4.2c0,0,20.8-148.9,8.9-157l10.5-104.1l3.6,107.2
				l19.7,157.3l18.3-3.5c0,0,5.4-139-10.3-162.5c0,0,24.7-130.7-6.7-170.6L1071,730.5z"/>
			<path class="st5" d="M968.6,581.5c1.3-3.4,1-7.2-0.9-10.3c-4.9-8-14.6-22.8-20.3-23.7c-7.8-1.3,3.9,26.5,20.4,36L968.6,581.5z"/>
			<path class="st6" d="M1079.9,575.6c11-6.4,15.2,3.7,15.5,3.9c2.7,2.7,1.3,10-2.2,13l-81.4,64.7c-1.2,1.2-3.2-0.8-4.4-2
				c-0.4-0.4-0.7-0.8-0.8-1.4c-1.8-3.5-0.9-8.7,1.4-11.9C1020,624.8,1065.6,583.9,1079.9,575.6z"/>
			<path class="st8" d="M970,574.6c14.8,15.9,41.6,55.2,46.5,68c4.1,10.6-2.4,13-2.7,13.2c-2.8,2.1-9.2,0.8-11.5-2.7l-41-72.7
				L970,574.6z"/>
			<path class="st8" d="M1140.2,642c-1.8-13.7-3.4-28-5.2-41.3c-1.1-7.8-1.1-13.9-3.8-20.9c-8-21-24.8-24.9-43.3-13
				c-8.2,5.3-14.9,17.7-13,34.2c2.1,18.1,0.9,130.8,0.6,133.3c-0.1,1.1-0.2,2.2-0.3,3.3c7.7,2.2,15.7,3.4,23.6,1.8
				c16.8-3.3,30.7-13.8,47.7-15.9h0.1C1146.6,720.8,1140.5,644.1,1140.2,642z"/>
			<path class="st8" d="M1129.5,571.9c-9.3-8.7-15.7,0.1-16,0.3c-3.3,2-3.5,9.4-0.8,13.2l64.7,81.4c0.9,1.4,3.3-0.1,4.7-0.9
				c0.5-0.3,0.9-0.7,1.1-1.2c2.5-3,2.8-8.2,1.3-12C1176.8,633.4,1141.6,583.3,1129.5,571.9z"/>
			<path class="st9" d="M1073.8,551.2c0,0-3.8-7.5-1-14.8s6.2,0.3,6.2,0.3L1073.8,551.2z"/>
			<path class="st9" d="M1121.8,539.4c-0.4,0.7-7,13.4-9.4,13.4c-3.2,0-1.2-10.2-1.2-10.2L1121.8,539.4z"/>
			<path class="st9" d="M1080.8,518.5c0,0-2.7-7,0.5-11.4c3-4.3,7.9-8.6,25.7-3.6c2.5,0.7,4.1,3,3.9,5.6l-0.8,7.2L1080.8,518.5z"/>
			<path class="st5" d="M1113.7,534.7c-2.7,10.2-5.7,18.5-13,22.2c-2.9,1.5-6,2.3-9.3,2.5c-2.4,0.1-4.9-0.3-7.2-1
				c-6.7-2-9.7-5.8-10.5-10.8c-1-5.8,0.8-13.3,3-21.8c4.2-16,14.6-22.1,24.8-19.7S1117.9,518.7,1113.7,534.7z"/>
			<path class="st5" d="M1114.8,535.7l-17.8-2.5c-0.4,2.3-3.3,24.7-2.8,33.2c0.5,2.6,5,4,9.9,3.1c4.4-0.8,7.7-3.2,8-5.6l0,0
				C1111.7,558.9,1113.6,544,1114.8,535.7z"/>
			<path class="st9" d="M1121.3,540.4c-3.1,0.4-6.1-0.9-8-3.4c-4.3-5.5-7.7-16.7-8.3-21.8c-1.1-8.9,1.8-10.9,1.8-10.9
				s17.1,3.1,20.2,9C1131.5,522.2,1121.3,540.4,1121.3,540.4z"/>
			<path class="st5" d="M1121.1,536.9c-0.9,3.5-5.6,7.1-8.2,6.4s-2.6-3.6-1.7-7.1s3.8-6.2,6.5-5.6S1122,533.4,1121.1,536.9z"/>
			<path class="st9" d="M1107,512l-10.8-2.5c-3.6-0.8-7.4-0.4-10.7,1.2l-4.5,2.2l7.5-8.5l9.4-1.1l10.8,3.4L1107,512z"/>
			<path class="st9" d="M1111.9,527.8l-9.7,23c-1,2.4-3.4,4-6,4h-3c-1.7,0-3-1.4-2.9-3.1c0-0.2,0-0.3,0-0.5l1-5
				c0.2-1.1-0.3-2.2-1.3-2.8l-10.1-5.2c-1.1-0.6-2.4-0.3-3.2,0.7l-3.2,3.9c-2.9,3.5-2.3,8.6,1.2,11.5c0.3,0.2,0.6,0.5,0.9,0.7
				l5.9,3.5c1.3,0.8,2.7,1.2,4.2,1.3h0.3h2.6h7.6c4.7,0,8.9-2.8,10.7-7.1l9.7-23L1111.9,527.8z"/>
			<path class="st10" d="M1095.3,576.6h5.5c0,0-1.6,38.8,3.7,57l-12.6,14.6l-10.9-17.6C1081,630.6,1092.7,612.8,1095.3,576.6z"/>
			<path class="st5" d="M1122.1,563.8l-30.4,66.9l-3.8-63.9c0,0-55.9,38.8-73.7,63.9c0,0-25.7-43.3-32.7-47.2l-16,13.7
				c0,0,34.4,61.2,43,61.9s66.1-49.5,66.1-49.5l-9,230.4h26.2l5.1-59.5l2.3,59.5l66.2-2.9l-23-206.5l23,36.8l19.3-14.6
				C1184.6,652.8,1160.1,581.9,1122.1,563.8z"/>
			<path class="st11" d="M1043.5,656.8l61.8-11.7c1.2-0.2,2.4,0.6,2.7,1.8l17.3,91.4c0.2,1.2-0.6,2.4-1.8,2.7l-61.8,11.7
				c-1.2,0.2-2.4-0.6-2.7-1.8l-17.3-91.4C1041.4,658.2,1042.2,657.1,1043.5,656.8z"/>
			<path class="st9" d="M1061.1,642.9l24.7-4.8c1-0.2,1.9,0.5,2.1,1.4l1,5.4c0.2,1-0.5,1.9-1.4,2.1l-24.7,4.8
				c-1,0.2-1.9-0.5-2.1-1.4l-1-5.4C1059.4,644,1060.1,643,1061.1,642.9z"/>
			<path class="st5" d="M1106.1,697.3c-2.3,2.9-5.7,4.5-9.4,4.4c-9.4-0.2-27-1.1-30.7-5.5c-5.1-6.1,24.9-10,41.4-0.5L1106.1,697.3z"
				/>
			<path class="st8" d="M1103.2,700.1c21.1-5.2,65.1-23.2,76.3-31.1c9.3-6.6,5.2-12.2,5-12.4c-1.1-3.3-7.3-5.7-11.1-4l-74.3,38
				L1103.2,700.1z"/>
			<path class="st5" d="M1108.7,681.8l7.5,20.1c0,0,69.8-25.5,70.8-34.5s-6-24-6-24L1108.7,681.8z"/>
		</g>
		<g class="st1">
			<path class="st4" d="M1661.4,775.8c60,0,112.7,39.8,129.2,97.4h-258.4C1548.7,815.5,1601.5,775.8,1661.4,775.8z"/>
			<path class="st4" d="M2062.5,873.2c-19.8-68.6-98.3-119.8-192.2-119.8s-172.4,51.2-192.2,119.8H2062.5z"/>
		</g>
		<g class="st1">
			<path class="st12" d="M1475.7,482.4c22.8,0,42.8,15.1,49.1,37h-98.2C1432.8,497.5,1452.9,482.4,1475.7,482.4z"/>
			<path class="st12" d="M1533.1,493.9c15.7,0,29.5,10.4,33.9,25.6h-67.8C1503.6,504.3,1517.4,493.9,1533.1,493.9z"/>
			<path class="st12" d="M1460.1,519.5c-6.6-22.8-32.7-39.9-64-39.9s-57.4,17-64,39.9H1460.1z"/>
		</g>
		<g class="st1">
			<path class="st13" d="M1795.9,1501.5c68.6,0,128.9,45.5,147.8,111.4h-295.6C1667,1546.9,1727.3,1501.5,1795.9,1501.5z"/>
			<path class="st13" d="M1968.8,1536c47.3,0,89,31.4,102,76.9h-204C1879.9,1567.4,1921.5,1536,1968.8,1536z"/>
			<path class="st13" d="M1749,1612.9c-19.8-68.7-98.5-120-192.5-120s-172.7,51.3-192.5,120H1749z"/>
		</g>
		<g class="st1">
			<path class="st14" d="M226.5,627.7c56.1,0,105.3,37.2,120.8,91.1H105.8C121.2,664.9,170.5,627.7,226.5,627.7z"/>
			<path class="st14" d="M190,718.8C162.7,624.4,54.6,553.8-74.6,553.8S-312,624.4-339.3,718.8H190z"/>
		</g>
		<g class="st1">
			<path class="st15" d="M8.5,680.9c50.7,0,95.2,33.6,109.2,82.3h-218.4C-86.7,714.5-42.2,680.9,8.5,680.9z"/>
			<path class="st15" d="M136.2,706.4c35,0,65.7,23.2,75.3,56.8H60.9C70.5,729.6,101.3,706.4,136.2,706.4z"/>
			<path class="st14" d="M294.5,189.7c-56.1,0-105.3,37.2-120.8,91.1h241.6C399.9,226.9,350.6,189.7,294.5,189.7z"/>
			<path class="st14" d="M331.1,280.8c27.3-94.4,135.4-164.9,264.6-164.9S833,186.4,860.3,280.8H331.1z"/>
			<path class="st15" d="M512.6,242.9c-50.7,0-95.2,33.6-109.2,82.3h218.4C607.8,276.5,563.3,242.9,512.6,242.9z"/>
			<path class="st15" d="M384.8,268.4c-35,0-65.7,23.2-75.3,56.8h150.7C450.5,291.6,419.8,268.4,384.8,268.4z"/>
		</g>
		<g class="st1">
			<path class="st4" d="M909.5,371.6c28,0,52.5,18.5,60.2,45.4H849.2C857,390.1,881.5,371.6,909.5,371.6z"/>
			<path class="st4" d="M615.9,350.1c41.2,0,77.4,27.3,88.7,66.9H527.1C538.5,377.4,574.7,350.1,615.9,350.1z"/>
			<path class="st4" d="M891.3,417c-13.6-47.1-67.5-82.2-132-82.2S640.9,370,627.3,417H891.3z"/>
		</g>
		<g class="st1">
			<path class="st16" d="M72.9,1498.6c-55.4,0-104.1,36.7-119.3,89.9h238.6C176.9,1535.3,128.3,1498.6,72.9,1498.6z"/>
			<path class="st16" d="M-66.8,1526.5c-38.2,0-71.8,25.3-82.3,62.1H15.6C5.1,1551.8-28.5,1526.5-66.8,1526.5z"/>
			<path class="st16" d="M110.7,1588.5c16-55.4,79.5-96.9,155.4-96.9s139.4,41.4,155.4,96.9H110.7z"/>
		</g>
		<g class="st1">
			<path class="st17" d="M1543,1669.9c15.3,0,28.7,10.1,32.9,24.8h-65.8C1514.3,1680,1527.7,1669.9,1543,1669.9z"/>
			<path class="st17" d="M1581.6,1677.6c10.5,0,19.8,7,22.7,17.1h-45.4C1561.7,1684.6,1571,1677.6,1581.6,1677.6z"/>
			<path class="st17" d="M1532.6,1694.7c-4.4-15.3-21.9-26.7-42.9-26.7s-38.5,11.4-42.9,26.7H1532.6z"/>
		</g>
		<g class="st1">
			<path class="st4" d="M-32.2,1556.8c28.7,0,53.9,19,61.8,46.6H-93.9C-86,1575.8-60.8,1556.8-32.2,1556.8z"/>
			<path class="st4" d="M40.1,1571.2c19.8,0,37.2,13.1,42.6,32.1H-2.5C2.9,1584.3,20.3,1571.2,40.1,1571.2z"/>
		</g>
		<g class="st1">
			<path class="st15" d="M1843.2,842.6c-27.8,0-52.2,18.4-59.9,45.1H1903C1895.4,861,1871,842.6,1843.2,842.6z"/>
			<path class="st15" d="M1773.1,856.6c-19.2,0-36,12.7-41.3,31.2h82.6C1809.2,869.3,1792.3,856.6,1773.1,856.6z"/>
			<path class="st15" d="M1862.2,887.8c8-27.8,39.9-48.6,78-48.6s69.9,20.8,78,48.6H1862.2z"/>
		</g>
		<g class="st1">
			<path class="st14" d="M1048.7,420.5c11.9,0,22.3,7.9,25.5,19.2h-51.1C1026.4,428.3,1036.8,420.4,1048.7,420.5z"/>
			<path class="st14" d="M924.2,411.3c17.5,0,32.8,11.6,37.6,28.4h-75.2C891.4,422.9,906.7,411.3,924.2,411.3z"/>
			<path class="st14" d="M1040.9,439.7c-5.8-20-28.6-34.9-56-34.9s-50.2,14.9-56,34.9H1040.9z"/>
		</g>
		<g class="st1">
			<path class="st9" d="M521.8,634.8c-22.5-7.4-58,10.8-57.1,36.7c0.1,2.4,0.4,4.9-0.2,7.2c-1,3.7-4.3,6.3-7.5,8.3
				c-7.3,4.5-15.7,7.4-22,13.3c-10,9.4-12.3,26.2-4.7,37.6c7.1,10.6,31.2,20.2,43.7,17.8s23.2-10.8,30.4-21.3
				c1.8-2.6,3.4-5.4,5.8-7.5c4.4-3.9,10.7-4.7,15.9-7.4c4.9-2.5,4.5-13.3,6.6-18.4c2.7-6.6-3.5-12.5-1.6-19.3
				c2.3-8,7.8-15.1,8.3-23.4C540.1,647.9,531.9,638.1,521.8,634.8z"/>
			<path class="st5" d="M673.7,659.4c3.5,1.3,7.4,0.9,10.6-1.1c8.1-5.1,23.2-15.3,24-21.1c1.2-8-27.2,4.4-36.6,21.5L673.7,659.4z"/>
			<path class="st5" d="M680.7,661.1c-14.1,17.2-50.3,49.9-62.7,56.8c-10.2,5.7-13.5-0.6-13.7-0.9c-2.5-2.5-2.1-9.3,1.2-12
				l68.1-51.8L680.7,661.1z"/>
			<path class="st5" d="M513,700.4c-11.9-5.4-6-14.9-6-15.2c0.6-3.9,7.5-7,12.2-6l102.5,29.2c1.7,0.3,1.2,3.1,1,4.8
				c-0.1,0.6-0.3,1.1-0.7,1.5c-1.9,3.6-6.7,5.9-10.8,6C589.7,720.9,528.5,707.4,513,700.4z"/>
			<path class="st5" d="M540.2,1174.4c0,0-3.5,11.8-1.4,12.5s50.6,2.8,54.1,0.7s-7-5.5-7-5.5s-22.9-6.2-36.1-7.6
				C550,1174.4,540.2,1173.7,540.2,1174.4z"/>
			<path class="st5" d="M533.5,1014.2c2.8-5.5,5.9-8.3,11.1-8.3c5.5,0,10,4.5,10,10c0,0.1,0,0.3,0,0.4l-5.4,158.5
				c-0.1,2.6-2.3,4.5-4.9,4.4c-2.4-0.1-4.3-2-4.4-4.4l-0.2-6.8C530.9,1059.4,525.2,1034.3,533.5,1014.2z"/>
			<path class="st5" d="M516.4,874c4-18.6,13.9-21.7,20.7-21.5c0.5-0.1,0.9-0.2,1.4-0.2c5.5-0.4,10.3,3.8,10.7,9.4
				c0,0.1,0,0.2,0,0.3l5.5,158.5c0.1,2.5-1.8,4.6-4.3,4.8c-0.8,0.1-1.6-0.1-2.3-0.4c-5.7-1.6-10.1-6.1-11.5-11.9
				C529.6,982.4,511.2,898.1,516.4,874z"/>
			<path class="st5" d="M515.8,881.5c-3.1-18.7-12.8-22.3-19.7-22.4c-0.5-0.1-0.9-0.2-1.4-0.3c-5.5-0.6-10.5,3.3-11.1,8.9
				c0,0.1,0,0.2,0,0.3l-12.9,158c-0.2,2.5,1.7,4.8,4.2,5c0.8,0.1,1.5-0.1,2.2-0.4c5.8-1.3,10.4-5.7,12-11.4
				C497.5,989.2,519.8,905.8,515.8,881.5z"/>
			<path class="st5" d="M484.6,1175.7c0,0,3.2,11.9,1.1,12.5s-50.7,1.7-54.1-0.5s7-5.4,7-5.4s23-5.7,36.2-6.8
				C474.9,1175.4,484.6,1175,484.6,1175.7z"/>
			<path class="st8" d="M475.5,875.1c-1.8,0.3,1.5-60.4,4-66.8c-2.4-26.5-3.2-77.2,1.4-99.2c5.8-27.7,10.5-37.2,36-31
				c8,2,14.7,21.9,17.8,36.6s6.6,16,0.2,42.7c-2.2,9.5,8,70.1,13.3,87.1c1.5,4.9,2.2,21.3,5.1,26.3c-3.1,2.3-7.1,5-10.5,5.8
				C519.5,882.6,499.6,871.5,475.5,875.1z"/>
			<path class="st5" d="M475.5,692.9c8.3-8.6,15.7-0.4,16-0.3c3.5,1.8,4.6,8.8,2.3,12.5l-55.6,79.7c-0.8,1.4-3.3,0-4.8-0.7
				c-0.5-0.2-0.9-0.6-1.2-1c-2.9-2.8-3.7-7.7-2.6-11.3C435.2,753,464.7,704.1,475.5,692.9z"/>
			<path class="st9" d="M501.5,669.3c0,0-17.7-6.8-18.8-24.8c-1.4-24.1,23.2-35.5,36.3-27.2c12,7.5,9.7,17.9,8.2,20.5
				S501.5,669.3,501.5,669.3z"/>
			<path class="st5" d="M496.2,646.5l19.3-1.4c0.2,2.6,1.5,27.8,0.3,37.3c-0.8,2.9-5.6,4.1-10.8,2.7c-4.7-1.3-8-4.2-8-6.9l0,0
				C497.7,672.5,496.9,655.7,496.2,646.5z"/>
			<path class="st5" d="M497.6,649.3c2.9,15.3,15.9,25.6,25.3,23.8s11.4-15,8.5-30.3s-12-21.6-21.3-19.8S494.7,634,497.6,649.3z"/>
			<path class="st9" d="M521.4,621.5c0,0-3.9,20.4-22.9,27.3c-9.8,3.5-12.9-11.9-12.9-11.9l9.7-14.6c0,0,7.9-6.2,13.9-5.5
				C509.7,616.8,521.4,621.5,521.4,621.5z"/>
			<path class="st9" d="M528.3,633.2c0,0-17-6.2-19.5-12.2s6.2-5.2,6.2-5.2C522.1,619,527.1,625.5,528.3,633.2z"/>
			<path class="st9" d="M501.1,620c0,0,7.8-5.9,2.6-13.2s-14.2-4.5-16.3,1c-2.3,6.2,0.8,10.1,3.4,11.9
				C494,621.6,497.9,621.7,501.1,620z"/>
			<path class="st18" d="M569.2,1176.7c-5,2.2-13.4,3.7-22.8,3.7c-2.9,0-5.8-0.1-8.7-0.4c-0.6,4.3-0.9,9.3,1.2,9.5
				c3.7,0.4,56.4,2,56.8-0.4C596.2,1184.1,582,1179.5,569.2,1176.7z"/>
			<path class="st5" d="M491.9,1016.5c-2.6-5.9-5.7-8.9-10.9-9.1c-5.7-0.2-10.4,4.7-10.3,10.7l0.9,167.2c-0.2,2.6,1.8,4.8,4.3,4.9
				c2.6,0.2,4.8-1.8,4.9-4.3c0-0.1,0-0.2,0-0.4l0.4-7.2C493.3,1064.2,499.7,1037.9,491.9,1016.5z"/>
			<path class="st18" d="M455.7,1177.3c5,2.3,13.3,3.9,22.8,4.2c3,0.1,5.9,0,8.7-0.2c0.5,4.3,0.7,9.3-1.4,9.5
				c-3.7,0.3-56.5,0.8-56.7-1.7C428.5,1184.2,442.7,1179.9,455.7,1177.3z"/>
			<path class="st5" d="M489.5,683l26.9,52.3l3.8-55.6l6.8,4.5l14.2,43.6c0,0,3.5,18.3,0,29.8s23.2,156.9,21.5,238.1h-16.4l-9-63.2
				l1.7,69.5l-72.4-4.3c0,0,4.9-155.1,5.9-189.7c2.4-78.5,6-117.9,6-117.9C485.6,684.2,489.5,683,489.5,683z"/>
			<path class="st5" d="M456.2,856.2c1,1,1.8,2.1,2.4,3.3c4.2,8.6,11.6,25.2,9.2,30.7c-3.1,7.1-19.1-15.6-19.8-34.7L456.2,856.2z"/>
			<path class="st5" d="M490.1,654.9c1.5,3.5,7,6.6,9.5,5.5s2-4.2,0.5-7.8s-5-6-7.6-4.9S488.6,651.3,490.1,654.9z"/>
			<path class="st5" d="M458.2,858.1c0.5-22.2-5.8-70.6-10.7-83.8c-4.1-11-10.7-8.3-11-8.3c-3.6,0.3-7.6,5.7-6.9,9.9l18.1,83.6
				L458.2,858.1z"/>
		</g>
		<g class="st1">
			<path class="st13" d="M1483.2,1049.5c18.3,19.9,29.4,45.1,29.4,70.2c0.1,13.2-3.2,26.2-9.7,37.8c-14,24.9-42.1,41.9-76.6,48.4
				c8.3,15.3,13,31.9,13,48.5c0,6.1-0.7,12.3-2,18.3c-11.3,50-68.9,80.3-138.2,80.3c-4.8,0-9.4-0.2-14-0.4
				c-2.9,26.4-30,42.6-63,42.6c-26.2,0-48.7-10.2-58.3-27.7c-11.8,2-24.1,3.7-36.9,5.2c-176.4,20.5-398.9-51.3-400.7-216.5
				c0-0.7,0-1.3,0-1.9c0-54.1,17.3-110.8,46.7-163.5c44.1-79.3,115.6-149.9,196.8-189.9c11.3-47.3,59.2-89.4,116.6-89.4
				c42.1,0,79.1,22.6,100.3,53.3c16.9-16,40-26.6,65.6-26.6c48.8,0,88.8,38.7,93.1,79.3c4.2-0.7,8.4-1.1,12.6-1.1
				c42,0,76,35.2,76,70.4c0.1,8.4-2,16.7-6.1,24c47.5,4.5,84.7,45.4,84.7,86.1C1512.6,1019.4,1501.3,1037.4,1483.2,1049.5z"/>
			<path class="st15" d="M1483.2,1049.5c18.3,19.9,29.4,45.1,29.4,70.2c0.1,13.2-3.2,26.3-9.7,37.8c-14,24.9-42.1,41.9-76.6,48.4
				c8.3,15.3,12.9,31.9,12.9,48.5c0,6.1-0.7,12.3-2,18.3c-11.3,50-68.8,80.3-138.2,80.3c-4.7,0-9.4-0.1-14-0.4
				c-2.9,26.5-30,42.6-63,42.6c-26.2,0-48.7-10.2-58.3-27.6c-11.9,2-24.2,3.7-36.9,5.2c-140.6,16.3-310.5-26-374.5-127.4
				c55.7,15,113.1,22.5,170.7,22.5c249,0,462.8-138.4,555.6-336.1c20.8,16.7,34,41,34,65.3
				C1512.6,1019.4,1501.3,1037.4,1483.2,1049.5z"/>
			<path class="st19" d="M1202.7,1057.1c0,158.1-79.4,273-318.9,299.4c-177.1,19.5-400.7-49.2-400.7-207.3s164-339.3,340.3-365.2
				C1023.9,754.6,1202.7,899,1202.7,1057.1z"/>
			<path class="st12" d="M1156.3,1057.3c0,53.1-8.1,101.5-26.8,143.8c-11.8,26.9-28.4,51.4-48.9,72.3c-32.6,33.2-77,59.5-135.7,77.6
				c-2,27.3-29.5,44.1-63.1,44.1c-19.8,0-37.5-5.8-49.1-16.3c-10,23.7-38.5,37.7-72.2,37.7c-33,0-61-13.4-71.6-36.2
				c-16.8,18.2-45.1,28.5-77.2,28.5c-51.6,0-93.5-26.7-93.5-70c0-8.2,1.5-16.3,4.2-24c-10.4,2.5-21.1,3.7-31.8,3.7
				c-51.6,0-93.5-26.7-93.5-70c0-19,8.1-38,21.5-53.3c0.5-0.6,1.1-1.3,1.7-1.9c-29.6-15.1-48.9-40.6-48.9-73.7
				c0.1-11.1,2.1-22,6-32.4c8.5-22.9,25.4-43.8,47.5-58.2c-6-9.6-9.2-20.7-9.2-32c0-43.2,41.9-86.6,93.5-86.6c2,0,4,0.1,6,0.2
				c-4-7.3-6.1-15.5-6-23.8c0-35.2,34-70.4,76-70.4c13.6,0,26.9,3.7,38.6,10.5c0-0.8,0-1.5,0-2.2c0-43.2,41.8-86.6,93.5-86.6
				c15.9,0,31.5,4.1,45.4,11.8c21.8-22.9,53.3-38.5,88.3-38.5c54.6,0,100.6,38,114.7,82.4C1077.4,842.3,1156.3,946.6,1156.3,1057.3z
				"/>
			<path class="st20" d="M440.6,1308.9c23.4,4,47,6.8,70.7,8.2c-6.9,1-13.8,1.5-20.7,1.5C472.2,1318.6,455,1315.2,440.6,1308.9z"/>
			<path class="st15" d="M1156.3,1057.3c0,53.1-8.1,101.5-26.8,143.8c-11.8,26.9-28.4,51.4-48.9,72.3c-32.6,33.2-77,59.5-135.7,77.6
				c-2,27.3-29.5,44.1-63.1,44.1c-19.8,0-37.5-5.8-49.1-16.2c-10,23.7-38.5,37.7-72.2,37.7c-33,0-61-13.4-71.6-36.2
				c-16.8,18.2-45.1,28.5-77.2,28.5c-51.6,0-93.5-26.7-93.5-69.9c0-7.2,1.1-14.4,3.3-21.2c10.2,0.5,20.4,0.7,30.7,0.7
				c266.9,0,493.3-158.9,573.6-379.5C1145.4,975.7,1156.3,1016.1,1156.3,1057.3z"/>
			<path class="st21" d="M568.3,1053.3c0,0-6.9-107.7,95-121.8s129.5,77.9,129.5,77.9S646,912.8,568.3,1053.3z"/>
			<path class="st21" d="M790.6,895.7c0,0,11.2-60.4,75.1-63s73.4,50.1,73.4,50.1s8.6-32.8,44-37.1c0,0-44.2,51.2-32.8,75.1
				C950.4,920.8,878.7,820.6,790.6,895.7z"/>
			<path class="st21" d="M1245.8,1073.8c0,0,22.5-67.4,92.4-51.8c0,0-8.7-33.2,22-59.2c0,0-35,6.5-40.1,35
				C1320.1,997.8,1233.7,977.6,1245.8,1073.8z"/>
			<path class="st20" d="M522.4,1315c-0.3,0.9-0.6,1.8-0.9,2.7c-3.4-0.2-6.8-0.3-10.2-0.6C515.1,1316.6,518.8,1315.8,522.4,1315z"/>
		</g>
		<path class="st22" d="M1147.9,1133.5c-113.7,88.9-258.8,4.8-258.8,4.8c-200.2,113.8-517.7,47.9-517.7,47.9"/>
		<path class="st22" d="M1189.9,705.5c0,0-23.5,190.5,46.1,238.1c88.6,60.5,241.3-56.3,241.3-56.3"/>
		<path class="st22" d="M767.6,798.6c-1.3,32.2-9.2,63.7-23.2,92.7"/>
		<path class="st22" d="M1363.9,792.5c0,0-61.5,65.5-72.2,168.4"/>
		<path class="st22" d="M561.1,1207.8c0,0,5.8,95.9-99.8,148.7"/>
		<path class="st22" d="M889.1,1138.3c0,0-17.9-227.6-311.6-345.8"/>
		<path class="st22" d="M1451.8,1206.1c0,0-161.4,34.1-304-72.6"/>
		<path class="st23" d="M1370.9,899.6h-14.1l-2.5,6.5h-12.7l16.2-37h12.3l16.2,37h-12.9L1370.9,899.6z M1367.4,890.6l-3.6-9.3
			l-3.6,9.3H1367.4z"/>
		<path class="st24" d="M644.5,1078.2c0,6.5-5.5,10.2-15.7,10.2H608v-37h19.8c10.2,0,15,4.1,15,9.7c0,3.5-2,6.6-5.1,8
			C642,1070.6,644.5,1073.8,644.5,1078.2z M620.3,1060.1v5.5h5.8c2.8,0,4.1-0.9,4.1-2.8s-1.3-2.8-4.1-2.8H620.3z M631.9,1076.8
			c0-1.9-1.4-2.9-4.1-2.9h-7.5v5.8h7.5C630.6,1079.7,631.9,1078.7,631.9,1076.8L631.9,1076.8z"/>
		<path class="st25" d="M923.4,537c0-11.4,8.7-19.4,20.6-19.4c7.2,0,13,2.7,16.6,7.4l-7.9,7c-2.2-2.8-4.8-4.3-8.1-4.3
			c-5.2,0-8.7,3.6-8.7,9.3s3.5,9.3,8.7,9.3c3.3,0,5.9-1.6,8.1-4.3l7.9,7c-3.7,4.8-9.4,7.4-16.6,7.4
			C932.1,556.3,923.4,548.4,923.4,537z"/>
		<path class="st26" d="M726.2,804v9.4h-30.8v-37h30.1v9.4h-17.8v4.3h15.7v9h-15.7v4.8H726.2z"/>
		<path class="st27" d="M473.3,1245.2v6.3h15.5v9.4h-15.5v11.8h-12.5v-37H491v9.4L473.3,1245.2z"/>
		<g class="st1">
			<path class="st5" d="M786.6,1152c-12.8-5-7.2-15.4-7.1-15.7c0.4-4.1,7.6-7.8,12.5-6.9l109.5,25.2c1.8,0.2,5.2,6.8,5,8.6
				c-0.1,0.6-0.3,1.1-0.6,1.6c-1.8,3.9-10.5,3.5-14.8,3.3C869.8,1167.3,803.2,1158.5,786.6,1152z"/>
			<path class="st28" d="M799,1449.4c4.5-4.6,8.5-6.4,13.6-4.7c5.5,1.8,8.5,7.6,6.8,13.1c0,0.1-0.1,0.2-0.1,0.3l-55.5,155.2
				c-0.9,2.5-3.7,3.8-6.2,2.8c-2.3-0.9-3.6-3.4-3-5.8l1.9-6.8C782,1493.4,784.4,1466.7,799,1449.4z"/>
			<path class="st4" d="M760.1,1306.3c1.3-19.7,11-24.4,18.1-25.2c0.5-0.2,0.9-0.3,1.4-0.4c5.6-1.2,11.2,2.4,12.4,8
				c0,0.1,0,0.2,0.1,0.3l29.1,162.2c0.5,2.6-1.3,5.1-3.9,5.6c-0.8,0.1-1.6,0.1-2.3-0.1c-6.1-0.7-11.3-4.8-13.6-10.6
				C789.9,1415.9,758.4,1331.8,760.1,1306.3z"/>
			<path class="st28" d="M743.5,1449.4c4.5-4.6,8.5-6.4,13.6-4.7c5.5,1.8,8.5,7.6,6.8,13.1c0,0.1-0.1,0.2-0.1,0.3l-55.5,155.2
				c-0.8,2.5-3.6,3.9-6.1,3c-2.5-0.8-3.8-3.5-3.1-6l1.9-6.8C726.5,1493.4,728.9,1466.7,743.5,1449.4z"/>
			<path class="st4" d="M727.4,1302.2c4.5-19.2,14.8-22.3,22-21.9c0.5-0.1,1-0.2,1.5-0.2c5.8-0.3,10.7,4.1,11,9.9c0,0.1,0,0.3,0,0.4
				l2.6,164.8c0,2.7-2.1,4.8-4.7,4.9c-0.8,0-1.6-0.2-2.3-0.5c-5.9-1.7-10.4-6.6-11.7-12.6C739.1,1415.1,721.6,1327.1,727.4,1302.2z"
				/>
			<path class="st6" d="M701.3,1612.7c2.9,0.1,5.8-0.4,8.5-1.3c12.4,1.7,37.5,7.5,36.7,13.7c-0.3,2.3-49.4,0.8-52.8,0.4
				c-2.4-0.3-1.4-7.4-0.6-11.6c0.2-1.2,1.4-1.9,2.5-1.7c0,0,0,0,0,0C697.6,1612.5,699.5,1612.7,701.3,1612.7z"/>
			<path class="st6" d="M758.9,1612.7c2.9,0.1,5.8-0.4,8.5-1.3c12.4,1.7,37.5,7.5,36.7,13.7c-0.3,2.3-49.4,0.8-52.8,0.4
				c-2.4-0.3-1.4-7.4-0.6-11.6c0.2-1.2,1.4-1.9,2.5-1.7c0,0,0,0,0,0C755.1,1612.5,757,1612.7,758.9,1612.7z"/>
			<path class="st29" d="M790.7,1274.4c0,0,32.1,157.8,32.6,169.7s-2.5,19.2-6.1,28s-42.4,117.8-42.4,117.8l-14.8-1.9
				c0,0,15.8-116,37.5-142.1c0,0-55-158.1-55-171.4L790.7,1274.4z"/>
			<path class="st29" d="M705.8,1582.8l13.7,3.4c0,0,47.3-123.2,47-129.3s0-182.5,0-182.5l-41.5,2.1c0,0-7.5,74.9,17.7,169.7
				C742.7,1446.3,725.1,1453.3,705.8,1582.8z"/>
			<path class="st28" d="M947.8,1081.5c3.6,1.6,7.7,1.4,11.2-0.5c8.8-4.9,25.2-14.8,26.5-20.9c1.7-8.4-28.8,3.1-39.8,20.6
				L947.8,1081.5z"/>
			<path class="st5" d="M725.6,1257.1c0.1-3.8,0.3-7.6,0.6-11.2c0.2-2.4,0.3-4.8,0.5-7.1c0.5-5.3,1-10.4,1.7-15.5
				c0.3-2.4,0.7-4.8,1.1-7.1c0.9-5.8,2-11.4,3.3-16.8c0.5-2.3,1.1-4.7,1.7-7c3.6-14.3,8.3-28.3,14.1-41.9c2.9-6.8,6.2-13.5,10-19.8
				c7.5-12.5,23.7-16.5,36.1-9c3.5,2.1,6.4,5,8.6,8.4l2.3,3.6c5.8,9.1,6.1,20.6,0.9,30c-5.7,10.4-10.4,26.5-12.2,52.7
				c-0.1,1.6-0.2,3.2-0.3,4.9c-0.1,2.4-0.2,4.9-0.3,7.4c-0.1,3.6-0.2,7.4-0.2,11.3c0,2.4,0,4.8,0,7.3c0,4.4,0.1,9,0.3,13.8
				c0,1.3,0.1,2.7,0.2,4.1c0,1.1,0.1,2.1,0.1,3.2c0.1,2.6,0.2,5.2,0.4,8c0.1,2.4,0.3,4.8,0.5,7.2c0.2,3.3,0.5,6.7,0.7,10.2
				c-7.2,1.1-15-0.1-22-2.3c-11.8-3.6-23.2-9.4-35.6-9.6c-4.1,0.1-8.3,0.4-12.3,1c-0.2-6.4-0.3-12.7-0.2-18.8
				C725.4,1261.8,725.5,1259.5,725.6,1257.1z"/>
			<path class="st5" d="M956.1,1082.5c-8.2,22-33.3,66.9-43.3,77.9c-8.3,9.1-13.7,3.9-14,3.8c-3.4-1.7-5.2-8.6-2.9-12.4l50.4-74.8
				L956.1,1082.5z"/>
			<path class="st5" d="M775.5,1147.6c10.9-8.4,2.6-16.8,2.5-17.1c-1.5-3.8-9.4-5.4-14-3.2l-98.1,54.8c-1.7,0.7-0.5,3.5,0.2,5.2
				c0.2,0.5,0.5,1,1,1.4c2.8,3.2,8.3,4.4,12.5,3.5C701.8,1187.2,761.4,1158.5,775.5,1147.6z"/>
			<path class="st5" d="M819.9,1405.5l-17,2.9l-15.7-58.3l8.3,61.6c0,0-56.4,19.4-69.2,14.4c0,0-10-158.8,2.3-185.9l65.1,21.1
				C793.7,1261.2,810.7,1378.3,819.9,1405.5z"/>
			
				<rect x="693" y="1265.6" transform="matrix(0.9837 -0.1798 0.1798 0.9837 -216.2346 157.0453)" class="st9" width="130.2" height="11"/>
			
				<rect x="690" y="1266.1" transform="matrix(0.9837 -0.1798 0.1798 0.9837 -217.256 153.3697)" class="st15" width="94.4" height="17.7"/>
			<path class="st9" d="M874.4,1179c-37.9,6.9-63,43.2-56,81.1c6.9,37.9,43.2,63,81.1,56c37.9-6.9,63-43.2,56-81.1c0,0,0,0,0,0
				C948.5,1197.1,912.2,1172.1,874.4,1179z M875.5,1185.2c34.5-6.3,67.5,16.5,73.8,51c6.3,34.5-16.5,67.5-51,73.8
				c-34.5,6.3-67.5-16.5-73.8-51C818.2,1224.5,841,1191.5,875.5,1185.2C875.5,1185.2,875.5,1185.2,875.5,1185.2L875.5,1185.2z"/>
			
				<ellipse transform="matrix(0.9773 -0.2117 0.2117 0.9773 -243.9867 215.9873)" class="st30" cx="886.9" cy="1247.6" rx="63.4" ry="63.4"/>
			<path class="st28" d="M738,1242.8c3.9-0.4,7.8,1,10.5,3.9c7,7.3,19.7,21.7,19,27.9c-0.9,8.5-26.6-11.6-31.8-31.5L738,1242.8z"/>
			<path class="st5" d="M745,1244.5c-14.4-18.5-51.8-53.9-64.6-61.4c-10.7-6.2-14.3,0.3-14.5,0.6c-2.8,2.6-2.4,9.7,1,12.7l70.5,56.3
				L745,1244.5z"/>
			<path class="st31" d="M792.2,1122.5c0,0,10.5,5.1,3.4,24.6s-9.2,27.3-9.2,27.3s-13.6-41.7-10.6-49.7S792.2,1122.5,792.2,1122.5z"
				/>
			<path class="st9" d="M832.6,1088.7c0.3-1.7-0.6-3.6-0.5-5.3s1-3.6,0.8-5.3s-1.6-3.2-2.1-4.9s-0.2-3.7-0.9-5.3s-2.6-2.6-3.5-4
				s-1.3-3.5-2.5-4.7s-3.2-1.6-4.6-2.7s-2.3-2.9-3.8-3.7s-3.5-0.6-5.2-1.1s-3-2-4.8-2.3s-3.6,0.6-5.3,0.5s-3.6-1-5.3-0.8
				s-3.2,1.6-4.9,2.2s-3.7,0.2-5.3,0.9s-2.6,2.6-4,3.6s-3.5,1.3-4.7,2.5s-1.6,3.2-2.7,4.6s-2.9,2.3-3.7,3.8s-0.6,3.6-1.1,5.2
				s-2,3-2.3,4.8s0.6,3.6,0.5,5.3s-1,3.6-0.8,5.3s1.6,3.2,2.1,4.9s0.2,3.7,0.9,5.3s2.5,2.6,3.5,4s1.3,3.5,2.5,4.7s3.2,1.6,4.6,2.7
				s2.3,2.9,3.8,3.7s3.5,0.6,5.2,1.1s3,2,4.8,2.3s3.6-0.6,5.3-0.5s3.6,1,5.3,0.8s3.2-1.6,4.9-2.2s3.7-0.2,5.3-0.9s2.6-2.6,4-3.6
				s3.5-1.3,4.7-2.5s1.6-3.2,2.7-4.6s2.9-2.3,3.7-3.8s0.6-3.6,1.1-5.2S832.3,1090.5,832.6,1088.7z"/>
			<path class="st9" d="M818.3,1121.8c0,0,4.3-6.5,2.6-13.5s-5.7-0.4-5.7-0.4L818.3,1121.8z"/>
			<path class="st9" d="M777.7,1095.9c0.2,0.8,2.2,14.8,4.3,15.5c2.9,1,4.3-9.2,4.3-9.2L777.7,1095.9z"/>
			<path class="st9" d="M821.5,1088.5c0,0,4.6-5.8,3.1-11c-1.4-4.9-4.5-10.6-22.2-11.1c-2.5-0.1-4.7,1.7-5.3,4.1l-1.5,7
				L821.5,1088.5z"/>
			<path class="st28" d="M786.6,1093.9c-0.8,10.4-0.6,19.1,4.8,24.8c2.1,2.3,4.7,4,7.6,5.1c2.2,0.8,4.5,1.2,6.8,1.2
				c6.7,0.1,10.5-2.5,12.9-7c2.7-5.2,3.4-12.8,4.1-21.5c1.2-16.4-6.3-25.3-16.3-26S787.8,1077.5,786.6,1093.9z"/>
			<path class="st28" d="M785.2,1094.6l17,3c-0.4,2.3-4.7,24.4-7.8,32.2c-1.3,2.3-5.7,2.3-9.9,0c-3.8-2.1-6-5.3-5.5-7.7l0,0
				C780.9,1117.4,783.8,1102.7,785.2,1094.6z"/>
			<path class="st9" d="M777.9,1097.1c2.7,1.2,5.9,0.9,8.3-0.8c5.7-3.9,12.2-13.5,14.3-18.1c3.8-8,1.8-10.8,1.8-10.8
				s-16.4-2.2-21,2.4C774.3,1076.8,777.9,1097.1,777.9,1097.1z"/>
			<path class="st9" d="M793,1086.4l-1.8,23.9c-0.2,2.5,1.1,4.9,3.4,6.1l2.6,1.3c1.4,0.7,3.1,0.1,3.8-1.3c0.1-0.2,0.1-0.3,0.2-0.5
				l1.3-4.7c0.3-1,1.3-1.8,2.3-1.8h10.9c1.2,0,2.2,0.8,2.4,1.9l1,4.7c0.9,4.2-1.8,8.4-6,9.3c-0.4,0.1-0.7,0.1-1.1,0.2l-6.6,0.5
				c-1.4,0.1-2.8-0.2-4.1-0.7l-0.3-0.1l-0.2-0.1l0,0l-2-1l0,0l-6.5-3.3c-4-2.1-6.3-6.3-6-10.7l1.8-23.9L793,1086.4z"/>
			<path class="st28" d="M779.2,1093.8c-0.3,3.6,2.9,8.3,5.5,8.6s3.4-2.6,3.7-6.2s-1.5-7-4.1-7.2S779.5,1090.2,779.2,1093.8z"/>
			<path class="st9" d="M799.8,1074.5l10.5,0.9c3.5,0.3,6.8,1.8,9.3,4.4l3.4,3.4l-4.1-10.3l-8.2-3.9l-10.8-0.1L799.8,1074.5z"/>
		</g>
		<g class="st1">
			<circle class="st9" cx="1284.7" cy="824.9" r="11.5"/>
			<line class="st32" x1="1284.7" y1="824.9" x2="1284.7" y2="584.6"/>
			<path class="st9" d="M1278.9,584.6c0-3.2,2.6-5.8,5.8-5.8c3.2,0,5.8,2.6,5.8,5.8c0,3.2-2.6,5.8-5.8,5.8c0,0,0,0,0,0
				C1281.5,590.4,1278.9,587.8,1278.9,584.6z"/>
			<path class="st19" d="M1464.5,643.5c12.9-10,22.2-23.3,24.3-34.5c-3.5,1.4-19.3,5.6-32,5.8c-12.2,0.2-28.6-1.9-49.5-9.3
				c-48.4-17.2-91.3-19.2-127.3-5.8c-1,0.4-2,0.8-3,1.2v60.6l0.7,0.6c0-0.1,6.9-7.5,20.7-12.6c30-11.1,66.1-2.9,91.2,6
				c25.9,9.2,47.8,12.3,65.7,12.3h1.6c32.3-0.3,50.5-10.8,53.4-12.6l0,0C1481,653.2,1464.5,643.5,1464.5,643.5z"/>
		</g>
		<g class="st1">
			<path class="st9" d="M887.8,899.8c-1.3-2.9,0-6.3,2.8-7.6c2.9-1.3,6.3,0,7.6,2.8c1.3,2.9,0,6.3-2.8,7.6
				C892.6,904,889.2,902.7,887.8,899.8C887.8,899.8,887.8,899.8,887.8,899.8z"/>
			<line class="st32" x1="994.1" y1="1118.2" x2="894.1" y2="899.7"/>
			<path class="st4" d="M1016.3,893.2c4.1-9.9,9.4-19.4,15.7-28.1c-5.4,1-11.3,1.8-17.8,2.4c-51.2,4.5-91,20.5-118.2,47.7
				c-0.8,0.8-1.5,1.5-2.2,2.3l25.2,55.1l0.9,0.2c0-0.1,3.1-9.6,13.6-20c22.7-22.6,59-30.1,85.4-32.4c11-0.9,21.8-2.7,32.6-5.2
				C1029.5,897.5,1016.3,893.2,1016.3,893.2z"/>
		</g>
		<g class="st1">
			<path class="st9" d="M505.5,928.3c0-3.2,2.6-5.8,5.8-5.8c3.2,0,5.8,2.6,5.8,5.8c0,3.2-2.6,5.8-5.8,5.8c0,0,0,0,0,0
				C508.1,934.1,505.5,931.5,505.5,928.3C505.5,928.3,505.5,928.3,505.5,928.3z"/>
			
				<ellipse transform="matrix(0.1602 -0.9871 0.9871 0.1602 -724.1467 1486.0875)" class="st9" cx="511.3" cy="1168.6" rx="11.5" ry="11.5"/>
			<line class="st32" x1="511.3" y1="1168.6" x2="511.3" y2="928.3"/>
			<path class="st19" d="M679,980.3c7.6-4.5,18.4-15.1,27.2-24.5v-1c-4,1.4-11.6,3.5-22.7,3.6c-12.2,0.2-28.6-1.9-49.5-9.3
				c-48.4-17.2-91.3-19.2-127.3-5.8c-1,0.4-2,0.8-3,1.2v60.5l0.7,0.6c0-0.1,6.9-7.5,20.7-12.6c30-11.1,66.1-2.9,91.2,6
				c25.9,9.2,47.8,12.3,65.7,12.3h1.6c7.5-0.1,15-0.7,22.4-2C686.6,996.9,679,980.3,679,980.3z"/>
		</g>
		<g class="st1">
			
				<rect x="687.1" y="535.5" transform="matrix(0.9243 -0.3818 0.3818 0.9243 -189.532 317.2246)" class="st33" width="35.2" height="201.5"/>
			<path class="st4" d="M730.5,739.5l0.5,0.5l18.2,17.7l13.4-5.5l0.5-25.4v-0.7l0,0l0,0c-4.1-1.8-8.9-0.1-10.7,4
				c-0.1,0.1-0.1,0.3-0.2,0.4c-4.1-1.8-8.9,0-10.7,4c-0.1,0.1-0.1,0.3-0.2,0.4c-4.1-1.8-8.9,0-10.7,4.1
				C730.7,739.2,730.6,739.4,730.5,739.5L730.5,739.5L730.5,739.5z"/>
			<path class="st33" d="M749.3,757.6L749.3,757.6l11.8,11.4c0.3,0.3,0.8,0.3,1.1,0c0.1-0.1,0.2-0.3,0.2-0.5l0.3-16.1l0,0l0.1-2.2
				c-0.2,0-0.3,0.1-0.4,0.2c-1,2.7-4,4-6.7,3c-0.1,0-0.2-0.1-0.3-0.1c-1,2.7-4,4-6.7,3c-0.1,0-0.2-0.1-0.3-0.1l-0.4,0.2L749.3,757.6
				z"/>
		</g>
		<g class="st1">
			<path class="st28" d="M1167,1308.7c-9.7-15.6-19.8-15.2-25.9-12.8c-0.5,0.1-0.9,0.1-1.4,0.3c-5.2,1.5-8.2,6.8-6.7,12
				c0,0.1,0.1,0.2,0.1,0.3l46.8,146.3c0.8,2.4,3.3,3.7,5.6,2.9c0.7-0.2,1.3-0.6,1.9-1.1c4.7-3.3,7.2-8.9,6.6-14.6
				C1190.4,1411.9,1179.6,1329,1167,1308.7z"/>
			<path class="st28" d="M1270.9,1587.5c0,0,8.8,8,7.5,9.6s-40.4,27.9-44.3,28s2.9-8.1,2.9-8.1s15.7-16.7,25.9-24.6
				C1262.9,1592.4,1270.6,1586.9,1270.9,1587.5z"/>
			<path class="st28" d="M1199.8,1448.9c-5-3.3-9-4.2-13.3-1.7c-4.7,2.6-6.3,8.6-3.7,13.3c0.1,0.1,0.1,0.2,0.2,0.3l80.2,131
				c1.3,2.1,4,2.9,6.1,1.6c2.1-1.2,2.8-3.9,1.7-6l-3.1-5.9C1223.7,1485.7,1216.5,1461.8,1199.8,1448.9z"/>
			<path class="st18" d="M1248.2,1604c5.3-0.7,12.9-3.8,20.7-8.6c2.4-1.5,4.7-3,6.9-4.7c2.7,3.2,5.4,7.2,3.8,8.4
				c-2.8,2.2-45.6,30.2-47.1,28.4C1229.7,1623.9,1239,1612.9,1248.2,1604z"/>
			<path class="st34" d="M1175.8,1315.9c0,0,18.3,71.7,21.7,128.3c0,0,20.2-2,69.6,127.9l-13.5,7.9c0,0-75.8-119.8-77.8-125.2
				s-47.9-152.2-47.9-152.2l30.1-5.1L1175.8,1315.9z"/>
			<path class="st28" d="M1115.2,1611.9c0,0,3.4,11.4,1.3,12.1s-49,2.7-52.4,0.7s6.7-5.4,6.7-5.4s22.2-6,34.9-7.4
				C1105.8,1611.9,1115.2,1611.2,1115.2,1611.9z"/>
			<path class="st28" d="M1121.7,1456.8c-2.7-5.4-5.7-8.1-10.8-8.1c-5.4,0-9.7,4.4-9.7,9.7c0,0.1,0,0.2,0,0.3l5.2,153.5
				c0,2.5,2,4.5,4.5,4.5s4.5-2,4.5-4.5l0,0l0.2-6.6C1124.3,1500.6,1129.8,1476.2,1121.7,1456.8z"/>
			<path class="st28" d="M1137.5,1321c-3.8-18-13.4-21-20.1-20.8c-0.5-0.1-0.9-0.2-1.4-0.2c-5.4-0.4-10,3.7-10.4,9
				c0,0.1,0,0.2,0,0.3l-5.3,153.5c-0.1,2.5,1.8,4.6,4.3,4.6c0.7,0,1.5-0.1,2.1-0.4c5.5-1.5,9.8-5.9,11.1-11.5
				C1124.7,1426,1142.5,1344.3,1137.5,1321z"/>
			<path class="st18" d="M1087.2,1614.1c4.9,2.1,13,3.5,22.1,3.5c2.8,0,5.6-0.1,8.4-0.4c0.6,4.2,0.9,9-1.1,9.2
				c-3.6,0.4-54.7,2-55-0.4C1061,1621.4,1074.7,1616.9,1087.2,1614.1z"/>
			<path class="st34" d="M1105.4,1310.6c0,0-9.3,128.3-7.7,156.9s6.1,131.3,6.1,131.3l15.6-0.2c0,0,15.1-118.4,4.3-146.6
				c0,0,22.1-97.5,19-138.7L1105.4,1310.6z"/>
			<path class="st28" d="M1000.8,1033.1c1.8-3.1,2.1-6.9,0.7-10.3c-3.5-8.6-10.8-24.6-16.2-26.4c-7.5-2.5-0.3,26.6,14.4,38.5
				L1000.8,1033.1z"/>
			<path class="st5" d="M1003.9,1028.1c13.4,16.9,37,57.8,41,70.9c3.3,10.8-3.4,12.7-3.6,12.8c-2.9,1.9-9.2,0.1-11.2-3.6l-35.1-75
				L1003.9,1028.1z"/>
			<path class="st5" d="M1177.4,1321.8c1.9,0.6,1-38.5-3.5-66.5c1-24.3-5.5-82.2-11-99.8c-7-22-18-34.1-36.3-25.3
				c-5.8,2.8-11.2,19-13.7,36.3s-5.9,13.8,3.6,39.1c2.7,7.1-2,46.3-6.2,70.6c-1.1,6.6-2.2,12.1-3.1,15.5c-1.2,4.6-3,20.4-5.3,25.3
				c3.1,2.3,6.6,4.2,10.2,5.5C1137.4,1331.6,1152.1,1313.6,1177.4,1321.8z"/>
			<path class="st5" d="M1118.1,1157.1c12.2,3.4,13.7-7.3,13.9-7.6c2-3.2-1.2-9.9-5.4-12l-94.3-41.9c-1.4-0.8-2.8,1.6-3.7,3
				c-0.3,0.5-0.4,1-0.4,1.5c-0.8,3.8,1.3,8.5,4.3,11.1C1048.3,1124.7,1102.3,1152.7,1118.1,1157.1z"/>
			<path class="st28" d="M1200.8,1110.5c3.2-1.8,5.3-5,5.8-8.6c1.2-9.2,3-26.7-0.8-31c-5.2-5.9-13.6,22.9-6.8,40.6L1200.8,1110.5z"
				/>
			<path class="st5" d="M1144,1158.4c-9.4-6.8-2.5-15-2.4-15.3c1.2-3.6,7.8-5.6,11.7-3.9l84,42.4c1.4,0.5,0.5,3.2,0,4.7
				c-0.2,0.5-0.5,1-0.8,1.3c-2.3,3.1-6.9,4.6-10.5,4.1C1207.1,1189,1156.2,1167.3,1144,1158.4z"/>
			<path class="st5" d="M1206.2,1105.3c11.4,18.3,30.3,61.6,32.7,75c2,11.2-4.8,12.2-5,12.3c-3.1,1.6-9.1-1-10.7-4.8l-26.5-78.5
				L1206.2,1105.3z"/>
			<path class="st9" d="M1141.1,1122.7c0,0,17.2-6.6,18.2-24c1.4-23.4-22.5-34.3-35.1-26.4c-11.6,7.3-9.4,17.4-8,19.8
				S1141.1,1122.7,1141.1,1122.7z"/>
			<path class="st28" d="M1146.2,1100.6l-18.7-1.3c-0.2,2.6-1.5,27-0.3,36.1c0.8,2.8,5.4,4,10.5,2.6c4.5-1.2,7.7-4.1,7.8-6.7l0,0
				C1144.8,1125.9,1145.6,1109.6,1146.2,1100.6z"/>
			<path class="st28" d="M1144.9,1103.4c-2.8,14.8-15.4,24.8-24.5,23.1s-11.1-14.6-8.2-29.3s11.6-20.9,20.6-19.2
				S1147.7,1088.6,1144.9,1103.4z"/>
			<path class="st9" d="M1121.9,1076.4c0,0,4.8,22.7,22.2,26.4c9.8,2.1,12.5-11.5,12.5-11.5l-9.4-14.1c0,0-7.6-6-13.4-5.3
				C1133.2,1071.9,1121.9,1076.4,1121.9,1076.4z"/>
			<path class="st9" d="M1115.2,1087.8c0,0,16.5-6,18.9-11.8s-6-5-6-5C1121.2,1074,1116.3,1080.3,1115.2,1087.8z"/>
			<path class="st9" d="M1152,1083.8c0,0-17.3-13.3-5.8-29.4s31.7-10.2,36.4,2.3c5.2,13.8-1.7,22.5-7.5,26.6
				S1158.9,1087.9,1152,1083.8z"/>
			<path class="st28" d="M1152.2,1108.8c-1.5,3.4-6.8,6.4-9.2,5.3s-1.9-4.1-0.4-7.6s4.8-5.8,7.3-4.7S1153.6,1105.3,1152.2,1108.8z"
				/>
			<path class="st35" d="M1134.7,1142.6c0,0,26.6,10.6,18.4,19.2S1134.7,1142.6,1134.7,1142.6z"/>
			<path class="st35" d="M1134.7,1142.6c0,0-6.5,27.8-16.3,21.1S1134.7,1142.6,1134.7,1142.6z"/>
			<path class="st36" d="M1136.9,1143c0.1-1.1-0.7-2.2-1.9-2.3c-1.1-0.1-2.2,0.7-2.3,1.9c-0.1,1.1,0.7,2.2,1.9,2.3c0,0,0,0,0,0
				C1135.7,1145,1136.8,1144.1,1136.9,1143z"/>
			<path class="st35" d="M1134.1,1142.9c1.3,4.6-0.4,9.4-1.9,13.9s-2.8,9.5-0.8,13.9c0.9,1.6,1.8,3.1,2.8,4.6c1.8,3,2.7,6.5,2.5,10"
				/>
			<path class="st35" d="M1135.3,1143.1c1.4,3.6,0.4,7.7,0.6,11.5c0.2,5,2.3,9.8,5.9,13.4"/>
			<path class="st5" d="M1080.4,1422.1l24.4,4.5l8.6-61.9v65.2c0,0,19.6,15.1,87.3-10.2c0,0-22.4-146.1-29-165.1l-59.6,10.4
				L1080.4,1422.1z"/>
		</g>
		<g class="st1">
			<path class="st37" d="M1623.9,1580.5c23.5,0,44.2,15.6,50.7,38.2h-101.3C1579.7,1596.1,1600.4,1580.5,1623.9,1580.5z"/>
			<path class="st37" d="M1376.9,1562.4c34.7,0,65.1,23,74.7,56.3h-149.3C1311.8,1585.4,1342.3,1562.4,1376.9,1562.4z"/>
			<path class="st37" d="M1608.6,1618.7c-11.4-39.6-56.8-69.2-111-69.2s-99.6,29.6-111,69.2H1608.6z"/>
		</g>
		<circle class="st24" cx="1396.1" cy="1127.3" r="16.7"/>
		<circle class="st24" cx="1075.3" cy="763.2" r="16.7"/>
		<circle class="st24" cx="849.2" cy="919" r="16.7"/>
		<circle class="st24" cx="1310.1" cy="1077.7" r="29.9"/>
		<circle class="st24" cx="443.8" cy="1103.7" r="29.9"/>
	</g>
</g>
</svg>
