<svg xmlns="http://www.w3.org/2000/svg" xmlns:xlink="http://www.w3.org/1999/xlink" viewBox="0 0 2910.32 1478.17"><defs><style>.cls-1,.cls-28,.cls-29{fill:none;}.cls-2{opacity:0.05;}.cls-3{clip-path:url(#clip-path);}.cls-4{fill:#755f46;}.cls-5{fill:#fff;}.cls-6{fill:#bdc7bf;}.cls-7{fill:#a97f7d;}.cls-8{fill:#87988a;}.cls-9{fill:#5a7ba8;}.cls-10{fill:#637a67;}.cls-11{fill:#897660;}.cls-12{fill:#6d8271;}.cls-13{fill:#664d31;}.cls-14{fill:#cec6bd;}.cls-15{fill:#eaeef4;}.cls-16{fill:#c0b6ab;}.cls-17{fill:#adbdd4;}.cls-18{fill:#839cbe;}.cls-19{clip-path:url(#clip-path-2);}.cls-20{fill:#d4ac96;}.cls-21{fill:#37543c;}.cls-22{fill:#d7b39e;}.cls-23{fill:#59715d;}.cls-24{fill:#6e2722;}.cls-25{fill:#9cb0cb;}.cls-26{fill:#d3d9d4;}.cls-27{fill:#c3ccc5;}.cls-28,.cls-29{stroke:#fff;stroke-linecap:round;stroke-linejoin:round;}.cls-28{stroke-width:14.3px;}.cls-29{stroke-width:5.95px;}.cls-30{fill:#d2bcba;}.cls-31{fill:#9b6a66;}.cls-32{fill:#ebe1e0;}.cls-33{fill:#a16662;}.cls-34{fill:#c8adab;}</style><clipPath id="clip-path" transform="translate(449.45 -241.97)"><rect class="cls-1" width="1884" height="1884"/></clipPath><clipPath id="clip-path-2" transform="translate(449.45 -241.97)"><rect class="cls-1" x="958.39" y="657.24" width="294.61" height="342.19"/></clipPath></defs><g id="Layer_1" data-name="Layer 1" class="cls-2"><g class="cls-3"><path class="cls-4" d="M1780.09,1695.67H103.9a56.09,56.09,0,1,1,0-112.18H1780.09a56.09,56.09,0,1,1,0,112.18Z" transform="translate(449.45 -241.97)"/><path class="cls-5" d="M1846.21,694.44a171.52,171.52,0,0,0-164.87,124.29h329.74A171.52,171.52,0,0,0,1846.21,694.44Z" transform="translate(449.45 -241.97)"/><path class="cls-5" d="M2296,694.44a171.52,171.52,0,0,0-164.87,124.29h329.74A171.52,171.52,0,0,0,2296,694.44Z" transform="translate(449.45 -241.97)"/><path class="cls-5" d="M2081.71,641.2c-111.89,0-206.25,75-235.5,177.53h471C2288,716.24,2193.6,641.2,2081.71,641.2Z" transform="translate(449.45 -241.97)"/><path class="cls-6" d="M203.69,1669.16a70.34,70.34,0,0,0-67.62,51H271.32A70.36,70.36,0,0,0,203.69,1669.16Z" transform="translate(449.45 -241.97)"/><path class="cls-6" d="M388.18,1669.16a70.34,70.34,0,0,0-67.62,51H455.8A70.34,70.34,0,0,0,388.18,1669.16Z" transform="translate(449.45 -241.97)"/><path class="cls-6" d="M300.28,1647.32a100.48,100.48,0,0,0-96.59,72.82H396.88A100.49,100.49,0,0,0,300.28,1647.32Z" transform="translate(449.45 -241.97)"/><path class="cls-7" d="M-4.59,416.62c-88.67,0-163.44,59.47-186.63,140.7H182A194.14,194.14,0,0,0-4.59,416.62Z" transform="translate(449.45 -241.97)"/><path class="cls-7" d="M504.55,416.62a194.14,194.14,0,0,0-186.63,140.7H691.17A194.14,194.14,0,0,0,504.55,416.62Z" transform="translate(449.45 -241.97)"/><path class="cls-7" d="M262,356.35c-126.65,0-233.46,84.95-266.57,201H528.55C495.44,441.3,388.63,356.35,262,356.35Z" transform="translate(449.45 -241.97)"/><path class="cls-8" d="M-339.82,505.51a114.05,114.05,0,0,0-109.63,82.65h219.27A114.06,114.06,0,0,0-339.82,505.51Z" transform="translate(449.45 -241.97)"/><path class="cls-8" d="M-40.72,505.51a114.05,114.05,0,0,0-109.63,82.65H68.92A114.06,114.06,0,0,0-40.72,505.51Z" transform="translate(449.45 -241.97)"/><path class="cls-8" d="M-183.22,470.1a162.92,162.92,0,0,0-156.6,118.06H-26.61A162.93,162.93,0,0,0-183.22,470.1Z" transform="translate(449.45 -241.97)"/><path class="cls-9" d="M1587.36,283.49a133.76,133.76,0,0,0-128.58,96.94h257.16A133.76,133.76,0,0,0,1587.36,283.49Z" transform="translate(449.45 -241.97)"/><path class="cls-9" d="M1938.16,283.49a133.77,133.77,0,0,0-128.59,96.94h257.17A133.76,133.76,0,0,0,1938.16,283.49Z" transform="translate(449.45 -241.97)"/><path class="cls-9" d="M1771,242a191.07,191.07,0,0,0-183.67,138.46H1954.7A191.07,191.07,0,0,0,1771,242Z" transform="translate(449.45 -241.97)"/><path class="cls-5" d="M1804.4,370.14a47,47,0,0,0-45.19,34.07h90.39A47,47,0,0,0,1804.4,370.14Z" transform="translate(449.45 -241.97)"/><path class="cls-5" d="M1927.71,370.14a47,47,0,0,0-45.2,34.07h90.4A47,47,0,0,0,1927.71,370.14Z" transform="translate(449.45 -241.97)"/><path class="cls-5" d="M1869,355.54a67.16,67.16,0,0,0-64.57,48.67h129.13A67.16,67.16,0,0,0,1869,355.54Z" transform="translate(449.45 -241.97)"/><path class="cls-5" d="M-222.9,301.46a47,47,0,0,0-45.19,34.08h90.39A47,47,0,0,0-222.9,301.46Z" transform="translate(449.45 -241.97)"/><path class="cls-5" d="M-99.59,301.46a47,47,0,0,0-45.2,34.08h90.4A47,47,0,0,0-99.59,301.46Z" transform="translate(449.45 -241.97)"/><path class="cls-5" d="M-158.34,286.86a67.17,67.17,0,0,0-64.56,48.68H-93.77A67.17,67.17,0,0,0-158.34,286.86Z" transform="translate(449.45 -241.97)"/><path class="cls-10" d="M2162.31,806.63A58.44,58.44,0,0,1,2218.5,849H2106.13A58.44,58.44,0,0,1,2162.31,806.63Z" transform="translate(449.45 -241.97)"/><path class="cls-10" d="M2009,806.63A58.44,58.44,0,0,1,2065.22,849H1952.85A58.44,58.44,0,0,1,2009,806.63Z" transform="translate(449.45 -241.97)"/><path class="cls-10" d="M2082.06,788.48A83.49,83.49,0,0,1,2162.31,849h-160.5A83.49,83.49,0,0,1,2082.06,788.48Z" transform="translate(449.45 -241.97)"/><path class="cls-8" d="M21.6,1491.44a131,131,0,0,0-125.93,94.94H147.54A131,131,0,0,0,21.6,1491.44Z" transform="translate(449.45 -241.97)"/><path class="cls-8" d="M365.17,1491.44a131,131,0,0,0-125.93,94.94H491.11A131,131,0,0,0,365.17,1491.44Z" transform="translate(449.45 -241.97)"/><path class="cls-8" d="M201.49,1450.77A187.14,187.14,0,0,0,21.6,1586.38H381.37A187.12,187.12,0,0,0,201.49,1450.77Z" transform="translate(449.45 -241.97)"/><path class="cls-11" d="M-183.22,1552.62a60.15,60.15,0,0,0-57.83,43.6h115.66A60.15,60.15,0,0,0-183.22,1552.62Z" transform="translate(449.45 -241.97)"/><path class="cls-11" d="M-25.45,1552.62a60.15,60.15,0,0,0-57.83,43.6H32.38A60.15,60.15,0,0,0-25.45,1552.62Z" transform="translate(449.45 -241.97)"/><path class="cls-11" d="M-100.61,1533.94a85.93,85.93,0,0,0-82.61,62.28H-18A85.93,85.93,0,0,0-100.61,1533.94Z" transform="translate(449.45 -241.97)"/><rect class="cls-10" x="960.47" y="239.33" width="1219.52" height="796.3" rx="36.74"/><path class="cls-12" d="M775.62,1052.27c69.46-1.15,143-9.77,197.84-52.46,62.91-49,87.26-131.22,112.65-206.81s61.52-156.61,134.09-189.64c54.32-24.71,123.82-19.55,165.67-62.1,16.2-16.47,25.45-37.4,32.06-60H547.76A36.74,36.74,0,0,0,511,518v583.14a214,214,0,0,1,58-30.11C634.88,1049,706.17,1053.42,775.62,1052.27Z" transform="translate(449.45 -241.97)"/><path class="cls-10" d="M1693.8,481.3H1417.93c-6.61,22.56-15.86,43.49-32.06,60-41.85,42.55-111.35,37.39-165.67,62.1-72.57,33-108.71,114-134.09,189.64s-49.74,157.81-112.65,206.81c-54.8,42.69-128.38,51.31-197.84,52.46S634.88,1049,569,1071.07a214,214,0,0,0-58,30.11v139.68a36.74,36.74,0,0,0,36.74,36.74h1146a36.74,36.74,0,0,0,36.74-36.74V518A36.74,36.74,0,0,0,1693.8,481.3Z" transform="translate(449.45 -241.97)"/><path class="cls-9" d="M933.32,524a22.2,22.2,0,0,1-22.21-22.2V394.52A58.92,58.92,0,0,1,970,335.66H1271.6a58.92,58.92,0,0,1,58.85,58.86v101.8a22.21,22.21,0,1,1-44.41,0V394.52a14.46,14.46,0,0,0-14.44-14.45H970a14.46,14.46,0,0,0-14.45,14.45V501.76A22.2,22.2,0,0,1,933.32,524Z" transform="translate(449.45 -241.97)"/><path class="cls-11" d="M1909.08,223.2h98.16a9.31,9.31,0,0,1,9.31,9.31V282a0,0,0,0,1,0,0H1899.77a0,0,0,0,1,0,0V232.51A9.31,9.31,0,0,1,1909.08,223.2Z"/><path class="cls-13" d="M1920.56,215.52h75.2a0,0,0,0,1,0,0v38.7a8.64,8.64,0,0,1-8.64,8.64H1929.2a8.64,8.64,0,0,1-8.64-8.64v-38.7A0,0,0,0,1,1920.56,215.52Z"/><path class="cls-11" d="M1133.23,223.2h98.16a9.31,9.31,0,0,1,9.31,9.31V282a0,0,0,0,1,0,0H1123.92a0,0,0,0,1,0,0V232.51A9.31,9.31,0,0,1,1133.23,223.2Z"/><path class="cls-13" d="M1144.71,215.52h75.2a0,0,0,0,1,0,0v38.7a8.64,8.64,0,0,1-8.64,8.64h-57.91a8.64,8.64,0,0,1-8.64-8.64v-38.7A0,0,0,0,1,1144.71,215.52Z"/><circle class="cls-5" cx="1995.76" cy="1118.72" r="29.93"/><rect class="cls-14" x="1764.51" y="648.04" width="388.36" height="264.72"/><path class="cls-14" d="M1559.84,1008.41c-33.8,10.66-56,44.71-89.64,56-25.08,8.43-52.46,2.89-78.88,4.36-16.32.91-34,6.34-46.26,16.5v39.45h328.36V1019.81c-14.64-1.59-29.22-5.37-43.61-8.75C1606.8,1005.66,1582.38,1001.3,1559.84,1008.41Z" transform="translate(449.45 -241.97)"/><path class="cls-15" d="M1345.06,920v165.27c12.22-10.16,29.94-15.59,46.26-16.5,26.42-1.47,53.8,4.07,78.88-4.36,33.59-11.29,55.84-45.34,89.64-56,22.54-7.11,47-2.75,70,2.65,14.39,3.38,29,7.16,43.61,8.75V920Z" transform="translate(449.45 -241.97)"/><circle class="cls-7" cx="1406.1" cy="983.6" r="32.38" transform="translate(180.08 371) rotate(-22.5)"/><rect class="cls-14" x="812.52" y="361.58" width="574.11" height="370.61"/><polygon class="cls-16" points="1099.57 499.21 1386.63 732.19 812.52 732.19 1099.57 499.21"/><polygon class="cls-15" points="1099.57 594.57 812.52 361.58 1386.63 361.58 1099.57 594.57"/><rect class="cls-11" x="979.06" y="393.8" width="241.02" height="11.37"/><rect class="cls-11" x="979.06" y="445.78" width="241.02" height="11.37"/><path class="cls-7" d="M1555.92,1539.64a142.12,142.12,0,0,0-136.62,103h273.23A142.12,142.12,0,0,0,1555.92,1539.64Z" transform="translate(449.45 -241.97)"/><path class="cls-7" d="M1928.62,1539.64a142.1,142.1,0,0,0-136.61,103h273.22A142.12,142.12,0,0,0,1928.62,1539.64Z" transform="translate(449.45 -241.97)"/><path class="cls-7" d="M1751.05,1495.52c-92.71,0-170.89,62.18-195.13,147.11h390.27C1922,1557.7,1843.77,1495.52,1751.05,1495.52Z" transform="translate(449.45 -241.97)"/><rect class="cls-5" x="1301.4" y="415.27" width="599.45" height="850.14"/><circle class="cls-4" cx="1151.67" cy="607.87" r="30.35" transform="translate(356.94 750.43) rotate(-45)"/><path class="cls-4" d="M1259.51,632.53H1043.82a17.13,17.13,0,0,0-17.13,17.13v39.42l1.42-.79,12.35,6.82,12.36-6.82,12.35,6.82,12.35-6.82,12.35,6.82,12.35-6.82,12.35,6.82,12.36-6.82,12.35,6.82,12.36-6.82,12.35,6.82,12.36-6.82,12.36,6.82,12.35-6.82,12.36,6.82,12.36-6.82,12.35,6.82,12.36-6.82,12.36,6.82,12.36-6.82,1.44.8V649.66A17.13,17.13,0,0,0,1259.51,632.53Z" transform="translate(449.45 -241.97)"/><rect class="cls-9" x="1407.84" y="824.57" width="386.56" height="10.55"/><rect class="cls-7" x="1631.47" y="582.49" width="162.93" height="49.27"/><rect class="cls-17" x="1631.47" y="663.07" width="162.93" height="8.63"/><rect class="cls-17" x="1631.47" y="693.07" width="162.93" height="8.63"/><rect class="cls-17" x="1407.84" y="529.07" width="193.28" height="228.39"/><path class="cls-18" d="M1137.34,833.39c-4.49,8.38-5.91,19-13.45,24.79-9.71,7.47-24.13,2.92-35.5,7.48-10.43,4.18-16.36,15.15-20.17,25.72s-6.61,22-14,30.39c-10.3,11.65-27.12,14.9-42.68,15.26s-31.48-1.4-46.4,3a45.73,45.73,0,0,0-6.7,2.61v56.76h193.28V819.54A33.88,33.88,0,0,0,1137.34,833.39Z" transform="translate(449.45 -241.97)"/><rect class="cls-9" x="1407.84" y="868.66" width="386.56" height="10.55"/><rect class="cls-9" x="1407.84" y="912.75" width="386.56" height="10.55"/><rect class="cls-9" x="1407.84" y="956.84" width="386.56" height="10.55"/><rect class="cls-9" x="1407.84" y="1000.92" width="386.56" height="10.55"/><rect class="cls-9" x="1407.84" y="1045.01" width="316.78" height="10.55"/><g class="cls-19"><path class="cls-20" d="M935.89,1272.71a5.47,5.47,0,0,1-.87-.8,5.81,5.81,0,0,1,.44-8.22l31.17-28a5.83,5.83,0,1,1,7.79,8.67l-31.17,28A5.83,5.83,0,0,1,935.89,1272.71Z" transform="translate(449.45 -241.97)"/><path class="cls-21" d="M934.64,1262.14s-11.82,9.89-9.17,12.37,43.42,34.68,45.1,32.93c5.73-6-23.84-37.37-27.68-39.18S936.32,1260.68,934.64,1262.14Z" transform="translate(449.45 -241.97)"/><path class="cls-22" d="M1206.87,771.41s22.59-19.81,30-18.47-11.92,22.61-29.79,25.86Z" transform="translate(449.45 -241.97)"/><path class="cls-8" d="M1207.18,767.75c3.5,3.38,7,6.52,10.45,9.74-49.86,56.24-93.5,68.18-161.6,40.07-10.42-4.3-10.16-8.26-5.74-16.56-.94-1.47-1-1.35,0,0,4.42-8.3,7.34-8.92,17.93-4.57C1137.4,824.89,1149.21,814.38,1207.18,767.75Z" transform="translate(449.45 -241.97)"/><path class="cls-20" d="M1086,1305.37a6.62,6.62,0,0,1-1.17-.11,5.83,5.83,0,0,1-4.55-6.88l8.36-41.06a5.83,5.83,0,1,1,11.42,2.32l-8.36,41.07A5.82,5.82,0,0,1,1086,1305.37Z" transform="translate(449.45 -241.97)"/><path class="cls-23" d="M1098.79,1281.49a151.71,151.71,0,0,1-18.55-1.71c18.46-98.71,32.44-231.19-16.94-323.45,15-7.36,30.06-14.54,45.17-21.66C1144.55,1015.05,1113.82,1196.58,1098.79,1281.49Z" transform="translate(449.45 -241.97)"/><path class="cls-23" d="M959.67,1265.78c-4.88-4.35-9.65-8.8-14.26-13.43,90.81-89,109.71-178.75,101.94-302q25.31-1.86,50.64-3.18C1089.56,1070.09,1046.1,1176.78,959.67,1265.78Z" transform="translate(449.45 -241.97)"/><path class="cls-21" d="M1078.68,1297.63s-3.61,15,0,15.4,55.53,2,55.84-.42c1-8.22-41.41-15.81-45.58-15S1079.15,1295.46,1078.68,1297.63Z" transform="translate(449.45 -241.97)"/><path class="cls-8" d="M1047.93,966c8-3.18,19.66-6.26,39.92-7.13a190.56,190.56,0,0,1,33,1c-35.44-76.07-41.58-114-38.37-135.33a29.49,29.49,0,0,0-11.1-27.89l-3.33-2.56A26.31,26.31,0,0,0,1026.22,810a160.79,160.79,0,0,0-2.63,22C1021.56,871.25,1026.79,914,1047.93,966Z" transform="translate(449.45 -241.97)"/><path class="cls-20" d="M1026,942.84s29.57,11,32.06,18.52-26.84.28-38.77-14.6Z" transform="translate(449.45 -241.97)"/><path class="cls-8" d="M1031,943.86c-2.64,5.18-5.18,10.29-7.34,15.46-70.11-69.53-71.52-101.87,1.27-156.88,11.13-8.41,14.28-7.06,19.73,4,4.11,8.35.15,11.45-9.91,18.79C968.91,873.21,975.35,873.27,1031,943.86Z" transform="translate(449.45 -241.97)"/><path class="cls-20" d="M1041.41,761.4c6.64,16.33,23.41,24.94,33.38,20.88s9.4-19.26,2.75-35.58-18.11-21.35-28.09-17.29S1034.76,745.07,1041.41,761.4Z" transform="translate(449.45 -241.97)"/><path class="cls-23" d="M1034.81,752s-.81-11.87,5.84-19,22.67-12.88,32,.21c0,0,5.76,9.9-6.77,15.83s-12.45-1.72-16.74,6.81-11.6,5.6-12.31,7.48Z" transform="translate(449.45 -241.97)"/><path class="cls-24" d="M1039.25,765.44s2.32-30.07,33.37-32.23c0,0,0-6.52-8.45-9.73s-24.23-4.58-43,10.78c0,0-4.86,6.84,1.58,8.23s6,2.55,6.21,5.53S1029.12,769.4,1039.25,765.44Z" transform="translate(449.45 -241.97)"/><path class="cls-20" d="M1044.25,762l18.43-1.8c.25,2.52,2.18,26.55,1.24,35.6-.68,2.79-5.27,4.07-10.26,2.86-4.49-1.09-7.74-3.82-7.86-6.38h0C1046.34,786.82,1045.11,770.8,1044.25,762Z" transform="translate(449.45 -241.97)"/><path class="cls-20" d="M1036.34,770c1.55,3.8,7.3,7.13,10.05,6s2.19-4.48.64-8.28-5.22-6.45-8-5.33S1034.8,766.21,1036.34,770Z" transform="translate(449.45 -241.97)"/><path class="cls-23" d="M1081.92,764.41l-.68.21c-3.49,1.1-19.37,6.39-22,12-2.92,6.35,8.21-1.1,11.85-4.83s7-2.49,10.21-2.8S1086.72,765.15,1081.92,764.41Z" transform="translate(449.45 -241.97)"/><path class="cls-23" d="M1049.29,768.07c3.23-2.37,5.23.71,11,5.55s17.38,6.12,21.07-8.75c2.35-9.47,4.74,7.22,4.74,7.23-.43,8.06-3.46,12.4-9.38,14.81-8.18,3.33-19.64.42-28.73-7.69C1047.05,775.06,1047.09,769.69,1049.29,768.07Z" transform="translate(449.45 -241.97)"/></g><path class="cls-25" d="M718.19,1113.12,700,1077.8a11.46,11.46,0,0,0-10.19-6.21H548.38a11.48,11.48,0,0,0-11.47,11.47V1376.2a11.47,11.47,0,0,0,11.47,11.47H962.12a11.47,11.47,0,0,0,11.47-11.47V1130.79a11.48,11.48,0,0,0-11.47-11.47H728.38A11.47,11.47,0,0,1,718.19,1113.12Z" transform="translate(449.45 -241.97)"/><rect class="cls-5" x="1015.05" y="899.8" width="379.3" height="188.93"/><path class="cls-9" d="M536.91,1165.67V1376.2a11.47,11.47,0,0,0,11.47,11.47H962.12a11.47,11.47,0,0,0,11.47-11.47V1165.67Z" transform="translate(449.45 -241.97)"/><path class="cls-26" d="M424.23,1244.84,406,1209.52a11.47,11.47,0,0,0-10.19-6.2H254.42A11.46,11.46,0,0,0,243,1214.79v293.14a11.46,11.46,0,0,0,11.47,11.47H668.15a11.46,11.46,0,0,0,11.47-11.47V1262.52a11.47,11.47,0,0,0-11.47-11.47H434.42A11.45,11.45,0,0,1,424.23,1244.84Z" transform="translate(449.45 -241.97)"/><rect class="cls-5" x="721.09" y="1031.53" width="379.3" height="188.93"/><path class="cls-27" d="M243,1297.4v210.53a11.46,11.46,0,0,0,11.47,11.47H668.15a11.46,11.46,0,0,0,11.47-11.47V1297.4Z" transform="translate(449.45 -241.97)"/><circle class="cls-5" cx="2062.78" cy="1206.39" r="16.7"/><rect class="cls-14" x="1674.11" y="357.48" width="190.8" height="190.8"/><polyline class="cls-28" points="1703.36 428.51 1766.41 491.56 1914.7 343.27"/><rect class="cls-10" x="1305.11" y="957.94" width="79.34" height="79.34"/><polyline class="cls-29" points="1317.27 987.48 1343.49 1013.69 1405.15 952.03"/><rect class="cls-10" x="1015.11" y="1085.94" width="79.34" height="79.34"/><polyline class="cls-29" points="1027.27 1115.48 1053.49 1141.69 1115.15 1080.03"/><rect class="cls-7" x="1703.36" y="719.18" width="388.36" height="264.72"/><path class="cls-30" d="M1334.15,1124.51c22.37,2.24,45.16,7.71,67,2.41,38.14-9.26,62-48.14,98.12-63.46,34.81-14.75,75.42-5.59,113-7.81v-64.5H1283.91v140.13C1298.6,1123.63,1317.2,1122.81,1334.15,1124.51Z" transform="translate(449.45 -241.97)"/><path class="cls-31" d="M1499.27,1063.46c-36.13,15.32-60,54.2-98.12,63.46-21.84,5.3-44.63-.17-67-2.41-17-1.7-35.55-.88-50.24,6.77v25.13c12.22-10.16,29.94-15.58,46.26-16.49,26.42-1.48,53.8,4.07,78.88-4.37,33.59-11.29,55.84-45.34,89.64-56,22.54-7.11,47-2.75,70,2.65,14.39,3.38,29,7.17,43.61,8.76v-35.31C1574.69,1057.87,1534.08,1048.71,1499.27,1063.46Z" transform="translate(449.45 -241.97)"/><path class="cls-7" d="M1498.69,1079.55c-33.8,10.66-56,44.71-89.64,56-25.08,8.44-52.46,2.89-78.88,4.37-16.32.91-34,6.33-46.26,16.49v39.46h328.36V1091c-14.64-1.59-29.22-5.38-43.61-8.76C1545.65,1076.8,1521.23,1072.44,1498.69,1079.55Z" transform="translate(449.45 -241.97)"/><circle class="cls-7" cx="1381.72" cy="1054.74" r="32.38" transform="translate(108.34 1043.98) rotate(-45)"/><path class="cls-32" d="M1449.41,1029.92a14.16,14.16,0,0,1,13.61,10.26H1435.8A14.17,14.17,0,0,1,1449.41,1029.92Z" transform="translate(449.45 -241.97)"/><path class="cls-32" d="M1412.29,1029.92a14.17,14.17,0,0,1,13.61,10.26h-27.22A14.16,14.16,0,0,1,1412.29,1029.92Z" transform="translate(449.45 -241.97)"/><path class="cls-32" d="M1430,1025.53a20.21,20.21,0,0,1,19.43,14.65h-38.87A20.21,20.21,0,0,1,1430,1025.53Z" transform="translate(449.45 -241.97)"/><path class="cls-33" d="M1364.77,1064.07a17.42,17.42,0,0,1,16.74,12.63H1348A17.42,17.42,0,0,1,1364.77,1064.07Z" transform="translate(449.45 -241.97)"/><path class="cls-33" d="M1319.08,1064.07a17.42,17.42,0,0,1,16.75,12.63h-33.5A17.42,17.42,0,0,1,1319.08,1064.07Z" transform="translate(449.45 -241.97)"/><path class="cls-33" d="M1340.85,1058.66a24.9,24.9,0,0,1,23.92,18h-47.84A24.88,24.88,0,0,1,1340.85,1058.66Z" transform="translate(449.45 -241.97)"/><path class="cls-10" d="M348,687a58.44,58.44,0,0,1,56.18,42.35H291.77A58.45,58.45,0,0,1,348,687Z" transform="translate(449.45 -241.97)"/><path class="cls-10" d="M194.68,687a58.44,58.44,0,0,1,56.18,42.35H138.49A58.45,58.45,0,0,1,194.68,687Z" transform="translate(449.45 -241.97)"/><path class="cls-10" d="M267.7,668.86A83.49,83.49,0,0,1,348,729.36H187.45A83.48,83.48,0,0,1,267.7,668.86Z" transform="translate(449.45 -241.97)"/><path class="cls-10" d="M1452,1620.87a58.45,58.45,0,0,1,56.18,42.36H1395.76A58.46,58.46,0,0,1,1452,1620.87Z" transform="translate(449.45 -241.97)"/><path class="cls-10" d="M1298.67,1620.87a58.45,58.45,0,0,1,56.18,42.36H1242.48A58.46,58.46,0,0,1,1298.67,1620.87Z" transform="translate(449.45 -241.97)"/><path class="cls-10" d="M1371.69,1602.73a83.49,83.49,0,0,1,80.26,60.5H1291.44A83.48,83.48,0,0,1,1371.69,1602.73Z" transform="translate(449.45 -241.97)"/><path class="cls-10" d="M1247,1470.88a10.81,10.81,0,0,1,13,14.68,311.18,311.18,0,0,1,24.64,28.55c-1.33-10.11-2.54-25.27-.79-40.16a10.81,10.81,0,1,1,7.75.58,10.64,10.64,0,0,1-2,.4c-2.54,22.3,1.9,45.83,2.63,49.47a447.64,447.64,0,0,1,36.85,62.44c15.58,31.92,23.2,56.3,23.27,56.54l-5.57,1.73c-.08-.24-7.56-24.19-22.95-55.71-4.62-9.47-10.3-20.28-17-31.68-4.06-1.1-19.42-4.68-40.29-2.5a10.82,10.82,0,1,1-1.24-5.73,126.12,126.12,0,0,1,37.35,1.28c-12.35-20.14-27.81-41.63-46.38-60.66a11,11,0,0,1-3,1.49,10.83,10.83,0,0,1-6.28-20.72Z" transform="translate(449.45 -241.97)"/><path class="cls-10" d="M1375.25,1553.2c-3.41-2.46-16.53-11.21-36.83-16.52a10.81,10.81,0,1,1,.87-5.81,126.08,126.08,0,0,1,34.5,14.36c-4.46-23.2-11.37-48.76-22-73.11a10.87,10.87,0,1,1,5.08-2.95,312.32,312.32,0,0,1,13,35.4c2.32-9.93,6.52-24.54,13.4-37.86a10.81,10.81,0,1,1,7,3.27,10.19,10.19,0,0,1-2-.33c-10.23,20-14.37,43.56-15,47.22a447.33,447.33,0,0,1,12.5,71.43c3.34,35.36,1.88,60.86,1.87,61.11l-5.83-.34c0-.25,1.45-25.3-1.85-60.22C1379,1578.35,1377.51,1566.23,1375.25,1553.2Z" transform="translate(449.45 -241.97)"/><path class="cls-8" d="M1825,1625a109.13,109.13,0,0,0-104.9,79.08h209.8A109.13,109.13,0,0,0,1825,1625Z" transform="translate(449.45 -241.97)"/><path class="cls-8" d="M2111.21,1625a109.13,109.13,0,0,0-104.9,79.08h209.8A109.13,109.13,0,0,0,2111.21,1625Z" transform="translate(449.45 -241.97)"/><path class="cls-8" d="M1974.87,1591.13a155.88,155.88,0,0,0-149.84,113h299.68A155.89,155.89,0,0,0,1974.87,1591.13Z" transform="translate(449.45 -241.97)"/><circle class="cls-5" cx="2046.08" cy="396.25" r="16.7"/><circle class="cls-5" cx="258.24" cy="1106.35" r="16.7"/><circle class="cls-5" cx="1965.83" cy="559" r="29.93"/><circle class="cls-5" cx="139.56" cy="1239.54" r="29.93"/><circle class="cls-5" cx="2629.02" cy="760.67" r="29.93"/><circle class="cls-5" cx="838.56" cy="1148.89" r="29.93"/><circle class="cls-5" cx="1099.57" cy="128.17" r="29.93"/><circle class="cls-5" cx="773.64" cy="1210.78" r="16.7"/><path class="cls-34" d="M810.29,1379.19l-18.24-35.32a11.47,11.47,0,0,0-10.19-6.2H640.48A11.47,11.47,0,0,0,629,1349.14v293.14a11.48,11.48,0,0,0,11.47,11.47h413.74a11.48,11.48,0,0,0,11.47-11.47V1396.87a11.47,11.47,0,0,0-11.47-11.47H820.48A11.48,11.48,0,0,1,810.29,1379.19Z" transform="translate(449.45 -241.97)"/><rect class="cls-5" x="1107.15" y="1165.88" width="379.3" height="188.93"/><path class="cls-7" d="M629,1431.75v210.53a11.48,11.48,0,0,0,11.47,11.47h413.74a11.48,11.48,0,0,0,11.47-11.47V1431.75Z" transform="translate(449.45 -241.97)"/><rect class="cls-10" x="1394.11" y="1223.94" width="79.34" height="79.34"/><polyline class="cls-29" points="1406.27 1253.48 1432.49 1279.69 1494.15 1218.03"/></g></g></svg>