<svg xmlns="http://www.w3.org/2000/svg" xmlns:xlink="http://www.w3.org/1999/xlink" viewBox="0 0 2722.19 1574.62"><defs><style>.cls-1,.cls-14,.cls-16,.cls-17,.cls-18,.cls-4{fill:none;}.cls-2{opacity:0.05;}.cls-3{clip-path:url(#clip-path);}.cls-4{stroke:#8b7676;}.cls-14,.cls-16,.cls-17,.cls-18,.cls-4{stroke-miterlimit:10;stroke-width:110px;}.cls-5{fill:#b7aaaa;}.cls-6{fill:#ccc2c2;}.cls-7{fill:#f6f5f5;}.cls-8{fill:#cfb1b1;}.cls-9{fill:#bbafaf;}.cls-10{fill:#b98c8c;}.cls-11{fill:#8b7676;}.cls-12{fill:#7f8b83;}.cls-13{fill:#ceb5b5;}.cls-14{stroke:#ccc2c2;}.cls-15{fill:#6c5252;}.cls-16{stroke:#6c5252;}.cls-17{stroke:#cfb1b1;}.cls-18{stroke:#7f8b83;}.cls-19{fill:#fff;}.cls-20{fill:#c0b5b5;}.cls-21{fill:#ac8282;}.cls-22{fill:#364233;}.cls-23{fill:#8d7878;}.cls-24{fill:#849388;}.cls-25{fill:#baaeae;}.cls-26{fill:#cdb4b4;}</style><clipPath id="clip-path" transform="translate(423.79 -169.44)"><rect class="cls-1" width="1884" height="1884"/></clipPath></defs><g id="Layer_1" data-name="Layer 1" class="cls-2"><g class="cls-3"><path class="cls-4" d="M517.13,1142.42V1206A151.33,151.33,0,0,0,668.47,1357.3H800.2" transform="translate(423.79 -169.44)"/><path class="cls-5" d="M1329.93,1561.41a110.65,110.65,0,0,0-106.37,80.19h212.73A110.64,110.64,0,0,0,1329.93,1561.41Z" transform="translate(423.79 -169.44)"/><path class="cls-5" d="M1848.37,1523.47a163,163,0,0,0-156.68,118.13h313.37A163,163,0,0,0,1848.37,1523.47Z" transform="translate(423.79 -169.44)"/><path class="cls-5" d="M1362.11,1641.6c24-83.14,119.24-145.24,233-145.24s209,62.1,233,145.24Z" transform="translate(423.79 -169.44)"/><rect class="cls-6" x="471.6" y="1462.44" width="1788.37" height="112.18" rx="56.09"/><path class="cls-7" d="M218.12,796a105.2,105.2,0,0,1,101.13,76.24H117A105.2,105.2,0,0,1,218.12,796Z" transform="translate(423.79 -169.44)"/><path class="cls-7" d="M-274.81,760a155,155,0,0,1,149,112.31h-298A155,155,0,0,1-274.81,760Z" transform="translate(423.79 -169.44)"/><path class="cls-7" d="M187.52,872.27C164.68,793.23,74.15,734.19-34,734.19s-198.73,59-221.58,138.08Z" transform="translate(423.79 -169.44)"/><path class="cls-8" d="M479.85,407.71a50.89,50.89,0,0,1,48.91,36.87H431A50.88,50.88,0,0,1,479.85,407.71Z" transform="translate(423.79 -169.44)"/><path class="cls-8" d="M241.48,390.27a74.94,74.94,0,0,1,72,54.31H169.44A75,75,0,0,1,241.48,390.27Z" transform="translate(423.79 -169.44)"/><path class="cls-8" d="M465.06,444.58c-11.05-38.22-54.82-66.77-107.15-66.77s-96.1,28.55-107.15,66.77Z" transform="translate(423.79 -169.44)"/><path class="cls-7" d="M2132.42,924.5a63.7,63.7,0,0,1,61.24,46.16H2071.19A63.7,63.7,0,0,1,2132.42,924.5Z" transform="translate(423.79 -169.44)"/><path class="cls-7" d="M1834,902.66a93.83,93.83,0,0,1,90.2,68h-180.4A93.82,93.82,0,0,1,1834,902.66Z" transform="translate(423.79 -169.44)"/><path class="cls-7" d="M2113.9,970.66c-13.83-47.86-68.65-83.61-134.16-83.61s-120.33,35.75-134.16,83.61Z" transform="translate(423.79 -169.44)"/><path class="cls-9" d="M36.3,860.11a47.64,47.64,0,0,1,45.8,34.52H-9.5A47.64,47.64,0,0,1,36.3,860.11Z" transform="translate(423.79 -169.44)"/><path class="cls-9" d="M-186.93,843.77a70.19,70.19,0,0,1,67.47,50.86H-254.39A70.18,70.18,0,0,1-186.93,843.77Z" transform="translate(423.79 -169.44)"/><path class="cls-9" d="M22.45,894.63C12.1,858.84-28.89,832.1-77.9,832.1s-90,26.74-100.34,62.53Z" transform="translate(423.79 -169.44)"/><path class="cls-9" d="M2264.13,971.54a35.67,35.67,0,0,1,34.28,25.84h-68.56A35.66,35.66,0,0,1,2264.13,971.54Z" transform="translate(423.79 -169.44)"/><path class="cls-9" d="M2097,959.31a52.53,52.53,0,0,1,50.5,38.07h-101A52.54,52.54,0,0,1,2097,959.31Z" transform="translate(423.79 -169.44)"/><path class="cls-9" d="M2253.76,997.38c-7.75-26.8-38.43-46.81-75.11-46.81s-67.36,20-75.11,46.81Z" transform="translate(423.79 -169.44)"/><path class="cls-10" d="M-201.29,1585.42A74.64,74.64,0,0,0-273,1639.5h143.47A74.62,74.62,0,0,0-201.29,1585.42Z" transform="translate(423.79 -169.44)"/><path class="cls-10" d="M148.36,1559.84A109.91,109.91,0,0,0,42.69,1639.5H254A109.91,109.91,0,0,0,148.36,1559.84Z" transform="translate(423.79 -169.44)"/><path class="cls-10" d="M-179.59,1639.5c16.21-56.07,80.42-97.94,157.17-97.94s141,41.87,157.17,97.94Z" transform="translate(423.79 -169.44)"/><path class="cls-11" d="M2019.52,1587a79.83,79.83,0,0,1,76.74,57.85H1942.78A79.83,79.83,0,0,1,2019.52,1587Z" transform="translate(423.79 -169.44)"/><path class="cls-11" d="M2109.33,1604.92a55.07,55.07,0,0,1,53,39.92H2056.37A55.09,55.09,0,0,1,2109.33,1604.92Z" transform="translate(423.79 -169.44)"/><path class="cls-11" d="M1995.18,1644.84c-10.3-35.67-51.15-62.31-100-62.31s-89.67,26.64-100,62.31Z" transform="translate(423.79 -169.44)"/><path class="cls-12" d="M1797.62,1618.4a59.11,59.11,0,0,1,56.82,42.83H1740.81A59.09,59.09,0,0,1,1797.62,1618.4Z" transform="translate(423.79 -169.44)"/><path class="cls-12" d="M1864.11,1631.67a40.79,40.79,0,0,1,39.21,29.56H1824.9A40.79,40.79,0,0,1,1864.11,1631.67Z" transform="translate(423.79 -169.44)"/><path class="cls-12" d="M1779.6,1661.23c-7.63-26.41-37.87-46.13-74-46.13s-66.39,19.72-74,46.13Z" transform="translate(423.79 -169.44)"/><path class="cls-13" d="M634.07,1608.39a62.27,62.27,0,0,0-59.86,45.13H693.93A62.26,62.26,0,0,0,634.07,1608.39Z" transform="translate(423.79 -169.44)"/><path class="cls-13" d="M564,1622.37a43,43,0,0,0-41.31,31.15h82.62A43,43,0,0,0,564,1622.37Z" transform="translate(423.79 -169.44)"/><path class="cls-13" d="M653.06,1653.52c8-27.83,39.9-48.61,78-48.61s70,20.78,78,48.61Z" transform="translate(423.79 -169.44)"/><path class="cls-14" d="M665.87,1146.73V789.3A123.18,123.18,0,0,1,789.06,666.12" transform="translate(423.79 -169.44)"/><polygon class="cls-15" points="489.33 472.55 613.75 572.42 613.75 372.68 489.33 472.55"/><polygon class="cls-6" points="1378.23 1444.24 1478.1 1319.83 1278.36 1319.83 1378.23 1444.24"/><path class="cls-16" d="M1248,804.72V408.61c0-101.71-82.46-184.17-184.17-184.17h0c-101.72,0-184.17,82.46-184.17,184.17V832.4c0,130.34-105.67,236-236,236h0c-130.34,0-236-105.67-236-236V818.51h0A178.49,178.49,0,0,0,229.14,640H145" transform="translate(423.79 -169.44)"/><line class="cls-14" x1="1556.48" y1="250.31" x2="1778.48" y2="250.31"/><polygon class="cls-6" points="1874.4 254.31 1749.99 154.44 1749.99 354.18 1874.4 254.31"/><path class="cls-17" d="M1329.93,1204.34H393.61a160.79,160.79,0,0,0-55.85,10" transform="translate(423.79 -169.44)"/><path class="cls-17" d="M664,863.21h808.34a170.56,170.56,0,0,1,170.56,170.56h0a170.46,170.46,0,0,1-83.19,146.52" transform="translate(423.79 -169.44)"/><polygon class="cls-15" points="1671.78 725.8 1771.65 601.38 1571.91 601.38 1671.78 725.8"/><polygon class="cls-12" points="2250.86 602.83 2126.44 502.96 2126.44 702.7 2250.86 602.83"/><polygon class="cls-12" points="597.06 885.39 497.19 1009.81 696.93 1009.81 597.06 885.39"/><polygon class="cls-12" points="648.47 836.48 772.89 936.35 772.89 736.62 648.47 836.48"/><polygon class="cls-12" points="1501.37 388.89 1401.5 513.31 1601.24 513.31 1501.37 388.89"/><polygon class="cls-11" points="1270.69 363.41 1146.28 263.55 1146.28 463.28 1270.69 363.41"/><polygon class="cls-11" points="1296.3 886.79 1420.72 986.65 1420.72 786.92 1296.3 886.79"/><polygon class="cls-8" points="656.34 1374.84 756.21 1250.42 556.48 1250.42 656.34 1374.84"/><path class="cls-18" d="M1079.49,1181v68.72a167.84,167.84,0,0,0,167.83,167.84h0a167.84,167.84,0,0,0,167.84-167.84V940.11A167.83,167.83,0,0,1,1583,772.28h147.48" transform="translate(423.79 -169.44)"/><line class="cls-18" x1="1503.27" y1="480.02" x2="1503.27" y2="766.56"/><path class="cls-4" d="M800.2,1357.3h306.21A151.34,151.34,0,0,0,1257.75,1206h0a151.34,151.34,0,0,0-151.34-151.34h-144" transform="translate(423.79 -169.44)"/><path class="cls-4" d="M740.35,533.14H668.47A151.34,151.34,0,0,0,517.13,684.48v457.94" transform="translate(423.79 -169.44)"/><path class="cls-14" d="M956.69,1541.56v-85.47a123.18,123.18,0,0,0-123.18-123.18H789.06a123.18,123.18,0,0,1-123.19-123.19v-63" transform="translate(423.79 -169.44)"/><line class="cls-18" x1="1503.27" y1="766.56" x2="1503.27" y2="1011.57"/><path class="cls-14" d="M789.06,666.12h44.45A123.18,123.18,0,0,0,956.69,542.94h0" transform="translate(423.79 -169.44)"/><path class="cls-14" d="M956.69,542.94a123.18,123.18,0,0,1,123.19-123.19h52.81" transform="translate(423.79 -169.44)"/><polygon class="cls-8" points="984.61 691.76 1109.02 791.63 1109.02 591.89 984.61 691.76"/><path class="cls-17" d="M1559.7,1180.29a169.68,169.68,0,0,1-87.37,24h-142.4" transform="translate(423.79 -169.44)"/><circle class="cls-19" cx="1503.27" cy="1180.7" r="29.93"/><circle class="cls-19" cx="1310.37" cy="182.93" r="16.61"/><circle class="cls-19" cx="1651.79" cy="1117.78" r="16.61"/><circle class="cls-19" cx="2164.59" cy="616.2" r="16.61"/><path class="cls-18" d="M338.32,1005.47a161.06,161.06,0,1,1-161,161" transform="translate(423.79 -169.44)"/><path class="cls-17" d="M337.76,1214.29a161.1,161.1,0,0,0-105.2,151.1v75.44" transform="translate(423.79 -169.44)"/><path class="cls-20" d="M1481.52,660.42c-13.34,3.43-18.59-2-20.65-6.53a6.53,6.53,0,0,1-.59-.86,7.28,7.28,0,0,1,2.82-10.1l101.21-54.78a3.36,3.36,0,0,1,4.51,1.26,3.33,3.33,0,0,1,.46,1.66,11.65,11.65,0,0,1-4,11.3C1547.73,616.75,1498.87,656,1481.52,660.42Z" transform="translate(423.79 -169.44)"/><path class="cls-20" d="M1565.06,710.05s-2.47,8.57-1,9.06,36.75,1.85,39.26.32-5-4-5-4-16.63-4.45-26.2-5.41C1572.11,710,1565.06,709.55,1565.06,710.05Z" transform="translate(423.79 -169.44)"/><path class="cls-20" d="M1559.64,593.82c2-4,4.27-6.06,8-6.08a7.3,7.3,0,0,1,7.32,7.51l-3.38,115a3.37,3.37,0,0,1-6.73,0l-.2-5C1557.86,626.66,1553.67,608.44,1559.64,593.82Z" transform="translate(423.79 -169.44)"/><path class="cls-10" d="M1586.05,711.61c-3.64,1.62-9.7,2.69-16.57,2.72-2.19,0-4.3-.08-6.28-.27-.44,3.11-.63,6.73.88,6.9,2.66.29,41,1.28,41.19-.5C1605.7,717,1595.4,713.65,1586.05,711.61Z" transform="translate(423.79 -169.44)"/><path class="cls-21" d="M1463.12,667s46.09-6.63,90.36-50.9c0,0,0,8.14,8,83.44l13.16-2.52s6.06-100.53,3.52-105.65-10.1-8.45-21.43-3.43-91.9,46.56-91.9,46.56Z" transform="translate(423.79 -169.44)"/><path class="cls-20" d="M1447.92,636.89c7.48-11.56,15-11.12,19.61-9.19a9.35,9.35,0,0,1,1,.23,7.29,7.29,0,0,1,4.77,9.34L1436,746.14a3.36,3.36,0,0,1-5.64,1.21,11.67,11.67,0,0,1-4.69-11C1428.81,713.87,1438.19,651.93,1447.92,636.89Z" transform="translate(423.79 -169.44)"/><path class="cls-20" d="M1361.15,842.39s-8,4-7.32,5.43,23.53,28.29,26.35,29.1-.48-6.43-.48-6.43-8-15.25-13.75-22.94C1366,847.55,1361.52,842.05,1361.15,842.39Z" transform="translate(423.79 -169.44)"/><path class="cls-20" d="M1421.71,741.52c4-2.4,7.12-2.88,10.24-.78a7.53,7.53,0,0,1,1.6,10.67l-71.07,98.33a3.36,3.36,0,1,1-5.58-3.76l2.79-4.44C1400.75,769.13,1408.1,750.89,1421.71,741.52Z" transform="translate(423.79 -169.44)"/><path class="cls-10" d="M1374.22,858.88c-3.66-1.58-8.55-5.31-13.22-10.34a62.92,62.92,0,0,1-4.06-4.81c-2.59,1.78-5.38,4.1-4.48,5.32,1.59,2.16,26.8,31,28.26,30C1383.59,877,1379.05,867.15,1374.22,858.88Z" transform="translate(423.79 -169.44)"/><path class="cls-21" d="M1449.63,624.62s-18,22.91-28.86,111.86c0,0-25,15.11-53.82,85.6l14.37,7.13s55.56-74.52,58-81.74,40.6-113.66,40.6-113.66Z" transform="translate(423.79 -169.44)"/><path class="cls-22" d="M1496.9,468.59c-18.37-9-48.29,3.33-48.33,26.41,0,2.16.22,4.41-.38,6.42-1,3.17-3.72,5.11-6.47,6.53-6.19,3.19-13.21,4.9-18.57,9.44-8.57,7.26-11,21.94-5,32.93,5.53,10.17,25.22,21.36,35.62,20.64s19.56-7.08,25.79-15.65c1.55-2.13,3-4.44,5-6,3.78-3,9-3,13.38-4.85,4.1-1.73,4.15-11.34,6-15.63,2.43-5.54-2.55-11.49-.72-17.34,2.13-6.86,6.88-12.59,7.53-19.91C1511.63,482.21,1505.11,472.63,1496.9,468.59Z" transform="translate(423.79 -169.44)"/><path class="cls-10" d="M1490.4,505.8c-17.8-6.87-22.08-.5-28.85,18.88-5.4,15.43-9.6,52-10.38,71.27-1.93,3.49-7.54,32.23-9,43.32a100.51,100.51,0,0,1,14.21-2.56c9-1.1,18.14-1.82,26.55-5.14a35.37,35.37,0,0,0,12.1-7.84c-1.6-16.34-1.44-53.19.84-59.17,7.08-18.58,4.71-19.82,3.87-30.73S1496,508,1490.4,505.8Z" transform="translate(423.79 -169.44)"/><path class="cls-10" d="M1489.81,528.8c-9.18,2.34-10.18-5.72-10.3-5.93-1.43-2.45,1.09-7.39,4.21-8.89l66.36-28.25c1.1-.59,2.11,1.22,2.74,2.29a2.31,2.31,0,0,1,.31,1.15c.57,2.88,3.9,4.73,1.58,6.63C1542.64,505.66,1501.75,525.75,1489.81,528.8Z" transform="translate(423.79 -169.44)"/><path class="cls-10" d="M1478.12,524c3.6-7.9-3.89-10.73-4.07-10.89-2.11-1.9-7.18-.74-9.08,1.78l-39.09,58.65c-.73.88.83,2.24,1.76,3.07a2.41,2.41,0,0,0,1,.56A8.63,8.63,0,0,0,1437,576C1448.22,567.22,1473.43,534.32,1478.12,524Z" transform="translate(423.79 -169.44)"/><path class="cls-22" d="M1480.11,498s-12.11-6.56-11.17-19.59c1.26-17.49,20-23.33,28.66-16.19,7.94,6.57,5.31,13.81,4,15.5S1480.11,498,1480.11,498Z" transform="translate(423.79 -169.44)"/><path class="cls-20" d="M1478.47,481.08l14,.84c-.11,1.92-1.52,20.18-3.3,26.86-.84,2-4.44,2.43-8,.93-3.24-1.35-5.35-3.79-5.14-5.73h0C1477.08,500,1478.07,487.8,1478.47,481.08Z" transform="translate(423.79 -169.44)"/><path class="cls-20" d="M1479.19,483.23c.67,11.26,9,19.92,15.93,19.51s9.65-9.73,9-21-6.59-16.65-13.47-16.24S1478.52,472,1479.19,483.23Z" transform="translate(423.79 -169.44)"/><path class="cls-22" d="M1498.91,465.43s-4.72,14.34-19,17.5c-7.37,1.63-8.17-9.76-8.17-9.76l8.35-9.58s6.27-3.71,10.52-2.67C1490.94,461,1498.91,465.43,1498.91,465.43Z" transform="translate(423.79 -169.44)"/><path class="cls-22" d="M1502.77,474.54s-11.64-6.09-12.88-10.6,5-3.13,5-3.13A16.29,16.29,0,0,1,1502.77,474.54Z" transform="translate(423.79 -169.44)"/><path class="cls-22" d="M1484.49,462.48s6.13-3.55,3.1-9.24-9.77-4.61-11.81-.79c-2.25,4.24-.39,7.32,1.3,8.87A7.62,7.62,0,0,0,1484.49,462.48Z" transform="translate(423.79 -169.44)"/><path class="cls-20" d="M1473.25,486.55c.75,2.7,4.4,5.4,6.35,4.85s1.83-2.87,1.07-5.56-3-4.78-5-4.23S1472.49,483.86,1473.25,486.55Z" transform="translate(423.79 -169.44)"/><path class="cls-20" d="M1413.67,638.6a8.62,8.62,0,0,0-1.86,2.29c-3.39,6.1-9.41,17.81-7.93,21.84,1.94,5.28,14.45-10.56,15.72-24.33Z" transform="translate(423.79 -169.44)"/><path class="cls-10" d="M1412.94,638.6c.25-16.15,6-51.08,10-60.53,3.26-7.84,8-5.75,8.19-5.72,2.59.28,5.36,4.33,4.77,7.37l-15.33,60.17Z" transform="translate(423.79 -169.44)"/><path class="cls-20" d="M1595.57,445.86a8.62,8.62,0,0,0,2.76-1.06c6-3.56,17.07-10.67,17.81-14.91,1-5.53-17.79,1.9-25.8,13.16Z" transform="translate(423.79 -169.44)"/><path class="cls-10" d="M1597.47,445.33c-7.78,14.15-29.27,42.29-37.18,48.8-6.55,5.39-9.73,1.34-9.92,1.21-2.15-1.46-2.7-6.34-.75-8.75l41.73-46Z" transform="translate(423.79 -169.44)"/><path class="cls-12" d="M771.42,899.87s-5.68,8.68-9.58,29.77-.62,64.85-6.36,79.5a53.69,53.69,0,0,0,15.94,6.27l6.83-71.9Z" transform="translate(423.79 -169.44)"/><path class="cls-23" d="M703.26,907.37a8.93,8.93,0,0,1-8,0c-6.44-3.17-18.39-9.55-19.5-13.83-1.52-5.89,20.52,1.13,28.88,13.1Z" transform="translate(423.79 -169.44)"/><path class="cls-12" d="M704.68,905.2c9.8,13.42,26.69,45.7,29.31,55.9,2.18,8.46-3,9.66-3.18,9.78-2.31,1.37-7.09-.24-8.49-3.11l-24.7-58.92Z" transform="translate(423.79 -169.44)"/><path class="cls-12" d="M770.31,899.43c7.26-6.51,12,.36,12.22.49,2.47,1.55,2.53,7.27.4,10.12l-50.82,61.28c-.72,1.07-2.51-.1-3.59-.78a2.33,2.33,0,0,1-.84-.9c-1.89-2.35-2-6.33-.81-9.17C733.17,945.72,760.88,907.91,770.31,899.43Z" transform="translate(423.79 -169.44)"/><path class="cls-23" d="M771.94,1146.55c-2.08-4.15-4.42-6.22-8.29-6.22a7.5,7.5,0,0,0-7.5,7.77l4,118.35a3.46,3.46,0,0,0,6.92,0l.18-5.11C773.93,1180.33,778.15,1161.56,771.94,1146.55Z" transform="translate(423.79 -169.44)"/><path class="cls-23" d="M766.92,1266.17s2.59,8.81,1,9.32-37.8,2.08-40.39.52,5.18-4.14,5.18-4.14,17.09-4.66,26.93-5.7C759.67,1266.17,766.92,1265.65,766.92,1266.17Z" transform="translate(423.79 -169.44)"/><path class="cls-24" d="M745.33,1267.87c3.76,1.65,10,2.73,17.06,2.73,2.26,0,4.43-.11,6.47-.31.47,3.19.67,6.92-.88,7.1-2.74.32-42.15,1.51-42.38-.31C725.14,1273.47,735.72,1270,745.33,1267.87Z" transform="translate(423.79 -169.44)"/><path class="cls-25" d="M784.12,1041.83c-3-13.86-10.36-16.21-15.48-16a7.11,7.11,0,0,0-1.06-.16,7.5,7.5,0,0,0-8,7.23l-4.09,118.36a3.47,3.47,0,0,0,3.23,3.57,3.4,3.4,0,0,0,1.74-.34,12,12,0,0,0,8.56-8.89C774.23,1122.84,788,1059.86,784.12,1041.83Z" transform="translate(423.79 -169.44)"/><path class="cls-23" d="M808.18,1146.23c-2.63-3.81-5.25-5.52-9.08-5a7.52,7.52,0,0,0-6.33,8.75l20.75,116.59a3.47,3.47,0,0,0,6.86-1l-.55-5.08C814.94,1179.39,816.46,1160.22,808.18,1146.23Z" transform="translate(423.79 -169.44)"/><path class="cls-23" d="M820.72,1266.17s2.59,8.81,1,9.32-37.81,2.08-40.4.52,5.18-4.14,5.18-4.14,17.09-4.66,26.93-5.7C813.47,1266.17,820.72,1265.65,820.72,1266.17Z" transform="translate(423.79 -169.44)"/><path class="cls-24" d="M799.14,1267.87c3.75,1.65,10,2.73,17.05,2.73,2.26,0,4.43-.11,6.47-.31.47,3.19.68,6.92-.88,7.1-2.73.32-42.15,1.51-42.38-.31C779,1273.47,789.52,1270,799.14,1267.87Z" transform="translate(423.79 -169.44)"/><path class="cls-25" d="M805.68,1040.17c-4.88-13.3-12.55-14.58-17.59-13.68a7.63,7.63,0,0,0-1.07,0,7.5,7.5,0,0,0-6.91,8.29l12.69,117.75a3.47,3.47,0,0,0,3.7,3.08,3.59,3.59,0,0,0,1.68-.58,12,12,0,0,0,7.22-10C807.35,1121.76,812,1057.47,805.68,1040.17Z" transform="translate(423.79 -169.44)"/><path class="cls-11" d="M759.57,1032.87s-11.12,67.21-12.18,130.49c0,0-4.13,6.78,18.17,3.78s38-4.73,43.33-2.09a32.46,32.46,0,0,0,11.51,2.85s-6-26.63-9-30.17c0,0,7.28-77.17.43-102Z" transform="translate(423.79 -169.44)"/><path class="cls-19" d="M814.89,1042.51c1.47.48.77-29.7-2.73-51.3.79-18.71-4.23-63.39-8.51-76.92-5.38-17-13.86-26.31-28-19.51-4.45,2.14-8.68,14.66-10.56,28s-4.52,10.64,2.81,30.16c2.6,6.94-3.95,53.93-7.19,66.36-.93,3.57-2.28,15.71-4.06,19.47a32.08,32.08,0,0,0,7.88,4.24C784,1050.06,795.35,1036.19,814.89,1042.51Z" transform="translate(423.79 -169.44)"/><path class="cls-22" d="M781.64,889.64s14.88-1.34,19.53-14.72c6.26-18-9.94-31.84-21.59-28.44-10.73,3.14-11.22,11.49-10.64,13.73S781.64,889.64,781.64,889.64Z" transform="translate(423.79 -169.44)"/><path class="cls-23" d="M790.83,872l-14.44-1c-.14,2-1.14,20.79-.22,27.85.59,2.16,4.2,3.07,8.08,2,3.48-.94,6-3.14,6-5.15h0C789.72,891.42,790.34,878.86,790.83,872Z" transform="translate(423.79 -169.44)"/><path class="cls-23" d="M787.7,876c-5.22,10.36-16.66,15.13-23,11.94s-5.15-13.12.07-23.49,13-13,19.34-9.86S792.92,865.61,787.7,876Z" transform="translate(423.79 -169.44)"/><path class="cls-22" d="M776.31,851.12s-1.37,15.47,10.86,24.29c6.3,4.54,11.69-5.89,11.69-5.89l-4-12.46s-4.41-6-8.85-6.8C785.64,850.19,776.31,851.12,776.31,851.12Z" transform="translate(423.79 -169.44)"/><path class="cls-22" d="M769,858.15s13.48-1,16.49-4.76-3.44-5-3.44-5A16.77,16.77,0,0,0,769,858.15Z" transform="translate(423.79 -169.44)"/><path class="cls-22" d="M796.16,864s-11.12-11.25-1.24-21.71,23.76-4.17,25.89,5.25c2.36,10.46-3.47,16-8,18.32S800.73,867.58,796.16,864Z" transform="translate(423.79 -169.44)"/><path class="cls-23" d="M792,881.53c-1.81,2.24-6.35,3.31-8,2s-.56-3.46,1.26-5.7,4.82-3.27,6.44-2S793.77,879.29,792,881.53Z" transform="translate(423.79 -169.44)"/><path class="cls-12" d="M790.08,892.54s3.32,5.14-1.93,11.71-8.09,8.19-8.09,8.19,8.57,29.45,5.53,43.64-7.24,53.16-5.53,69.41c0,0,35.69,9.83,38,7.38,0,0-7.26-79.24-6.76-85.57S804.64,900.75,790.08,892.54Z" transform="translate(423.79 -169.44)"/><path class="cls-23" d="M849.38,1032.4a9,9,0,0,0-6,5.18c-2.82,6.61-7.7,19.24-5.74,23.21,2.69,5.45,14.8-14.25,13.32-28.78Z" transform="translate(423.79 -169.44)"/><path class="cls-12" d="M791.56,920.61c-4.13-7.93,3.41-11.23,3.59-11.41,2.07-2.06,7.34-1.15,9.42,1.34l43.33,58.17c.79.86-.74,2.34-1.65,3.25a2.56,2.56,0,0,1-1,.63,8.89,8.89,0,0,1-8.65-.79C824.6,963.38,796.93,930.92,791.56,920.61Z" transform="translate(423.79 -169.44)"/><path class="cls-12" d="M844.31,1035.12c-4.78-15.91-10-52-9.06-62.47.76-8.7,6-8.11,6.26-8.16,2.63-.53,6.6,2.59,7,5.75l3.7,63.78Z" transform="translate(423.79 -169.44)"/><circle class="cls-19" cx="946.75" cy="803.81" r="29.93"/><circle class="cls-19" cx="842.13" cy="712.37" r="16.61"/><path class="cls-26" d="M945.14,673.89c1.28-4.74,3.29-7.39,7.31-8.2a8,8,0,0,1,9.44,6.49l20.75,123.91a3.68,3.68,0,0,1-7.2,1.46l-1.26-5.28C950.19,709.44,941.85,690.82,945.14,673.89Z" transform="translate(423.79 -169.44)"/><path class="cls-26" d="M869,596.65c-6.2-13.7-1.35-20.36,3.14-23.43a7.55,7.55,0,0,1,.8-.8,8,8,0,0,1,11.4,1.13l77.93,98.55a3.67,3.67,0,0,1-2.21,5.89,12.76,12.76,0,0,1-12.91-2.21C928.42,659.64,877.08,614.47,869,596.65Z" transform="translate(423.79 -169.44)"/><path class="cls-26" d="M839.88,670.89c3.43-3.51,6.47-4.85,10.38-3.6a8,8,0,0,1,5.07,10.27L813,795.85a3.67,3.67,0,0,1-7-2.24l1.47-5.22C826.94,704.38,828.74,684.06,839.88,670.89Z" transform="translate(423.79 -169.44)"/><path class="cls-26" d="M845.38,569.88c5.74-12.29,13.91-13,19.21-11.82a8.65,8.65,0,0,1,1.13.06c4.47.57,7.62,4.34,7,8.31L854.22,677.18a3.51,3.51,0,0,1-4.05,2.68,3.94,3.94,0,0,1-1.75-.66,11.79,11.79,0,0,1-7.21-10C840.14,647.09,837.93,585.86,845.38,569.88Z" transform="translate(423.79 -169.44)"/><path class="cls-24" d="M809.31,796.63a17.76,17.76,0,0,0,6.48-1c9.42,1.32,28.61,5.74,28,10.45-.22,1.74-37.65.6-40.25.3-1.83-.21-1.08-5.63-.48-8.82a1.64,1.64,0,0,1,1.95-1.29A23.73,23.73,0,0,0,809.31,796.63Z" transform="translate(423.79 -169.44)"/><path class="cls-24" d="M979.45,796.63a17.76,17.76,0,0,0,6.48-1c9.42,1.32,28.61,5.74,28,10.45-.22,1.74-37.65.6-40.25.3-1.83-.21-1.08-5.63-.48-8.82a1.64,1.64,0,0,1,1.95-1.29A23.73,23.73,0,0,0,979.45,796.63Z" transform="translate(423.79 -169.44)"/><path class="cls-22" d="M896.31,581.33s66.94,84.81,68.7,90.53,17.68,111.67,17.68,111.67H971.64s-31.83-82.64-30.25-109.25c0,0-82.85-69.69-85-89.44s16.27-18.41,16.27-18.41Z" transform="translate(423.79 -169.44)"/><path class="cls-22" d="M805.85,783.53h13.81S857.16,681.43,858.4,675s18.69-105.76,18.69-105.76l-24.8-11.56s-12.94,4.66-14.91,53.8c0,0,0,43.88.42,57.06,0,0-8.45,3.5-18.14,49.45S805.85,783.53,805.85,783.53Z" transform="translate(423.79 -169.44)"/><path class="cls-26" d="M1074,551.44a9.63,9.63,0,0,0,3.81,7.67c6.16,4.67,18.07,13.08,22.72,12.08,6.4-1.38-11-19.19-26.54-21.46Z" transform="translate(423.79 -169.44)"/><path class="cls-12" d="M940.17,490.86c-6.55-8.2,1.13-12.88,1.28-13.09,1.83-2.57,8-2.27,10.91.2l62.69,58.41c1.09.84.87,6.45.07,7.58a2.58,2.58,0,0,1-1,.84c-2.64,1.88-8.23-1.7-11-3.46C989.27,532.67,948.69,501.53,940.17,490.86Z" transform="translate(423.79 -169.44)"/><path class="cls-12" d="M1077.33,558.4c-17.87-.66-56.42-7.9-66.79-12.48-8.6-3.8-6.17-9-6.14-9.21.38-2.86,4.93-5.82,8.28-5.1L1078.94,550Z" transform="translate(423.79 -169.44)"/><path class="cls-12" d="M877,512.66c1.31-1.93,2.66-3.72,3.89-5.36,3-4.08,6.31-8.27,9.31-11.94,1.29-1.58,2.61-3.3,3.57-4.34,6.25-6.74,12.12-13.4,18.83-19.12,3.92-3.34,5.19-5.51,10.16-7.86,14.87-7,26.31-2,30.36,14.5a11.94,11.94,0,0,1,.42,3.16c-.69,8.95.44,12.71-6.92,19.34-8.09,7.28-14.33,16.73-20,26.57-.34.61-1.68,2.54-2.42,3.76-1,1.74-2.33,3.82-3.6,5.93-1.78,2.94-3.73,6.24-5.6,9.46-1.14,2-2.42,4.2-3.59,6.39-2.07,3.88-4.21,8.11-6.12,12.17-.53,1.13-1.09,2.37-1.59,3.53-.38.89-.78,1.79-1.16,2.68-.9,2.1-1.86,4.32-2.71,6.39-.74,1.8-1.35,3.47-2,5.25l0,.05a11.14,11.14,0,0,1-4.66.72c-5.47-.43-9.65-5.46-13.86-9.5-8-7.69-21.2-11.62-31.54-13.14C843.36,560.68,874.27,516.75,877,512.66Z" transform="translate(423.79 -169.44)"/><path class="cls-22" d="M970,478.71s4.33-4.08,4.22-9.63-4.17-1.24-4.17-1.24Z" transform="translate(423.79 -169.44)"/><path class="cls-22" d="M944.3,452.59c0,.59-.88,11.37.59,12.27,2,1.23,4.75-6.12,4.75-6.12Z" transform="translate(423.79 -169.44)"/><path class="cls-22" d="M978.06,454.51s4.37-3.51,4.19-7.61c-.18-3.89-1.55-8.6-14.61-12a4,4,0,0,0-4.63,2.17L960.69,442Z" transform="translate(423.79 -169.44)"/><path class="cls-26" d="M951.21,452.59c-2.34,7.62-3.71,14.1-.65,19.27a15.54,15.54,0,0,0,4.8,5.09,15.23,15.23,0,0,0,4.85,2.09c4.93,1.21,8.27-.1,10.79-3,2.89-3.38,4.72-8.91,6.68-15.3,3.67-12-.39-19.86-7.7-22.1S954.87,440.63,951.21,452.59Z" transform="translate(423.79 -169.44)"/><path class="cls-26" d="M951,449.88l10.86,7.4c-1,1.48-10.89,15.45-15.51,20-1.64,1.21-4.72-.18-6.89-3.11-2-2.63-2.48-5.6-1.38-7.05h0C940.86,464.36,947.48,455.07,951,449.88Z" transform="translate(423.79 -169.44)"/><path class="cls-22" d="M944.25,453.5a6.25,6.25,0,0,0,6.27.82c4.85-1.91,11.35-7.95,13.71-11,4.16-5.34,3.16-7.74,3.16-7.74s-11.84-4.42-16.06-1.76C945,437.84,944.25,453.5,944.25,453.5Z" transform="translate(423.79 -169.44)"/><path class="cls-22" d="M957.27,448.12l-5.36,17.45a4.79,4.79,0,0,0,1.49,5.08l1.69,1.43a2.17,2.17,0,0,0,3.29-.61l1.79-3.26a1.86,1.86,0,0,1,2.05-.92l8.08,1.81a1.89,1.89,0,0,1,1.47,1.86l-.06,3.68a6,6,0,0,1-6.89,5.81l-5-.79a6.59,6.59,0,0,1-2.93-1.24l-.19-.14-.11-.1h0l-1.3-1.1h0l-4.27-3.6a8.48,8.48,0,0,1-2.64-9L953.74,447Z" transform="translate(423.79 -169.44)"/><path class="cls-26" d="M945.75,451.25c-.81,2.59.73,6.7,2.6,7.29s3-1.37,3.81-4,0-5.48-1.83-6.07S946.56,448.67,945.75,451.25Z" transform="translate(423.79 -169.44)"/><path class="cls-22" d="M964.31,440.4l7.68,2.43a11.2,11.2,0,0,1,6.19,4.83l1.93,3.13-1.33-8.33-5.45-4.27-8-1.89Z" transform="translate(423.79 -169.44)"/><path class="cls-12" d="M926.32,480.47c10.38-1.55,7.94-10.21,8-10.47.41-3.12-4.29-7.08-8.12-7.28l-85.69.13c-1.38-.14-1.64,2.14-1.82,3.52a2.58,2.58,0,0,0,.17,1.3c.66,3.18,3.87,6,7,7C862.46,479.53,912.82,482.48,926.32,480.47Z" transform="translate(423.79 -169.44)"/><path class="cls-8" d="M934.94,477.48c-23.79,30.41-28.12,43.25-18.28,81.85,3.58,2.8,7.26,5.44,11,8a135.86,135.86,0,0,0,6-12.88c-14.77-33.9-12.78-44,5.57-73.93Q937.12,479,934.94,477.48Z" transform="translate(423.79 -169.44)"/><path class="cls-26" d="M871.06,533.07a9.66,9.66,0,0,1,8.28,2.19c5.82,5.08,16.47,15,16.43,19.8,0,6.54-21-6.88-26.39-21.64Z" transform="translate(423.79 -169.44)"/><path class="cls-12" d="M876.67,532c-4.41-17.33-19.61-53.49-26.27-62.66-5.53-7.61-10.07-4.14-10.3-4.06-2.72,1-4.66,6-3.24,9.17l31.94,60.9Z" transform="translate(423.79 -169.44)"/><circle class="cls-19" cx="1681.72" cy="523.69" r="29.93"/><circle class="cls-19" cx="1764.83" cy="437.97" r="16.61"/><circle class="cls-19" cx="1619.88" cy="102.45" r="16.61"/><circle class="cls-19" cx="2055.35" cy="888.59" r="16.61"/><circle class="cls-19" cx="1099.53" cy="373.07" r="16.61"/></g></g></svg>