<svg id="Layer_1" data-name="Layer 1" xmlns="http://www.w3.org/2000/svg" xmlns:xlink="http://www.w3.org/1999/xlink" viewBox="0 0 1884 1884"><defs><style>.cls-1,.cls-24,.cls-34,.cls-37{fill:none;}.cls-2{clip-path:url(#clip-path);}.cls-24,.cls-25,.cls-26,.cls-27,.cls-28,.cls-29,.cls-3,.cls-5{opacity:0.1;}.cls-4{fill:#739792;}.cls-31,.cls-5{fill:#886158;}.cls-26,.cls-6{fill:#fff;}.cls-7{fill:#d2cdca;}.cls-8{fill:#774a3f;}.cls-9{fill:#875f56;}.cls-10{fill:#581e1b;}.cls-11,.cls-25{fill:#6e3e33;}.cls-12,.cls-29{fill:#5a857f;}.cls-13{fill:#396c65;}.cls-14{fill:#9a7870;}.cls-15{fill:#b79e9d;}.cls-16{fill:#89beb7;}.cls-17,.cls-32{fill:#8c6462;}.cls-18{fill:#beb6b2;}.cls-19{fill:#88a6a2;}.cls-20{fill:#7e5349;}.cls-21,.cls-27{fill:#4b0d0a;}.cls-22{fill:#81a19d;}.cls-23{fill:#c7d5d3;}.cls-24,.cls-34{stroke:#6e3e33;}.cls-24,.cls-34,.cls-37{stroke-linecap:round;stroke-linejoin:round;}.cls-24{stroke-width:5px;stroke-dasharray:12;}.cls-28,.cls-39{fill:#1e5850;}.cls-30{fill:#d0cac8;}.cls-32{opacity:0.38;}.cls-33{fill:#ccbbb8;}.cls-34{stroke-width:3px;}.cls-35{fill:#8c675e;}.cls-36{fill:#8e6860;}.cls-37{stroke:#561c19;stroke-width:1.07px;}.cls-38{fill:#561c19;}</style><clipPath id="clip-path"><rect class="cls-1" width="1884" height="1884"/></clipPath></defs><g class="cls-2"><g class="cls-3"><path class="cls-4" d="M1780.1,1688.3H103.9a56.09,56.09,0,0,1,0-112.18H1780.1a56.09,56.09,0,0,1,0,112.18Z"/></g><path class="cls-5" d="M561.06,1022.78a5.67,5.67,0,0,0-5.67,5.67V1084H474.07v-55.5a5.67,5.67,0,1,0-11.33,0v589.23a5.67,5.67,0,0,0,11.33,0v-48.92h81.32v48.92a5.67,5.67,0,0,0,11.33,0V1028.45A5.67,5.67,0,0,0,561.06,1022.78Zm-87,297.4v-46.7h81.32v46.7Zm81.32,12.35v46.7H474.07v-46.7Zm-81.32-71.41v-46.7h81.32v46.7Zm0,130.47h81.32v46.7H474.07Zm81.32-189.52H474.07v-46.7h81.32Zm-81.32,248.57h81.32v46.7H474.07Zm81.32-354.33V1143H474.07v-46.7ZM474.07,1556.4v-46.7h81.32v46.7Z"/><g class="cls-3"><path class="cls-6" d="M1109.76,741.61c-5.17-19.64-15.93-22.5-23.25-21.9a10.87,10.87,0,0,0-1.52-.15,10.76,10.76,0,0,0-11,10.9l2.23,169.71a5,5,0,0,0,7.34,4.29,17.2,17.2,0,0,0,11.65-13.32C1101.14,858.26,1116.49,767.15,1109.76,741.61Z"/><path class="cls-6" d="M1147.88,740.73c-6.27-19.32-17.18-21.56-24.46-20.55a10.92,10.92,0,0,0-1.52-.06,10.76,10.76,0,0,0-10.36,11.5l11.79,169.31a5,5,0,0,0,5.13,4.62,4.92,4.92,0,0,0,2.43-.74,17.21,17.21,0,0,0,10.89-14C1145.83,857.68,1156,765.86,1147.88,740.73Z"/><path class="cls-7" d="M1095.84,891.24c-2.81-6-6.09-9.08-11.63-9.23a10.76,10.76,0,0,0-11,10.84l-.56,169.48c0,2.68,4,5.1,6.64,5.17a5,5,0,0,0,5.09-4.66l.45-7.33C1097.4,939.71,1104.17,913,1095.84,891.24Z"/><path class="cls-7" d="M1138.85,890.63c-3.49-5.65-7.11-8.31-12.63-7.81a10.77,10.77,0,0,0-9.71,12l19.16,168.4c.33,2.65,4.53,4.59,7.2,4.35a5,5,0,0,0,4.51-5.22l-.41-7.32C1146,938.59,1149.65,911.26,1138.85,890.63Z"/><path class="cls-8" d="M1067.89,1060.59c1.85,1.17,5.6,2,9.94,2a29.35,29.35,0,0,0,6.38-.65,2.38,2.38,0,0,1,2.91,1.88c.83,4.55,1.68,11.54-.8,11.82-3.67.43-56.59,2-56.9-.42C1028.6,1068.72,1054.23,1062.64,1067.89,1060.59Z"/><path class="cls-8" d="M1131.61,1060.8c1.85,1.17,5.61,2,10,1.94a30.51,30.51,0,0,0,6.38-.68,2.39,2.39,0,0,1,2.92,1.86c.84,4.55,1.72,11.54-.75,11.83-3.67.44-56.58,2.28-56.9-.17C1092.36,1069.11,1118,1062.91,1131.61,1060.8Z"/><path class="cls-9" d="M1071,730.46s-2.35,150.58-2.11,160.28,1.55,158,1.55,158l17.54-4.25s20.77-148.91,8.87-157l10.52-104.06,3.56,107.25,19.72,157.33,18.28-3.54s5.43-139-10.28-162.52c0,0,24.7-130.67-6.71-170.62Z"/><path class="cls-7" d="M968.59,581.52a11.7,11.7,0,0,0-.9-10.35c-4.88-8-14.58-22.8-20.28-23.74-7.83-1.29,3.88,26.55,20.42,36Z"/><path class="cls-8" d="M1079.9,575.6c11-6.38,15.25,3.67,15.49,3.89,2.74,2.65,1.29,10-2.2,13l-81.37,64.72c-1.2,1.16-3.17-.8-4.38-2a3.08,3.08,0,0,1-.83-1.36c-1.78-3.51-.88-8.65,1.42-11.94C1020,624.82,1065.57,583.9,1079.9,575.6Z"/><path class="cls-10" d="M970,574.59c14.76,15.9,41.58,55.21,46.54,68,4.11,10.64-2.41,13-2.65,13.16-2.77,2.13-9.22.77-11.47-2.73l-41-72.66Z"/><path class="cls-10" d="M1140.19,642c-1.83-13.72-3.36-28-5.24-41.33-1.1-7.76-1.12-13.91-3.79-20.93-8-21-24.77-24.89-43.33-13-8.19,5.26-14.95,17.74-13,34.24,2.14,18.14.87,130.78.62,133.32-.1,1.06-.24,2.2-.33,3.31,7.72,2.21,15.72,3.42,23.61,1.85,16.77-3.32,30.69-13.85,47.73-15.87h.1C1146.59,720.79,1140.47,644.09,1140.19,642Z"/><path class="cls-10" d="M1129.53,571.94c-9.3-8.7-15.69.14-16,.31-3.27,2-3.5,9.42-.79,13.2l64.71,81.38c.91,1.4,3.28-.07,4.71-.93a3.08,3.08,0,0,0,1.12-1.15c2.53-3,2.81-8.22,1.3-12C1176.78,633.37,1141.62,583.26,1129.53,571.94Z"/><path class="cls-11" d="M1073.81,551.17s-3.82-7.51-1-14.85,6.15.34,6.15.34Z"/><path class="cls-11" d="M1121.85,539.37c-.44.67-7,13.43-9.41,13.44-3.25,0-1.24-10.15-1.24-10.15Z"/><path class="cls-11" d="M1080.76,518.46s-2.65-7,.48-11.44c3-4.28,7.94-8.65,25.73-3.58a5.31,5.31,0,0,1,3.91,5.62l-.78,7.16Z"/><path class="cls-7" d="M1113.73,534.65c-2.67,10.19-5.67,18.45-13,22.18a21.84,21.84,0,0,1-9.26,2.46,22.12,22.12,0,0,1-7.2-1c-6.66-2-9.65-5.76-10.53-10.81-1-5.78.78-13.27,3-21.82,4.19-16,14.59-22.13,24.78-19.66S1117.91,518.65,1113.73,534.65Z"/><path class="cls-7" d="M1114.83,535.74,1097,533.23c-.36,2.35-3.34,24.72-2.84,33.23.53,2.64,5,4,9.87,3.14,4.43-.82,7.72-3.22,8-5.62h0C1111.66,558.88,1113.59,544,1114.83,535.74Z"/><path class="cls-11" d="M1121.26,540.44a8.82,8.82,0,0,1-8-3.36c-4.35-5.48-7.7-16.74-8.32-21.77-1.1-8.85,1.77-10.88,1.77-10.88s17.09,3.11,20.15,9C1131.49,522.24,1121.26,540.44,1121.26,540.44Z"/><path class="cls-7" d="M1121.1,536.88c-.89,3.47-5.62,7.06-8.25,6.43s-2.55-3.59-1.66-7.06,3.85-6.21,6.47-5.59S1122,533.41,1121.1,536.88Z"/><path class="cls-11" d="M1107,512l-10.77-2.52a16.06,16.06,0,0,0-10.72,1.22l-4.48,2.21,7.47-8.48,9.45-1.09,10.8,3.36Z"/><path class="cls-11" d="M1111.87,527.77l-9.72,23a6.54,6.54,0,0,1-6,4h-3a3,3,0,0,1-2.9-3.52l1-5a2.56,2.56,0,0,0-1.34-2.77l-10.07-5.2a2.57,2.57,0,0,0-3.16.66l-3.18,3.9a8.17,8.17,0,0,0,2.12,12.16l5.92,3.55a9,9,0,0,0,4.16,1.28l.33,0h2.55l7.64,0a11.62,11.62,0,0,0,10.67-7.11l9.72-23Z"/><path class="cls-12" d="M1095.31,576.63h5.46s-1.58,38.81,3.67,57l-12.59,14.57L1081,630.63S1092.73,612.77,1095.31,576.63Z"/><path class="cls-7" d="M1122.06,563.76l-30.38,66.87-3.85-63.89s-55.9,38.77-73.73,63.89c0,0-25.7-43.33-32.71-47.17l-15.95,13.68s34.39,61.22,42.95,61.94,66.08-49.46,66.08-49.46l-9,230.41h26.22l5.14-59.45,2.35,59.45,66.16-2.94-23-206.46,23,36.78,19.28-14.61S1160.1,581.87,1122.06,563.76Z"/><rect class="cls-13" x="1049.73" y="650.09" width="67.41" height="97.54" rx="2.28" transform="translate(-111.02 213.56) rotate(-10.71)"/><rect class="cls-11" x="1059.95" y="646.48" width="28.89" height="9.16" rx="1.83" transform="matrix(0.98, -0.19, 0.19, 0.98, -102.29, 211.04)"/><path class="cls-7" d="M1106.14,697.28a11.67,11.67,0,0,1-9.39,4.44c-9.37-.17-27-1.1-30.72-5.55-5.06-6.11,24.88-10,41.4-.52Z"/><path class="cls-10" d="M1103.15,700.06c21.08-5.15,65.12-23.17,76.32-31.14,9.3-6.61,5.15-12.16,5-12.44-1.14-3.31-7.27-5.73-11.08-4.05l-74.27,38Z"/><path class="cls-7" d="M1108.72,681.78l7.5,20.12s69.84-25.51,70.81-34.49-6-24-6-24Z"/></g><g class="cls-3"><path class="cls-6" d="M1661.44,775.75a134.42,134.42,0,0,1,129.22,97.42H1532.23A134.42,134.42,0,0,1,1661.44,775.75Z"/><path class="cls-6" d="M2062.47,873.17c-19.82-68.56-98.34-119.77-192.19-119.77s-172.38,51.21-192.19,119.77Z"/></g><g class="cls-3"><path class="cls-14" d="M1475.66,482.44a51.07,51.07,0,0,1,49.1,37h-98.2A51.08,51.08,0,0,1,1475.66,482.44Z"/><path class="cls-14" d="M1533.13,493.91A35.25,35.25,0,0,1,1567,519.46h-67.77A35.26,35.26,0,0,1,1533.13,493.91Z"/><path class="cls-14" d="M1460.09,519.46c-6.6-22.82-32.74-39.87-64-39.87s-57.38,17.05-64,39.87Z"/></g><g class="cls-3"><path class="cls-15" d="M1795.87,1501.46a153.74,153.74,0,0,1,147.78,111.41H1648.09A153.73,153.73,0,0,1,1795.87,1501.46Z"/><path class="cls-15" d="M1968.82,1536a106.09,106.09,0,0,1,102,76.89h-204A106.1,106.1,0,0,1,1968.82,1536Z"/><path class="cls-15" d="M1749,1612.87c-19.85-68.69-98.52-120-192.54-120s-172.69,51.3-192.54,120Z"/></g><g class="cls-3"><path class="cls-16" d="M226.54,627.71a125.64,125.64,0,0,1,120.78,91.06H105.76A125.65,125.65,0,0,1,226.54,627.71Z"/><path class="cls-16" d="M190,718.77C162.72,624.36,54.6,553.85-74.63,553.85S-312,624.36-339.26,718.77Z"/></g><g class="cls-3"><path class="cls-17" d="M8.48,680.92a113.57,113.57,0,0,1,109.18,82.3H-100.7A113.57,113.57,0,0,1,8.48,680.92Z"/><path class="cls-17" d="M136.25,706.42a78.37,78.37,0,0,1,75.34,56.8H60.91A78.37,78.37,0,0,1,136.25,706.42Z"/><path class="cls-16" d="M294.52,189.71a125.65,125.65,0,0,0-120.78,91.06H415.3A125.64,125.64,0,0,0,294.52,189.71Z"/><path class="cls-16" d="M331.06,280.77c27.29-94.41,135.4-164.92,264.63-164.92S833,186.36,860.32,280.77Z"/><path class="cls-17" d="M512.58,242.92a113.57,113.57,0,0,0-109.18,82.3H621.76A113.57,113.57,0,0,0,512.58,242.92Z"/><path class="cls-17" d="M384.81,268.42a78.38,78.38,0,0,0-75.34,56.8H460.16A78.39,78.39,0,0,0,384.81,268.42Z"/></g><g class="cls-3"><path class="cls-6" d="M909.49,371.63A62.67,62.67,0,0,1,969.73,417H849.25A62.66,62.66,0,0,1,909.49,371.63Z"/><path class="cls-6" d="M615.87,350.14A92.32,92.32,0,0,1,704.61,417H527.14A92.3,92.3,0,0,1,615.87,350.14Z"/><path class="cls-6" d="M891.26,417c-13.6-47.08-67.52-82.25-132-82.25S640.91,370,627.3,417Z"/></g><g class="cls-3"><path class="cls-18" d="M72.87,1498.6a124.1,124.1,0,0,0-119.3,89.94h238.6A124.1,124.1,0,0,0,72.87,1498.6Z"/><path class="cls-18" d="M-66.75,1526.47a85.65,85.65,0,0,0-82.33,62.07H15.58A85.63,85.63,0,0,0-66.75,1526.47Z"/><path class="cls-18" d="M110.71,1588.54c16-55.45,79.53-96.87,155.43-96.87s139.41,41.42,155.44,96.87Z"/></g><g class="cls-3"><path class="cls-19" d="M1543,1669.88a34.25,34.25,0,0,1,32.92,24.82h-65.85A34.26,34.26,0,0,1,1543,1669.88Z"/><path class="cls-19" d="M1581.55,1677.57a23.64,23.64,0,0,1,22.72,17.13h-45.44A23.65,23.65,0,0,1,1581.55,1677.57Z"/><path class="cls-19" d="M1532.58,1694.7c-4.43-15.3-21.95-26.73-42.9-26.73s-38.47,11.43-42.9,26.73Z"/></g><g class="cls-3"><path class="cls-6" d="M-32.17,1556.81a64.24,64.24,0,0,1,61.75,46.55H-93.91A64.24,64.24,0,0,1-32.17,1556.81Z"/><path class="cls-6" d="M40.09,1571.24a44.32,44.32,0,0,1,42.61,32.12H-2.52A44.34,44.34,0,0,1,40.09,1571.24Z"/></g><g class="cls-3"><path class="cls-17" d="M1843.19,842.62a62.27,62.27,0,0,0-59.86,45.13h119.72A62.26,62.26,0,0,0,1843.19,842.62Z"/><path class="cls-17" d="M1773.14,856.6a43,43,0,0,0-41.31,31.15h82.62A43,43,0,0,0,1773.14,856.6Z"/><path class="cls-17" d="M1862.18,887.75c8-27.83,39.9-48.61,78-48.61s69.95,20.78,78,48.61Z"/></g><g class="cls-3"><path class="cls-16" d="M1048.65,420.45a26.56,26.56,0,0,1,25.53,19.25h-51.07A26.56,26.56,0,0,1,1048.65,420.45Z"/><path class="cls-16" d="M924.17,411.34a39.13,39.13,0,0,1,37.62,28.36H886.56A39.13,39.13,0,0,1,924.17,411.34Z"/><path class="cls-16" d="M1040.92,439.7c-5.77-20-28.63-34.87-56-34.87s-50.18,14.91-56,34.87Z"/></g><g class="cls-3"><path class="cls-11" d="M521.83,634.8c-22.46-7.39-58,10.85-57.07,36.66.08,2.43.44,4.91-.2,7.25-1,3.68-4.27,6.26-7.53,8.26-7.31,4.48-15.69,7.42-21.95,13.28-10,9.39-12.32,26.17-4.69,37.58,7.07,10.56,31.21,20.17,43.69,17.83s23.25-10.8,30.39-21.3c1.79-2.62,3.41-5.42,5.79-7.5,4.42-3.87,10.69-4.68,15.9-7.4,4.86-2.54,4.53-13.3,6.62-18.37,2.7-6.56-3.52-12.48-1.57-19.29,2.3-8,7.77-15.09,8.26-23.38C540.1,647.87,531.87,638.11,521.83,634.8Z"/><path class="cls-7" d="M673.7,659.43a12,12,0,0,0,10.59-1.08c8.14-5.12,23.17-15.29,24-21.14,1.21-8.05-27.16,4.37-36.63,21.46Z"/><path class="cls-7" d="M680.66,661.08c-14.1,17.21-50.3,49.92-62.65,56.75-10.24,5.66-13.52-.64-13.74-.86-2.55-2.53-2.06-9.27,1.18-12l68.11-51.78Z"/><path class="cls-7" d="M513,700.4c-11.9-5.37-6.05-14.9-6-15.23.57-3.87,7.54-7,12.19-5.95l102.53,29.19c1.69.31,1.23,3.12,1,4.83a3,3,0,0,1-.65,1.5c-1.86,3.58-6.67,5.9-10.8,6C589.74,720.93,528.45,707.39,513,700.4Z"/><path class="cls-7" d="M540.25,1174.38s-3.47,11.79-1.39,12.48,50.63,2.77,54.09.69S586,1182,586,1182s-22.88-6.24-36.06-7.62C550,1174.38,540.25,1173.68,540.25,1174.38Z"/><path class="cls-7" d="M533.53,1014.19c2.78-5.55,5.92-8.32,11.1-8.32a10,10,0,0,1,10,10.39l-5.41,158.49a4.64,4.64,0,0,1-9.27,0l-.23-6.85C530.86,1059.43,525.21,1034.3,533.53,1014.19Z"/><path class="cls-7" d="M516.39,874c4-18.56,13.87-21.71,20.73-21.47a10.89,10.89,0,0,1,1.41-.21A10.06,10.06,0,0,1,549.27,862l5.47,158.48a4.63,4.63,0,0,1-4.32,4.79,4.57,4.57,0,0,1-2.33-.45,16.08,16.08,0,0,1-11.47-11.92C529.63,982.44,511.25,898.1,516.39,874Z"/><path class="cls-7" d="M515.82,881.5c-3.08-18.72-12.84-22.33-19.7-22.41a10.66,10.66,0,0,0-1.41-.28A10.06,10.06,0,0,0,483.54,868L470.68,1026a4.63,4.63,0,0,0,6.45,4.64,16.09,16.09,0,0,0,12-11.36C497.53,989.25,519.83,905.85,515.82,881.5Z"/><path class="cls-7" d="M484.62,1175.65s3.2,11.86,1.11,12.51-50.67,1.65-54.09-.51,7.05-5.39,7.05-5.39,23-5.73,36.22-6.83C474.91,1175.43,484.63,1175,484.62,1175.65Z"/><path class="cls-10" d="M475.52,875.1c-1.81.27,1.48-60.43,4-66.79-2.4-26.53-3.19-77.18,1.42-99.22,5.78-27.69,10.48-37.17,36-31,8,2,14.7,21.87,17.81,36.63s6.56,16,.21,42.68c-2.25,9.47,8,70.14,13.26,87.07,1.51,4.87,2.17,21.3,5.09,26.34-3.12,2.29-7.08,4.95-10.49,5.82C519.46,882.64,499.62,871.5,475.52,875.1Z"/><path class="cls-7" d="M475.54,692.9c8.33-8.6,15.72-.41,16-.26,3.49,1.75,4.56,8.84,2.28,12.53l-55.58,79.66c-.75,1.37-3.29,0-4.82-.72a3.4,3.4,0,0,1-1.25-1.05c-2.87-2.79-3.74-7.72-2.65-11.33C435.18,753,464.71,704.08,475.54,692.9Z"/><path class="cls-11" d="M501.51,669.31s-17.72-6.79-18.77-24.76c-1.41-24.12,23.2-35.46,36.26-27.25,12,7.55,9.72,17.92,8.24,20.46S501.51,669.31,501.51,669.31Z"/><path class="cls-7" d="M496.24,646.49l19.33-1.36c.19,2.64,1.53,27.84.3,37.29-.79,2.9-5.63,4.1-10.82,2.7-4.66-1.27-8-4.21-8.05-6.9h0C497.72,672.55,496.89,655.74,496.24,646.49Z"/><path class="cls-7" d="M497.6,649.3c2.93,15.26,15.94,25.59,25.26,23.8s11.44-15,8.51-30.28-12-21.57-21.3-19.78S494.68,634.05,497.6,649.3Z"/><path class="cls-11" d="M521.37,621.45s-3.89,20.43-22.87,27.32c-9.78,3.54-12.91-11.87-12.91-11.87l9.7-14.59s7.89-6.18,13.88-5.52C509.69,616.84,521.37,621.45,521.37,621.45Z"/><path class="cls-11" d="M528.27,633.2s-17-6.23-19.5-12.17,6.25-5.16,6.25-5.16A22.44,22.44,0,0,1,528.27,633.2Z"/><path class="cls-11" d="M501.13,620s7.75-5.94,2.58-13.17-14.17-4.55-16.27,1c-2.32,6.2.78,10.07,3.36,11.88A10.47,10.47,0,0,0,501.13,620Z"/><path class="cls-20" d="M569.15,1176.66c-5,2.2-13.38,3.65-22.84,3.65a85.23,85.23,0,0,1-8.66-.43c-.63,4.29-.9,9.28,1.18,9.52,3.66.42,56.44,2,56.75-.42C596.19,1184.14,582,1179.53,569.15,1176.66Z"/><path class="cls-7" d="M491.93,1016.5c-2.61-5.92-5.67-8.93-10.85-9.07-5.68-.15-10.37,4.69-10.34,10.69l.88,167.16a4.64,4.64,0,1,0,9.27.25l.43-7.21C493.31,1064.25,499.68,1037.92,491.93,1016.5Z"/><path class="cls-20" d="M455.67,1177.29c5,2.31,13.3,3.94,22.76,4.15,3,.07,5.93,0,8.66-.23.54,4.3.7,9.29-1.38,9.49-3.67.34-56.47.77-56.73-1.68C428.48,1184.17,442.74,1179.87,455.67,1177.29Z"/><path class="cls-7" d="M489.46,683l26.92,52.32,3.83-55.6L527,684.2l14.21,43.6s3.53,18.3,0,29.84,23.16,156.87,21.52,238.09H546.38l-9-63.15,1.69,69.49-72.38-4.27s4.86-155.08,5.92-189.73c2.39-78.51,6-117.93,6-117.93C485.63,684.2,489.46,683,489.46,683Z"/><path class="cls-7" d="M456.24,856.21a12.1,12.1,0,0,1,2.38,3.3c4.21,8.64,11.59,25.21,9.24,30.65-3.07,7.11-19.06-15.64-19.77-34.67Z"/><path class="cls-7" d="M490.09,654.9c1.51,3.55,7,6.59,9.54,5.49s2-4.25.47-7.8-5-6-7.58-4.88S488.57,651.35,490.09,654.9Z"/><path class="cls-7" d="M458.18,858.13c.46-22.24-5.79-70.63-10.73-83.84-4.1-11-10.7-8.31-11-8.28-3.58.26-7.59,5.7-6.93,9.92l18.11,83.61Z"/></g><g class="cls-3"><path class="cls-15" d="M1483.23,1049.52c18.3,19.93,29.38,45.08,29.38,70.19a76,76,0,0,1-9.7,37.78c-14,24.92-42.13,41.88-76.63,48.4,8.31,15.35,13,31.91,13,48.46a83.19,83.19,0,0,1-2,18.28c-11.27,50-68.86,80.26-138.22,80.26-4.75,0-9.43-.15-14-.42-2.87,26.45-30,42.61-63,42.61-26.22,0-48.71-10.2-58.29-27.66q-17.77,3-36.9,5.24c-176.4,20.47-398.94-51.31-400.66-216.48,0-.65,0-1.29,0-1.94,0-54.1,17.29-110.75,46.68-163.55C817,911.37,888.5,840.79,969.7,800.82c11.3-47.32,59.23-89.37,116.65-89.37,42.1,0,79.11,22.61,100.3,53.33,16.88-16,40-26.63,65.63-26.63,48.75,0,88.78,38.65,93.09,79.35a75.21,75.21,0,0,1,12.64-1.09c42,0,76,35.25,76,70.42a48.56,48.56,0,0,1-6.13,24c47.52,4.55,84.7,45.39,84.7,86.14C1512.61,1019.4,1501.33,1037.4,1483.23,1049.52Z"/><path class="cls-17" d="M1483.23,1049.51c18.31,19.94,29.39,45.09,29.39,70.19a76,76,0,0,1-9.71,37.79c-14,24.92-42.13,41.88-76.63,48.4,8.31,15.34,12.94,31.92,12.94,48.46a82.53,82.53,0,0,1-2,18.28c-11.27,50-68.85,80.26-138.2,80.26q-7.12,0-14-.43c-2.87,26.47-30,42.61-63,42.61-26.22,0-48.72-10.19-58.3-27.64q-17.79,3-36.9,5.23c-140.58,16.32-310.48-26-374.54-127.42A653.51,653.51,0,0,0,923,1267.72c249,0,462.84-138.37,555.58-336.09,20.78,16.65,34,41,34,65.32C1512.62,1019.4,1501.33,1037.4,1483.23,1049.51Z"/><path class="cls-21" d="M1202.66,1057.05c0,158.09-79.41,273-318.94,299.36C706.63,1375.92,483,1307.17,483,1149.08S647,809.73,823.34,783.92C1023.87,754.57,1202.66,899,1202.66,1057.05Z"/><path class="cls-14" d="M1156.35,1057.29c0,53.07-8.07,101.52-26.81,143.81a242,242,0,0,1-48.9,72.29c-32.58,33.19-77,59.54-135.69,77.57-2,27.35-29.47,44.12-63.09,44.12-19.85,0-37.55-5.85-49.14-16.26-10,23.7-38.54,37.73-72.25,37.73-33,0-61-13.42-71.58-36.21-16.84,18.19-45.13,28.52-77.21,28.52-51.63,0-93.48-26.73-93.48-70a73.11,73.11,0,0,1,4.18-24,135.9,135.9,0,0,1-31.84,3.66c-51.63,0-93.48-26.73-93.48-70,0-19,8.09-38,21.52-53.33.54-.64,1.12-1.28,1.69-1.9-29.63-15.09-48.89-40.6-48.89-73.7a93.49,93.49,0,0,1,6-32.37c8.46-22.92,25.39-43.81,47.47-58.18A59.52,59.52,0,0,1,415.68,997c0-43.22,41.86-86.56,93.48-86.56q3,0,6,.2a48.48,48.48,0,0,1-6-23.76c0-35.17,34.05-70.42,76-70.42A76.49,76.49,0,0,1,623.73,827c0-.75,0-1.5,0-2.25,0-43.22,41.85-86.56,93.47-86.56A93.8,93.8,0,0,1,762.56,750c21.8-22.92,53.27-38.54,88.27-38.54,54.58,0,100.6,38,114.7,82.41C1077.38,842.3,1156.35,946.6,1156.35,1057.29Z"/><path class="cls-22" d="M440.57,1308.89a648.51,648.51,0,0,0,70.67,8.2,139.46,139.46,0,0,1-20.7,1.51C472.16,1318.6,455,1315.22,440.57,1308.89Z"/><path class="cls-17" d="M1156.35,1057.29c0,53.08-8.08,101.52-26.8,143.81a242.25,242.25,0,0,1-48.91,72.3c-32.58,33.17-77,59.53-135.68,77.57-2,27.34-29.47,44.1-63.1,44.1-19.84,0-37.55-5.85-49.14-16.25-10,23.7-38.54,37.72-72.25,37.72-33,0-61-13.42-71.58-36.19-16.83,18.19-45.13,28.51-77.21,28.51-51.63,0-93.47-26.74-93.47-69.95a72.17,72.17,0,0,1,3.27-21.25q15.27.69,30.74.7c266.86,0,493.34-158.95,573.64-379.52C1145.39,975.74,1156.35,1016.07,1156.35,1057.29Z"/><path class="cls-23" d="M568.29,1053.26s-6.91-107.73,95-121.8,129.52,77.91,129.52,77.91S646,912.8,568.29,1053.26Z"/><path class="cls-23" d="M790.63,895.7s11.23-60.44,75.13-63,73.4,50.08,73.4,50.08,8.64-32.81,44-37.13c0,0-44.23,51.24-32.81,75.13C950.39,920.75,878.71,820.58,790.63,895.7Z"/><path class="cls-23" d="M1245.81,1073.84s22.46-67.36,92.41-51.81c0,0-8.67-33.25,22-59.15,0,0-35,6.47-40.14,35C1320.08,997.85,1233.73,977.56,1245.81,1073.84Z"/><path class="cls-22" d="M522.38,1315c-.31.89-.62,1.8-.9,2.71-3.41-.15-6.84-.34-10.24-.57Q517,1316.27,522.38,1315Z"/></g><path class="cls-24" d="M1147.88,1133.53c-113.7,88.92-258.77,4.76-258.77,4.76-200.24,113.77-517.73,47.94-517.73,47.94"/><path class="cls-24" d="M1189.88,705.49S1166.4,896,1236,943.57c88.59,60.55,241.33-56.35,241.33-56.35"/><path class="cls-24" d="M767.56,798.64a234.72,234.72,0,0,1-23.25,92.69"/><path class="cls-24" d="M1363.92,792.45s-61.53,65.55-72.18,168.42"/><path class="cls-24" d="M561.1,1207.76s5.76,95.9-99.78,148.66"/><path class="cls-24" d="M889.11,1138.29S871.18,910.65,577.5,792.45"/><path class="cls-24" d="M1451.85,1206.14s-161.45,34.13-304-72.61"/><path class="cls-25" d="M1370.86,899.58h-14.08l-2.49,6.46h-12.7l16.19-37h12.28l16.19,37h-12.91Zm-3.44-9-3.6-9.32-3.6,9.32Z"/><path class="cls-26" d="M644.53,1078.18c0,6.46-5.45,10.21-15.67,10.21H608v-37H627.8c10.22,0,15,4.07,15,9.68a8.64,8.64,0,0,1-5.13,8C642,1070.61,644.53,1073.79,644.53,1078.18Zm-24.24-18.1v5.5h5.82c2.8,0,4.07-.95,4.07-2.75s-1.27-2.75-4.07-2.75Zm11.64,16.67c0-1.9-1.37-2.91-4.13-2.91h-7.51v5.82h7.51C630.56,1079.66,631.93,1078.66,631.93,1076.75Z"/><path class="cls-27" d="M923.37,537c0-11.38,8.73-19.37,20.64-19.37,7.25,0,13,2.65,16.62,7.41l-7.89,7c-2.17-2.76-4.76-4.34-8.09-4.34-5.19,0-8.68,3.6-8.68,9.26s3.49,9.26,8.68,9.26c3.33,0,5.92-1.59,8.09-4.34l7.89,7c-3.65,4.76-9.37,7.41-16.62,7.41C932.1,556.35,923.37,548.36,923.37,537Z"/><path class="cls-28" d="M726.15,804v9.42h-30.8v-37h30.11v9.42H707.63v4.34h15.66v9H707.63V804Z"/><path class="cls-29" d="M473.34,1245.15v6.35h15.45v9.42H473.34v11.85H460.85v-37H491v9.42Z"/><g class="cls-3"><path class="cls-7" d="M786.58,1152c-12.82-5-7.17-15.37-7.13-15.72.39-4.11,7.56-7.8,12.51-6.92l109.52,25.25c1.8.23,5.23,6.75,5,8.56a3.22,3.22,0,0,1-.6,1.61c-1.77,3.88-10.46,3.48-14.81,3.32C869.77,1167.26,803.25,1158.49,786.58,1152Z"/><path class="cls-30" d="M799,1449.44c4.5-4.61,8.49-6.36,13.62-4.72a10.45,10.45,0,0,1,6.65,13.47l-55.55,155.16a4.82,4.82,0,0,1-9.17-2.94l1.93-6.85C782,1493.37,784.4,1466.71,799,1449.44Z"/><path class="cls-6" d="M760.14,1306.27c1.31-19.68,11-24.39,18.13-25.16a10.79,10.79,0,0,1,1.43-.43,10.46,10.46,0,0,1,12.48,8.37l29.14,162.19a4.82,4.82,0,0,1-6.2,5.45,16.72,16.72,0,0,1-13.56-10.55C789.86,1415.88,758.44,1331.85,760.14,1306.27Z"/><path class="cls-30" d="M743.52,1449.44c4.5-4.61,8.49-6.36,13.62-4.72a10.45,10.45,0,0,1,6.65,13.47l-55.55,155.16a4.82,4.82,0,0,1-9.18-2.94l1.94-6.85C726.55,1493.37,728.91,1466.71,743.52,1449.44Z"/><path class="cls-6" d="M727.43,1302.16c4.47-19.21,14.84-22.28,22-21.9a10.32,10.32,0,0,1,1.48-.19,10.44,10.44,0,0,1,11,10.27l2.57,164.78a4.81,4.81,0,0,1-7,4.37,16.72,16.72,0,0,1-11.68-12.6C739.06,1415.13,721.62,1327.14,727.43,1302.16Z"/><path class="cls-8" d="M701.35,1612.66a23.07,23.07,0,0,0,8.5-1.33c12.36,1.73,37.52,7.53,36.74,13.71-.29,2.27-49.38.78-52.79.39-2.4-.28-1.42-7.39-.63-11.56a2.16,2.16,0,0,1,2.55-1.71A29.52,29.52,0,0,0,701.35,1612.66Z"/><path class="cls-8" d="M758.86,1612.66a23.07,23.07,0,0,0,8.5-1.33c12.36,1.73,37.52,7.53,36.74,13.71-.28,2.27-49.38.78-52.79.39-2.4-.28-1.42-7.39-.63-11.56a2.16,2.16,0,0,1,2.55-1.71A29.52,29.52,0,0,0,758.86,1612.66Z"/><path class="cls-31" d="M790.74,1274.43s32.11,157.75,32.58,169.69-2.45,19.16-6.06,28-42.44,117.77-42.44,117.77L760.07,1588s15.79-116,37.54-142.11c0,0-55-158.14-55-171.43Z"/><path class="cls-31" d="M705.76,1582.84l13.69,3.42s47.31-123.21,47-129.34,0-182.49,0-182.49L725,1276.54s-7.49,74.88,17.7,169.72C742.65,1446.26,725.06,1453.26,705.76,1582.84Z"/><path class="cls-30" d="M947.82,1081.51A12.66,12.66,0,0,0,959,1081c8.85-4.94,25.22-14.82,26.47-20.94,1.71-8.41-28.84,3.11-39.75,20.59Z"/><path class="cls-7" d="M725.57,1257.12c.13-3.82.31-7.56.57-11.21.16-2.41.34-4.8.55-7.13.46-5.31,1-10.45,1.74-15.49.34-2.38.71-4.75,1.09-7.09.94-5.78,2-11.37,3.26-16.82.53-2.35,1.06-4.66,1.65-7a286.38,286.38,0,0,1,14.1-41.9,159.32,159.32,0,0,1,10-19.83,26.33,26.33,0,0,1,44.77-.56l2.27,3.56a29.47,29.47,0,0,1,.91,30c-5.65,10.43-10.37,26.51-12.25,52.74-.12,1.61-.22,3.25-.32,4.94-.12,2.41-.22,4.87-.33,7.43q-.16,5.4-.21,11.3c0,2.37,0,4.79,0,7.28,0,4.4.13,9,.3,13.8.05,1.34.1,2.7.16,4.08,0,1.06.08,2.14.13,3.23.1,2.57.24,5.24.39,8,.14,2.37.28,4.78.45,7.25.22,3.31.46,6.72.73,10.21-7.16,1.06-15-.14-22-2.28-11.8-3.59-23.25-9.39-35.59-9.6a91.36,91.36,0,0,0-12.34,1q-.32-9.66-.18-18.8C725.42,1261.84,725.49,1259.46,725.57,1257.12Z"/><path class="cls-7" d="M956.08,1082.5c-8.25,22-33.27,66.91-43.28,77.91-8.3,9.12-13.72,3.95-14,3.81-3.4-1.66-5.2-8.55-2.9-12.42L946.3,1077Z"/><path class="cls-7" d="M775.55,1147.56c10.91-8.4,2.59-16.75,2.46-17.08-1.52-3.84-9.43-5.38-14-3.15l-98.12,54.82c-1.66.72-.5,3.5.17,5.19a3.25,3.25,0,0,0,1,1.38c2.78,3.23,8.28,4.44,12.52,3.49C701.76,1187.24,761.37,1158.49,775.55,1147.56Z"/><path class="cls-7" d="M819.88,1405.46l-17,2.87-15.73-58.27,8.34,61.55S739.13,1431,726.27,1426c0,0-10-158.83,2.31-185.91l65.08,21.12S810.73,1378.3,819.88,1405.46Z"/><rect class="cls-11" x="752.52" y="1206.05" width="11.05" height="130.15" transform="translate(-356.03 2245.42) rotate(-100.36)"/><rect class="cls-17" x="728.4" y="1227.71" width="17.71" height="94.45" transform="translate(-384.3 2229.45) rotate(-100.36)"/><path class="cls-11" d="M874.38,1179a69.71,69.71,0,1,0,81.11,56A69.73,69.73,0,0,0,874.38,1179Zm1.13,6.18a63.43,63.43,0,1,1-51,73.81A63.43,63.43,0,0,1,875.51,1185.17Z"/><circle class="cls-32" cx="886.92" cy="1247.57" r="63.43" transform="translate(-244.03 216.06) rotate(-12.22)"/><path class="cls-30" d="M738,1242.84a12.62,12.62,0,0,1,10.54,3.88c7,7.35,19.65,21.68,19,27.88-.88,8.54-26.6-11.58-31.79-31.52Z"/><path class="cls-7" d="M745,1244.48c-14.44-18.5-51.76-53.9-64.6-61.4-10.65-6.23-14.27.33-14.51.55-2.75,2.6-2.4,9.72.95,12.72l70.47,56.3Z"/><path class="cls-33" d="M792.18,1122.53s10.52,5.14,3.42,24.63-9.2,27.28-9.2,27.28-13.64-41.69-10.63-49.66S792.18,1122.53,792.18,1122.53Z"/><path class="cls-11" d="M832.6,1088.74c.32-1.74-.56-3.59-.52-5.31s1-3.58.76-5.29-1.64-3.23-2.14-4.89-.16-3.7-.92-5.27-2.56-2.55-3.55-4-1.29-3.46-2.5-4.72-3.21-1.64-4.6-2.71-2.28-2.89-3.83-3.72-3.55-.56-5.22-1.14-3.05-2-4.8-2.35-3.6.56-5.32.52-3.57-1-5.29-.76-3.23,1.64-4.89,2.15-3.69.16-5.26.91-2.56,2.56-4,3.56-3.46,1.28-4.73,2.49-1.64,3.21-2.7,4.61-2.89,2.28-3.72,3.83-.56,3.55-1.14,5.22-2,3-2.35,4.79.56,3.6.52,5.32-1,3.58-.76,5.29,1.64,3.23,2.14,4.89.16,3.7.92,5.27,2.55,2.55,3.55,4,1.28,3.46,2.49,4.72,3.22,1.64,4.61,2.7,2.28,2.89,3.83,3.73,3.55.56,5.22,1.14,3.05,2,4.8,2.35,3.59-.56,5.32-.52,3.57,1,5.28.76,3.23-1.64,4.9-2.15,3.69-.16,5.26-.91,2.56-2.56,4-3.56,3.46-1.28,4.73-2.49,1.64-3.21,2.7-4.61,2.89-2.28,3.72-3.83.56-3.55,1.14-5.22S832.28,1090.49,832.6,1088.74Z"/><path class="cls-11" d="M818.28,1121.79s4.34-6.48,2.58-13.54-5.69-.37-5.69-.37Z"/><path class="cls-11" d="M777.74,1095.92c.2.76,2.2,14.8,4.34,15.52,2.94,1,4.29-9.22,4.29-9.22Z"/><path class="cls-11" d="M821.47,1088.51s4.56-5.77,3.13-11c-1.37-4.93-4.5-10.55-22.19-11.1a5.27,5.27,0,0,0-5.29,4.14l-1.52,7Z"/><path class="cls-30" d="M786.57,1093.9c-.75,10.43-.61,19.12,4.82,24.83a20.18,20.18,0,0,0,7.62,5.11,19.92,19.92,0,0,0,6.82,1.25c6.65.1,10.54-2.54,12.9-7,2.71-5.16,3.43-12.77,4.07-21.51,1.19-16.36-6.32-25.28-16.32-26S787.76,1077.53,786.57,1093.9Z"/><path class="cls-30" d="M785.24,1094.6l17,3c-.41,2.33-4.68,24.36-7.78,32.24-1.3,2.33-5.74,2.33-9.91,0-3.76-2.1-6-5.35-5.46-7.69h0C780.9,1117.4,783.81,1102.72,785.24,1094.6Z"/><path class="cls-11" d="M777.94,1097.11a8.22,8.22,0,0,0,8.26-.79c5.65-3.86,12.19-13.49,14.32-18.06,3.75-8,1.78-10.81,1.78-10.81s-16.44-2.19-21,2.45C774.35,1076.85,777.94,1097.11,777.94,1097.11Z"/><path class="cls-11" d="M793,1086.41l-1.75,23.88a6.3,6.3,0,0,0,3.39,6.07l2.58,1.33a2.84,2.84,0,0,0,4-1.74l1.35-4.7a2.46,2.46,0,0,1,2.35-1.78l10.86,0a2.46,2.46,0,0,1,2.41,1.94l1,4.72a7.83,7.83,0,0,1-7.12,9.45l-6.61.46a8.72,8.72,0,0,1-4.1-.73l-.3-.13-.17-.09h0l-2-1h0l-6.51-3.35a11.17,11.17,0,0,1-6-10.73l1.75-23.88Z"/><path class="cls-30" d="M779.21,1093.79c-.28,3.55,2.89,8.35,5.46,8.55s3.43-2.62,3.7-6.17-1.55-7-4.11-7.22S779.48,1090.25,779.21,1093.79Z"/><path class="cls-11" d="M799.76,1074.48l10.54.86a14.74,14.74,0,0,1,9.32,4.37l3.38,3.44-4.13-10.26-8.22-3.86-10.82-.07Z"/></g><g class="cls-3"><circle class="cls-11" cx="1284.65" cy="824.91" r="11.51"/><line class="cls-34" x1="1284.65" y1="824.91" x2="1284.65" y2="584.64"/><path class="cls-11" d="M1278.89,584.64a5.76,5.76,0,1,1,5.76,5.75A5.76,5.76,0,0,1,1278.89,584.64Z"/><path class="cls-21" d="M1464.46,643.45c12.89-10,22.18-23.33,24.31-34.52-3.47,1.41-19.32,5.57-32,5.75-12.17.18-28.64-1.86-49.46-9.26-48.43-17.22-91.26-19.17-127.33-5.8-1,.38-2,.76-3,1.15v60.56l.74.56c0-.06,6.86-7.45,20.68-12.57,30-11.13,66.13-2.86,91.15,6,25.89,9.21,47.84,12.3,65.65,12.3h1.56c32.27-.33,50.52-10.79,53.42-12.59v0C1481,653.24,1464.46,643.45,1464.46,643.45Z"/></g><g class="cls-3"><path class="cls-11" d="M887.84,899.82a5.75,5.75,0,1,1,7.62,2.84A5.75,5.75,0,0,1,887.84,899.82Z"/><line class="cls-34" x1="994.07" y1="1118.16" x2="894.09" y2="899.67"/><path class="cls-6" d="M1016.32,893.18A137.61,137.61,0,0,1,1032,865.11c-5.42,1-11.31,1.85-17.76,2.42-51.2,4.49-91,20.54-118.19,47.7-.77.77-1.52,1.53-2.24,2.29L919,972.59l.91.2c0-.07,3.14-9.62,13.57-20,22.65-22.6,59-30.12,85.4-32.44a224.68,224.68,0,0,0,32.56-5.19C1029.53,897.46,1016.32,893.18,1016.32,893.18Z"/></g><g class="cls-3"><path class="cls-11" d="M505.52,928.33a5.76,5.76,0,1,1,5.75,5.76A5.75,5.75,0,0,1,505.52,928.33Z"/><circle class="cls-11" cx="511.27" cy="1168.61" r="11.51"/><line class="cls-34" x1="511.27" y1="1168.61" x2="511.27" y2="928.33"/><path class="cls-21" d="M679,980.27c7.57-4.45,18.4-15.14,27.17-24.51v-1c-4,1.44-11.56,3.45-22.72,3.61-12.17.18-28.64-1.86-49.46-9.26-48.43-17.22-91.26-19.17-127.33-5.8-1,.38-2,.76-3,1.15V1005l.74.56c.05-.06,6.86-7.45,20.68-12.57,30-11.13,66.13-2.86,91.15,6,25.89,9.21,47.84,12.3,65.65,12.3h1.56a138.44,138.44,0,0,0,22.44-2C686.6,996.9,679,980.27,679,980.27Z"/></g><g class="cls-3"><rect class="cls-35" x="690.67" y="537.92" width="35.39" height="202.44" transform="matrix(0.92, -0.38, 0.38, 0.92, -189.85, 317.45)"/><path class="cls-6" d="M730.53,739.5l.48.46,18.25,17.67,13.4-5.51.54-25.4,0-.66v0h0a8.09,8.09,0,0,0-10.9,4.46A8.09,8.09,0,0,0,741.42,735a8.1,8.1,0,0,0-10.88,4.5h0Z"/><path class="cls-35" d="M749.27,757.63h0l11.8,11.43a.75.75,0,0,0,1.26-.52l.34-16.08h0l.06-2.2c-.15,0-.29.1-.44.15a5.19,5.19,0,0,1-7,2.87,5.19,5.19,0,0,1-7,2.86l-.41.2Z"/></g><g class="cls-3"><path class="cls-30" d="M1167,1308.68c-9.68-15.63-19.75-15.25-25.92-12.79a9.09,9.09,0,0,0-1.36.27,9.73,9.73,0,0,0-6.62,12.33l46.83,146.27a4.49,4.49,0,0,0,7.49,1.78,15.59,15.59,0,0,0,6.56-14.61C1190.4,1411.9,1179.57,1329,1167,1308.68Z"/><path class="cls-30" d="M1270.91,1587.51s8.83,8,7.46,9.6-40.39,27.92-44.31,28S1237,1617,1237,1617s15.73-16.74,25.91-24.56C1262.89,1592.42,1270.56,1586.94,1270.91,1587.51Z"/><path class="cls-30" d="M1199.85,1448.87c-5-3.35-9-4.19-13.32-1.72a9.73,9.73,0,0,0-3.51,13.56l80.19,131a4.49,4.49,0,0,0,7.81-4.43l-3.07-5.88C1223.68,1485.72,1216.46,1461.85,1199.85,1448.87Z"/><path class="cls-20" d="M1248.2,1604c5.26-.72,12.89-3.76,20.7-8.55a82.29,82.29,0,0,0,6.94-4.73c2.69,3.22,5.44,7.2,3.85,8.45-2.81,2.21-45.58,30.25-47.08,28.38C1229.66,1623.89,1239,1612.91,1248.2,1604Z"/><path class="cls-36" d="M1175.84,1315.91s18.34,71.74,21.7,128.29c0,0,20.18-2,69.6,127.89l-13.46,7.86s-75.78-119.85-77.78-125.25S1128,1302.55,1128,1302.55l30.07-5.09Z"/><path class="cls-30" d="M1115.2,1611.91s3.36,11.41,1.34,12.09-49,2.68-52.38.67,6.71-5.38,6.71-5.38,22.17-6,34.93-7.38C1105.8,1611.91,1115.2,1611.24,1115.2,1611.91Z"/><path class="cls-30" d="M1121.71,1456.76c-2.69-5.37-5.73-8.06-10.75-8.06a9.74,9.74,0,0,0-9.73,10.07l5.24,153.5a4.49,4.49,0,0,0,9,0l.23-6.63C1124.29,1500.58,1129.77,1476.24,1121.71,1456.76Z"/><path class="cls-30" d="M1137.51,1321c-3.83-18-13.43-21-20.08-20.79a10,10,0,0,0-1.37-.2,9.73,9.73,0,0,0-10.39,9.38l-5.3,153.49a4.48,4.48,0,0,0,6.44,4.2,15.58,15.58,0,0,0,11.11-11.54C1124.69,1426,1142.48,1344.33,1137.51,1321Z"/><path class="cls-20" d="M1087.21,1614.11c4.87,2.14,13,3.54,22.12,3.54a82.67,82.67,0,0,0,8.38-.41c.61,4.15.88,9-1.13,9.22-3.55.41-54.67,2-55-.41C1061,1621.37,1074.74,1616.9,1087.21,1614.11Z"/><path class="cls-36" d="M1105.4,1310.6s-9.31,128.27-7.65,156.88,6.07,131.32,6.07,131.32l15.55-.23s15.1-118.38,4.33-146.6c0,0,22.09-97.51,19-138.65Z"/><path class="cls-30" d="M1000.78,1033.14a11.59,11.59,0,0,0,.72-10.29c-3.53-8.61-10.75-24.63-16.19-26.43-7.49-2.49-.33,26.64,14.42,38.51Z"/><path class="cls-7" d="M1003.94,1028.08c13.42,16.87,37,57.81,41,70.88,3.28,10.85-3.36,12.68-3.61,12.84-2.91,1.9-9.19.07-11.16-3.57l-35.14-75Z"/><path class="cls-7" d="M1177.42,1321.84c1.9.61,1-38.52-3.54-66.53,1-24.28-5.49-82.21-11-99.76-7-22-18-34.12-36.33-25.31-5.77,2.77-11.25,19-13.69,36.28s-5.86,13.8,3.64,39.11c2.66,7.08-2,46.32-6.2,70.57-1.13,6.58-2.22,12.06-3.12,15.49-1.21,4.63-3,20.38-5.27,25.26a41.09,41.09,0,0,0,10.23,5.49C1137.41,1331.63,1152.08,1313.64,1177.42,1321.84Z"/><path class="cls-7" d="M1118.12,1157.13c12.18,3.39,13.74-7.33,13.91-7.6,2-3.23-1.24-9.9-5.36-12l-94.35-41.94c-1.45-.82-2.85,1.56-3.73,3a3.12,3.12,0,0,0-.45,1.52c-.84,3.82,1.3,8.53,4.34,11.12C1048.3,1124.74,1102.27,1152.72,1118.12,1157.13Z"/><path class="cls-30" d="M1200.77,1110.46a11.62,11.62,0,0,0,5.79-8.55c1.25-9.22,3-26.7-.77-31-5.23-5.9-13.63,22.89-6.82,40.55Z"/><path class="cls-7" d="M1144,1158.45c-9.39-6.81-2.54-15-2.44-15.32,1.2-3.59,7.85-5.58,11.71-3.9l84,42.42c1.42.54.5,3.15,0,4.73a3.33,3.33,0,0,1-.84,1.33c-2.28,3.14-6.9,4.64-10.5,4.1C1207.13,1189,1156.23,1167.31,1144,1158.45Z"/><path class="cls-7" d="M1206.18,1105.32c11.43,18.27,30.27,61.61,32.72,75,2,11.15-4.77,12.22-5,12.35-3.1,1.56-9.14-1-10.68-4.81l-26.47-78.52Z"/><path class="cls-11" d="M1141.11,1122.74s17.16-6.57,18.17-24c1.36-23.37-22.47-34.35-35.11-26.4-11.64,7.32-9.42,17.36-8,19.82S1141.11,1122.74,1141.11,1122.74Z"/><path class="cls-30" d="M1146.21,1100.64l-18.72-1.32c-.19,2.57-1.49,27-.29,36.12.76,2.81,5.45,4,10.47,2.62,4.52-1.23,7.74-4.08,7.8-6.69h0C1144.77,1125.88,1145.58,1109.6,1146.21,1100.64Z"/><path class="cls-30" d="M1144.89,1103.37c-2.84,14.78-15.43,24.78-24.46,23.05s-11.08-14.55-8.25-29.33,11.6-20.89,20.64-19.16S1147.72,1088.59,1144.89,1103.37Z"/><path class="cls-11" d="M1121.87,1076.4s4.83,22.71,22.15,26.45c9.84,2.13,12.5-11.5,12.5-11.5l-9.39-14.12s-7.64-6-13.45-5.35C1133.18,1071.93,1121.87,1076.4,1121.87,1076.4Z"/><path class="cls-11" d="M1115.19,1087.77s16.46-6,18.88-11.78-6-5-6-5A21.72,21.72,0,0,0,1115.19,1087.77Z"/><path class="cls-11" d="M1152,1083.83s-17.32-13.28-5.78-29.44,31.69-10.17,36.37,2.31c5.19,13.85-1.73,22.51-7.5,26.55S1158.94,1087.87,1152,1083.83Z"/><path class="cls-30" d="M1152.17,1108.79c-1.47,3.44-6.76,6.38-9.25,5.32s-1.92-4.12-.45-7.55,4.85-5.8,7.34-4.73S1153.63,1105.35,1152.17,1108.79Z"/><path class="cls-37" d="M1134.72,1142.57s26.57,10.58,18.42,19.22S1134.72,1142.57,1134.72,1142.57Z"/><path class="cls-37" d="M1134.72,1142.55s-6.52,27.84-16.28,21.06S1134.72,1142.55,1134.72,1142.55Z"/><path class="cls-38" d="M1136.88,1143a2.09,2.09,0,1,0-2.29,1.86A2.09,2.09,0,0,0,1136.88,1143Z"/><path class="cls-37" d="M1134.09,1142.86c1.28,4.57-.39,9.38-1.88,13.88s-2.78,9.54-.84,13.86a49.19,49.19,0,0,0,2.85,4.63,18,18,0,0,1,2.51,10"/><path class="cls-37" d="M1135.26,1143.13c1.43,3.6.45,7.66.59,11.53a19.89,19.89,0,0,0,5.93,13.37"/><path class="cls-7" d="M1080.43,1422.07l24.42,4.46,8.58-61.92v65.15s19.55,15.13,87.32-10.22c0,0-22.41-146.12-29-165.13l-59.63,10.38Z"/></g><g class="cls-3"><path class="cls-39" d="M1623.92,1580.5a52.71,52.71,0,0,1,50.67,38.21H1573.25A52.7,52.7,0,0,1,1623.92,1580.5Z"/><path class="cls-39" d="M1376.93,1562.43a77.66,77.66,0,0,1,74.65,56.28H1302.29A77.65,77.65,0,0,1,1376.93,1562.43Z"/><path class="cls-39" d="M1608.59,1618.71c-11.45-39.61-56.81-69.19-111-69.19s-99.58,29.58-111,69.19Z"/></g><circle class="cls-26" cx="1396.11" cy="1127.34" r="16.7"/><circle class="cls-26" cx="1075.35" cy="763.22" r="16.7"/><circle class="cls-26" cx="849.25" cy="918.95" r="16.7"/><circle class="cls-26" cx="1310.14" cy="1077.65" r="29.93"/><circle class="cls-26" cx="443.83" cy="1103.72" r="29.93"/></g></svg>