<svg xmlns="http://www.w3.org/2000/svg" xmlns:xlink="http://www.w3.org/1999/xlink" viewBox="0 0 5000 3500"><defs><style>.cls-1,.cls-26,.cls-27,.cls-34,.cls-41,.cls-7,.cls-9{fill:none;}.cls-2{opacity:0.05;}.cls-3{clip-path:url(#clip-path);}.cls-4{clip-path:url(#clip-path-2);}.cls-5{fill:#fff;}.cls-6{fill:#ac8a8f;}.cls-7{stroke:#cfbcbf;stroke-width:10.05px;}.cls-26,.cls-27,.cls-34,.cls-41,.cls-7,.cls-9{stroke-linecap:round;stroke-linejoin:round;}.cls-8{fill:#a37e83;}.cls-9{stroke:#cdb9bc;stroke-width:9.76px;}.cls-10{fill:#d6c6c8;}.cls-11{fill:#8c9279;}.cls-12{fill:#b7b5be;}.cls-13{fill:#777e61;}.cls-14{fill:#7e856a;}.cls-15{fill:#bec1b3;}.cls-16{fill:#534e64;}.cls-17{fill:#5a623f;}.cls-18{fill:#c6afb3;}.cls-19,.cls-22{isolation:isolate;}.cls-19{opacity:0.42;}.cls-20{clip-path:url(#clip-path-4);}.cls-21{fill:#91656b;}.cls-22{opacity:0.98;}.cls-23{clip-path:url(#clip-path-5);}.cls-24{fill:#4e5832;}.cls-25{fill:#3f4920;}.cls-26{stroke:#bfacaa;}.cls-26,.cls-27{stroke-width:22.98px;}.cls-27,.cls-41{stroke:#5a623f;}.cls-28{fill:#61312e;}.cls-29{fill:#cab4b8;}.cls-30{fill:#bfacaa;}.cls-31{fill:#d1bec1;}.cls-32{fill:#876360;}.cls-33{fill:#976c73;}.cls-34{stroke:#7fb496;stroke-width:1.07px;}.cls-35{fill:#a17b81;}.cls-36{fill:#d5c3c6;}.cls-37{fill:#4e0611;}.cls-38{fill:#9a7177;}.cls-39{fill:#5a2925;}.cls-40{clip-path:url(#clip-path-6);}.cls-41{stroke-width:14.86px;}</style><clipPath id="clip-path" transform="translate(744.57)"><rect class="cls-1" width="3510.87" height="3510.87"/></clipPath><clipPath id="clip-path-2" transform="translate(744.57)"><rect class="cls-1" x="-744.57" width="5000" height="3500"/></clipPath><clipPath id="clip-path-4" transform="translate(744.57)"><rect class="cls-1" x="870.68" y="742.49" width="101.36" height="134.34"/></clipPath><clipPath id="clip-path-5" transform="translate(744.57)"><rect class="cls-1" x="908.92" y="832.72" width="306.68" height="220.99"/></clipPath><clipPath id="clip-path-6" transform="translate(744.57)"><rect class="cls-1" x="3380.13" y="2166.37" width="146.14" height="302.96"/></clipPath></defs><g id="Layer_1" data-name="Layer 1" class="cls-2"><g class="cls-3"><g class="cls-4"><rect class="cls-5" width="5000" height="3500"/><g class="cls-4"><path class="cls-6" d="M289.29,1574.71c57.23-267.93,105.85-550.5-29.21-870.94-120-284.68-376.67-461.4-471.29-173C-277.77,733.75-190.89,1112-37.92,1357.06c34.82,55.78,295.63,376.47,351.47,272" transform="translate(744.57)"/><path class="cls-7" d="M202.7,1570.41c13,14.08-17.46-93.16-22.08-114.56-18.4-85.24-35.22-169.53-55.88-255.14C62.31,942-31.3,647-30.62,400.18" transform="translate(744.57)"/><path class="cls-7" d="M-17.67,589.51C30.58,558,68.5,525,124.84,501.61" transform="translate(744.57)"/><path class="cls-7" d="M38.6,851.47C81.29,807.42,161.43,710,245.8,706.59" transform="translate(744.57)"/><path class="cls-7" d="M112.87,1125.24c54.58-51.27,134.87-76.53,205.22-105.71" transform="translate(744.57)"/><path class="cls-7" d="M151.14,1296.81c-8.86,15.31,28.55-22.59,45.86-30.66,37.75-17.57,81.07-28.38,119-44.1" transform="translate(744.57)"/><path class="cls-7" d="M-26.25,606.19c8.42-3.29-124-112.6-141.73-124.06" transform="translate(744.57)"/><path class="cls-7" d="M31.46,845.75c-13.77-48.44-155-211.19-222.75-218.19" transform="translate(744.57)"/><path class="cls-7" d="M91.3,1113.51c6.37-2.49-2.49-9.73-5.12-15.59-33.86-75.38-178.32-265-283.39-286.85" transform="translate(744.57)"/><path class="cls-7" d="M143.63,1293.36c-23.58-85.55-209.69-199.7-292.45-253.9" transform="translate(744.57)"/><path class="cls-8" d="M-399.63,768.21c-200.27-154.13-397-173.39-279.87,73.45,82.37,173.65,319.66,408.84,511.8,520.7,43.73,25.45,237.48,139.89,258.25,93.83,40.69-90.25-264.75-514.5-490.18-688" transform="translate(744.57)"/><path class="cls-9" d="M73.54,1443.43c13,5-59.34-61.84-73.21-75.79-55.26-55.57-109.36-111.09-165.72-166-170.3-165.86-373.32-345.51-512.05-529.2" transform="translate(744.57)"/><path class="cls-9" d="M-565.72,807.66c1.28-43.77-2.36-84.3,6.7-125.43" transform="translate(744.57)"/><path class="cls-9" d="M-396,978.54c-8-50.74-31.22-156.91.13-195.06" transform="translate(744.57)"/><path class="cls-9" d="M-212.57,1150.6c-7.34-61.12,10.1-113.76,21.41-165.12" transform="translate(744.57)"/><path class="cls-9" d="M-100.86,1261.92c5.13,15.11-1.47-28.83.82-42.12,5-29,16-55.3,22.09-83" transform="translate(744.57)"/><path class="cls-9" d="M-559.72,823.67c1.47-6-112.32-31.33-125.75-32.38" transform="translate(744.57)"/><path class="cls-9" d="M-402.06,977.3c-32.7-30.18-180.07-91.48-210.7-68.12" transform="translate(744.57)"/><path class="cls-9" d="M-227.68,1151c1.11-4.53-6.46-6.18-10.79-9.42-55.8-41.72-219.56-121.65-273.29-93.55" transform="translate(744.57)"/><path class="cls-9" d="M-105.76,1262.52c-57.48-53.61-195.15-59.89-258.31-65.24" transform="translate(744.57)"/><path class="cls-6" d="M3074.76,2744.4c20.43-315.73,51.27-644.07,236.58-941.23,164.62-264,410.87-355.85,415-2.89,2.88,248.31-158.52,627.73-339.52,835.37-41.19,47.26-326,295-344.52,158.66" transform="translate(744.57)"/><path class="cls-7" d="M3144.27,2773.93c-13.71,10.27,36.65-95,45.54-116.6,35.44-86,69.39-171.53,106.71-257,112.76-258.33,259.07-544,319-814.33" transform="translate(744.57)"/><path class="cls-7" d="M3558.92,1788c-30.42-53.54-52.3-104.66-91.11-152.49" transform="translate(744.57)"/><path class="cls-7" d="M3450.22,2052.31c-22.95-65.06-62.42-203.3-128.28-240.4" transform="translate(744.57)"/><path class="cls-7" d="M3324.4,2322.44c-30.58-77.66-87.85-137-136.31-196.77" transform="translate(744.57)"/><path class="cls-7" d="M3252.09,2495c3.26,20.24-17-36-28.73-51.67-25.54-34.15-57.14-63.11-83.24-95.28" transform="translate(744.57)"/><path class="cls-7" d="M3561.61,1809.62c-5.85-6.93,125.65-74.15,142.45-79.69" transform="translate(744.57)"/><path class="cls-7" d="M3457.27,2048.88c22.75-47.55,174.34-169.75,229.57-150.63" transform="translate(744.57)"/><path class="cls-7" d="M3344.34,2318.13c-4.42-5.23,4.34-9.66,7.86-15,45.24-69.07,205.93-219.41,294.34-201.77" transform="translate(744.57)"/><path class="cls-7" d="M3258.88,2494.2c39.62-84.27,214.72-135.57,293.42-162.14" transform="translate(744.57)"/><path class="cls-10" d="M3621.33,2181.81c17.52-10.4,25.09,12.92,27,23.18,5.67,30.82-13.63,71.4-19.62,104.41-.46,2.58,5,10.84,8.19,11.3l56-65.83c5.75-31.71-15.93-116.75,31.63-133.86,54.73-19.68-21.77,119.51-4.52,109.68l78.1-88.78c4.3-23.78,1.61-64,13-88.37,6.9-14.75,30.43-57.3,51.57-54.27s-25.16,68.86-30.58,80.86c-1.43,3.15-25,50.26-19.91,48.7,8.34-2.56,118.31-127.32,118.31-127.32s-9.74-26.48-1.18-54.34c4.11-13.32,25.13-49.26,43.86-50.54,32.17-2.2-11.29,56.4-18.29,66-2.93,4-13.88,26.23-10.05,23.22,59.3-46.59,90.47-117.29,143.86-166.48,14.27-13.15,60.53-40.19,74.12-24.76,12.82,14.56-15.36,47.49-29.81,58.46-33.58,25.46-115.54,45.45-132,90.45-.18.48,36.1-17,41.93-19.19,16.65-6.33,71.59-12,60.88,17.31-15.25,41.77-86.71,16.4-112.4,17.38,0,0-80.35,77.16-80.58,83.62-.1,3,6.23-2.87,9.4-4,7.84-2.82,15.1-5.92,23-8,15.66-4,86.71-27.93,76.35,8.26-11,38.5-91.27,5-119,16.21l-81.89,86.51s35.17-27,48.51-31.81c17.27-6.21,114-36.36,106.84,3-1.65,9.11-12.29,16.91-21.65,17.27-51.58,2-92.42-3.61-143.12,25.29L3793.93,2172l-46,49.94-16.63,18c-3.5,3.79-15.29,12.19-10.5,11.36,26.9-4.65,139.37-83.37,159.66-38.76,3.34,7.34-9.77,27-18.7,29.49-13.65,3.78-25.43-2.42-38.7-1.26-33.73,2.95-88.06,9.39-118,34.17,0,0-99,106.68-142,153.2-6.73,7.28-38.06,44.21-47.68,39.27-16.55-8.5,93.09-122.16,99.26-128.84.85-.92-59.43-117.53,6.65-156.76" transform="translate(744.57)"/><path class="cls-8" d="M3817.08,2134.46c196.09-89.43,356.29-32.75,203.22,191-107.68,157.41-352.91,320.89-532.21,367.3-40.82,10.56-222,59.15-227.16.56-10-114.82,335.41-458.18,556.15-558.85" transform="translate(744.57)"/><path class="cls-9" d="M3277.51,2686.08c-11.54.29,62.06-44.2,76.45-54,57.3-39,113.67-78.3,171.68-116.07,175.28-114.12,379.81-230.39,534.52-376.5" transform="translate(744.57)"/><path class="cls-9" d="M3938.69,2243.28c9.72-48.39,22.53-91.28,25.45-139.86" transform="translate(744.57)"/><path class="cls-9" d="M3762.66,2363.13c18.73-52.36,63.13-159.31,47.7-213.43" transform="translate(744.57)"/><path class="cls-9" d="M3575.45,2478.83c20.8-63.95,19.91-128.43,23.56-189.09" transform="translate(744.57)"/><path class="cls-9" d="M3459.86,2556.46c-7.76,14.49,8.23-31,9.67-46.41,3.17-33.69.92-66.82,2.89-99.49" transform="translate(744.57)"/><path class="cls-9" d="M3930,2258.42c.32-7.14,96.48,10.13,107.35,14.29" transform="translate(744.57)"/><path class="cls-9" d="M3767.73,2364.16c33.25-20.08,164.78-28.9,183.27,8.77" transform="translate(744.57)"/><path class="cls-9" d="M3587.3,2485.22c.24-5.39,6.63-4.2,10.86-6,54.34-23.58,203.37-46.29,239,5.69" transform="translate(744.57)"/><path class="cls-9" d="M3463.59,2559.05c58.58-35.93,168.95,11.63,220.19,30.74" transform="translate(744.57)"/><path class="cls-11" d="M2594.76,2921.46c5.79,9.92,5.5-27.95,9.21-38.21,8.92-24.74,32.3-48.67,46-71.53,40.35-67.57,138.81-140.68,226.5-150.65,28.3-3.22,71.17,17.52,77.42,44.24,4.14,17.73-16.84,54.23,3.33,54.2.11,0,8.77-17.91,10.78-19.73,18.77-17,41.2-33.29,62.72-46.91,56.88-36,146.22-60,216.58-49.61,33.94,5,29.11,53.35,25.52,73.88-2.17,12.35-22.25,45.72-16.13,34.52C3327,2622.87,3637,2582.2,3658.1,2770.77c19.13,170.66-105,317-293.12,345.41-86.8,13.13-179.31-24-264.22-36.56-84.13-12.42-171.67-11.15-255.83-21.78-73-9.23-159.21-41.84-218-81-13-8.67-33.17-24.21-36.15-39.37-2.46-12.51-2.79-27.56,4-16" transform="translate(744.57)"/><path class="cls-12" d="M-470.21,3076c0-113.16,994.71-204.89,2221.74-204.89S3973.28,2962.87,3973.28,3076s-994.71,204.89-2221.75,204.89S-470.21,3189.19-470.21,3076" transform="translate(744.57)"/><path class="cls-13" d="M2111.84,1357.09a29.83,29.83,0,0,1-29.83-29.81v-5.13c0-14.25-10-27-24.09-29.23-6.83-1.1-13.6-2.38-20.28-3.9-13.83-3.16-27.82,4.67-33.25,17.76l-2,4.66a29.81,29.81,0,1,1-55.08-22.83l2-4.77c5.49-13.12,1.09-28.65-11-36.16q-8.74-5.46-17.12-11.42c-11.57-8.26-27.57-6.38-37.62,3.67l-3.61,3.61a29.81,29.81,0,0,1-42.15-42.16l3.6-3.61c10-10,11.94-26,3.67-37.62q-5.94-8.36-11.4-17.12c-7.52-12.1-23.08-16.52-36.23-11.06l-4.72,2a29.83,29.83,0,1,1-22.88-55.09l4.67-1.92c13.08-5.42,21-19.41,17.81-33.25q-2.28-10-4-20.26c-2.24-14-14.93-24.11-29.18-24.11h-5.12a29.82,29.82,0,1,1,0-59.63h5.12c14.25,0,27-10,29.24-24.1,1.1-6.83,2.38-13.59,3.9-20.27,3.16-13.83-4.68-27.82-17.77-33.25l-4.65-2A29.81,29.81,0,0,1,1792.72,805l4.79,2c13.14,5.45,28.66,1.06,36.21-11q5.44-8.78,11.41-17.18c8.26-11.57,6.38-27.57-3.66-37.62l-3.67-3.61A29.81,29.81,0,0,1,1880,695.41l3.67,3.61c10.05,10.05,26,12,37.56,3.73,5.6-4,11.33-7.83,17.18-11.47,12.07-7.51,16.52-23.07,11.06-36.22l-2-4.72a29.83,29.83,0,1,1,55.09-22.88l1.92,4.66c5.43,13.09,19.42,21,33.25,17.82,6.68-1.52,13.44-2.86,20.27-4,14-2.18,24-14.87,24-29.12v-5.12a29.82,29.82,0,1,1,59.63,0v5.12c0,14.25,10,27,24.12,29.23,6.83,1.11,13.58,2.38,20.25,3.9,13.84,3.17,27.83-4.67,33.25-17.76l2-4.65a29.81,29.81,0,0,1,55.09,22.82l-2,4.78c-5.46,13.15-1.07,28.67,11,36.22,5.84,3.63,11.57,7.41,17.17,11.41,11.57,8.26,27.57,6.38,37.62-3.67l3.61-3.67a29.81,29.81,0,1,1,42.16,42.16l-3.61,3.67c-10,10.05-12,26-3.72,37.56q6,8.4,11.46,17.18c7.52,12.07,23.08,16.52,36.22,11.06l4.73-2a29.83,29.83,0,1,1,22.88,55.09l-4.66,1.92c-13.09,5.42-21,19.41-17.82,33.25,1.52,6.68,2.86,13.44,4,20.26,2.17,14,14.86,24.05,29.11,24.05h5.13a29.82,29.82,0,1,1,0,59.63h-5.13c-14.25,0-27,10-29.22,24.11-1.11,6.83-2.39,13.58-3.91,20.26-3.16,13.84,4.67,27.83,17.76,33.25l4.66,2a29.82,29.82,0,0,1-22.83,55.09l-4.76-2c-13.16-5.46-28.69-1.07-36.23,11-3.64,5.85-7.42,11.58-11.42,17.18-8.25,11.57-6.37,27.57,3.67,37.62l3.67,3.61a29.81,29.81,0,0,1-42.16,42.16l-3.61-3.67c-10-10-26-12-37.61-3.73q-8.42,6-17.18,11.48c-12.08,7.51-16.46,23.07-11,36.22l2,4.71a29.82,29.82,0,1,1-55.08,22.89l-2-4.66c-5.44-13.09-19.42-21-33.25-17.82-6.69,1.52-13.45,2.86-20.28,4-14,2.24-24.05,14.92-24.05,29.17v5.13a29.81,29.81,0,0,1-29.8,29.81m0-149.07c121.59,0,221.76-91.08,236.46-208.7H2163.36a59.62,59.62,0,0,1-51.52,29.82h-.07l-92.47,160.25a237.73,237.73,0,0,0,92.54,18.63m-144-48.68,92.43-160a59,59,0,0,1,0-59.51l-92.49-160.08c-57.28,43.57-94.45,112.26-94.45,189.78s37.2,146.27,94.51,189.83m195.6-219.65H2348.3C2333.6,822.07,2233.43,731,2111.84,731a237.56,237.56,0,0,0-92.54,18.64l92.47,160.25h.07a59.64,59.64,0,0,1,51.58,29.81" transform="translate(744.57)"/><path class="cls-14" d="M1889.26,1127.26l-35.5-23.85a152.44,152.44,0,0,0-1.28-19.26l30-26.9a32.49,32.49,0,0,0,7.74-38.77l-6.71-13.63a32.48,32.48,0,0,0-35.42-17.55l-39.61,7.3A152.07,152.07,0,0,0,1794,981.82l2.81-42.68a32.49,32.49,0,0,0-21.94-32.89l-14.38-4.89A32.49,32.49,0,0,0,1723,914l-23.84,35.5a152.2,152.2,0,0,0-19.26,1.28l-26.9-30a32.51,32.51,0,0,0-38.77-7.74l-13.64,6.7a32.5,32.5,0,0,0-17.55,35.43l7.3,39.6a154.73,154.73,0,0,0-12.78,14.47l-42.68-2.8a32.48,32.48,0,0,0-32.88,21.94l-4.91,14.37a32.51,32.51,0,0,0,12.64,37.46l35.52,23.85a152.32,152.32,0,0,0,1.27,19.26l-30,26.9a32.5,32.5,0,0,0-7.74,38.77l6.7,13.63A32.49,32.49,0,0,0,1551,1220.2l39.6-7.3a152.07,152.07,0,0,0,14.47,12.78l-2.8,42.68a32.51,32.51,0,0,0,21.94,32.89l14.37,4.9a32.51,32.51,0,0,0,37.46-12.64l23.85-35.51a152.32,152.32,0,0,0,19.26-1.28l26.91,30a32.5,32.5,0,0,0,38.76,7.74l13.63-6.7A32.5,32.5,0,0,0,1816,1252.3l-7.3-39.6a151.91,151.91,0,0,0,12.78-14.47l42.68,2.8a32.53,32.53,0,0,0,32.9-21.94l4.88-14.37a32.46,32.46,0,0,0-12.63-37.46" transform="translate(744.57)"/><path class="cls-15" d="M1622.6,1077.54a81.25,81.25,0,1,1,50.69,103.12,81.24,81.24,0,0,1-50.69-103.12" transform="translate(744.57)"/><path class="cls-16" d="M1668.74,1093.27a32.5,32.5,0,1,1,20.28,41.25,32.5,32.5,0,0,1-20.28-41.25" transform="translate(744.57)"/><path class="cls-14" d="M1255.72,988.59l-24.46-16.43a108.29,108.29,0,0,0-.88-13.26L1251,940.37a22.34,22.34,0,0,0,5.33-26.7l-4.6-9.39a22.39,22.39,0,0,0-24.4-12.09l-27.29,5a104.39,104.39,0,0,0-10-8.8L1192,859a22.41,22.41,0,0,0-15.13-22.65L1167,833a22.34,22.34,0,0,0-25.79,8.71l-16.44,24.45a104.19,104.19,0,0,0-13.25.88L1093,846.4a22.36,22.36,0,0,0-26.69-5.33l-9.4,4.62a22.35,22.35,0,0,0-12.08,24.39l5,27.28a104.58,104.58,0,0,0-8.79,10l-29.41-1.94A22.4,22.4,0,0,0,989,920.5l-3.38,9.9a22.4,22.4,0,0,0,8.71,25.8l24.46,16.43a104.46,104.46,0,0,0,.87,13.26L999,1004.42a22.41,22.41,0,0,0-5.33,26.7l4.62,9.39a22.4,22.4,0,0,0,24.41,12.09l27.28-5a104.43,104.43,0,0,0,10,8.8l-1.93,29.4a22.4,22.4,0,0,0,15.12,22.65l9.9,3.37a22.37,22.37,0,0,0,25.79-8.71l16.42-24.45a106.25,106.25,0,0,0,13.27-.88l18.54,20.64a22.37,22.37,0,0,0,26.69,5.33l9.39-4.62a22.37,22.37,0,0,0,12.09-24.39l-5-27.28a103.3,103.3,0,0,0,8.8-10l29.39,1.93a22.35,22.35,0,0,0,22.65-15.11l3.39-9.9a22.39,22.39,0,0,0-8.7-25.79" transform="translate(744.57)"/><path class="cls-15" d="M1072.05,954.34a56,56,0,1,1,34.92,71,56,56,0,0,1-34.92-71" transform="translate(744.57)"/><path class="cls-16" d="M1103.83,965.18a22.38,22.38,0,1,1,14,28.4,22.37,22.37,0,0,1-14-28.4" transform="translate(744.57)"/><path class="cls-17" d="M1017.91,1161.79S853,1582.15,1218.26,2187.54c137.3,227.58-30.6,847.52-30.6,847.52L2224,3035s-45.66-190.73,86.37-300.62c0,0,325.17,18.44,389.53-55.33,90.47-103.7.52-328,.52-328s67.93-60.48,68.4-94.38-39.86-23.39-43.28-50.63,58.71-26.46,52.91-84.69c-2.14-21.4-20.2-42.73-33.08-66.67-22.15-41.2-10.22-109.69-10.22-109.69s171.57-37.54,157.14-109.13c-27.08-134.35-273.49-417.37-276.39-445l16.65-48.88-18.1-186.09Z" transform="translate(744.57)"/><polygon class="cls-18" points="1656.15 679.98 1648.13 717.49 1686.93 738.2 1691.79 715.46 1656.15 679.98"/><path class="cls-17" d="M968.77,652.5s31.51-19,35.21-36-22.58-38-22.58-38l-22.72,20.68s-42.51-19.65-63.4,9.06c-24,33,3.73,64.19,3.73,64.19l22.71,19.28Z" transform="translate(744.57)"/><path class="cls-10" d="M987.28,637.59s-1.12,12.13-1.18,25.55c-.06,11,5.16,22.29,4.84,23.79-.68,3.33-8.36,2.2-8.36,2.2s2.74,28.73-18.47,33C925,729.9,916,684.66,916,684.66l15.37-19.94s-13.07-6.81-2.13-17c12.39-11.57,14,7.54,14,7.54l13-21.15Z" transform="translate(744.57)"/><path class="cls-8" d="M906.65,717S830,730.21,825.86,823.59c-3.59,81.72-7,208.57-7,208.57l152.16-2.33s11.83-117.18,4.19-192.71S940.48,727.7,940.48,727.7Z" transform="translate(744.57)"/><g class="cls-19"><g class="cls-20"><path class="cls-21" d="M884.27,744.72c-39.08,16.55,18.57,132.11,18.57,132.11L972,846.36s-40.49-121.67-87.77-101.64" transform="translate(744.57)"/></g></g><g class="cls-22"><g class="cls-23"><path class="cls-10" d="M908.92,863s35.59,63.87,45.39,73.78c10,10.07,183.61,104.49,183.61,104.49s19.09,10.27,37.57,12,31.75-2.39,37.79-10.61-.19-12.53-13.58-22.26-56.13-5.57-56.13-5.57S1001.2,917.29,993.09,907c-3.92-5-30.66-74.26-30.66-74.26Z" transform="translate(744.57)"/></g></g><polygon class="cls-10" points="1522.71 1548.08 1515.55 1592.21 1547.12 1588.69 1552.2 1554.92 1522.71 1548.08"/><polygon class="cls-10" points="1687.92 1564.77 1688.57 1597.04 1715.04 1594.08 1714.11 1566.85 1687.92 1564.77"/><path class="cls-24" d="M820.25,1029.63s.41,87-13.11,217.72-40.95,305.29-40.95,305.29l44.29,7.29s92.29-263.73,91.26-293.79c-1-29.19,17.79-231.1,17.79-231.1Z" transform="translate(744.57)"/><path class="cls-17" d="M821.19,1031.05l68.86,255.14,45.14,286,45.09-2.33s3.51-265.45,4.2-288.23c.45-15-16.05-254.11-16.05-254.11Z" transform="translate(744.57)"/><path class="cls-25" d="M944.32,1593.14s-11.77,3.84-7.87,37.6l110.33-2.16s2.56-5.36-1.66-8.19c-9.56-6.42-31.77-3.16-50.75-10.41s-21.46-18.28-21.46-18.28Z" transform="translate(744.57)"/><path class="cls-25" d="M767.81,1586.9a63.7,63.7,0,0,0-1.2,43.93l111.25-2.72s3.4-3.64-3.3-9.37c-10.38-8.88-18.93-.91-36.84-7.68s-32-25.19-32-25.19Z" transform="translate(744.57)"/><line class="cls-26" x1="1818.63" y1="1641.78" x2="2261.23" y2="3031.78"/><line class="cls-26" x1="1569.18" y1="1643.43" x2="2010.26" y2="3031.78"/><line class="cls-26" x1="2148.8" y1="2688.92" x2="1905.34" y2="2688.92"/><line class="cls-26" x1="2194.35" y1="2844.2" x2="1950.89" y2="2844.2"/><line class="cls-26" x1="2106.35" y1="2538.81" x2="1862.89" y2="2538.81"/><line class="cls-26" x1="2058.73" y1="2386.63" x2="1815.27" y2="2386.63"/><line class="cls-26" x1="2001.79" y1="2230.31" x2="1758.33" y2="2230.31"/><line class="cls-26" x1="1954.17" y1="2083.3" x2="1710.71" y2="2083.3"/><line class="cls-26" x1="1908.62" y1="1934.23" x2="1665.16" y2="1934.23"/><line class="cls-26" x1="1862.04" y1="1788.26" x2="1618.58" y2="1788.26"/><line class="cls-26" x1="1813.6" y1="1641.07" x2="1570.14" y2="1641.07"/><line class="cls-27" x1="1477.25" y1="1641.78" x2="1034.66" y2="3031.78"/><line class="cls-27" x1="1726.71" y1="1643.43" x2="1285.62" y2="3031.78"/><line class="cls-27" x1="1147.09" y1="2688.92" x2="1390.55" y2="2688.92"/><line class="cls-27" x1="1101.53" y1="2844.2" x2="1344.99" y2="2844.2"/><line class="cls-27" x1="1189.53" y1="2538.81" x2="1432.99" y2="2538.81"/><line class="cls-27" x1="1237.15" y1="2386.63" x2="1480.61" y2="2386.63"/><line class="cls-27" x1="1294.09" y1="2230.31" x2="1537.55" y2="2230.31"/><line class="cls-27" x1="1341.71" y1="2083.3" x2="1585.17" y2="2083.3"/><line class="cls-27" x1="1387.26" y1="1934.23" x2="1630.72" y2="1934.23"/><line class="cls-27" x1="1433.85" y1="1788.26" x2="1677.31" y2="1788.26"/><line class="cls-27" x1="1482.28" y1="1641.07" x2="1725.74" y2="1641.07"/><polygon class="cls-10" points="725.16 2778.31 680.96 2803.6 699.18 2830.2 743.46 2803.06 725.16 2778.31"/><path class="cls-17" d="M260.72,1893.13c-12.67-12.38-35.91-4.49-35.91-4.49s-40.08-25.88-70,18c-15.35,22.53-3,53.44-3,53.44s11.84,18.59,12.84,32.68c2.27,31.73-3.66,21.5-.76,40.82s19.56,43.39,19.56,43.39l117.18,63.6s6.07-25.41,1.2-61.77c-1.6-11.87-17.25-31.66-17.67-43.23-.75-20,9-29.5,6.68-44.48s-7-21-18.49-34,1-51.49-11.64-63.87" transform="translate(744.57)"/><path class="cls-28" d="M355.42,1945.74c10.32-7.64,89.23-133.07,89.23-133.07l36.88,17.8s-78.19,153.9-89,161.75c-7.56,5.5-92.56,125.12-147,138.91-51.12,12.95-68.24,17-71.47-12.21-2.09-18.86,23.68-39.51,45.3-61.62,47.61-48.69,118.71-98.71,136-111.56" transform="translate(744.57)"/><path class="cls-29" d="M451.67,1816.66s11.34-14.91,10.14-33.36-9-18.23-4.39-29.78,24.05-22.33,24.05-22.33,23.13,5.1,27.06,35c2.77,21.17-6.79,20.7-16.1,39.48s-16.73,24.52-16.73,24.52Z" transform="translate(744.57)"/><path class="cls-14" d="M828.72,1930.85l-45.43-30.51a196.12,196.12,0,0,0-1.64-24.65L820,1841.26a41.6,41.6,0,0,0,9.91-49.62l-8.58-17.45A41.6,41.6,0,0,0,776,1751.73l-50.69,9.34a195.29,195.29,0,0,0-18.52-16.35l3.59-54.62A41.59,41.59,0,0,0,682.29,1648l-18.39-6.27A41.56,41.56,0,0,0,616,1657.92l-30.53,45.43a196,196,0,0,0-24.65,1.64l-34.43-38.35a41.6,41.6,0,0,0-49.62-9.91l-17.45,8.58a41.58,41.58,0,0,0-22.46,45.34l9.34,50.69a196.41,196.41,0,0,0-16.35,18.51l-54.63-3.59a41.61,41.61,0,0,0-42.09,28.08l-6.27,18.4A41.58,41.58,0,0,0,343,1870.68l45.44,30.52a196.12,196.12,0,0,0,1.64,24.65l-38.36,34.43a41.6,41.6,0,0,0-9.9,49.62l8.57,17.44a41.59,41.59,0,0,0,45.34,22.47l50.69-9.34A195.29,195.29,0,0,0,465,2056.82l-3.59,54.62a41.6,41.6,0,0,0,28.08,42.09l18.39,6.27a41.61,41.61,0,0,0,47.95-16.18l30.51-45.44a196,196,0,0,0,24.65-1.64l34.43,38.36a41.6,41.6,0,0,0,49.62,9.9l17.45-8.58a41.59,41.59,0,0,0,22.46-45.34l-9.34-50.68a196.54,196.54,0,0,0,16.35-18.52l54.62,3.59a41.6,41.6,0,0,0,42.09-28.08l6.27-18.4a41.57,41.57,0,0,0-16.17-47.94" transform="translate(744.57)"/><path class="cls-15" d="M487.44,1867.22a104,104,0,1,1,64.88,132,104,104,0,0,1-64.88-132" transform="translate(744.57)"/><path class="cls-16" d="M546.49,1887.35a41.59,41.59,0,1,1,26,52.79,41.6,41.6,0,0,1-26-52.79" transform="translate(744.57)"/><path class="cls-30" d="M201.28,2018.22s-49.31,18.14-62.82,71S142,2308.83,142,2308.83l122.5,5.12s17.92-133.16,15.71-196.72c-2.69-76.94-56-103.88-56-103.88Z" transform="translate(744.57)"/><polygon class="cls-31" points="971.6 1993.59 972.55 2019.92 940.2 2022.42 943.05 1987.62 971.6 1993.59"/><path class="cls-10" d="M255.26,1917.77s4.33,59.17-12.56,74.39-45.27,3.22-45.27,3.22l-3.85-33.13s-15.33-11.26-14.39-18.34,12.18-13,18.13-10,6.5,14.5,6.5,14.5.17-18.65,12.57-24,38.87-6.64,38.87-6.64" transform="translate(744.57)"/><path class="cls-32" d="M383.84,2092.94c12.81-.74,152.55-64.44,152.55-64.44l21.5,40.39s-163.24,74.61-176.58,75.25c-9.34.45-86.29-1.93-139.35-20.23-49.86-17.19-76.75-49.44-63.42-75.68,27.53-54.17,174,46.52,205.3,44.71" transform="translate(744.57)"/><polygon class="cls-10" points="926.62 2929.01 912.16 2977.84 943.71 2984.47 956.95 2934.25 926.62 2929.01"/><path class="cls-8" d="M264.65,2309.45s-6.18,302.53-7.6,327.88S218.2,2957,218.2,2957l-49.85-2.91s15-292.17,11.27-314c-2.65-15.39-31.53-325.62-31.53-325.62Z" transform="translate(744.57)"/><path class="cls-33" d="M142.11,2307.86A251.87,251.87,0,0,0,122,2375.43c-10.09,70-10.93,171.94-13.33,187.09C106.2,2578-40,2780.24-40,2780.24L-.6,2814.73s180.93-190.92,191.35-214.56c8.69-19.7,50-189,66.81-258.39,4.38-18.14,8.06-34.42,8.06-34.42Z" transform="translate(744.57)"/><path class="cls-25" d="M173.53,2962.59s-37,18.37-41,38.83l27.63,20.7,8.32-11.26s11.82,27.24,26.51,43.62l24.25,3.26s21.93.87,18.08-9.77-31.69-10.28-31.69-10.28l-7.36-53.77Z" transform="translate(744.57)"/><path class="cls-34" d="M173.53,2962.59s-37,18.37-41,38.83l27.63,20.7,8.32-11.26s11.82,27.24,26.51,43.62l24.25,3.26s21.93.87,18.08-9.77-31.69-10.28-31.69-10.28l-7.36-53.77Z" transform="translate(744.57)"/><path class="cls-25" d="M-48.49,2796.16s-38.82-8.38-54.63,5.21l8.89,33.37,13.51-3.7s-6.32,14.93-4.92,36.9l2,52.38s6.6,6.41,10.17-4.34,3.72-29.81,9-53.42,25.91-36.36,25.91-36.36Z" transform="translate(744.57)"/><path class="cls-10" d="M535.09,2037.74s17.92-11.17,27-27.26,5-19.07,7.29-27.39,25.22-14.52,25.22-14.52,23.93,24,24.64,54.22-26,17.53-44.06,28.14-27.46,11.34-27.46,11.34Z" transform="translate(744.57)"/><path class="cls-17" d="M2874.22,2167.94s-22-230-15.37-257.55c0,0,17.34-55.82,70.41-51.21,51.64,4.48,64.44,64.87,66.58,101.36,2.48,42.38-4.48,123.76-4.48,123.76Z" transform="translate(744.57)"/><path class="cls-35" d="M2917.13,2060s-25.19,28.94-39.51,60.63c-7.15,15.87-16.14,134.71-16.14,134.71l-47.73,9.26s48.6,35.88,71.47,30.09c12.37-3.13,31.91-234.69,31.91-234.69" transform="translate(744.57)"/><path class="cls-6" d="M2955.81,2039s56.24-4.94,88,77,5.14,261.23,5.14,261.23l-147.47.94s-22-199.56-13.17-256.07c13.21-84.37,67.55-83.15,67.55-83.15" transform="translate(744.57)"/><path class="cls-35" d="M3011.43,2073c17.12,10,31.46,43.14,36.47,106.45s2.45,143.34-16.42,146.78c-19.34,3.53-151.68-62-151.68-62l5.16-32.56s100.38,25,109.57,24.24c5.75-.5-7.33-68.95-7.57-106.32-.14-21.83,7.34-86.57,24.47-76.6" transform="translate(744.57)"/><path class="cls-36" d="M2952.76,1997.57l9.58,41.87s-7.7,17.27-18.64,20.8c-17.33,5.6-17.65-14.42-17.65-14.42l-1.6-32.3Z" transform="translate(744.57)"/><path class="cls-10" d="M2869.09,1935.36s-2.14,54.2,29.88,82.79c20.33,18.16,56.12-23.47,56.12-23.47l10.42-28.86s20.74,14.56,19-14c-1.59-26.63-20.73-4.1-20.73-4.1L2953.37,1927s-21.65,6.88-40.53,3.84-28.59-25-28.59-25-1.77,12.91-5.56,20.27-9.6,9.18-9.6,9.18" transform="translate(744.57)"/><polygon class="cls-37" points="3603.68 2165.48 3619.55 2318.13 3526.25 2317.49 3510.7 2166.12 3603.68 2165.48"/><path class="cls-10" d="M2892.76,2237.66l-19.46-6.85s.63-8.95-2-16.18a37.53,37.53,0,0,0-8.59-12.75l1.61,13.69-17.32-4.8s-21.81-3-25.38,4.93c-15.26,33.79,49.52,43.44,49.52,43.44l27.25,9.81Z" transform="translate(744.57)"/><polygon class="cls-10" points="3670.98 2950.93 3672.2 2999.98 3643.37 2998.29 3643.53 2948.26 3670.98 2950.93"/><polygon class="cls-10" points="3808.38 2949.92 3809.6 2998.97 3780.77 2997.28 3780.93 2947.25 3808.38 2949.92"/><path class="cls-38" d="M2901.62,2377.28s-17,250.5-16.89,264.72c.17,21.82,6.05,327.47,6.05,327.47l43.45,2.1,44-313.51,69.4-280.78Z" transform="translate(744.57)"/><path class="cls-8" d="M2916.07,2376.89l56.44,269.46,55,315.77h48.12S3067,2796.41,3060,2649c-3.13-66,9.16-125.46,7-174.18-2.6-60-19.31-98.67-19.31-98.67Z" transform="translate(744.57)"/><path class="cls-25" d="M2926.13,2989.11s15.85,30.88,8.35,46.69l-29,.2v-11.76s-10.7,8.43-28.79,12.17l-47.63-1.22s-4.06-3.85,3.85-9.12,28-6.36,45.9-15.9,20-19,20-19Z" transform="translate(744.57)"/><path class="cls-34" d="M2926.13,2989.11s15.85,30.88,8.35,46.69l-29,.2v-11.76s-10.7,8.43-28.79,12.17l-47.63-1.22s-4.06-3.85,3.85-9.12,28-6.36,45.9-15.9,20-19,20-19Z" transform="translate(744.57)"/><path class="cls-25" d="M3063.52,2988.1s15.86,30.88,8.36,46.69l-29,.2v-11.76s-10.69,8.43-28.79,12.17l-47.63-1.22s-4.05-3.85,3.86-9.12,28-6.36,45.89-15.89,20-19,20-19Z" transform="translate(744.57)"/><path class="cls-34" d="M3063.52,2988.1s15.86,30.88,8.36,46.69l-29,.2v-11.76s-10.69,8.43-28.79,12.17l-47.63-1.22s-4.05-3.85,3.86-9.12,28-6.36,45.89-15.89,20-19,20-19Z" transform="translate(744.57)"/><polygon class="cls-18" points="4240.06 2006.05 4235.22 2047.85 4187.63 2055.74 4190.56 2030.41 4240.06 2006.05"/><path class="cls-17" d="M3445.71,1957.42s-26.05-30.83-24-49.73,36.79-31.53,36.79-31.53l16.35,29.47s18.82-15.25,32.75-12.19c10.36,2.28,11.12,23.75,16.94,37.28,2.27,5.3,11.34,1.26,13,6.58,13.34,42.69-26.41,65.4-26.41,65.4l-30.38,12.06Z" transform="translate(744.57)"/><path class="cls-10" d="M3431.71,1935.43s-3.1,13-7.74,27c-3.81,11.48-13.18,21.36-13.38,23-.47,3.7,7.91,5.23,7.91,5.23s-12.45,27.33,8.09,39.21c20.9,12.08,62.68-20.48,62.68-20.48l-9-26.12s16-2.48,8.2-16.92c-8.83-16.38-17.17,2.93-17.17,2.93l-8.86-25.72-10.39,9Z" transform="translate(744.57)"/><polygon class="cls-10" points="4349.05 2948.94 4356.9 2997.35 4322.27 2993.49 4316.7 2956.45 4349.05 2948.94"/><polygon class="cls-10" points="4167.83 2967.25 4167.12 3002.65 4138.09 2999.4 4139.11 2969.53 4167.83 2967.25"/><path class="cls-25" d="M3422.2,2998.37s12.92,4.21,8.64,41.24l-121-2.37s-2.83-5.88,1.8-9c10.49-7,34.86-3.45,55.66-11.41s23.55-20.05,23.55-20.05Z" transform="translate(744.57)"/><path class="cls-25" d="M3615.8,2991.52a69.85,69.85,0,0,1,1.32,48.19l-122-3s-3.73-4,3.62-10.27c11.38-9.74,20.76-1,40.4-8.43s35.13-27.62,35.13-27.62Z" transform="translate(744.57)"/><path class="cls-24" d="M3558.28,2380.29s-.44,95.39,14.39,238.8S3617.59,2954,3617.59,2954l-48.58,8s-101.23-289.28-100.09-322.25c1.09-32-19.53-253.47-19.53-253.47Z" transform="translate(744.57)"/><path class="cls-17" d="M3557.26,2381.85l-75.53,279.85-49.51,313.72-49.46-2.55s-3.84-291.16-4.6-316.14c-.5-16.41,17.6-278.72,17.6-278.72Z" transform="translate(744.57)"/><path class="cls-10" d="M3311.69,2039.48c8.95,35.63,31.87,123,41,121.68,11.06-1.62,26-29.48,26-29.48l28.16,41.17s-35.16,58.47-60.79,59.44-50.39-164.77-50.39-164.77-20.41-3.12-26.36-13.91" transform="translate(744.57)"/><path class="cls-39" d="M3482.59,2065c37.45,27.66-53.62,136.15-53.62,136.15l-66-50.21s74.33-119.4,119.63-85.94" transform="translate(744.57)"/><path class="cls-30" d="M3490.76,2046.49s58.77,29.07,60.55,145.63c1.62,106.38,9.42,230.88,9.42,230.88l-167.89-9.11s7.66-121.62,6.78-220.2c-1-109.85,46-150,46-150Z" transform="translate(744.57)"/><g class="cls-22"><g class="cls-40"><path class="cls-10" d="M3517.7,2166.37s10.14,66.85,8.36,79.61c-1.79,13-81.29,179.45-81.29,179.45s-8.79,18.21-22.18,29.82-26.2,16-35.8,13.33-7.28-9.33-2.62-23.95,40.51-35.48,40.51-35.48,53.2-151.31,53.41-163.43c.09-5.88-20.14-71.73-20.14-71.73Z" transform="translate(744.57)"/></g></g><path class="cls-39" d="M3467.58,2062.49c45.6-9.35,65.4,130.89,65.4,130.89l-81.47,15.54s-39.09-135.11,16.07-146.43" transform="translate(744.57)"/><path class="cls-41" d="M3269.57,2046a28,28,0,0,0,6.3.69l31.1-.65a21.12,21.12,0,0,0,14.81-6,17.9,17.9,0,0,0,5.64-13.42l-1.3-33.69a18.62,18.62,0,0,0-6.73-13.74,21.64,21.64,0,0,0-14.64-5.4l-31.11.65a21.11,21.11,0,0,0-14.8,6,18,18,0,0,0-5.65,13.42l1.32,33.69C3254.52,2036.55,3261.05,2043.76,3269.57,2046Z" transform="translate(744.57)"/><path class="cls-31" d="M3294.26,2051.69c-10.92.09-20.21-1.07-24.5-5.55s-7.59-14.57,2.08-21.81,36.18.31,36.18.31,4.45,3.49,2.66,12.71c-2.24,11.59-5.8,14.24-16.42,14.34" transform="translate(744.57)"/><polygon class="cls-17" points="4130.58 1977.64 4115.52 1973.61 4101.73 2019.69 4116.79 2023.71 4130.58 1977.64"/><polygon class="cls-17" points="3949.97 1874.66 3934.91 1870.63 3890.78 2018.06 3905.84 2022.09 3949.97 1874.66"/><polygon class="cls-8" points="4114.55 1976.84 4102.69 2016.46 3907.63 2016.1 3948.18 1880.65 4114.55 1976.84"/></g></g></g></g></svg>