<svg xmlns="http://www.w3.org/2000/svg" xmlns:xlink="http://www.w3.org/1999/xlink" viewBox="0 0 2599.35 1826.7"><defs><style>.cls-1{fill:none;}.cls-2{opacity:0.05;}.cls-3{clip-path:url(#clip-path);}.cls-4{fill:#cfa092;}.cls-5{fill:#d0a295;}.cls-6{fill:#bf816e;}.cls-7{fill:#d2a799;}.cls-8{fill:#e3dfda;}.cls-9{fill:#899a86;}.cls-10{fill:#932d0d;}.cls-11{fill:#b6705a;}.cls-12{fill:#4b2e34;}.cls-13{fill:#c38978;}.cls-14{fill:#516b4d;}.cls-15{fill:#ad6f5c;}.cls-16{fill:#983517;}.cls-17{fill:#6f585c;}.cls-18{fill:#c69a8d;}.cls-19{fill:#973314;}.cls-20{fill:#573b41;}.cls-21{fill:#422329;}.cls-22{fill:#fff;}.cls-23{clip-path:url(#clip-path-2);}.cls-24{fill:#c58d7c;}.cls-25{fill:#684f54;}</style><clipPath id="clip-path" transform="translate(355.73 -215.08)"><rect class="cls-1" width="1882" height="1882"/></clipPath><clipPath id="clip-path-2" transform="translate(355.73 -215.08)"><rect class="cls-1" x="-859" y="0.5" width="3600" height="1884"/></clipPath></defs><g id="Layer_1" data-name="Layer 1" class="cls-2"><g class="cls-3"><circle class="cls-4" cx="976.89" cy="390.34" r="224.07"/><path class="cls-5" d="M1985.2,1414.42a122.56,122.56,0,0,1,25.87,31c.31-.42.62-.83.94-1.24,8-10.59,17.43-22.32,28-34.65a122.44,122.44,0,0,1-29.56-28.82,120.9,120.9,0,0,1-18.37-40.69,120.86,120.86,0,0,1,32.42,30.69,122.56,122.56,0,0,1,17.35,36.68c8.84-10.19,18.52-20.76,29-31.43a122.61,122.61,0,0,1-21-35.21,120.67,120.67,0,0,1-7.35-44,120.86,120.86,0,0,1,23.49,38,122.44,122.44,0,0,1,7.37,38.74c10.51-10.6,21.8-21.26,33.81-31.7a122.4,122.4,0,0,1-15.43-38,120.89,120.89,0,0,1-.55-44.64,121,121,0,0,1,17.43,41.1,122.49,122.49,0,0,1,1.42,39.1q12.21-10.49,25.39-20.54a122.4,122.4,0,0,1,.12-40.94,120.64,120.64,0,0,1,16.36-41.53,115.17,115.17,0,0,1-11.4,78.67q9.31-6.92,19.09-13.47a115.07,115.07,0,0,1,67.09-42.73,115.21,115.21,0,0,1-63.51,47.46q-10.11,6.76-19.74,13.94a122.4,122.4,0,0,1,38.37,7,120.87,120.87,0,0,1,38.21,23.09,120.78,120.78,0,0,1-44.11-6.89,122.6,122.6,0,0,1-35.62-20.81q-13.26,10-25.55,20.57a122.5,122.5,0,0,1,36.29,18.23,120.66,120.66,0,0,1,29.9,33.14,120.74,120.74,0,0,1-40.23-19.33,122.36,122.36,0,0,1-28.1-30.22c-12.37,10.68-24,21.61-34.76,32.47a122.35,122.35,0,0,1,37.55,14.92,120.69,120.69,0,0,1,32.71,30.37,120.9,120.9,0,0,1-41.78-15.71,122.79,122.79,0,0,1-30.55-27.48c-10.58,10.76-20.36,21.43-29.29,31.71a122.65,122.65,0,0,1,37.85,13.51,120.87,120.87,0,0,1,33.79,29.17,120.57,120.57,0,0,1-42.32-14.19,122.27,122.27,0,0,1-31.34-26.15c-10.47,12.17-19.73,23.75-27.68,34.2l-1.18,1.56a115.57,115.57,0,0,1,68.93,52.16,115.59,115.59,0,0,1-69.5-51.41c-32.44,43-50.07,76-50.25,76.35l-5.23-2.78c.17-.33,17.6-33,49.65-75.68a122.53,122.53,0,0,1-35.12-20.26,120.79,120.79,0,0,1-28-34.8A120.76,120.76,0,0,1,1985.2,1414.42Z" transform="translate(355.73 -215.08)"/><path class="cls-5" d="M1750.12,1361.11c26.05,10.77,45.7,26.81,54.45,34.72.28-.78.56-1.55.83-2.34,7.15-20,15.77-42.47,26-66.41-10.59-3.18-35.5-11.94-59-29.62a193.41,193.41,0,0,1-47.71-53.13,193.28,193.28,0,0,1,64.29,31.08c22.75,17.11,37.83,37.78,44.22,47.52,8.55-19.82,18.18-40.63,29-62-9.63-6-31.13-20.7-49.09-43.49a193,193,0,0,1-32.54-63.56,193.33,193.33,0,0,1,54.2,46.49c16.73,21.23,26,43.8,30,55.49,10.89-21.25,22.93-43,36.19-64.7-8.59-7.33-27.64-25.2-41.94-50.52a193,193,0,0,1-22.46-67.78A193.4,193.4,0,0,1,1883,1127.1c13.12,23.21,18.82,46.61,21.1,58.92,9-14.59,18.61-29.17,28.77-43.61-5.2-10.11-16-33.77-19.65-62.47a193.23,193.23,0,0,1,4.82-71.24,184.13,184.13,0,0,1,20.73,125.45q10.88-15,22.58-29.77a184.17,184.17,0,0,1,81.59-97.65,184.2,184.2,0,0,1-73.84,103.13q-12.13,15.21-23.34,30.81c12.06-3.58,35.38-9.09,61.87-8a193.16,193.16,0,0,1,69.43,16.7,193.28,193.28,0,0,1-70.58,10.86c-29.36-1.23-54.15-10.22-64.38-14.48-10.25,14.47-19.9,29.1-29,43.74,11.62-.13,37.24.86,64.16,10.22a193.09,193.09,0,0,1,61.64,36,193.21,193.21,0,0,1-70.7-10c-27.77-9.65-48.91-25.43-57.47-32.46-13.7,22.28-26.09,44.56-37.27,66.35,11.73-1.15,37.1-2.34,64.47,4.55a193.17,193.17,0,0,1,64.59,30.45,193.2,193.2,0,0,1-71.31-3.7c-28.27-7.11-50.59-20.79-59.89-27.1-10.92,21.53-20.66,42.54-29.29,62.53,11.84-1.56,36.92-3.56,64.25,2.27a193.17,193.17,0,0,1,65.64,28.1,193.29,193.29,0,0,1-71.4-1.13c-28.13-6-50.71-18.61-60.44-24.69-10.07,23.62-18.58,45.75-25.64,65.54l-1.05,3c7.76-.35,37.35-.81,68.72,10.1a193.21,193.21,0,0,1,61.65,36,193.25,193.25,0,0,1-70.71-10c-31.38-10.91-54.31-29.64-60.16-34.72-28.63,81.25-39.51,140.13-39.62,140.73l-9.33-1.7c.11-.59,10.86-58.84,39-139.43-11.66-.55-37.1-3-63.36-13.87a193.35,193.35,0,0,1-59.48-39.51A193.26,193.26,0,0,1,1750.12,1361.11Z" transform="translate(355.73 -215.08)"/><path class="cls-6" d="M1363.07,1512.25a110.66,110.66,0,0,0-106.37,80.18h212.73A110.64,110.64,0,0,0,1363.07,1512.25Z" transform="translate(355.73 -215.08)"/><path class="cls-6" d="M1881.51,1474.31a163,163,0,0,0-156.68,118.12H2038.2A163,163,0,0,0,1881.51,1474.31Z" transform="translate(355.73 -215.08)"/><path class="cls-6" d="M1395.25,1592.43c24-83.13,119.24-145.23,233-145.23s209,62.1,233,145.23Z" transform="translate(355.73 -215.08)"/><rect class="cls-7" x="402.55" y="1367.64" width="1788.37" height="112.18" rx="56.09"/><path class="cls-8" d="M395.45,558.16a123.1,123.1,0,0,1,118.34,89.22H277.1A123.11,123.11,0,0,1,395.45,558.16Z" transform="translate(355.73 -215.08)"/><path class="cls-8" d="M-181.4,516A181.36,181.36,0,0,1-7.06,647.38H-355.73A181.34,181.34,0,0,1-181.4,516Z" transform="translate(355.73 -215.08)"/><path class="cls-8" d="M359.64,647.38C332.91,554.88,227,485.79,100.35,485.79s-232.56,69.09-259.3,161.59Z" transform="translate(355.73 -215.08)"/><path class="cls-9" d="M132.68,983.28a23.59,23.59,0,0,1,22.68,17.1H110A23.61,23.61,0,0,1,132.68,983.28Z" transform="translate(355.73 -215.08)"/><path class="cls-9" d="M22.09,975.19a34.77,34.77,0,0,1,33.42,25.19H-11.33A34.77,34.77,0,0,1,22.09,975.19Z" transform="translate(355.73 -215.08)"/><path class="cls-9" d="M125.81,1000.38c-5.12-17.73-25.43-31-49.71-31s-44.58,13.25-49.71,31Z" transform="translate(355.73 -215.08)"/><path class="cls-10" d="M312.56,796.16V768.52a22.83,22.83,0,1,0-9.87,0v27.64a122.6,122.6,0,0,0-80.45,210.5l-13.86,51.09L256,1029.9a122.62,122.62,0,1,0,56.58-233.74Z" transform="translate(355.73 -215.08)"/><rect class="cls-11" x="596.88" y="646.03" width="151.79" height="72.1" rx="36.05"/><path class="cls-12" d="M304.46,856l3.13-9.06a10.34,10.34,0,0,0-4.9-1.22,10.45,10.45,0,0,0-10.44,10.44v35.09a10.45,10.45,0,1,0,20.89,0V856.12a10.37,10.37,0,0,0-1.65-5.61Z" transform="translate(355.73 -215.08)"/><path class="cls-12" d="M352.43,856l3-8.67a10.43,10.43,0,0,0-16,8.83v35.09a10.44,10.44,0,1,0,20.88,0V856.12a10.38,10.38,0,0,0-1.39-5.19Z" transform="translate(355.73 -215.08)"/><path class="cls-9" d="M1277.23,1558.52a58.89,58.89,0,0,1,56.62,42.69H1220.6A58.9,58.9,0,0,1,1277.23,1558.52Z" transform="translate(355.73 -215.08)"/><path class="cls-9" d="M1001.21,1538.32a86.79,86.79,0,0,1,83.42,62.89H917.79A86.77,86.77,0,0,1,1001.21,1538.32Z" transform="translate(355.73 -215.08)"/><path class="cls-9" d="M1260.09,1601.21c-12.79-44.26-63.48-77.32-124.07-77.32S1024.74,1557,1012,1601.21Z" transform="translate(355.73 -215.08)"/><path class="cls-9" d="M871.07,455.59a34.06,34.06,0,0,1,32.75,24.69h-65.5A34.06,34.06,0,0,1,871.07,455.59Z" transform="translate(355.73 -215.08)"/><path class="cls-9" d="M711.44,443.91a50.18,50.18,0,0,1,48.24,36.37H663.19A50.18,50.18,0,0,1,711.44,443.91Z" transform="translate(355.73 -215.08)"/><path class="cls-9" d="M861.16,480.28c-7.4-25.6-36.71-44.72-71.75-44.72s-64.36,19.12-71.76,44.72Z" transform="translate(355.73 -215.08)"/><path class="cls-8" d="M2085,816.58a70.45,70.45,0,0,1,67.73,51.07H2017.28A70.45,70.45,0,0,1,2085,816.58Z" transform="translate(355.73 -215.08)"/><path class="cls-8" d="M1754.85,792.42a103.8,103.8,0,0,1,99.78,75.23H1655.06A103.82,103.82,0,0,1,1754.85,792.42Z" transform="translate(355.73 -215.08)"/><path class="cls-8" d="M2064.52,867.65c-15.3-52.95-75.93-92.5-148.41-92.5S1783,814.7,1767.7,867.65Z" transform="translate(355.73 -215.08)"/><path class="cls-13" d="M280.15,627.81a69.39,69.39,0,0,1,66.7,50.28H213.46A69.37,69.37,0,0,1,280.15,627.81Z" transform="translate(355.73 -215.08)"/><path class="cls-13" d="M-44.93,604a102.21,102.21,0,0,1,98.25,74.07H-143.17A102.2,102.2,0,0,1-44.93,604Z" transform="translate(355.73 -215.08)"/><path class="cls-13" d="M260,678.09C244.91,626,185.21,587,113.85,587S-17.21,626-32.27,678.09Z" transform="translate(355.73 -215.08)"/><path class="cls-6" d="M2002.17,275.33a102.51,102.51,0,0,1,98.54,74.29H1903.64A102.5,102.5,0,0,1,2002.17,275.33Z" transform="translate(355.73 -215.08)"/><path class="cls-6" d="M1521.89,240.19A151,151,0,0,1,1667,349.62h-290.3A151,151,0,0,1,1521.89,240.19Z" transform="translate(355.73 -215.08)"/><path class="cls-6" d="M1972.36,349.62c-22.26-77-110.46-134.54-215.89-134.54s-193.63,57.52-215.89,134.54Z" transform="translate(355.73 -215.08)"/><path class="cls-13" d="M2215.51,861.09a29.23,29.23,0,0,1,28.11,21.18h-56.21A29.23,29.23,0,0,1,2215.51,861.09Z" transform="translate(355.73 -215.08)"/><path class="cls-13" d="M2078.53,851.06a43.06,43.06,0,0,1,41.4,31.21h-82.8A43.07,43.07,0,0,1,2078.53,851.06Z" transform="translate(355.73 -215.08)"/><path class="cls-13" d="M2207,882.27c-6.35-22-31.5-38.37-61.57-38.37s-55.23,16.41-61.58,38.37Z" transform="translate(355.73 -215.08)"/><path class="cls-14" d="M199.56,1178.75c-13,22.4-39.66,31.18-39.66,31.18s-5.68-27.53,7.29-49.92,39.66-31.17,39.66-31.17S212.52,1156.36,199.56,1178.75Z" transform="translate(355.73 -215.08)"/><path class="cls-14" d="M240,1288.21c-16.5,19.93-44.28,24.16-44.28,24.16s-1-28.08,15.46-48,44.28-24.17,44.28-24.17S256.51,1268.27,240,1288.21Z" transform="translate(355.73 -215.08)"/><path class="cls-14" d="M106.11,1095.41c15.46,20.75,13,48.74,13,48.74s-27.54-5.64-43-26.38-13-48.74-13-48.74S90.64,1074.67,106.11,1095.41Z" transform="translate(355.73 -215.08)"/><path class="cls-14" d="M116.89,1186.44c25.64,3.48,43.91,24.83,43.91,24.83s-23.3,15.72-48.94,12.24S68,1198.68,68,1198.68,91.25,1183,116.89,1186.44Z" transform="translate(355.73 -215.08)"/><path class="cls-14" d="M151.68,1286.93c25.64,3.48,43.91,24.83,43.91,24.83s-23.3,15.71-48.94,12.24-43.91-24.84-43.91-24.84S126,1283.45,151.68,1286.93Z" transform="translate(355.73 -215.08)"/><path class="cls-14" d="M218.55,1520.84l-5.25-.43c0-.61,4.86-61.8-6.06-140.19-6.4-46-16.89-88.8-31.17-127.27-17.82-48-41.63-89.31-70.76-122.78l4-3.46c29.56,34,53.7,75.85,71.74,124.47,14.42,38.84,25,82.06,31.45,128.44C223.46,1458.56,218.6,1520.23,218.55,1520.84Z" transform="translate(355.73 -215.08)"/><path class="cls-14" d="M15.28,1284.07c-3.07,20.8-20.59,35.44-20.59,35.44s-12.55-19.08-9.49-39.88,20.59-35.44,20.59-35.44S18.34,1263.27,15.28,1284.07Z" transform="translate(355.73 -215.08)"/><path class="cls-14" d="M78.68,1354.58c-6.48,20-26.19,31.53-26.19,31.53s-9.21-20.89-2.74-40.89,26.19-31.54,26.19-31.54S85.15,1334.57,78.68,1354.58Z" transform="translate(355.73 -215.08)"/><path class="cls-14" d="M-80.31,1249.19c17.9,11,24.45,32.9,24.45,32.9s-22.48,4-40.39-7-24.44-32.91-24.44-32.91S-98.21,1238.17-80.31,1249.19Z" transform="translate(355.73 -215.08)"/><path class="cls-14" d="M-44.84,1314.69c20.4-5.07,40.61,5.57,40.61,5.57s-12.88,18.86-33.28,23.93-40.61-5.57-40.61-5.57S-65.25,1319.76-44.84,1314.69Z" transform="translate(355.73 -215.08)"/><path class="cls-14" d="M11.59,1380.12c20.4-5.06,40.61,5.58,40.61,5.58s-12.88,18.86-33.28,23.93-40.61-5.57-40.61-5.57S-8.81,1385.19,11.59,1380.12Z" transform="translate(355.73 -215.08)"/><path class="cls-14" d="M132.3,1536.68l-4.09,1.25c-.15-.47-14.88-48.12-46.65-104-18.65-32.8-39.42-62-61.75-86.74-27.86-30.9-58.24-55-90.29-71.48l2-3.8C-36,1288.64-5.19,1313,23,1344.32c22.54,25,43.5,54.46,62.3,87.55C117.32,1488.18,132.16,1536.2,132.3,1536.68Z" transform="translate(355.73 -215.08)"/><path class="cls-14" d="M-245,1516.45a102,102,0,0,0-98,73.89h196A101.94,101.94,0,0,0-245,1516.45Z" transform="translate(355.73 -215.08)"/><path class="cls-14" d="M232.68,1481.5A150.18,150.18,0,0,0,88.31,1590.34H377.06A150.19,150.19,0,0,0,232.68,1481.5Z" transform="translate(355.73 -215.08)"/><path class="cls-14" d="M-215.37,1590.34c22.14-76.6,109.86-133.82,214.73-133.82S192,1513.74,214.09,1590.34Z" transform="translate(355.73 -215.08)"/><path class="cls-15" d="M-100.1,1577a45.59,45.59,0,0,0-43.82,33h87.65A45.61,45.61,0,0,0-100.1,1577Z" transform="translate(355.73 -215.08)"/><path class="cls-15" d="M113.51,1561.37A67.17,67.17,0,0,0,49,1610H178.07A67.17,67.17,0,0,0,113.51,1561.37Z" transform="translate(355.73 -215.08)"/><path class="cls-15" d="M-86.84,1610c9.9-34.25,49.13-59.84,96-59.84s86.12,25.59,96,59.84Z" transform="translate(355.73 -215.08)"/><path class="cls-16" d="M2040.43,1555.18a55.9,55.9,0,0,1,53.73,40.5H1986.71A55.89,55.89,0,0,1,2040.43,1555.18Z" transform="translate(355.73 -215.08)"/><path class="cls-16" d="M2103.3,1567.73a38.57,38.57,0,0,1,37.08,28h-74.15A38.57,38.57,0,0,1,2103.3,1567.73Z" transform="translate(355.73 -215.08)"/><path class="cls-16" d="M2023.4,1595.68c-7.22-25-35.81-43.62-70-43.62s-62.78,18.65-70,43.62Z" transform="translate(355.73 -215.08)"/><path class="cls-14" d="M914.63,1570.31a55.89,55.89,0,0,1,53.72,40.5H860.91A55.88,55.88,0,0,1,914.63,1570.31Z" transform="translate(355.73 -215.08)"/><path class="cls-14" d="M977.49,1582.86a38.57,38.57,0,0,1,37.08,28H940.42A38.57,38.57,0,0,1,977.49,1582.86Z" transform="translate(355.73 -215.08)"/><path class="cls-14" d="M897.59,1610.81c-7.22-25-35.81-43.62-70-43.62s-62.78,18.65-70,43.62Z" transform="translate(355.73 -215.08)"/><path class="cls-17" d="M1830.76,1569.23a59.12,59.12,0,0,1,56.82,42.84H1774A59.1,59.1,0,0,1,1830.76,1569.23Z" transform="translate(355.73 -215.08)"/><path class="cls-17" d="M1897.25,1582.51a40.78,40.78,0,0,1,39.21,29.56H1858A40.78,40.78,0,0,1,1897.25,1582.51Z" transform="translate(355.73 -215.08)"/><path class="cls-17" d="M1812.74,1612.07c-7.63-26.41-37.87-46.13-74-46.13s-66.39,19.72-74,46.13Z" transform="translate(355.73 -215.08)"/><path class="cls-17" d="M1679,1479.18a7,7,0,0,1,9.5,8.38,200.44,200.44,0,0,1,18,16.36,108.24,108.24,0,0,1-3.65-25.66,7,7,0,1,1,5-.23,7.2,7.2,0,0,1-1.24.41c.11,14.48,4.79,29.21,5.54,31.47a302.4,302.4,0,0,1,47.8,71.52l-3.43,1.54a283.43,283.43,0,0,0-19-33.89c-3.7-5.71-8.18-12.19-13.37-19a74.35,74.35,0,0,0-26,1.56,7,7,0,1,1-1.24-3.58,81.29,81.29,0,0,1,24-2.1,224.4,224.4,0,0,0-34.44-35.23,6.82,6.82,0,0,1-1.85,1.19,7,7,0,0,1-5.63-12.77Z" transform="translate(355.73 -215.08)"/><path class="cls-17" d="M1767.61,1521.88a74.33,74.33,0,0,0-24.88-7.7,7,7,0,1,1,.1-3.79,81.57,81.57,0,0,1,23.22,6.5,223.69,223.69,0,0,0-19.83-45.1,7.1,7.1,0,0,1-2.14.47,7,7,0,1,1,5.17-2.76,201.28,201.28,0,0,1,11.09,21.66,108.76,108.76,0,0,1,5.63-25.29,7,7,0,1,1,4.77,1.54,8.11,8.11,0,0,1-1.31-.05c-5,13.59-5.8,29-5.9,31.41a302.67,302.67,0,0,1,19.55,83.76l-3.75.24a283,283,0,0,0-5.89-38.43C1772,1537.7,1770.07,1530.05,1767.61,1521.88Z" transform="translate(355.73 -215.08)"/><rect class="cls-14" x="1397.5" y="219.95" width="394.46" height="394.46"/><path class="cls-16" d="M1024.73,1183l25-22.12a45.94,45.94,0,0,0,15.44-37.25l-2.06-33.38a45.94,45.94,0,0,1,48.68-48.68l33.38,2.06a45.93,45.93,0,0,0,37.25-15.43l22.12-25a45.94,45.94,0,0,1,68.85,0l22.12,25a45.93,45.93,0,0,0,37.25,15.43l33.38-2.06a45.94,45.94,0,0,1,48.68,48.68l-2.06,33.38a45.93,45.93,0,0,0,15.43,37.25l25,22.12a45.94,45.94,0,0,1,0,68.85l-25,22.12a45.93,45.93,0,0,0-15.43,37.25l2.06,33.38a45.94,45.94,0,0,1-48.68,48.68l-33.38-2.06a45.91,45.91,0,0,0-37.25,15.44l-22.12,25a45.94,45.94,0,0,1-68.85,0l-22.12-25a45.93,45.93,0,0,0-37.25-15.43l-33.38,2.06a45.94,45.94,0,0,1-48.68-48.68l2.06-33.38a45.94,45.94,0,0,0-15.44-37.25l-25-22.12A45.93,45.93,0,0,1,1024.73,1183Z" transform="translate(355.73 -215.08)"/><rect class="cls-15" x="809.09" y="686.39" width="241.13" height="545.73"/><polygon class="cls-18" points="1202.9 1030.59 1117.41 1233.12 1288.38 1233.12 1202.9 1030.59"/><circle class="cls-17" cx="1202.9" cy="730.69" r="77.17"/><rect class="cls-12" x="1584" y="560.08" width="21.47" height="189.09"/><polygon class="cls-12" points="1594.73 503.69 1566.89 578.69 1622.56 578.69 1594.73 503.69"/><rect class="cls-12" x="1018.02" y="1243.75" width="21.47" height="189.09" transform="translate(2722.78 94.47) rotate(90)"/><polygon class="cls-12" points="1535.41 1123.22 1460.41 1095.38 1460.41 1151.05 1535.41 1123.22"/><rect class="cls-12" x="836.43" y="971.91" width="21.47" height="189.09" transform="translate(2050.06 1917.83) rotate(180)"/><polygon class="cls-12" points="1202.9 1002.3 1230.73 927.3 1175.06 927.3 1202.9 1002.3"/><rect class="cls-12" x="1051.48" y="715.8" width="21.47" height="189.09" transform="translate(1334.73 1928.69) rotate(-123.77)"/><polygon class="cls-12" points="1292.48 679.15 1370.3 660.61 1339.36 614.33 1292.48 679.15"/><rect class="cls-12" x="1355.78" y="1584.87" width="21.47" height="189.09" transform="translate(3884.54 1353.75) rotate(126.21)"/><polygon class="cls-12" points="1844.03 1553.49 1799.95 1486.73 1767.07 1531.64 1844.03 1553.49"/><rect class="cls-12" x="1292.24" y="1579.62" width="21.47" height="189.09" transform="translate(392.32 3161.09) rotate(-105.46)"/><polygon class="cls-12" points="1513.23 1499.31 1592.94 1506.15 1578.1 1452.49 1513.23 1499.31"/><rect class="cls-12" x="1506.65" y="1589.83" width="21.47" height="189.09" transform="translate(3729.03 167.31) rotate(96.96)"/><polygon class="cls-12" points="2022.93 1487.6 1951.86 1450.87 1945.11 1506.13 2022.93 1487.6"/><rect class="cls-12" x="875.35" y="515.23" width="21.47" height="189.09" transform="translate(632.05 1280.78) rotate(-90)"/><polygon class="cls-12" points="1090.89 394.69 1165.89 422.53 1165.89 366.86 1090.89 394.69"/><rect class="cls-12" x="563.18" y="778.74" width="21.47" height="189.09" transform="translate(1503.57 1531.48) rotate(180)"/><polygon class="cls-12" points="929.65 809.13 957.49 734.13 901.82 734.13 929.65 809.13"/><rect class="cls-12" x="587.58" y="1346.47" width="21.47" height="189.09" transform="translate(1976.74 47.55) rotate(63.5)"/><polygon class="cls-12" points="1089.12 1158.6 1009.58 1167.15 1034.42 1216.97 1089.12 1158.6"/><path class="cls-19" d="M1534.85,1638.88s2.89,9.83,1.16,10.41-42.22,2.31-45.11.58,5.79-4.63,5.79-4.63,19.08-5.2,30.06-6.36C1526.75,1638.88,1534.85,1638.3,1534.85,1638.88Z" transform="translate(355.73 -215.08)"/><path class="cls-19" d="M1540.45,1505.3c-2.31-4.62-4.93-6.94-9.25-6.94a8.39,8.39,0,0,0-8.38,8.67l4.52,132.16a3.87,3.87,0,0,0,7.73,0l.19-5.71C1542.68,1543,1547.39,1522.07,1540.45,1505.3Z" transform="translate(355.73 -215.08)"/><path class="cls-19" d="M1554.75,1388.38c-3.3-15.48-11.57-18.11-17.29-17.91a8.82,8.82,0,0,0-1.18-.17,8.37,8.37,0,0,0-9,8.07l-4.56,132.16a3.87,3.87,0,0,0,3.6,4,3.77,3.77,0,0,0,2-.38,13.41,13.41,0,0,0,9.56-9.93C1543.71,1478.83,1559,1408.5,1554.75,1388.38Z" transform="translate(355.73 -215.08)"/><path class="cls-20" d="M1510.75,1640.78c4.19,1.84,11.16,3,19,3a72.08,72.08,0,0,0,7.22-.36c.52,3.57.75,7.74-1,7.94-3.06.35-47.07,1.68-47.33-.36C1488.2,1647,1500,1643.17,1510.75,1640.78Z" transform="translate(355.73 -215.08)"/><path class="cls-19" d="M1602.07,1638.88s2.89,9.83,1.15,10.41-42.21,2.31-45.1.58,5.78-4.63,5.78-4.63,19.08-5.2,30.07-6.36C1594,1638.88,1602.07,1638.3,1602.07,1638.88Z" transform="translate(355.73 -215.08)"/><path class="cls-19" d="M1607.67,1505.3c-2.31-4.62-4.94-6.94-9.25-6.94A8.39,8.39,0,0,0,1590,1507l4.51,132.16a3.87,3.87,0,0,0,7.73,0l.2-5.71C1609.89,1543,1614.61,1522.07,1607.67,1505.3Z" transform="translate(355.73 -215.08)"/><path class="cls-19" d="M1580.38,1385.84c-8.32-13.46-17-13.15-22.31-11a8.06,8.06,0,0,0-1.17.23,8.39,8.39,0,0,0-5.71,10.62l40.24,126a3.86,3.86,0,0,0,6.44,1.54,13.43,13.43,0,0,0,5.66-12.58C1600.46,1474.73,1591.19,1403.35,1580.38,1385.84Z" transform="translate(355.73 -215.08)"/><path class="cls-20" d="M1578,1640.78c4.2,1.84,11.16,3,19,3a71.93,71.93,0,0,0,7.22-.36c.53,3.57.76,7.74-1,7.94-3,.35-47.06,1.68-47.32-.36C1555.42,1647,1567.23,1643.17,1578,1640.78Z" transform="translate(355.73 -215.08)"/><path class="cls-21" d="M1527.33,1378.37s-8.82,45.8-7.74,136l3.82,103h15.72s12.3-74.85,4.71-117c0,0,21.46-94,23.61-124Z" transform="translate(355.73 -215.08)"/><path class="cls-21" d="M1607.24,1617.37H1590s-4.72-100.41-5.31-109.65-37.71-116.44-36.63-141.87l37.11,14.37s20.51,51,22,116.62C1607.24,1496.84,1620.73,1512,1607.24,1617.37Z" transform="translate(355.73 -215.08)"/><path class="cls-21" d="M1553,1180.18c21.14-6.57,55.47,14,52.78,38.45-.25,2.3-.76,4.65-.34,6.88.66,3.52,3.46,6,6.3,8,6.39,4.4,13.86,7.36,19.18,13,8.52,9.1,9.41,25.07,1.58,35.75-7.25,9.87-30.09,18.51-41.38,16s-20.55-10.71-26.34-20.82c-1.45-2.52-2.73-5.2-4.77-7.23-3.78-3.76-9.47-4.65-14-7.34-4.27-2.51-3.2-12.71-4.74-17.56-2-6.28,4.14-11.77,2.83-18.28-1.52-7.62-11.6-13.67-11.46-21.55C1532.79,1195.54,1543.56,1183.12,1553,1180.18Z" transform="translate(355.73 -215.08)"/><path class="cls-15" d="M1588.83,1389.33c1.51.22-.67-120-4.51-138.44-4.83-23.09-8.75-31-30-25.82-6.71,1.63-12.26,18.24-14.85,30.54s-5.47,13.36-.18,35.59c1.88,7.9-12.2,90.37-14.64,94.57,2.6,1.91,5.24,4.13,8.08,4.86C1552.19,1395.61,1568.73,1386.32,1588.83,1389.33Z" transform="translate(355.73 -215.08)"/><rect class="cls-22" x="1564.66" y="1291.67" width="21.47" height="189.09" transform="translate(841.37 2964.43) rotate(-100.06)"/><polygon class="cls-22" points="1782.52 1197.5 1861.23 1211.81 1851.51 1157 1782.52 1197.5"/><path class="cls-15" d="M1582.77,1234.87c-7.53-7.64-13.35-.38-13.59-.25-2.87,1.55-3.39,7.83-1.26,11.11l51.49,70.7c.71,1.21,2.79,0,4-.64a2.64,2.64,0,0,0,1-.93c2.28-2.47,2.75-6.84,1.63-10C1620.28,1288.18,1592.56,1244.8,1582.77,1234.87Z" transform="translate(355.73 -215.08)"/><path class="cls-21" d="M1564.14,1218.21s15.64-2.42,19.66-16.87c5.4-19.42-12.66-33-24.75-28.6-11.13,4-11.08,12.89-10.32,15.22S1564.14,1218.21,1564.14,1218.21Z" transform="translate(355.73 -215.08)"/><path class="cls-19" d="M1571.55,1198.69l-16.12-1.13c-.16,2.2-1.28,23.21-.25,31.09.66,2.42,4.7,3.43,9,2.25,3.89-1.05,6.67-3.51,6.71-5.75h0C1570.32,1220.42,1571,1206.41,1571.55,1198.69Z" transform="translate(355.73 -215.08)"/><path class="cls-19" d="M1570.85,1202.59c-5.08,11.92-17.49,18.05-24.78,15s-6.67-14.26-1.6-26.18,13.56-15.47,20.85-12.37S1575.92,1190.67,1570.85,1202.59Z" transform="translate(355.73 -215.08)"/><path class="cls-21" d="M1556.38,1175.71S1556,1193,1570.21,1202c7.35,4.61,12.61-7.4,12.61-7.4l-5.33-13.6s-5.34-6.43-10.34-7C1566.72,1174,1556.38,1175.71,1556.38,1175.71Z" transform="translate(355.73 -215.08)"/><path class="cls-21" d="M1548.69,1184.07s15-2.08,18-6.49-4.18-5.31-4.18-5.31A18.74,18.74,0,0,0,1548.69,1184.07Z" transform="translate(355.73 -215.08)"/><path class="cls-21" d="M1573.14,1178.09s-5.27-6.21.21-11.19,12.36-1.21,13.08,3.71c.8,5.46-2.41,8.07-4.83,9.09A8.73,8.73,0,0,1,1573.14,1178.09Z" transform="translate(355.73 -215.08)"/><path class="cls-19" d="M1576,1208.48c-1.86,2.63-6.84,4.14-8.75,2.79s-.87-3.81,1-6.44,5.14-4,7-2.64S1577.85,1205.85,1576,1208.48Z" transform="translate(355.73 -215.08)"/><path class="cls-19" d="M1618.6,1377.89a9.89,9.89,0,0,1-.39,3.37c-2.26,7.69-7,22-11.52,24.08-5.88,2.66-3-20.34,7.29-32.47Z" transform="translate(355.73 -215.08)"/><path class="cls-15" d="M1619.92,1377.63c4.42-18,8.13-58.53,6.51-70.18-1.35-9.67-7.2-8.71-7.45-8.74-3-.44-7.21,3.26-7.44,6.81l-.47,71.34Z" transform="translate(355.73 -215.08)"/><path class="cls-15" d="M1559.86,1240.44c5.14,9.24-3.65,13.33-3.85,13.54-2.37,2.49-8.62,1.54-11.16-1.34l-53.08-67.53c-1-1,.79-2.78,1.83-3.87a3,3,0,0,1,1.2-.77c3.08-1.69,7.47-1.14,10.24.71C1519.43,1190.82,1553.18,1228.41,1559.86,1240.44Z" transform="translate(355.73 -215.08)"/><path class="cls-19" d="M1472.4,1112.88a10,10,0,0,1,.09-3.4c1.57-7.86,5-22.58,9.33-25,5.63-3.17,4.76,20-4.38,33Z" transform="translate(355.73 -215.08)"/><path class="cls-15" d="M1472.62,1113.59c1.71,18.48,11.45,58,16.79,68.46,4.43,8.69,9.64,5.87,9.89,5.82,2.94-.55,5.75-5.44,4.81-8.87l-22.88-67.57Z" transform="translate(355.73 -215.08)"/><path class="cls-17" d="M1537.31,714.17a28.66,28.66,0,0,1,27.55,20.77h-55.11A28.66,28.66,0,0,1,1537.31,714.17Z" transform="translate(355.73 -215.08)"/><path class="cls-17" d="M1403,704.34a42.21,42.21,0,0,1,40.59,30.6h-81.18A42.22,42.22,0,0,1,1403,704.34Z" transform="translate(355.73 -215.08)"/><path class="cls-17" d="M1529,734.94c-6.23-21.54-30.89-37.62-60.37-37.62s-54.15,16.08-60.37,37.62Z" transform="translate(355.73 -215.08)"/><circle class="cls-22" cx="1334.05" cy="150.78" r="29.93"/><circle class="cls-22" cx="905.75" cy="314.38" r="29.93"/><circle class="cls-22" cx="2020.44" cy="795.11" r="29.93"/><circle class="cls-22" cx="988.34" cy="401.95" r="16.61"/><circle class="cls-22" cx="1932.82" cy="885.75" r="16.61"/><path class="cls-8" d="M1553.39,339A38.12,38.12,0,0,1,1590,366.66h-73.29A38.14,38.14,0,0,1,1553.39,339Z" transform="translate(355.73 -215.08)"/><path class="cls-8" d="M1374.77,326a56.14,56.14,0,0,1,54,40.7h-108A56.14,56.14,0,0,1,1374.77,326Z" transform="translate(355.73 -215.08)"/><path class="cls-8" d="M1542.3,366.66c-8.28-28.64-41.08-50-80.29-50s-72,21.4-80.29,50Z" transform="translate(355.73 -215.08)"/><g class="cls-23"><polygon class="cls-24" points="706.18 1669.47 602.42 1632.6 710.14 1399.94 818.34 1444.41 706.18 1669.47"/><path class="cls-24" d="M474.12,1527.05c-18,59.37-31.31,123-34.16,124.78l-102.54,5.6c-11.72-11.92-8.85-2.19-8.33-112.47,0-3.94-.12-7.89-.42-11.82l-3.84-50.48s28.93-54,82-37.18l12,5.22c7.14,2.74,50.36,79.63,55.28,76.35Z" transform="translate(355.73 -215.08)"/><path class="cls-24" d="M481.85,1395.61,434.09,1516c-4.35,8.63-22,.74-30.68-3.61h0a17.5,17.5,0,0,1-7.75-23.5l54.93-109a17.51,17.51,0,0,1,23.51-7.75h0A17.5,17.5,0,0,1,481.85,1395.61Z" transform="translate(355.73 -215.08)"/><path class="cls-24" d="M491.51,1355.61l-33.25-14.16h0c-10.12-5-14.51-16.63-9.57-25.35h0c4.73-8.34,16.19-10.77,25.6-5.44l39.27,22.26c6.08,3.45,8.35,10.71,5,15.9h0C513.14,1357.12,501.77,1360,491.51,1355.61Z" transform="translate(355.73 -215.08)"/><path class="cls-24" d="M428,1364.52l-1.25,112.32c-.82,9.71-17.2,11.85-26.91,11h0a17.64,17.64,0,0,1-16.09-19.07l9.09-107.25a17.65,17.65,0,0,1,19.07-16.1h0A17.65,17.65,0,0,1,428,1364.52Z" transform="translate(355.73 -215.08)"/><path class="cls-24" d="M475,1337.67l-53.82,36.56a17.25,17.25,0,0,1-24-4.57h0a17.26,17.26,0,0,1,4.58-24l53.82-36.57a17.25,17.25,0,0,1,24,4.58h0A17.25,17.25,0,0,1,475,1337.67Z" transform="translate(355.73 -215.08)"/><path class="cls-24" d="M448,1378.68,416.06,1363h0c-9.69-5.43-13.24-16.7-7.76-24.59h0c5.25-7.56,16.76-9.07,25.71-3.39l37.36,23.73c5.78,3.67,7.54,10.68,3.84,15.35h0C469.31,1381.59,457.86,1383.51,448,1378.68Z" transform="translate(355.73 -215.08)"/><path class="cls-24" d="M383.69,1371.74l4.24,97.14c-.49,11.13-16.79,17.36-26.1,16.89h0c-9.32-.47-16.48-9.87-16-21l4.12-94.7c.48-11.14,8.43-19.79,17.74-19.32h0C377,1351.21,384.18,1360.61,383.69,1371.74Z" transform="translate(355.73 -215.08)"/><path class="cls-24" d="M421.43,1363.92l-44.53,15.91c-10.47,3.74-21.3-.25-24.2-8.91h0c-2.9-8.66,3.25-18.71,13.72-22.45l44.52-15.91c10.47-3.74,21.31.24,24.2,8.9h0C438,1350.12,431.9,1360.18,421.43,1363.92Z" transform="translate(355.73 -215.08)"/><path class="cls-24" d="M305.07,1331.82l12.11,29.32h0c3.27,9.36-.83,19.28-9,21.64h0c-7.78,2.26-16.23-3.3-18.88-12.42l-11.06-38.06c-1.71-5.89,1.14-11.79,6.25-12.94h0C292.69,1317.54,301.34,1322.78,305.07,1331.82Z" transform="translate(355.73 -215.08)"/><path class="cls-24" d="M330.78,1409.45,365.59,1491c2.85,8-6.59,18.34-14.61,21.2h0a15.43,15.43,0,0,1-19.69-9.35l-29.55-83a15.41,15.41,0,0,1,9.35-19.69h0A15.42,15.42,0,0,1,330.78,1409.45Z" transform="translate(355.73 -215.08)"/><path class="cls-24" d="M317.84,1363.6l12.12,45a15.3,15.3,0,0,1-10.79,18.74h0a15.29,15.29,0,0,1-18.73-10.79l-12.12-45a15.27,15.27,0,0,1,10.78-18.73h0A15.28,15.28,0,0,1,317.84,1363.6Z" transform="translate(355.73 -215.08)"/><path class="cls-24" d="M549.64,1408l-81.24-7.38a16.38,16.38,0,0,1-14.84-17.8h0a16.4,16.4,0,0,1,17.8-14.84l81.24,7.39a16.39,16.39,0,0,1,14.84,17.8h0A16.38,16.38,0,0,1,549.64,1408Z" transform="translate(355.73 -215.08)"/><path class="cls-24" d="M567.67,1430.9l-25.25-25.8h0c-7.47-8.48-7.7-20.48-.5-26.19h0c6.89-5.47,17.92-3,24.65,5.44l28.07,35.35c4.34,5.47,4.06,12.79-.61,16h0C586.55,1440.89,575.47,1438.86,567.67,1430.9Z" transform="translate(355.73 -215.08)"/><polygon class="cls-24" points="811.62 1224.3 809.27 1291.13 766.43 1275.79 779.92 1220.42 811.62 1224.3"/><path class="cls-24" d="M440.5,1691.73C417.85,1677,389.75,1657.21,388,1616c-1.43-33,5.42-56.35,19.45-72.36,14.49-16.52,42.81-27.54,68.84-14.5,5,2.52,10.16,3.49,13.48,1.69l.15-.09c17.41-9.58,8-19.49,47-45.37s57.34-3.17,60.62,3.36-18.15,14-27.45,19.17-22.84,32.37-33.27,43.43c-6.11,6.48-15,25.48-21.41,40.14a286,286,0,0,1-21.15,39.75c-11.82,18.52-17.74,37.53-32.09,50.26C457.55,1685.46,445.52,1688.85,440.5,1691.73Z" transform="translate(355.73 -215.08)"/><polygon class="cls-25" points="511.55 1764.69 638.51 1826.7 777.07 1543 659.41 1485.54 511.55 1764.69"/></g></g></g></svg>