<svg xmlns="http://www.w3.org/2000/svg" xmlns:xlink="http://www.w3.org/1999/xlink" viewBox="0 0 3000.84 1128.03"><defs><style>.cls-1,.cls-16,.cls-35,.cls-43{fill:#75a1a8;}.cls-17,.cls-2,.cls-24,.cls-26,.cls-33{fill:#fff;}.cls-11,.cls-12,.cls-14,.cls-15,.cls-23,.cls-25,.cls-28,.cls-29,.cls-3,.cls-30,.cls-31,.cls-38,.cls-39,.cls-40,.cls-41,.cls-42,.cls-46,.cls-47,.cls-48,.cls-5,.cls-6,.cls-7,.cls-8{fill:none;}.cls-11,.cls-12,.cls-13,.cls-14,.cls-15,.cls-16,.cls-17,.cls-23,.cls-24,.cls-29,.cls-3,.cls-30,.cls-33,.cls-34,.cls-35,.cls-39,.cls-43,.cls-44{stroke:#231f20;}.cls-11,.cls-12,.cls-13,.cls-14,.cls-15,.cls-17,.cls-23,.cls-24,.cls-28,.cls-29,.cls-3,.cls-30,.cls-31,.cls-32,.cls-37,.cls-38,.cls-40,.cls-41,.cls-42,.cls-43,.cls-44,.cls-46,.cls-47,.cls-5,.cls-6,.cls-7,.cls-8{stroke-miterlimit:10;}.cls-16,.cls-3,.cls-40,.cls-47,.cls-48{stroke-width:6.8px;}.cls-4{fill:#99d2db;}.cls-28,.cls-5{stroke:#75a1a8;}.cls-5{stroke-width:47.6px;}.cls-37,.cls-46,.cls-47,.cls-48,.cls-6,.cls-7,.cls-8{stroke:#000;}.cls-29,.cls-30,.cls-6,.cls-7,.cls-8{stroke-width:10.2px;}.cls-7{stroke-dasharray:16.9 16.9;}.cls-8{stroke-dasharray:16.84 16.84;}.cls-13,.cls-27,.cls-34,.cls-44,.cls-9{fill:#5acfe1;}.cls-10{fill:#231f20;}.cls-11,.cls-12{stroke-width:4.84px;}.cls-12,.cls-14,.cls-15{stroke-linecap:round;}.cls-13,.cls-15{stroke-width:5.81px;}.cls-14{stroke-width:6.2px;}.cls-16,.cls-25,.cls-26,.cls-27,.cls-33,.cls-34,.cls-35,.cls-39,.cls-48{stroke-linejoin:round;}.cls-17,.cls-23,.cls-25,.cls-26,.cls-33,.cls-34,.cls-39,.cls-41,.cls-43,.cls-44,.cls-46{stroke-width:3.4px;}.cls-18{fill:#58595b;}.cls-19{fill:#f7ba8e;}.cls-20{fill:#bbbdbf;}.cls-21{fill:#404041;}.cls-22{fill:#a6a8ab;}.cls-24{stroke-width:6.46px;}.cls-25,.cls-26{stroke:#555;}.cls-27{stroke:#676767;stroke-width:0.42px;}.cls-28{stroke-width:74.8px;}.cls-30{stroke-dasharray:17 17;}.cls-31,.cls-32,.cls-41,.cls-42{stroke:#366627;}.cls-31{stroke-width:3.71px;}.cls-32{fill:#00adee;stroke-width:1.48px;}.cls-35{stroke-width:2.38px;}.cls-36{clip-path:url(#clip-path);}.cls-37{fill:#29a9e1;stroke-width:3.87px;}.cls-38,.cls-40{stroke:#99d2db;}.cls-38{stroke-width:27.2px;}.cls-42{stroke-width:7.82px;}.cls-45{fill:#f1f1f2;}</style><clipPath id="clip-path"><path id="ruler" class="cls-1" d="M2183.39,664.76h-56.08V995.43h56.08Zm-34.81,19.34a6.77,6.77,0,1,1,6.77,6.76A6.77,6.77,0,0,1,2148.58,684.1Z"/></clipPath></defs><g id="Layer_2" data-name="Layer 2"><rect class="cls-2" width="3000.84" height="1128.03"/></g><g id="Layer_1" data-name="Layer 1"><g id="Page"><polyline class="cls-3" points="740.25 644.67 740.25 941.74 471.65 941.74 471.65 572.83 669.7 572.83"/><polygon class="cls-4" points="677 569.48 677 634.77 743.86 634.77 677 569.48"/></g><path class="cls-5" d="M523.53,412V943.44c0,63-51.55,114.55-114.56,114.55h0c-63,0-114.56-51.55-114.56-114.55V651.77"/><line class="cls-6" x1="294.41" y1="651.77" x2="294.41" y2="660.27"/><path class="cls-7" d="M294.41,677.16V943.44c0,63,51.55,114.55,114.56,114.55h0c63,0,114.56-51.55,114.56-114.55V428.94"/><line class="cls-6" x1="523.53" y1="420.49" x2="523.53" y2="411.99"/><line class="cls-6" x1="523.53" y1="411.99" x2="523.52" y2="403.49"/><path class="cls-8" d="M523.51,386.65l-.08-151a124.43,124.43,0,0,1,122-124.4c69.75-1.33,126.85,57.09,126.85,126.86V697.43a61.2,61.2,0,0,0,61.2,61.2h609.91"/><line class="cls-6" x1="1451.81" y1="758.63" x2="1460.31" y2="758.63"/><g id="Coffee_Mug" data-name="Coffee Mug"><rect class="cls-1" x="182.83" y="407.73" width="235.66" height="235.66"/><path class="cls-9" d="M253.32,611.81A21.83,21.83,0,0,1,231.51,590V493a2.43,2.43,0,0,1,2.43-2.43H335a2.43,2.43,0,0,1,2.43,2.43V590a21.83,21.83,0,0,1-21.81,21.8Z"/><path class="cls-10" d="M335,493V590a19.4,19.4,0,0,1-19.38,19.38H253.32A19.4,19.4,0,0,1,233.94,590V493H335m0-4.85H233.94a4.85,4.85,0,0,0-4.85,4.85V590a24.22,24.22,0,0,0,24.23,24.22h62.33A24.22,24.22,0,0,0,339.88,590V493A4.85,4.85,0,0,0,335,488.1Z"/><path class="cls-11" d="M338.45,585.23h7.82a26,26,0,0,0,26-26v-27a26,26,0,0,0-26-26h-7.82"/><path class="cls-12" d="M282.06,484.55c0-7.94,4.85-7.94,4.85-15.88s-4.85-7.94-4.85-15.88,4.85-7.94,4.85-15.88"/><path class="cls-12" d="M254.61,484.55c0-7.94,4.84-7.94,4.84-15.88s-4.84-7.94-4.84-15.88,4.84-7.94,4.84-15.88"/><path class="cls-12" d="M312.91,484.55c0-7.94,4.84-7.94,4.84-15.88s-4.84-7.94-4.84-15.88,4.84-7.94,4.84-15.88"/></g><g id="Light_Bulb" data-name="Light Bulb"><rect class="cls-10" x="614.97" y="343.13" width="65.89" height="11.63" rx="5.81"/><rect class="cls-10" x="618.85" y="358.38" width="58.14" height="11.63" rx="5.81"/><rect class="cls-10" x="622.72" y="373.62" width="50.39" height="12.02" rx="5.81"/><path class="cls-1" d="M610.59,338.22c-7.09-43.58-42.38-75.5-42.38-114.4a79.65,79.65,0,0,1,159.29,0c0,38.91-34.93,70.83-41.93,114.42Z"/><path class="cls-13" d="M618.07,335.12c0-42.63-36-71.24-36-107a65.83,65.83,0,0,1,131.65,0c0,35.74-35.66,64.35-35.66,107Z"/><path class="cls-14" d="M661.48,335.12c0-43.2,10.6-73.83,10.6-86.4"/><path class="cls-14" d="M634.61,335.12c0-43.2-10.6-73.83-10.6-86.4"/><path class="cls-15" d="M672.08,248.14c-4,0-4-3.88-8-3.88s-4,3.88-8,3.88-4-3.88-8-3.88-4,3.88-8,3.88-4-3.88-8-3.88-4,3.88-8,3.88"/></g><g id="Envelope"><rect class="cls-3" x="361.46" y="686.32" width="324.13" height="163.2"/><rect class="cls-1" x="396.57" y="730.81" width="253.72" height="76.07"/><path class="cls-16" d="M685.59,696.52l-124.9,62.89a82.65,82.65,0,0,1-74.33,0l-124.9-62.89v-10.2H685.59Z"/></g><g id="Hands_on_Keyboard" data-name="Hands on Keyboard"><g id="Keyboard"><rect class="cls-17" x="1494.48" y="646.09" width="505.92" height="225.08" rx="23.8"/><g id="Keys"><rect class="cls-9" x="1518.28" y="681.11" width="28.56" height="28.56" rx="3.4"/><rect class="cls-9" x="1561.28" y="681.11" width="28.56" height="28.56" rx="3.4"/><rect class="cls-9" x="1604.27" y="681.11" width="28.56" height="28.56" rx="3.4"/><rect class="cls-9" x="1647.27" y="681.11" width="28.56" height="28.56" rx="3.4"/><rect class="cls-9" x="1690.27" y="681.11" width="28.56" height="28.56" rx="3.4"/><rect class="cls-9" x="1733.26" y="681.11" width="28.56" height="28.56" rx="3.4"/><rect class="cls-9" x="1776.26" y="681.11" width="28.56" height="28.56" rx="3.4"/><rect class="cls-9" x="1819.25" y="681.11" width="28.56" height="28.56" rx="3.4"/><rect class="cls-9" x="1862.25" y="681.11" width="28.56" height="28.56" rx="3.4"/><rect class="cls-9" x="1904.64" y="681.11" width="71.74" height="28.56" rx="3.4"/><rect class="cls-9" x="1518.28" y="723.27" width="28.56" height="28.56" rx="3.4"/><rect class="cls-9" x="1561.28" y="723.27" width="28.56" height="28.56" rx="3.4"/><rect class="cls-9" x="1604.27" y="723.27" width="28.56" height="28.56" rx="3.4"/><rect class="cls-9" x="1647.27" y="723.27" width="28.56" height="28.56" rx="3.4"/><rect class="cls-9" x="1690.27" y="723.27" width="28.56" height="28.56" rx="3.4"/><rect class="cls-9" x="1733.26" y="723.27" width="28.56" height="28.56" rx="3.4"/><rect class="cls-9" x="1776.26" y="723.27" width="28.56" height="28.56" rx="3.4"/><rect class="cls-9" x="1819.25" y="723.27" width="28.56" height="28.56" rx="3.4"/><rect class="cls-9" x="1862.25" y="723.27" width="28.56" height="28.56" rx="3.4"/><rect class="cls-9" x="1518.28" y="765.43" width="28.56" height="28.56" rx="3.4"/><rect class="cls-9" x="1561.28" y="765.43" width="28.56" height="28.56" rx="3.4"/><rect class="cls-9" x="1604.27" y="765.43" width="28.56" height="28.56" rx="3.4"/><rect class="cls-9" x="1647.27" y="765.43" width="28.56" height="28.56" rx="3.4"/><rect class="cls-9" x="1690.27" y="765.43" width="28.56" height="28.56" rx="3.4"/><rect class="cls-9" x="1733.26" y="765.43" width="28.56" height="28.56" rx="3.4"/><rect class="cls-9" x="1776.26" y="765.43" width="28.56" height="28.56" rx="3.4"/><rect class="cls-9" x="1819.25" y="765.43" width="28.56" height="28.56" rx="3.4"/><rect class="cls-9" x="1862.25" y="765.43" width="28.56" height="28.56" rx="3.4"/><rect class="cls-9" x="1947.82" y="807.59" width="28.56" height="28.56" rx="3.4"/><path class="cls-9" d="M1976.38,726.67v63.92a3.4,3.4,0,0,1-3.4,3.4h-21.76a3.4,3.4,0,0,1-3.4-3.4V751.83h-39.39a3.4,3.4,0,0,1-3.4-3.4V726.67a3.41,3.41,0,0,1,3.4-3.4H1973A3.41,3.41,0,0,1,1976.38,726.67Z"/><rect class="cls-9" x="1905.03" y="807.59" width="28.56" height="28.56" rx="3.4"/><rect class="cls-9" x="1905.03" y="765.43" width="28.56" height="28.56" rx="3.4"/><rect class="cls-9" x="1862.25" y="807.59" width="28.56" height="28.56" rx="3.4"/><rect class="cls-9" x="1819.25" y="807.59" width="28.56" height="28.56" rx="3.4"/><rect class="cls-9" x="1518.28" y="807.59" width="286.53" height="28.56" rx="3.4"/></g><rect class="cls-18" x="1732.82" y="622.63" width="29.24" height="23.46"/></g><g id="Left_Hand" data-name="Left Hand"><path class="cls-19" d="M1686.73,850.05a13.85,13.85,0,0,1-1.48,6.26c0,.09-.08.17-.13.26a1.4,1.4,0,0,1-.09.17c-4.89,9.23-14,26.19-16.47,31.06s-4.91,13.79-8.13,21.75-11.17,22.67-15.46,30-10.72,15.93-23.89,19.6v14.4h-76.27s0-3.68-.12-10.41c-3.19-.31-5.4-1.84-8.76-4.6s-7.35-11.94-9.2-19.29-6.63-38.23-4-64.64V786.15a11,11,0,0,1,22,0V864c.82-.25,1.74-.49,2.74-.71V760.39a13.57,13.57,0,1,1,27.14,0V860.71c1.17,0,2.34-.06,3.5-.07V749.87a14.79,14.79,0,0,1,29.58,0V862.05c1,.17,2,.36,2.75.55V766.94a13.57,13.57,0,1,1,27.14,0V874.63s1.31,8,5,2.45l17.91-33.62a14,14,0,0,1,26.3,6.59Z"/><rect class="cls-20" x="1534.6" y="973.57" width="93.5" height="21.7"/><rect class="cls-21" x="1524.74" y="995.27" width="113.22" height="85.82"/><circle class="cls-22" cx="1535.82" cy="1017.3" r="6.8"/><circle class="cls-22" cx="1535.82" cy="1038.18" r="6.8"/><circle class="cls-22" cx="1535.82" cy="1059.06" r="6.8"/></g><g id="Right_Hand" data-name="Right Hand"><path class="cls-19" d="M1809.51,850.05a13.73,13.73,0,0,0,1.49,6.26l.12.26.09.17c4.9,9.23,14,26.19,16.48,31.06s4.9,13.79,8.13,21.75,11.17,22.67,15.45,30,10.73,15.93,23.9,19.6v14.4h76.27s0-3.68.12-10.41c3.18-.31,5.39-1.84,8.76-4.6s7.35-11.94,9.19-19.29,6.63-38.23,4-64.64V857.55a11,11,0,0,0-22,0V864c-.82-.25-1.74-.49-2.75-.71V845.39a13.57,13.57,0,1,0-27.14,0v15.32c-1.17,0-2.34-.06-3.5-.07V834.87a14.79,14.79,0,1,0-29.58,0v27.18c-1,.17-1.95.36-2.75.55V766.94a13.57,13.57,0,1,0-27.14,0V874.63s-1.3,8-5,2.45l-17.91-33.62a14,14,0,0,0-26.31,6.59Z"/><rect class="cls-20" x="1868.14" y="973.57" width="93.5" height="21.7" transform="translate(3829.79 1968.84) rotate(-180)"/><rect class="cls-21" x="1858.28" y="995.27" width="113.22" height="85.82" transform="translate(3829.79 2076.37) rotate(-180)"/><circle class="cls-22" cx="1960" cy="1017.3" r="6.8"/><circle class="cls-22" cx="1960" cy="1038.18" r="6.8"/><circle class="cls-22" cx="1960" cy="1059.06" r="6.8"/></g></g><path class="cls-23" d="M1788.07,614.37h-81a23.87,23.87,0,0,1-8.31-1.49c-11.36-4.23-17-17.06-13.63-28.69l15.14-64.08h94.65L1810,584.19c3.39,11.63-2.28,24.46-13.64,28.69A23.77,23.77,0,0,1,1788.07,614.37Z"/><path class="cls-23" d="M1519.78,520.11h455.53a25.2,25.2,0,0,1,25.2,25.2v0a0,0,0,0,1,0,0H1494.58a0,0,0,0,1,0,0v0A25.2,25.2,0,0,1,1519.78,520.11Z"/><g id="Clock"><circle class="cls-1" cx="2155.35" cy="457.67" r="109.93"/><circle class="cls-24" cx="2155.35" cy="457.67" r="95.59"/><line class="cls-23" x1="2217.54" y1="457.67" x2="2244.74" y2="457.67"/><line class="cls-3" x1="2155.35" y1="457.67" x2="2189.35" y2="457.67"/><line class="cls-3" x1="2155.35" y1="457.67" x2="2127.73" y2="409.83"/><line class="cls-23" x1="2209.21" y1="426.58" x2="2232.76" y2="412.98"/><line class="cls-23" x1="2186.45" y1="403.82" x2="2200.05" y2="380.26"/><line class="cls-23" x1="2155.35" y1="395.49" x2="2155.35" y2="368.29"/><line class="cls-23" x1="2124.26" y1="403.82" x2="2110.66" y2="380.26"/><line class="cls-23" x1="2101.5" y1="426.58" x2="2077.94" y2="412.98"/><line class="cls-23" x1="2093.17" y1="457.67" x2="2065.97" y2="457.67"/><line class="cls-23" x1="2101.5" y1="488.77" x2="2077.94" y2="502.37"/><line class="cls-23" x1="2124.26" y1="511.53" x2="2110.66" y2="535.08"/><line class="cls-23" x1="2155.35" y1="519.86" x2="2155.35" y2="547.06"/><line class="cls-23" x1="2186.45" y1="511.53" x2="2200.05" y2="535.08"/><line class="cls-23" x1="2209.21" y1="488.77" x2="2232.76" y2="502.37"/><circle class="cls-10" cx="2155.35" cy="457.67" r="7.59"/></g><g id="Balloon"><g id="Balloon-2" data-name="Balloon"><circle class="cls-25" cx="1510.17" cy="194.91" r="86.39"/><ellipse class="cls-25" cx="1510.17" cy="194.91" rx="58.85" ry="86.39"/><ellipse class="cls-25" cx="1510.17" cy="194.91" rx="32.05" ry="86.39"/><rect class="cls-26" x="1501.34" y="368.67" width="17.66" height="17.66"/><line class="cls-25" x1="1590.9" y1="225.75" x2="1519" y2="368.67"/><line class="cls-25" x1="1434.52" y1="236.66" x2="1501.34" y2="368.67"/><line class="cls-25" x1="1510.17" y1="108.51" x2="1510.17" y2="281.3"/></g><path class="cls-27" d="M1636.7,317h0a10.5,10.5,0,0,1-10.47,10.46H1526A10.5,10.5,0,0,1,1515.48,317h0a30,30,0,0,1,42.26-27.39h0a44.24,44.24,0,0,1,79,27.39Z"/><path class="cls-27" d="M1357.93,206.33h0a10.5,10.5,0,0,0,10.47,10.46h100.28a10.5,10.5,0,0,0,10.47-10.46h0a30,30,0,0,0-42.26-27.39h0a44.24,44.24,0,0,0-79,27.39Z"/></g><path class="cls-28" d="M2720.51,554.49V860.67c0,121.8-98.74,220.54-220.54,220.54h0c-121.8,0-220.54-98.74-220.54-220.54V601.84"/><line class="cls-29" x1="2720.51" y1="554.49" x2="2720.51" y2="562.99"/><path class="cls-30" d="M2720.51,580V860.67c0,121.8-98.74,220.54-220.54,220.54h0c-121.8,0-220.54-98.74-220.54-220.54V618.84"/><line class="cls-29" x1="2279.43" y1="610.34" x2="2279.43" y2="601.84"/><path class="cls-10" d="M2036.41,455l-10.16-.21c0,.95-.07,1.89-.07,2.84v13.95h10.2V457.67C2036.38,456.38,2036.41,454.63,2036.41,455Z"/><rect class="cls-10" x="2274.33" y="513.09" width="10.2" height="224.47"/><rect class="cls-10" x="2274.33" y="487.66" width="10.2" height="16.93"/><path class="cls-10" d="M2027.75,437.55l10.06,1.57c0,.1,0,.21,0,.31.89-5.74,3.66-16.19,3.58-15.9l-9.73-2.9A128.26,128.26,0,0,0,2027.75,437.55Z"/><rect class="cls-10" x="2026.18" y="488.31" width="10.2" height="16.69"/><path class="cls-10" d="M1975.29,564.38H1787.22c-32.71,0-44.88,9.15-44.88,33.77v27.54h10.2V598.15c0-16.62,4.82-23.57,34.68-23.57h188.07a61.15,61.15,0,0,0,61.09-61.08h-10.2A51,51,0,0,1,1975.29,564.38Z"/><path class="cls-10" d="M2075,370h0l-6.85-7.46a131.41,131.41,0,0,0-12,12.55l7.78,6.49h0l.09.07a123.23,123.23,0,0,1,11-11.57Z"/><path class="cls-10" d="M2054.53,394.48,2046,389.1a129.48,129.48,0,0,0-8.23,15.27l9.3,4.2C2050.07,402.13,2055,393.69,2054.53,394.48Z"/><path class="cls-10" d="M2096.51,342.74a128.89,128.89,0,0,0-14.86,8.94l5.84,8.37a118.47,118.47,0,0,1,13.65-8.22Z"/><path class="cls-10" d="M2129.15,331.17a128.37,128.37,0,0,0-16.72,4.69l3.41,9.63a117.86,117.86,0,0,1,15.37-4.27Z"/><path class="cls-10" d="M2163.07,338.94h0l.64-10.14c-2.75-.18-5.53-.3-8.33-.3-3,0-6,.14-9,.35l.73,10.19c2.74-.2,5.49-.34,8.28-.34,2.6,0,5.17.12,7.72.3Z"/><path class="cls-10" d="M2178.89,341h0l0,.1a117.89,117.89,0,0,1,15.42,4.18l3.38-9.66a129,129,0,0,0-16.75-4.6Z"/><path class="cls-10" d="M2213.61,342.44l-4.57,9h0l0,.07a117.65,117.65,0,0,1,13.74,8.18l.06-.07h0l5.75-8.34A129.93,129.93,0,0,0,2213.61,342.44Z"/><path class="cls-10" d="M2246.41,381.09h0l7.74-6.51a131.28,131.28,0,0,0-12-12.5l-6.9,7.6a120.33,120.33,0,0,1,11.07,11.51Z"/><path class="cls-10" d="M2264.39,388.55l-8.54,5.42v0l-.08,0a119.57,119.57,0,0,1,7.67,14.08l.08,0v0l9.2-4.24A128.69,128.69,0,0,0,2264.39,388.55Z"/><path class="cls-10" d="M2282.83,436.88a128.11,128.11,0,0,0-3.93-16.9l-9.72,3v0l-.09,0a116.78,116.78,0,0,1,3.67,15.57Z"/><path class="cls-10" d="M2284.44,454.15l-10.19.29c0,1.07.08,2.15.08,3.23V471h10.2V457.67C2284.53,456.49,2284.47,455.33,2284.44,454.15Z"/><g id="Pen_Tool" data-name="Pen Tool"><path class="cls-1" d="M2749.78,499.57c2.5-8.25,5.7-13.93,7.1-14.78,1.16-.71,5.22-1.43,5.22-3.73a16,16,0,0,0-2-6.87l-35.37-75.62v62.07a12.51,12.51,0,1,1-8.1-.1V398.3l-35.49,75.89a16,16,0,0,0-2,6.87c0,2.3,4.06,3,5.22,3.73,1.4.85,4.6,6.53,7.1,14.78a79.86,79.86,0,0,1,3.43,20.84v1.12h-11.69v29.66H2758V521.53h-11.69v-1.11A79.86,79.86,0,0,1,2749.78,499.57Z"/><path class="cls-31" d="M2628.87,457.88s4.63-88.76,91.72-88.76,91,88.76,91,88.76"/><rect class="cls-9" x="2803.79" y="450.28" width="15.38" height="15.38"/><rect class="cls-9" x="2712.9" y="361.43" width="15.38" height="15.38"/><rect class="cls-9" x="2621.18" y="450.19" width="15.38" height="15.38"/><line class="cls-32" x1="2633.68" y1="369.12" x2="2807.49" y2="369.12"/><circle class="cls-9" cx="2807.49" cy="369.12" r="7.69"/><circle class="cls-9" cx="2633.68" cy="369.12" r="7.69"/></g><rect class="cls-33" x="2258.73" y="487.03" width="34" height="243.22" transform="translate(1667.08 2884.37) rotate(-90)"/><polygon class="cls-33" points="2134.36 608.64 2154.11 625.64 2154.11 591.64 2134.36 608.64"/><rect class="cls-34" x="2397.34" y="598.44" width="34" height="20.4" transform="translate(1805.69 3022.98) rotate(-90)"/><rect class="cls-35" x="2388.67" y="605.32" width="23.8" height="7.14" transform="translate(1791.67 3009.46) rotate(-90)"/><line class="cls-17" x1="2397.34" y1="608.64" x2="2154.12" y2="608.64"/><polyline class="cls-23" points="2296.51 578.35 2397.34 578.35 2397.34 591.64"/><path class="cls-23" d="M989.3,609.86c-4.53,0-16.79.07-18.43,0-1,0-1.26.33-1.16.87a14.82,14.82,0,0,0,.82,1.93l9.39,22.13a1.7,1.7,0,0,1-.9,2.23l-8.42,3.57a1.69,1.69,0,0,1-2.23-.9L959,617.61a15.22,15.22,0,0,0-.81-1.92c-.32-.45-.73-.53-1.44.23-1.12,1.19-9.67,10-12.83,13.21a.68.68,0,0,1-1.17-.47l-.36-64.59a1.65,1.65,0,0,0,1.2-.51l46.2,45.13A.68.68,0,0,1,989.3,609.86Z"/><g id="Ruler-2" data-name="Ruler"><path id="ruler-3" data-name="ruler" class="cls-1" d="M2183.39,664.76h-56.08V995.43h56.08Zm-34.81,19.34a6.77,6.77,0,1,1,6.77,6.76A6.77,6.77,0,0,1,2148.58,684.1Z"/><g class="cls-36"><line class="cls-37" x1="2168.89" y1="978.99" x2="2240.44" y2="978.99"/><line class="cls-37" x1="2174.69" y1="965.46" x2="2246.24" y2="965.46"/><line class="cls-37" x1="2168.89" y1="951.92" x2="2240.44" y2="951.92"/><line class="cls-37" x1="2174.69" y1="938.38" x2="2246.24" y2="938.38"/><line class="cls-37" x1="2168.89" y1="924.85" x2="2240.44" y2="924.85"/><line class="cls-37" x1="2174.69" y1="911.31" x2="2246.24" y2="911.31"/><line class="cls-37" x1="2168.89" y1="897.77" x2="2240.44" y2="897.77"/><line class="cls-37" x1="2174.69" y1="884.24" x2="2246.24" y2="884.24"/><line class="cls-37" x1="2168.89" y1="870.7" x2="2240.44" y2="870.7"/><line class="cls-37" x1="2174.69" y1="857.17" x2="2246.24" y2="857.17"/><line class="cls-37" x1="2168.89" y1="843.63" x2="2240.44" y2="843.63"/><line class="cls-37" x1="2174.69" y1="830.09" x2="2246.24" y2="830.09"/><line class="cls-37" x1="2168.89" y1="816.56" x2="2240.44" y2="816.56"/><line class="cls-37" x1="2174.69" y1="803.02" x2="2246.24" y2="803.02"/><line class="cls-37" x1="2168.89" y1="789.48" x2="2240.44" y2="789.48"/><line class="cls-37" x1="2174.69" y1="775.95" x2="2246.24" y2="775.95"/><line class="cls-37" x1="2168.89" y1="762.41" x2="2240.44" y2="762.41"/><line class="cls-37" x1="2174.69" y1="748.88" x2="2246.24" y2="748.88"/><line class="cls-37" x1="2168.89" y1="735.34" x2="2240.44" y2="735.34"/><line class="cls-37" x1="2174.69" y1="721.8" x2="2246.24" y2="721.8"/><line class="cls-37" x1="2168.89" y1="708.27" x2="2240.44" y2="708.27"/></g></g><path id="ruler-4" data-name="ruler" class="cls-1" d="M768.27,1036.15V1081h264.54v-44.87ZM783.74,1064a5.42,5.42,0,1,1,5.42-5.42A5.42,5.42,0,0,1,783.74,1064Z"/><path class="cls-38" d="M808.8,1036.17a91.42,91.42,0,1,1,182.84,0"/><g id="Pencil"><rect class="cls-23" x="1148.04" y="396.86" width="20.4" height="277.22"/><polygon class="cls-39" points="1158.24 368.19 1148.04 390.06 1168.44 390.06 1158.24 368.19"/><rect class="cls-33" x="1148.04" y="680.88" width="20.4" height="20.4"/></g><g id="Selection_Box" data-name="Selection Box"><path class="cls-10" d="M1024.31,514.52h-8.5v-3.4h6.8v-6.8h3.4v8.5A1.7,1.7,0,0,1,1024.31,514.52Z"/><path class="cls-10" d="M1005.34,514.52H987.87v-3.4h17.47Zm-27.94,0H959.94v-3.4H977.4Zm-55.88,0H904.06v-3.4h17.46Zm-27.93,0H876.12v-3.4h17.47Z"/><path class="cls-10" d="M865.65,514.52h-8.5a1.7,1.7,0,0,1-1.7-1.7v-8.5h3.4v6.8h6.8Z"/><path class="cls-10" d="M858.85,493.84h-3.4V476.38h3.4Zm0-27.93h-3.4V448.44h3.4Zm0-55.88h-3.4V392.57h3.4Zm0-27.94h-3.4V364.63h3.4Z"/><path class="cls-10" d="M858.85,354.15h-3.4v-8.5a1.7,1.7,0,0,1,1.7-1.7h8.5v3.4h-6.8Z"/><path class="cls-10" d="M1005.34,347.35H987.87V344h17.47Zm-27.94,0H959.94V344H977.4Zm-55.88,0H904.06V344h17.46Zm-27.93,0H876.12V344h17.47Z"/><path class="cls-10" d="M1026,354.15h-3.4v-6.8h-6.8V344h8.5a1.7,1.7,0,0,1,1.7,1.7Z"/><rect class="cls-10" x="1022.61" y="476.38" width="3.4" height="17.46"/><rect class="cls-10" x="1022.61" y="448.44" width="3.4" height="17.46"/><rect class="cls-10" x="1022.61" y="392.57" width="3.4" height="17.46"/><rect class="cls-10" x="1022.61" y="364.63" width="3.4" height="17.46"/><rect class="cls-17" x="932.23" y="337.15" width="17" height="17"/><rect class="cls-17" x="848.65" y="420.74" width="17" height="17"/><rect class="cls-17" x="932.23" y="504.32" width="17" height="17"/><rect class="cls-17" x="1015.81" y="420.74" width="17" height="17"/></g><path class="cls-40" d="M2483.25,517.41h105.33V490c-17.31-27.41-25.25-130.57-25.25-163.76h-88c0,16.77-2,51.42-6.27,85.13"/><path class="cls-40" d="M2445.74,326.24c0,33.19,7.94,136.35,25.25,163.76v27.41H2332.48V490c17.31-27.41,25.25-130.57,25.25-163.76Z"/><line class="cls-40" x1="2470.99" y1="490" x2="2332.48" y2="490"/><line class="cls-40" x1="2588.58" y1="490" x2="2483.25" y2="490"/><path class="cls-40" d="M2370.71,326.24c0-11.16,5.55-31.64,23.81-36.79s32.76.73,60.22-6.58l32.84-10c27.5-9.89,59.39-18,62,9.38,2.92,30-23.69,29.26-36,30.29-13.71,1.16-52.72,0-64.26,0S2432,319,2432,326.24Z"/><path class="cls-40" d="M2550.72,261.4c11.81,0,36.93-3.87,36.93,23.83,0,20.19-14.87,27.92-27.53,27.92-10.9,0-9.4,13.09-9.4,13.09"/><circle class="cls-41" cx="2499.97" cy="849.74" r="12.8"/><circle class="cls-41" cx="2499.97" cy="849.74" r="63.99"/><circle class="cls-42" cx="2499.97" cy="849.74" r="147.18"/><path class="cls-9" d="M2509.65,866.4a19.28,19.28,0,0,1-19.32,0l-19.15,33.18a57.54,57.54,0,0,0,57.71-.08Z"/><path class="cls-9" d="M2480.69,849.73a19.26,19.26,0,0,1,9.64-16.69l-19.15-33.18a57.53,57.53,0,0,0-28.79,50l38.3-.1Z"/><path class="cls-9" d="M2528.63,799.79l-9.53,16.61L2509.57,833a19.48,19.48,0,0,1,7,6.93,19.15,19.15,0,0,1,2.67,9.79h38.31a57.26,57.26,0,0,0-8-29.25A57.87,57.87,0,0,0,2528.63,799.79Z"/><path class="cls-9" d="M2568.27,732.86l-.3-.9-32.83,56.86a70.32,70.32,0,0,1,35.22,60.92H2636A134.67,134.67,0,0,0,2568.27,732.86Z"/><path class="cls-9" d="M2364.61,849l-.64.72h65.67a70.28,70.28,0,0,1,35.14-61L2432,732A134.66,134.66,0,0,0,2364.61,849Z"/><path class="cls-9" d="M2567,967.32l.94.19-32.83-56.86a70.29,70.29,0,0,1-70.36,0L2432,967.51A134.64,134.64,0,0,0,2567,967.32Z"/><circle class="cls-23" cx="1618.77" cy="467.53" r="34"/><path class="cls-23" d="M1652.77,467.53a34,34,0,0,0-34,34A34,34,0,0,0,1652.77,467.53Z"/><path class="cls-23" d="M1618.77,433.53a34,34,0,0,0-34,34A34,34,0,0,0,1618.77,433.53Z"/><path class="cls-23" d="M1652.77,467.53a34,34,0,0,0-34-34A34,34,0,0,0,1652.77,467.53Z"/><path class="cls-23" d="M1584.77,467.53a34,34,0,0,0,34,34A34,34,0,0,0,1584.77,467.53Z"/><line class="cls-23" x1="1618.77" y1="433.53" x2="1618.77" y2="501.53"/><line class="cls-23" x1="1652.77" y1="467.53" x2="1584.77" y2="467.53"/><circle class="cls-23" cx="1704.62" cy="467.53" r="34"/><path class="cls-23" d="M1738.62,467.53a34,34,0,0,0-34,34A34,34,0,0,0,1738.62,467.53Z"/><path class="cls-23" d="M1704.62,433.53a34,34,0,0,0-34,34A34,34,0,0,0,1704.62,433.53Z"/><path class="cls-23" d="M1738.62,467.53a34,34,0,0,0-34-34A34,34,0,0,0,1738.62,467.53Z"/><path class="cls-23" d="M1670.62,467.53a34,34,0,0,0,34,34A34,34,0,0,0,1670.62,467.53Z"/><line class="cls-23" x1="1704.62" y1="433.53" x2="1704.62" y2="501.53"/><line class="cls-23" x1="1738.62" y1="467.53" x2="1670.62" y2="467.53"/><circle class="cls-23" cx="1790.47" cy="467.53" r="34"/><path class="cls-23" d="M1824.47,467.53a34,34,0,0,0-34,34A34,34,0,0,0,1824.47,467.53Z"/><path class="cls-23" d="M1790.47,433.53a34,34,0,0,0-34,34A34,34,0,0,0,1790.47,433.53Z"/><path class="cls-23" d="M1824.47,467.53a34,34,0,0,0-34-34A34,34,0,0,0,1824.47,467.53Z"/><path class="cls-23" d="M1756.47,467.53a34,34,0,0,0,34,34A34,34,0,0,0,1756.47,467.53Z"/><line class="cls-23" x1="1790.47" y1="433.53" x2="1790.47" y2="501.53"/><line class="cls-23" x1="1824.47" y1="467.53" x2="1756.47" y2="467.53"/><circle class="cls-23" cx="1876.32" cy="467.53" r="34"/><path class="cls-23" d="M1910.32,467.53a34,34,0,0,0-34,34A34,34,0,0,0,1910.32,467.53Z"/><path class="cls-23" d="M1876.32,433.53a34,34,0,0,0-34,34A34,34,0,0,0,1876.32,433.53Z"/><path class="cls-23" d="M1910.32,467.53a34,34,0,0,0-34-34A34,34,0,0,0,1910.32,467.53Z"/><path class="cls-23" d="M1842.32,467.53a34,34,0,0,0,34,34A34,34,0,0,0,1842.32,467.53Z"/><line class="cls-23" x1="1876.32" y1="433.53" x2="1876.32" y2="501.53"/><line class="cls-23" x1="1910.32" y1="467.53" x2="1842.32" y2="467.53"/><line class="cls-23" x1="1124.11" y1="1014.62" x2="1124.11" y2="1082.62"/><line class="cls-23" x1="1158.11" y1="1048.62" x2="1073.11" y2="1048.62"/><circle class="cls-23" cx="1124.11" cy="1048.62" r="34"/><line class="cls-23" x1="1124.11" y1="946.62" x2="1124.11" y2="1014.62"/><line class="cls-23" x1="1158.11" y1="980.62" x2="1073.11" y2="980.62"/><circle class="cls-23" cx="1124.11" cy="980.62" r="34"/><line class="cls-23" x1="1192.11" y1="1014.62" x2="1192.11" y2="1082.62"/><line class="cls-23" x1="1243.11" y1="1048.62" x2="1158.11" y2="1048.62"/><circle class="cls-23" cx="1192.11" cy="1048.62" r="34"/><line class="cls-23" x1="1192.11" y1="946.62" x2="1192.11" y2="1014.62"/><line class="cls-23" x1="1243.11" y1="980.62" x2="1158.11" y2="980.62"/><circle class="cls-23" cx="1192.11" cy="980.62" r="34"/><polygon class="cls-10" points="1232.7 294.87 1214.6 294.8 1214.56 305 1232.7 305.07 1232.7 294.87"/><polygon class="cls-10" points="1243 294.91 1243 305.11 1295.68 305.33 1295.72 295.13 1243 294.91"/><polygon class="cls-10" points="1293.48 262.25 1275.38 262.18 1275.34 272.38 1293.48 272.45 1293.48 262.25"/><polygon class="cls-10" points="1303.78 262.3 1303.78 272.5 1356.46 272.72 1356.5 262.52 1303.78 262.3"/><polygon class="cls-10" points="1317.91 848.05 1299.81 847.98 1299.77 858.18 1317.91 858.25 1317.91 848.05"/><polygon class="cls-10" points="1328.2 848.1 1328.2 858.3 1380.89 858.52 1380.93 848.32 1328.2 848.1"/><polygon class="cls-10" points="1378.69 815.43 1360.59 815.36 1360.55 825.56 1378.69 825.63 1378.69 815.43"/><polygon class="cls-10" points="1388.98 815.48 1388.98 825.68 1441.67 825.9 1441.71 815.7 1388.98 815.48"/><polygon class="cls-10" points="847.71 897.98 829.61 897.91 829.57 908.11 847.71 908.18 847.71 897.98"/><polygon class="cls-10" points="858 898.02 858 908.23 910.69 908.45 910.73 898.25 858 898.02"/><polygon class="cls-10" points="908.49 865.36 890.39 865.29 890.35 875.49 908.49 875.56 908.49 865.36"/><polygon class="cls-10" points="918.78 865.41 918.78 875.61 971.47 875.83 971.51 865.63 918.78 865.41"/><circle class="cls-23" cx="1283.31" cy="527.78" r="51"/><polygon class="cls-23" points="1289.43 517.19 1277.2 517.19 1271.08 527.78 1277.2 538.38 1289.43 538.38 1295.55 527.78 1289.43 517.19"/><path class="cls-43" d="M1267.55,479.29a51.07,51.07,0,0,0-34.12,37.9h56Z"/><path class="cls-44" d="M1233.43,517.19a50.8,50.8,0,0,0,15.79,48.45l28-48.45Z"/><path class="cls-43" d="M1249.22,565.63a50.77,50.77,0,0,0,49.86,10.64l-28-48.49Z"/><path class="cls-44" d="M1333.2,538.38h-56l21.88,37.89A51.08,51.08,0,0,0,1333.2,538.38Z"/><path class="cls-43" d="M1317.4,489.93l-28,48.45h43.77a51.37,51.37,0,0,0,1.11-10.6A50.79,50.79,0,0,0,1317.4,489.93Z"/><path class="cls-44" d="M1317.39,489.91a50.78,50.78,0,0,0-49.84-10.62l28,48.49Z"/><rect class="cls-9" x="1214.08" y="365.63" width="136" height="78.2"/><rect class="cls-2" x="1226.17" y="376.34" width="27.2" height="27.2"/><rect x="1226.17" y="420.69" width="115.6" height="6.8"/><rect class="cls-45" x="1273.77" y="376.34" width="68" height="6.8"/><circle class="cls-46" cx="2055.27" cy="204.38" r="34"/><line class="cls-46" x1="2055.27" y1="160.18" x2="2055.27" y2="132.98"/><line class="cls-46" x1="2033.17" y1="166.11" x2="2019.57" y2="142.55"/><line class="cls-46" x1="2016.99" y1="182.28" x2="1993.44" y2="168.68"/><line class="cls-46" x1="2011.07" y1="204.38" x2="1983.87" y2="204.38"/><line class="cls-46" x1="2016.99" y1="226.48" x2="1993.44" y2="240.08"/><line class="cls-46" x1="2033.17" y1="242.66" x2="2019.57" y2="266.22"/><line class="cls-46" x1="2055.27" y1="248.58" x2="2055.27" y2="275.78"/><line class="cls-46" x1="2077.37" y1="242.66" x2="2090.97" y2="266.22"/><line class="cls-46" x1="2093.55" y1="226.48" x2="2117.1" y2="240.08"/><line class="cls-46" x1="2099.47" y1="204.38" x2="2126.67" y2="204.38"/><line class="cls-46" x1="2093.55" y1="182.28" x2="2117.1" y2="168.68"/><line class="cls-46" x1="2077.37" y1="166.11" x2="2090.97" y2="142.55"/><path class="cls-47" d="M2073.41,1038.18a34,34,0,1,1-34-34"/><polyline class="cls-48" points="2039.41 1038.18 2073.41 1004.18 2073.41 1027.01"/><line class="cls-47" x1="2050.58" y1="1004.18" x2="2073.41" y2="1004.18"/><path class="cls-47" d="M1124.11,858.52a34,34,0,1,0,34-34"/><polyline class="cls-48" points="1158.11 858.52 1124.11 824.52 1124.11 847.34"/><line class="cls-47" x1="1146.94" y1="824.52" x2="1124.11" y2="824.52"/><rect x="2659.89" y="564.71" width="120.99" height="13.22"/><rect x="463.03" y="422.62" width="120.99" height="13.22"/><path class="cls-1" d="M1773.89,330.81c-1.92-4.7-5-8.6-5.35-14.94s-4.79-12-9.23-14.63c-4-2.4-6.69-4.39-6.39-10.34.4-8-.78-8.49-4.22-13.11-10-13.44-30.44-13.37-38.28-12.89-7.34.44-7.93,6.54-14.87,6.34s-11.7-6.54-8.53-7.93,7.74-5.95,9.52-8.53,4-9.92,5.36-14.48a26.88,26.88,0,0,0,9.32-2.38c2.18-1.19,2.58-2,3.17-5s10.31-16.46,22-15.27c-.27,1.4-2,2.61-2.53,4.19a35.78,35.78,0,0,1-11.68,15.34c7,5.09,17.93,11.07,26.84,12.08,9.84,1.12,15.79-3.05,34-11.18,25.63-11.45,34.88-16.11,46.53-16.11,17.37,0,28.41,12.34,36.74,23.45,8.91,11.87,7.74,15.47,17,24.42,2.57,2.5,12.41,11.28,31.84,11.28,21,0,37.1-15.33,33.47-40.36,10,17.55,3.4,40-17.89,51.9-16.15,9-30.45,2.74-59.06,2.23-13.44,11-23.55,16.56-31.31,16.56,0,0-17.43,39.48-16.84,48-11.1,5-61.48,25-64.85,26.18s-10.31,1.19-11.11-3.37c3.77-2.58,4.17-2.38,7.54-3s20-5.55,30.15-12.09,27.37-15.47,27.37-15.47,8.92-42.45-13.69-52.17-21.82,7.74-21.82,9.92-.79,15.67.4,18.25c0,0-.15,1.44,1.12,1.58s3-.29,3.34,2.53c1.86.23,5.21-.59,5.81,1.42s-2.46,4.16-4,4.38c.67,1.64,6.1.08,7.59,1.42s-.07,3.12-2.23,3.2S1779,343.19,1773.89,330.81Z"/><rect class="cls-9" x="1328.91" y="911.16" width="99.55" height="171.5" rx="13.6"/><rect class="cls-2" x="1369.3" y="901.37" width="18.78" height="85.95" transform="translate(2323.04 -434.34) rotate(90)"/><rect class="cls-2" x="1335.71" y="985.3" width="17" height="17"/><rect class="cls-2" x="1335.71" y="1008.38" width="17" height="17"/><rect class="cls-2" x="1335.71" y="1031.46" width="17" height="17"/><rect class="cls-2" x="1358.87" y="985.3" width="17" height="17"/><rect class="cls-2" x="1358.87" y="1008.38" width="17" height="17"/><rect class="cls-2" x="1358.87" y="1031.46" width="17" height="17"/><rect class="cls-2" x="1358.87" y="1054.54" width="17" height="17"/><rect class="cls-2" x="1382.03" y="985.3" width="17" height="17"/><rect class="cls-2" x="1382.03" y="1008.38" width="17" height="17"/><rect class="cls-2" x="1382.03" y="1031.46" width="17" height="17"/><rect class="cls-2" x="1404.66" y="985.3" width="17" height="17"/><rect class="cls-2" x="1335.71" y="955.92" width="10.2" height="10.2"/><rect class="cls-2" x="1350.86" y="955.92" width="10.2" height="10.2"/><rect class="cls-2" x="1366.01" y="955.92" width="10.2" height="10.2"/><rect class="cls-2" x="1411.46" y="955.92" width="10.2" height="10.2"/><rect class="cls-2" x="1396.31" y="955.92" width="10.2" height="10.2"/><rect class="cls-2" x="1381.16" y="955.92" width="10.2" height="10.2"/><rect class="cls-2" x="1404.66" y="1008.38" width="17" height="17"/><rect class="cls-2" x="1404.66" y="1031.46" width="17" height="37.4"/></g></svg>